<svg width="43" height="43" viewBox="0 0 43 43" fill="none" xmlns="http://www.w3.org/2000/svg">
<circle cx="10" cy="17" r="3.25" stroke="black" stroke-width="1.5"/>
<path d="M5 34.9994V26.5027C5 24.438 6.67381 22.7642 8.73856 22.7642H12.5267C12.8324 22.7642 13.1369 22.7267 13.4334 22.6525L17.2796 21.691C18.0249 21.5047 18.6948 21.0932 19.198 20.5126L21.9635 17.3217C22.4621 16.7463 23.3166 16.6448 23.9361 17.0873V17.0873C24.6317 17.5842 24.7609 18.5662 24.2175 19.226L20.9514 23.192C20.6299 23.5824 20.2324 23.9036 19.7831 24.136L17.5569 25.2874C16.3155 25.9296 15.5359 27.2105 15.5359 28.6081V34.8295" stroke="black" stroke-width="1.5" stroke-linecap="round"/>
<path d="M7.88889 10.8889V9H37.6275V28.2026M19.4052 29.2222H39.3268V31.9412H19.4052" stroke="black" stroke-width="1.5" stroke-linecap="round" stroke-linejoin="round"/>
<rect x="26.2418" y="26.334" width="7.13725" height="3.05882" rx="0.679739" fill="black"/>
</svg>
