<svg width="43" height="44" viewBox="0 0 43 44" fill="none" xmlns="http://www.w3.org/2000/svg">
<path d="M13 25.5H19C20.3261 25.5 21.5979 26.0268 22.5355 26.9645C23.4732 27.9021 24 29.1739 24 30.5C24 30.7652 23.8946 31.0196 23.7071 31.2071C23.5196 31.3946 23.2652 31.5 23 31.5H9C8.73478 31.5 8.48043 31.3946 8.29289 31.2071C8.10536 31.0196 8 30.7652 8 30.5C8 29.1739 8.52678 27.9021 9.46447 26.9645C10.4021 26.0268 11.6739 25.5 13 25.5V25.5Z" stroke="black" stroke-width="1.5" stroke-linecap="round" stroke-linejoin="round"/>
<path d="M16 21.5C18.2091 21.5 20 19.7091 20 17.5C20 15.2909 18.2091 13.5 16 13.5C13.7909 13.5 12 15.2909 12 17.5C12 19.7091 13.7909 21.5 16 21.5Z" stroke="black" stroke-width="1.5" stroke-linecap="round" stroke-linejoin="round"/>
<path d="M28.1907 26.5V17.6333H31.8387C32.624 17.6333 33.2953 17.76 33.8527 18.0133C34.4184 18.2667 34.8533 18.6298 35.1573 19.1027C35.4613 19.5756 35.6133 20.1371 35.6133 20.7873C35.6133 21.4376 35.4613 21.9991 35.1573 22.472C34.8533 22.9449 34.4184 23.308 33.8527 23.5613C33.2953 23.8147 32.624 23.9413 31.8387 23.9413H29.1027L29.8373 23.1687V26.5H28.1907ZM29.8373 23.346L29.1027 22.548H31.7627C32.4889 22.548 33.0336 22.396 33.3967 22.092C33.7682 21.7796 33.954 21.3447 33.954 20.7873C33.954 20.2216 33.7682 19.7867 33.3967 19.4827C33.0336 19.1787 32.4889 19.0267 31.7627 19.0267H29.1027L29.8373 18.216V23.346Z" fill="black"/>
</svg>
