<svg width="43" height="44" viewBox="0 0 43 44" fill="none" xmlns="http://www.w3.org/2000/svg">
<path d="M13 25.5H19C20.3261 25.5 21.5979 26.0268 22.5355 26.9645C23.4732 27.9021 24 29.1739 24 30.5C24 30.7652 23.8946 31.0196 23.7071 31.2071C23.5196 31.3946 23.2652 31.5 23 31.5H9C8.73478 31.5 8.48043 31.3946 8.29289 31.2071C8.10536 31.0196 8 30.7652 8 30.5C8 29.1739 8.52678 27.9021 9.46447 26.9645C10.4021 26.0268 11.6739 25.5 13 25.5V25.5Z" stroke="black" stroke-width="1.5" stroke-linecap="round" stroke-linejoin="round"/>
<path d="M16 21.5C18.2091 21.5 20 19.7091 20 17.5C20 15.2909 18.2091 13.5 16 13.5C13.7909 13.5 12 15.2909 12 17.5C12 19.7091 13.7909 21.5 16 21.5Z" stroke="black" stroke-width="1.5" stroke-linecap="round" stroke-linejoin="round"/>
<path d="M28.1907 26.5V17.6333H29.8373V25.1067H34.4733V26.5H28.1907Z" fill="black"/>
</svg>
