<svg width="43" height="43" viewBox="0 0 43 43" fill="none" xmlns="http://www.w3.org/2000/svg">
<path d="M13.5 21H19M23.5 21H29" stroke="black" stroke-width="1.4" stroke-linecap="round" stroke-linejoin="round"/>
<circle cx="12.5" cy="9.5" r="2.75" fill="#E6D9FD" stroke="black" stroke-width="1.5"/>
<path d="M18.5 31.5L17.4181 36.549C17.1919 37.6046 16.1195 38.2484 15.0814 37.9518V37.9518C14.1777 37.6936 13.6072 36.8034 13.7501 35.8744L14.125 33.4372C14.4506 31.3208 11.672 30.242 10.4842 32.0237L8.49541 35.0069C7.94566 35.8315 6.83151 36.0543 6.00688 35.5046V35.5046C5.1769 34.9513 4.95746 33.8273 5.51837 33.0024L12.6539 22.509C12.8794 22.1774 13 21.7855 13 21.3844V20.6515C13 19.3227 11.7282 18.3634 10.4506 18.7284L7.7359 19.504C6.7498 19.7858 5.70895 19.2724 5.32806 18.3202V18.3202C4.88664 17.2166 5.49757 15.9694 6.64175 15.6476L11.9278 14.1609C12.3012 14.0559 12.636 13.8446 12.8914 13.5526L19.5 6M19.5 6L23.7625 14.5249C23.9181 14.8363 23.9898 15.1828 23.9705 15.5303L23.511 23.8023C23.5037 23.9338 23.5094 24.0657 23.528 24.196L25.2466 36.2264C25.3866 37.2059 26.2941 37.8866 27.2736 37.7466V37.7466C28.2345 37.6094 28.9114 36.7319 28.8001 35.7676L28.4509 32.7414C28.2102 30.6551 30.9369 29.6553 32.1019 31.4028L34.5236 35.0354C35.0486 35.8229 36.1355 35.9916 36.8745 35.4004V35.4004C37.5156 34.8875 37.6695 33.9751 37.2321 33.2803L29.7901 21.4607C29.6006 21.1597 29.5 20.8113 29.5 20.4556V20.4556C29.5 19.216 30.675 18.3133 31.8726 18.6327L35.1544 19.5078C36.1737 19.7797 37.2203 19.1737 37.4922 18.1544V18.1544C37.77 17.1124 37.1308 16.0472 36.0806 15.8021L30.8237 14.5755C30.6094 14.5255 30.4048 14.4405 30.2181 14.3238L26.9077 12.2548C26.6397 12.0873 26.4152 11.8587 26.2527 11.5878L23.029 6.21499C22.4607 5.26783 21.2322 4.96069 20.285 5.52899L19.5 6Z" stroke="black" stroke-width="1.5" stroke-linecap="round" stroke-linejoin="round"/>
<circle cx="29.5" cy="10.5" r="2.75" fill="#E6D9FD" stroke="black" stroke-width="1.5"/>
<path d="M19.5 25.5V19L19.0845 15.2606C19.0301 14.7708 19.1584 14.2782 19.4448 13.8773L21.5 11" stroke="black" stroke-width="1.5" stroke-linecap="round" stroke-linejoin="round"/>
<circle cx="19" cy="28" r="1" fill="black"/>
</svg>
