<svg width="43" height="44" viewBox="0 0 43 44" fill="none" xmlns="http://www.w3.org/2000/svg">
<path d="M16.3696 13.8449L15.6322 13.9815L15.7261 14.4885L16.2332 14.5824L16.3696 13.8449ZM13.4918 18.4796L14.0915 18.0291L13.4918 17.231L12.8922 18.0291L13.4918 18.4796ZM10.6134 13.845L10.7501 14.5825L11.257 14.4885L11.3509 13.9815L10.6134 13.845ZM16.2332 14.5824C17.2447 14.7696 18.0107 15.6577 18.0107 16.7231H19.5107C19.5107 14.9214 18.2158 13.4239 16.5061 13.1074L16.2332 14.5824ZM18.0107 16.7231C18.0107 17.9255 17.036 18.9002 15.8336 18.9002V20.4002C17.8644 20.4002 19.5107 18.7539 19.5107 16.7231H18.0107ZM15.8336 18.9002C15.1219 18.9002 14.4899 18.5595 14.0915 18.0291L12.8922 18.9301C13.5618 19.8214 14.6302 20.4002 15.8336 20.4002V18.9002ZM12.8922 18.0291C12.4937 18.5595 11.8618 18.9002 11.1501 18.9002V20.4002C12.3535 20.4002 13.4219 19.8214 14.0915 18.9301L12.8922 18.0291ZM11.1501 18.9002C9.9477 18.9002 8.97296 17.9255 8.97296 16.7231H7.47296C7.47296 18.7539 9.11927 20.4002 11.1501 20.4002V18.9002ZM8.97296 16.7231C8.97296 15.6578 9.73875 14.7699 10.7501 14.5825L10.4768 13.1076C8.76747 13.4243 7.47296 14.9217 7.47296 16.7231H8.97296ZM11.3509 13.9815C11.5381 12.9701 12.4262 12.2041 13.4915 12.2041V10.7041C11.69 10.7041 10.1924 11.9989 9.87594 13.7085L11.3509 13.9815ZM13.4915 12.2041C14.5569 12.2041 15.4449 12.97 15.6322 13.9815L17.1071 13.7083C16.7906 11.9988 15.293 10.7041 13.4915 10.7041V12.2041Z" fill="black"/>
<path d="M18.5172 9.88987L18.6538 10.6273L19.1606 10.5335L19.2546 10.0267L18.5172 9.88987ZM24.273 9.88982L23.5356 10.0266L23.6296 10.5335L24.1365 10.6273L24.273 9.88982ZM21.3952 14.5247L21.9948 14.0741L21.3952 13.2761L20.7957 14.0741L21.3952 14.5247ZM19.2546 10.0267C19.4421 9.01558 20.33 8.25 21.3951 8.25V6.75C19.594 6.75 18.0968 8.04415 17.7797 9.75307L19.2546 10.0267ZM21.3951 8.25C22.4602 8.25 23.348 9.01556 23.5356 10.0266L25.0104 9.753C24.6934 8.04411 23.1962 6.75 21.3951 6.75V8.25ZM24.1365 10.6273C25.148 10.8145 25.914 11.7026 25.914 12.768H27.414C27.414 10.9664 26.1192 9.46881 24.4095 9.15234L24.1365 10.6273ZM25.914 12.768C25.914 13.9704 24.9393 14.9451 23.7369 14.9451V16.4451C25.7677 16.4451 27.414 14.7988 27.414 12.768H25.914ZM23.7369 14.9451C23.0252 14.9451 22.3933 14.6044 21.9948 14.0741L20.7957 14.9752C21.4653 15.8663 22.5336 16.4451 23.7369 16.4451V14.9451ZM20.7957 14.0741C20.3972 14.6044 19.7653 14.9451 19.0536 14.9451V16.4451C20.2569 16.4451 21.3252 15.8663 21.9948 14.9752L20.7957 14.0741ZM19.0536 14.9451C17.8512 14.9451 16.8765 13.9704 16.8765 12.768H15.3765C15.3765 14.7988 17.0228 16.4451 19.0536 16.4451V14.9451ZM16.8765 12.768C16.8765 11.7027 17.6424 10.8147 18.6538 10.6273L18.3806 9.15242C16.6711 9.46904 15.3765 10.9665 15.3765 12.768H16.8765Z" fill="black"/>
<path d="M26.4201 13.845L26.5567 14.5825L27.0637 14.4885L27.1576 13.9815L26.4201 13.845ZM32.1763 13.8449L31.4389 13.9814L31.5328 14.4885L32.0399 14.5824L32.1763 13.8449ZM29.2986 18.4796L29.8982 18.0291L29.2986 17.2309L28.6989 18.0291L29.2986 18.4796ZM27.1576 13.9815C27.3448 12.9701 28.2329 12.2041 29.2982 12.2041V10.7041C27.4967 10.7041 25.9991 11.9989 25.6826 13.7085L27.1576 13.9815ZM29.2982 12.2041C30.3636 12.2041 31.2516 12.97 31.4389 13.9814L32.9138 13.7083C32.5972 11.9988 31.0997 10.7041 29.2982 10.7041V12.2041ZM32.0399 14.5824C33.0514 14.7696 33.8175 15.6576 33.8175 16.7231H35.3175C35.3175 14.9214 34.0225 13.4238 32.3128 13.1074L32.0399 14.5824ZM33.8175 16.7231C33.8175 17.9255 32.8427 18.9002 31.6403 18.9002V20.4002C33.6712 20.4002 35.3175 18.7539 35.3175 16.7231H33.8175ZM31.6403 18.9002C30.9286 18.9002 30.2967 18.5595 29.8982 18.0291L28.6989 18.93C29.3685 19.8213 30.4369 20.4002 31.6403 20.4002V18.9002ZM28.6989 18.0291C28.3005 18.5595 27.6685 18.9002 26.9568 18.9002V20.4002C28.1602 20.4002 29.2286 19.8213 29.8982 18.93L28.6989 18.0291ZM26.9568 18.9002C25.7544 18.9002 24.7797 17.9255 24.7797 16.7231H23.2797C23.2797 18.7539 24.926 20.4002 26.9568 20.4002V18.9002ZM24.7797 16.7231C24.7797 15.6578 25.5454 14.7699 26.5567 14.5825L26.2834 13.1076C24.5742 13.4243 23.2797 14.9217 23.2797 16.7231H24.7797Z" fill="black"/>
<path d="M13.4917 24.0301V17.381M13.4917 15.4053V17.381M11.516 16.0638L13.4917 17.381M13.4917 17.381L15.4674 16.0638" stroke="black" stroke-width="1.5" stroke-linecap="round"/>
<path d="M21.3951 19.8501V13.4259M21.3951 11.4502V13.4259M19.4195 12.1088L21.3951 13.4259M21.3951 13.4259L23.3708 12.1088" stroke="black" stroke-width="1.5" stroke-linecap="round"/>
<path d="M29.2983 24.0301V17.381M29.2983 15.4053V17.381M27.3226 16.0638L29.2983 17.381M29.2983 17.381L31.274 16.0638" stroke="black" stroke-width="1.5" stroke-linecap="round"/>
<circle cx="21.5002" cy="29.9205" r="9.43421" stroke="black" stroke-width="1.5"/>
<path d="M18.3174 21.6484V21.9215C18.3174 22.4737 18.7651 22.9215 19.3174 22.9215H19.8635C20.4158 22.9215 20.8635 23.3692 20.8635 23.9215V25.0533C20.8635 25.3185 20.7581 25.5729 20.5706 25.7604L18.6103 27.7207C18.4228 27.9082 18.3174 28.1626 18.3174 28.4278V29.5089C18.3174 29.7741 18.2121 30.0285 18.0245 30.216L17.3373 30.9032C17.1497 31.0908 16.8954 31.1961 16.6302 31.1961H12.2253M29.1381 35.0152L26.1514 32.0285C26.0233 31.9003 25.8627 31.8094 25.6869 31.7655L23.6782 31.2633C23.5024 31.2194 23.3418 31.1284 23.2137 31.0003L22.0797 29.8663C21.7426 29.5292 21.6903 29.0011 21.9547 28.6045L22.4761 27.8224C22.6616 27.5442 22.9738 27.3771 23.3082 27.3771H26.9925C27.1478 27.3771 27.3009 27.3409 27.4397 27.2715L29.7747 26.104" stroke="black" stroke-width="1.5" stroke-linecap="round"/>
<path d="M22.773 38.8343L22.1753 35.8457C22.1496 35.7176 22.0992 35.5958 22.0267 35.4871L21.1603 34.1875C20.9748 33.9093 20.6626 33.7422 20.3283 33.7422H19.077C18.9952 33.7422 18.9138 33.7522 18.8345 33.772L16.9404 34.2456C16.6087 34.3285 16.3424 34.5751 16.2343 34.8995L15.7713 36.2882" stroke="black" stroke-width="1.5" stroke-linecap="round"/>
<path d="M39.6051 20.8692C39.6051 11.4949 31.4991 3.89551 21.4998 3.89551C11.5006 3.89551 3.39456 11.4949 3.39456 20.8692" stroke="black" stroke-width="1.5" stroke-linecap="round"/>
</svg>
