<svg width="43" height="44" viewBox="0 0 43 44" fill="none" xmlns="http://www.w3.org/2000/svg">
<path d="M23 40.2H21.5C20.8373 40.2 20.3 39.6627 20.3 39V38.5C20.3 36.9536 19.0464 35.7 17.5 35.7H17C16.3373 35.7 15.8 35.1627 15.8 34.5C15.8 32.9536 14.5464 31.7 13 31.7H12.5C11.8373 31.7 11.3 31.1627 11.3 30.5V29C11.3 27.4536 10.0464 26.2 8.5 26.2H7C6.33726 26.2 5.8 25.6627 5.8 25V19.5C5.8 18.8373 6.33726 18.3 7 18.3H7.5C9.0464 18.3 10.3 17.0464 10.3 15.5V14.5C10.3 13.8373 10.8373 13.3 11.5 13.3H13C14.5464 13.3 15.8 12.0464 15.8 10.5V10C15.8 9.33726 16.3373 8.8 17 8.8H17.5C19.0464 8.8 20.3 7.5464 20.3 6V5.5C20.3 4.83726 20.8373 4.3 21.5 4.3H23C23.6627 4.3 24.2 4.83726 24.2 5.5V6C24.2 7.5464 25.4536 8.8 27 8.8H27.5C28.1627 8.8 28.7 9.33726 28.7 10V10.5C28.7 12.0464 29.9536 13.3 31.5 13.3H32C32.6627 13.3 33.2 13.8373 33.2 14.5V15.5C33.2 17.0464 34.4536 18.3 36 18.3H37C37.6627 18.3 38.2 18.8373 38.2 19.5V25C38.2 25.6627 37.6627 26.2 37 26.2H36C34.4536 26.2 33.2 27.4536 33.2 29V30.5C33.2 31.1627 32.6627 31.7 32 31.7H31.5C29.9536 31.7 28.7 32.9536 28.7 34.5C28.7 35.1627 28.1627 35.7 27.5 35.7H27C25.4536 35.7 24.2 36.9536 24.2 38.5V39C24.2 39.6627 23.6627 40.2 23 40.2Z" stroke="black" stroke-width="1.6" stroke-linecap="round" stroke-linejoin="round"/>
<mask id="path-2-inside-1_159_1016" fill="white">
<rect x="19" y="19" width="6" height="6" rx="1"/>
</mask>
<rect x="19" y="19" width="6" height="6" rx="1" fill="black" stroke="black" stroke-width="2.8" mask="url(#path-2-inside-1_159_1016)"/>
</svg>
