<svg width="49" height="49" viewBox="0 0 49 49" fill="none" xmlns="http://www.w3.org/2000/svg">
<path d="M18.3743 38.7917H10.2077C9.6662 38.7917 9.14689 38.5766 8.76401 38.1937C8.38112 37.8108 8.16602 37.2915 8.16602 36.75V18.7892C8.16602 18.524 8.27137 18.2696 8.45891 18.0821L20.1231 6.41789C20.3107 6.23036 20.565 6.125 20.8302 6.125H32.666C33.2075 6.125 33.7268 6.3401 34.1097 6.72299C34.4926 7.10588 34.7077 7.62518 34.7077 8.16667V18.375" stroke="#262C51" stroke-width="1.5" stroke-linecap="round" stroke-linejoin="round"/>
<path d="M20.416 18.375V6.125L8.16602 18.375H20.416Z" stroke="#262C51" stroke-width="1.5" stroke-linecap="round" stroke-linejoin="round"/>
<path d="M22 34.9142V40C22 40.5523 22.4477 41 23 41H28.0747C28.3465 41 28.6065 40.8894 28.795 40.6936L40.7916 28.2357C41.1804 27.8319 41.1614 27.1875 40.7495 26.8072L35.706 22.1517C35.3116 21.7876 34.7001 21.7999 34.3206 22.1794L22.2929 34.2071C22.1054 34.3946 22 34.649 22 34.9142Z" stroke="black" stroke-width="1.5"/>
</svg>
