<svg width="49" height="49" viewBox="0 0 49 49" fill="none" xmlns="http://www.w3.org/2000/svg">
<path d="M18.3743 38.7917H10.2077C9.6662 38.7917 9.14689 38.5766 8.76401 38.1937C8.38112 37.8108 8.16602 37.2915 8.16602 36.75V18.7892C8.16602 18.524 8.27137 18.2696 8.45891 18.0821L20.1231 6.41789C20.3107 6.23036 20.565 6.125 20.8302 6.125H32.666C33.2075 6.125 33.7268 6.3401 34.1097 6.72299C34.4926 7.10588 34.7077 7.62518 34.7077 8.16667V18.375" stroke="#262C51" stroke-width="1.5" stroke-linecap="round" stroke-linejoin="round"/>
<path d="M20.416 18.375V6.125L8.16602 18.375H20.416Z" stroke="#262C51" stroke-width="1.5" stroke-linecap="round" stroke-linejoin="round"/>
<mask id="mask0_228_59" style="mask-type:luminance" maskUnits="userSpaceOnUse" x="21" y="40" width="18" height="3">
<path d="M38.377 42.4213C38.377 41.1428 37.3405 40.1063 36.062 40.1063H23.3299C22.0514 40.1063 21.0149 41.1428 21.0149 42.4213C21.0149 42.7409 21.274 43 21.5937 43H37.7982C38.1178 43 38.377 42.7409 38.377 42.4213Z" fill="white"/>
</mask>
<g mask="url(#mask0_228_59)">
<path d="M38.377 42.4213C38.377 41.1428 37.3405 40.1063 36.062 40.1063H23.3299C22.0514 40.1063 21.0149 41.1428 21.0149 42.4213C21.0149 42.7409 21.274 43 21.5937 43H37.7982C38.1178 43 38.377 42.7409 38.377 42.4213Z" stroke="black" stroke-width="2.89367"/>
</g>
<path d="M36.4492 40.2995C36.4492 38.5948 35.0673 37.2129 33.3626 37.2129H26.032C24.3273 37.2129 22.9454 38.5948 22.9454 40.2995C22.9454 40.7256 23.2909 41.0711 23.7171 41.0711H35.6776C36.1037 41.0711 36.4492 40.7256 36.4492 40.2995Z" stroke="black" stroke-width="1.5"/>
<mask id="mask1_228_59" style="mask-type:luminance" maskUnits="userSpaceOnUse" x="33" y="28" width="13" height="12">
<path d="M35.7738 28.5208C35.3972 28.1441 34.7864 28.1441 34.4098 28.5208L33.7185 29.2121C33.3418 29.5888 33.3418 30.1995 33.7185 30.5762L42.7232 39.5809C43.0999 39.9576 43.7107 39.9576 44.0873 39.5809L44.7786 38.8897C45.1553 38.513 45.1553 37.9023 44.7786 37.5256L35.7738 28.5208Z" fill="white"/>
</mask>
<g mask="url(#mask1_228_59)">
<path d="M35.7738 28.5208C35.3972 28.1441 34.7864 28.1441 34.4098 28.5208L33.7185 29.2121C33.3418 29.5888 33.3418 30.1995 33.7185 30.5762L42.7232 39.5809C43.0999 39.9576 43.7107 39.9576 44.0873 39.5809L44.7786 38.8897C45.1553 38.513 45.1553 37.9023 44.7786 37.5256L35.7738 28.5208Z" stroke="black" stroke-width="2.90674"/>
</g>
<mask id="mask2_228_59" style="mask-type:luminance" maskUnits="userSpaceOnUse" x="28" y="23" width="9" height="9">
<path d="M33.7536 23.3362L36.3102 25.8928C36.6868 26.2695 36.6868 26.8802 36.3102 27.2569L32.4295 31.1376C32.0528 31.5142 31.4421 31.5142 31.0654 31.1376L28.5088 28.581C28.1321 28.2043 28.1321 27.5936 28.5088 27.2169L32.3895 23.3362C32.7662 22.9596 33.3769 22.9596 33.7536 23.3362Z" fill="white"/>
</mask>
<g mask="url(#mask2_228_59)">
<path d="M33.7536 23.3362L36.3102 25.8928C36.6868 26.2695 36.6868 26.8802 36.3102 27.2569L32.4295 31.1376C32.0528 31.5142 31.4421 31.5142 31.0654 31.1376L28.5088 28.581C28.1321 28.2043 28.1321 27.5936 28.5088 27.2169L32.3895 23.3362C32.7662 22.9596 33.3769 22.9596 33.7536 23.3362Z" stroke="black" stroke-width="3"/>
</g>
<path d="M28.0677 27.2563L31.9367 31.1254C32.5035 31.6922 32.5035 32.6111 31.9367 33.1779C31.37 33.7447 30.451 33.7447 29.8842 33.1779L26.0151 29.3089C25.4484 28.7421 25.4484 27.8231 26.0151 27.2563C26.5819 26.6895 27.5009 26.6895 28.0677 27.2563Z" stroke="black" stroke-width="1.5"/>
<path d="M34.5966 20.835L38.357 24.5955C38.9538 25.1922 38.9538 26.1598 38.357 26.7566C37.7603 27.3534 36.7927 27.3534 36.1959 26.7566L32.4354 22.9961C31.8387 22.3993 31.8387 21.4318 32.4354 20.835C33.0322 20.2382 33.9998 20.2382 34.5966 20.835Z" stroke="black" stroke-width="1.5"/>
</svg>
