<svg width="286" height="116" viewBox="0 0 286 116" fill="none" xmlns="http://www.w3.org/2000/svg">
<path d="M52.0001 2.31928L13.6621 6.6163C6.46754 7.42268 1.67274 14.437 3.53351 21.4333L18.572 77.9772C21.5257 89.0826 36.9729 89.9004 41.0826 79.169L64.3821 18.3281C67.5568 10.038 60.822 1.33049 52.0001 2.31928Z" fill="url(#paint0_linear_957_809)"/>
<circle cx="63.8448" cy="74.7619" r="12.5335" transform="rotate(-66.3952 63.8448 74.7619)" fill="#FFDA06"/>
<path d="M119.234 31.5558C129.577 31.5558 137.086 36.6562 138.857 45.2987L127.381 47.6364C126.531 43.1735 122.847 40.9775 119.093 40.9775C115.196 40.9775 112.717 43.1027 112.717 45.7946C112.717 47.7073 113.567 49.1241 116.542 49.7616L126.389 51.9577C134.607 53.7995 139.424 58.2624 139.424 65.7715C139.424 75.9016 130.427 81.1437 119.872 81.1437C109.175 81.1437 100.391 76.0432 99.1157 66.7632L111.158 64.4255C112.363 69.3134 115.763 71.4386 120.509 71.4386C124.901 71.4386 127.523 69.4551 127.523 66.5507C127.523 64.4255 126.531 63.0795 123.13 62.3711L113.213 60.2459C106.412 58.6875 100.462 55.1455 100.462 46.503C100.462 37.2938 108.112 31.5558 119.234 31.5558ZM191.738 32.6184V80.0811H182.104L158.089 52.5952V80.0811H146.4V32.6184H156.105L180.12 60.9543V32.6184H191.738ZM217.937 42.8193V69.8802H226.934V80.0811H197.323V69.8802H206.319V42.8193H197.323V32.6184H226.934V42.8193H217.937ZM267.825 60.0334L279.301 62.3003C277.105 74.2014 267.542 81.1437 255.358 81.1437C241.26 81.1437 230.139 70.3052 230.139 56.3497C230.139 42.4651 241.26 31.5558 255.358 31.5558C267.046 31.5558 276.964 38.4981 279.231 49.7616L267.755 52.4535C266.267 45.5821 261.45 42.2526 255.358 42.2526C247.849 42.2526 241.827 48.274 241.827 56.3497C241.827 64.4255 247.849 70.5177 255.358 70.5177C261.379 70.5177 266.196 67.1174 267.825 60.0334Z" fill="#21345F"/>
<defs>
<linearGradient id="paint0_linear_957_809" x1="19.6778" y1="58.8493" x2="43.2911" y2="-49.3784" gradientUnits="userSpaceOnUse">
<stop stop-color="#11BCFF"/>
<stop offset="1" stop-color="#21345F"/>
</linearGradient>
</defs>
</svg>
