<svg width="24" height="22" viewBox="0 0 24 22" fill="none" xmlns="http://www.w3.org/2000/svg">
<g clip-path="url(#clip0_59_2751)">
<path d="M7.24901 12.2606C6.47505 11.0884 5.74773 10.0087 5.04637 8.91264C4.79117 8.514 4.58569 8.08192 4.38109 7.65336C4.07133 7.0048 4.30233 6.32456 4.90777 6.04296C5.51321 5.76136 6.17277 6.0236 6.48517 6.67524C7.08577 7.92748 7.85929 9.07104 8.68033 10.1851C8.69617 10.2067 8.71025 10.2291 8.74413 10.2797C9.96293 8.49464 10.8552 6.58548 11.5922 4.5474H11.264C7.92485 4.5474 4.58525 4.54828 1.24609 4.54696C0.548247 4.54696 0.0308075 4.08452 0.00132751 3.44388C-0.0299125 2.761 0.493687 2.22376 1.20561 2.22244C2.97661 2.21892 4.74761 2.22112 6.51861 2.22112C6.76457 2.22112 7.01053 2.22112 7.29697 2.22112C7.29697 1.85328 7.28861 1.496 7.29873 1.13872C7.32029 0.35332 8.07577 -0.18084 8.81805 0.0571995C9.28049 0.20592 9.60257 0.63272 9.62061 1.1286C9.62677 1.3046 9.62237 1.48104 9.62281 1.65704C9.62281 1.8326 9.62281 2.00772 9.62281 2.22068C9.73765 2.22068 9.83929 2.22068 9.94093 2.22068C11.8703 2.22068 13.8002 2.21716 15.7296 2.22244C16.5519 2.22464 17.1072 2.981 16.8608 3.7444C16.709 4.21564 16.2747 4.53772 15.7617 4.5452C15.2772 4.55224 14.7919 4.55884 14.3079 4.54168C14.102 4.53464 14.0215 4.6112 13.9603 4.79688C13.1771 7.1742 12.129 9.4248 10.7263 11.5038C10.5886 11.7075 10.4447 11.9073 10.278 12.1453C10.6546 12.5233 11.0238 12.9087 11.4101 13.277C11.671 13.526 11.9522 13.754 12.2298 13.9854C12.753 14.4214 12.8432 15.1188 12.4379 15.6314C12.0375 16.1379 11.334 16.2444 10.8148 15.8176C10.2238 15.3318 9.67561 14.7946 9.10977 14.2789C9.00065 14.1794 8.89681 14.0743 8.84313 14.0224C8.33669 14.4958 7.83333 14.9613 7.33525 15.4334C6.17541 16.533 4.94429 17.5415 3.57633 18.3753C3.28901 18.5504 2.98937 18.6591 2.64881 18.5926C2.15865 18.4972 1.79345 18.1258 1.70589 17.6396C1.62317 17.1807 1.85153 16.7314 2.26381 16.4432C3.04217 15.8994 3.84781 15.3833 4.56853 14.7695C5.51145 13.966 6.38265 13.079 7.24989 12.261L7.24901 12.2606Z" fill="#45AFA8"/>
<path d="M11.8308 20.7746C11.8665 20.6501 11.9003 20.467 11.9694 20.2985C13.5279 16.5171 15.0899 12.7367 16.6523 8.95707C16.8728 8.42423 17.2688 8.13251 17.7726 8.14615C18.3164 8.16111 18.671 8.44975 18.8756 8.94519C20.4394 12.734 22.0054 16.522 23.5678 20.3113C23.8437 20.9809 23.5885 21.6431 22.9716 21.901C22.3411 22.1645 21.7009 21.8724 21.4131 21.1847C21.128 20.5031 20.8438 19.8211 20.5696 19.1351C20.5089 18.9834 20.435 18.924 20.2638 18.9248C18.5984 18.9319 16.9335 18.9319 15.2681 18.9248C15.0983 18.924 15.0235 18.9816 14.9619 19.1343C14.6701 19.8607 14.3753 20.5863 14.0634 21.3039C13.8517 21.791 13.3778 22.0484 12.867 21.9921C12.3777 21.938 11.9738 21.567 11.8669 21.0698C11.8502 20.9928 11.8471 20.9132 11.8308 20.7746ZM19.5163 16.5946C18.9337 15.1844 18.3635 13.8041 17.7651 12.3556C17.1645 13.8111 16.5938 15.1936 16.0156 16.5946H19.5163Z" fill="#45AFA8"/>
</g>
<defs>
<clipPath id="clip0_59_2751">
<rect width="23.6782" height="22" fill="white"/>
</clipPath>
</defs>
</svg>
