<svg width="28" height="28" viewBox="0 0 28 28" fill="none" xmlns="http://www.w3.org/2000/svg">
<path d="M9.95866 3.76663H7.07866C5.28649 3.76663 4.38974 3.76663 3.70522 4.11541C3.1031 4.42219 2.61391 4.91138 2.30713 5.51351C1.95834 6.19802 1.95834 7.09477 1.95834 8.88695V21.0469C1.95834 22.8391 1.95834 23.7348 2.30713 24.4193C2.61391 25.0213 3.1031 25.5114 3.70522 25.8181C4.38906 26.1666 5.28473 26.1666 7.0734 26.1666H19.2433C21.0319 26.1666 21.9263 26.1666 22.6102 25.8181C23.2123 25.5114 23.7031 25.0209 24.0099 24.4188C24.3583 23.7349 24.3583 22.8402 24.3583 21.0516V18.1666M25.9583 10.1666V2.16663M25.9583 2.16663H17.9583M25.9583 2.16663L14.7583 13.3666" stroke="white" stroke-width="3" stroke-linecap="round" stroke-linejoin="round"/>
</svg>
