<svg width="22" height="22" viewBox="0 0 22 22" fill="none" xmlns="http://www.w3.org/2000/svg">
<g clip-path="url(#clip0_59_2745)">
<path d="M4.0755 9.16511C4.65055 9.17969 5.0918 8.72987 5.14969 8.06906L5.15183 8.04333C5.19857 7.50731 5.24703 6.95328 5.38339 6.44427C5.7123 5.21571 6.44729 4.10551 7.45329 3.31863C8.45372 2.53604 9.68142 2.10594 10.9126 2.10594C10.9194 2.10594 10.9263 2.10594 10.9331 2.10594C13.133 2.11451 14.8405 3.10894 16.0082 5.06091C16.684 6.19084 16.9439 7.39582 16.7801 8.64196C16.6574 9.57678 16.2389 10.4138 15.8045 11.1793C14.8984 12.7766 13.7282 14.3101 12.0099 16.1505C11.7436 16.4357 11.4563 16.6981 11.1518 16.9756C11.0759 17.0446 10.9987 17.1154 10.9211 17.1866C10.8847 17.1514 10.8478 17.1158 10.8105 17.0798C10.5772 16.8547 10.3358 16.6218 10.1012 16.3808C8.58279 14.8195 6.88082 12.9005 5.76676 10.5034C5.52147 9.97558 4.91556 9.75131 4.38768 9.99359C4.13339 10.1102 3.94086 10.3161 3.84609 10.5738C3.74918 10.8366 3.76333 11.1274 3.8864 11.3924C4.06736 11.7822 4.26719 12.199 4.50303 12.6064C5.8478 14.9263 7.66127 17.0742 10.211 19.3654C10.4683 19.5969 10.7337 19.7123 10.9949 19.7123C11.271 19.7123 11.5425 19.5832 11.7955 19.3251C11.9554 19.1617 12.1162 18.9983 12.2766 18.8354C13.0005 18.0999 13.7487 17.3396 14.4503 16.5562C16.0459 14.774 17.1741 13.1587 18 11.4734C18.4357 10.5849 18.9331 9.39067 18.9151 8.03261C18.8945 6.45242 18.4503 4.97558 17.5952 3.64324C16.7264 2.2899 15.4756 1.2423 13.9773 0.613226C12.4773 -0.0167051 10.8761 -0.164647 9.34695 0.185267C5.67628 1.02532 3.08923 4.24316 3.05621 8.01031C3.05063 8.67369 3.46959 9.14839 4.0755 9.16511Z" fill="#45AFA8"/>
<path d="M21.7801 20.3315C21.3616 19.5956 20.934 18.8491 20.5206 18.127C20.332 17.7972 20.1429 17.467 19.9542 17.1372C19.838 16.934 19.7222 16.7307 19.6064 16.5275C19.3363 16.0536 19.0571 15.5631 18.7779 15.0832C18.5524 14.6956 18.13 14.4927 17.7012 14.5665C17.2359 14.6467 16.8881 15.0039 16.8556 15.4361C16.8363 15.6917 16.8993 15.9777 17.0245 16.2011C17.5695 17.1776 18.1343 18.1638 18.6806 19.1171C18.8315 19.3804 18.9825 19.6437 19.133 19.9074H2.84054C2.99277 19.6411 3.145 19.3748 3.29766 19.1089C3.84226 18.1578 4.40529 17.1746 4.9486 16.2007C5.07339 15.9773 5.13557 15.6908 5.11541 15.4344C5.08154 15.003 4.73377 14.6463 4.26893 14.5669C3.83025 14.4919 3.40829 14.7067 3.1673 15.1274C2.26721 16.6994 1.29337 18.4023 0.191314 20.3332C-0.0393896 20.7372 -0.0625456 21.157 0.127849 21.485C0.318243 21.8126 0.694315 22.0009 1.15915 22.0009C4.43488 22.0009 7.71061 22.0013 10.9863 22.0013C14.2621 22.0013 17.5378 22.0013 20.8135 22.0009C21.2775 22.0009 21.6527 21.8135 21.8427 21.4867C22.0331 21.1591 22.0104 20.7384 21.7792 20.3328L21.7801 20.3315Z" fill="#45AFA8"/>
<path d="M10.9841 11.2834C11.8752 11.2834 12.7136 10.9357 13.3452 10.3032C13.9794 9.66894 14.3276 8.82675 14.3259 7.93181C14.3225 6.09562 12.8238 4.60291 10.9846 4.60291H10.9811C9.14281 4.60462 7.64667 6.10248 7.64624 7.94167C7.64624 9.78129 9.14067 11.2809 10.9781 11.2839H10.9837L10.9841 11.2834ZM11.8701 8.82632C11.6329 9.06388 11.3191 9.19467 10.9859 9.19467H10.985C10.6522 9.19467 10.3388 9.06345 10.1016 8.82546C9.86408 8.58661 9.73372 8.27143 9.73501 7.93695C9.73629 7.60462 9.86794 7.29158 10.1064 7.05574C10.3456 6.81903 10.6612 6.68867 10.9974 6.6921C11.6793 6.69682 12.2354 7.25642 12.2371 7.93953C12.238 8.27357 12.1076 8.58833 11.8697 8.82675L11.8701 8.82632Z" fill="#45AFA8"/>
</g>
<defs>
<clipPath id="clip0_59_2745">
<rect width="21.9713" height="22" fill="white"/>
</clipPath>
</defs>
</svg>
