<svg width="21" height="22" viewBox="0 0 21 22" fill="none" xmlns="http://www.w3.org/2000/svg">
<g clip-path="url(#clip0_59_2737)">
<path d="M20.9514 18.0383C20.95 17.0265 20.1859 16.2907 19.1354 16.289C18.6621 16.2881 18.1776 16.2877 17.6851 16.2877C17.9194 16.1435 18.0476 15.9046 18.0472 15.605C18.0467 14.9326 18.0467 14.2602 18.0467 13.5878V12.4497C18.0467 11.9468 17.7199 11.6347 17.194 11.6347H11.2685V11.1648C11.2685 10.6597 11.2685 10.1542 11.2689 9.64918C11.2698 9.27938 11.0823 9.07735 10.906 8.96864C11.1856 8.96864 11.4653 8.96864 11.7449 8.96864C12.1613 8.96864 12.5834 8.96864 13.0078 8.96864C13.6005 8.96864 14.1976 8.96864 14.7889 8.96735C15.8162 8.96564 16.5919 8.22175 16.5933 7.23646C16.5959 5.45377 16.5959 3.60389 16.5933 1.7386C16.5919 0.731906 15.8296 0.000855646 14.7809 0.000855646C11.9164 -3.84725e-07 9.05178 -3.84725e-07 6.18721 0.000855646C5.12875 0.000855646 4.35973 0.738326 4.35928 1.75358C4.35795 3.50802 4.35795 5.34335 4.35928 7.20735C4.35973 8.22731 5.13187 8.96821 6.19478 8.96821C7.26527 8.96821 8.33575 8.96821 9.40624 8.96821H10.043C9.82036 9.11117 9.68766 9.35342 9.68633 9.62478C9.68365 10.1303 9.6841 10.6435 9.68455 11.14C9.68455 11.3047 9.68455 11.47 9.68499 11.6347H6.24376C5.39815 11.6347 4.5521 11.6347 3.70604 11.6347C3.26832 11.6347 2.91074 11.9579 2.90896 12.3538C2.90451 13.4054 2.90451 14.4858 2.90896 15.6568C2.90985 15.9243 3.04122 16.1507 3.26742 16.2877C3.21622 16.2877 3.16545 16.2877 3.11469 16.2877C2.67875 16.2877 2.24236 16.2868 1.80642 16.2886C0.781798 16.292 0.00654273 17.0359 0.00298038 18.019C0.000308623 18.7385 0.000308623 19.4717 0.00298038 20.2605C0.00609743 21.266 0.768439 21.9966 1.81532 21.9979C2.45476 21.9987 3.09109 21.9991 3.72073 21.9991C4.35038 21.9991 4.97245 21.9987 5.58339 21.9979C6.63028 21.9961 7.39218 21.2651 7.39529 20.2597C7.39752 19.5381 7.39752 18.789 7.39529 18.0332C7.39218 17.0243 6.62716 16.2907 5.57538 16.2886C5.13632 16.2877 4.69771 16.2877 4.25909 16.2886H4.1353C4.1353 16.2886 4.13708 16.2877 4.13797 16.2868C4.35706 16.143 4.48886 15.8965 4.48975 15.6273C4.49198 15.0105 4.49154 14.3835 4.49109 13.7774C4.49109 13.5724 4.49109 13.3678 4.49109 13.1628H16.4646V13.9178C16.4646 14.0877 16.4646 14.2576 16.4641 14.4275C16.4637 14.8235 16.4628 15.2326 16.4659 15.6363C16.4681 15.9042 16.5999 16.146 16.8199 16.2881C16.347 16.2881 15.8674 16.2886 15.3839 16.2894C14.3294 16.2911 13.5626 17.0295 13.5599 18.0451C13.5582 18.7976 13.559 19.5458 13.5599 20.2421C13.5617 21.2574 14.3285 21.9966 15.3834 21.9987C15.8038 21.9996 16.2241 21.9996 16.6449 21.9991H17.2452H17.8147C18.0169 21.9991 18.219 21.9991 18.4212 21.9991C18.6599 21.9991 18.8986 21.9991 19.1372 21.9983C20.1877 21.9961 20.9514 21.2604 20.9531 20.249C20.9545 19.5672 20.9545 18.8438 20.9531 18.0379L20.9514 18.0383ZM19.3679 18.0387C19.3683 18.7805 19.3688 19.5218 19.3679 20.2631C19.3679 20.4206 19.3087 20.4767 19.1417 20.4767C18.6933 20.4771 18.2453 20.4771 17.7973 20.4767H17.251H16.6013C16.1925 20.4767 15.7837 20.4767 15.3749 20.4767C15.1959 20.4767 15.1416 20.4249 15.1412 20.2558C15.1407 19.5145 15.1403 18.7728 15.1412 18.0314C15.1412 17.8624 15.1959 17.811 15.3745 17.8106C16.6253 17.8102 17.8757 17.8102 19.1265 17.8106C19.3158 17.8106 19.3674 17.8598 19.3674 18.0387H19.3679ZM6.20369 7.44661C5.98861 7.44661 5.94186 7.4021 5.94186 7.19494C5.94186 5.387 5.94186 3.57864 5.94186 1.7707C5.94186 1.56654 5.98906 1.52245 6.20725 1.52245C7.62952 1.52245 9.05178 1.52245 10.4736 1.52245C11.8954 1.52245 13.3181 1.52245 14.7404 1.52245C14.9671 1.52245 15.0098 1.56354 15.0098 1.7814C15.0098 3.58463 15.0098 5.38786 15.0098 7.19109C15.0098 7.40381 14.9639 7.44661 14.7364 7.44661H11.5365H6.20324H6.20369ZM1.58511 18.0314C1.58511 17.8624 1.63988 17.811 1.81844 17.811C2.47881 17.811 3.13918 17.8106 3.79955 17.8106C4.39491 17.8106 4.99026 17.8106 5.58518 17.8106C5.75127 17.8106 5.81049 17.8667 5.81049 18.0242C5.81183 18.8147 5.81183 19.547 5.81049 20.2627C5.81049 20.4219 5.75305 20.4758 5.58429 20.4763C5.14122 20.4771 4.69815 20.4771 4.25508 20.4763H3.69357H3.25184C2.77359 20.4763 2.29579 20.4763 1.81755 20.4763C1.63899 20.4763 1.58466 20.4245 1.58466 20.255C1.58377 19.5137 1.58377 18.7719 1.58466 18.0306L1.58511 18.0314Z" fill="#45AFA8"/>
</g>
<defs>
<clipPath id="clip0_59_2737">
<rect width="20.9524" height="22" fill="white"/>
</clipPath>
</defs>
</svg>
