<svg width="18" height="22" viewBox="0 0 18 22" fill="none" xmlns="http://www.w3.org/2000/svg">
<g clip-path="url(#clip0_930_17)">
<path d="M17.772 20.4199C17.5351 20.1534 17.1568 20.0006 16.7327 20.0006C14.8814 19.9996 13.03 20.0001 11.1787 20.0001H8.98667H4.01095C3.74475 20.0001 3.47663 20.0001 3.20915 20.0001C2.55765 20.0001 1.88387 19.9996 1.2209 20.0017C0.61653 20.0038 0.0974964 20.3643 0.013432 20.8407C-0.0738166 21.3353 0.271357 21.7982 0.834334 21.9421C1.03048 21.992 1.22918 21.9982 1.36165 21.9982C4.28225 21.9998 7.20285 22.0003 10.1235 21.9998H13.1001C13.5574 21.9998 14.0146 21.9998 14.4719 21.9998C15.2113 21.9998 15.9506 21.9998 16.69 21.9998C17.2982 21.9998 17.7644 21.7426 17.937 21.3119C18.0605 21.0028 18.0007 20.6781 17.7727 20.421L17.772 20.4199Z" fill="#365073"/>
<path d="M17.772 0.419911C17.5351 0.153391 17.1568 0.000648875 16.7327 0.000648875C14.8814 -0.000390187 13.03 0.000130422 11.1787 0.000130422H8.98667H4.01095C3.74475 0.000130422 3.47663 0.000130422 3.20915 0.000130422C2.55765 0.000130422 1.88387 -0.000389172 1.2209 0.00168895C0.61653 0.00376707 0.0974964 0.364321 0.013432 0.840731C-0.0738166 1.33532 0.271357 1.79823 0.834334 1.94214C1.03048 1.99201 1.22918 1.99825 1.36165 1.99825C4.28225 1.9998 7.20285 2.00032 10.1235 1.99981H13.1001C13.5574 1.99981 14.0146 1.99981 14.4719 1.99981C15.2113 1.99981 15.9506 1.99981 16.69 1.99981C17.2982 1.99981 17.7644 1.74264 17.937 1.31195C18.0605 1.00282 18.0007 0.678118 17.7727 0.420951L17.772 0.419911Z" fill="#365073"/>
<path d="M8.33603 17.096C6.90669 17.096 5.78136 16.6853 4.96003 15.864C4.13869 15.0427 3.72803 13.8267 3.72803 12.216V6.392C3.72803 6.06505 3.99307 5.8 4.32003 5.8V5.8C4.64698 5.8 4.91203 6.06505 4.91203 6.392V12.168C4.91203 13.4907 5.21069 14.4667 5.80803 15.096C6.40536 15.7253 7.24803 16.04 8.33603 16.04C9.43469 16.04 10.2827 15.7253 10.88 15.096C11.4774 14.4667 11.776 13.4907 11.776 12.168V6.376C11.776 6.05789 12.0339 5.8 12.352 5.8V5.8C12.6701 5.8 12.928 6.05789 12.928 6.376V12.216C12.928 13.8267 12.5174 15.0427 11.696 15.864C10.8854 16.6853 9.76536 17.096 8.33603 17.096Z" fill="#365073" stroke="#365073"/>
</g>
<defs>
<clipPath id="clip0_930_17">
<rect width="17.8095" height="22" fill="white"/>
</clipPath>
</defs>
</svg>
