<svg width="28" height="28" viewBox="0 0 28 28" fill="none" xmlns="http://www.w3.org/2000/svg">
<path d="M18.3807 16.6308H17.459L17.1324 16.3158C18.2757 14.9858 18.964 13.2592 18.964 11.3808C18.964 7.19249 15.569 3.79749 11.3807 3.79749C7.19236 3.79749 3.79736 7.19249 3.79736 11.3808C3.79736 15.5692 7.19236 18.9642 11.3807 18.9642C13.259 18.9642 14.9857 18.2758 16.3157 17.1325L16.6307 17.4592V18.3808L22.464 24.2025L24.2024 22.4642L18.3807 16.6308ZM11.3807 16.6308C8.4757 16.6308 6.1307 14.2858 6.1307 11.3808C6.1307 8.47582 8.4757 6.13082 11.3807 6.13082C14.2857 6.13082 16.6307 8.47582 16.6307 11.3808C16.6307 14.2858 14.2857 16.6308 11.3807 16.6308Z" fill="white"/>
</svg>
