<svg width="25" height="24" viewBox="0 0 25 24" fill="none" xmlns="http://www.w3.org/2000/svg">
<path d="M21.5 13V19C21.5 19.2652 21.3946 19.5196 21.2071 19.7071C21.0196 19.8946 20.7652 20 20.5 20H4.5C4.23478 20 3.98043 19.8946 3.79289 19.7071C3.60536 19.5196 3.5 19.2652 3.5 19V6C3.5 5.73478 3.60536 5.48043 3.79289 5.29289C3.98043 5.10536 4.23478 5 4.5 5H8.5" stroke="#262C51" stroke-width="2" stroke-linecap="round" stroke-linejoin="round"/>
<path d="M16.5 3L21.5 7L16.5 11V9C16.5 9 11.5 9 9.5 12C9.5 12 10.5 6 16.5 5V3Z" stroke="#262C51" stroke-width="2" stroke-linecap="round" stroke-linejoin="round"/>
</svg>
