<svg width="30" height="22" viewBox="0 0 30 22" fill="none" xmlns="http://www.w3.org/2000/svg">
<g clip-path="url(#clip0_59_2728)">
<path d="M15.0494 0.0522533C14.9309 0.0197942 14.7887 0.00311392 14.626 0.00311392C11.0126 -4.18179e-05 6.24759 -0.0018451 1.43708 0.0026631C0.785575 0.00311392 0.278594 0.33627 0.0810986 0.893483C-0.121043 1.46377 0.0629755 2.06652 0.528599 2.35955C0.802768 2.53221 1.17545 2.64492 1.50074 2.65303C2.56303 2.68053 3.64669 2.67602 4.69458 2.67197C5.0905 2.67016 5.48642 2.66881 5.88187 2.66881H6.64025V6.24201C6.64025 10.8715 6.64025 15.6587 6.64443 20.3671C6.64443 20.5645 6.65419 20.8562 6.73319 21.1055C6.92372 21.7056 7.53944 22.0689 8.22997 21.9887C8.85638 21.9161 9.3615 21.3877 9.40518 20.7602C9.41169 20.6678 9.41076 20.5722 9.40983 20.4717C9.40983 20.4356 9.40936 20.3995 9.40936 20.3635C9.40936 14.726 9.40936 9.08803 9.40936 3.45053V2.66926H10.1956C10.6413 2.66926 11.0869 2.66926 11.5325 2.67061C12.5855 2.67242 13.6743 2.67422 14.744 2.66024C15.3923 2.65168 15.9578 2.15443 16.0308 1.52824C16.1126 0.829466 15.718 0.236639 15.0489 0.0531549L15.0494 0.0522533Z" fill="#45AFA8"/>
<path d="M28.9573 8.46774C28.6809 8.1959 28.2752 8.04578 27.8156 8.04442C26.3537 8.04082 24.8671 8.04127 23.4293 8.04217C22.4795 8.04262 21.5297 8.04352 20.5794 8.04037C19.7518 8.03766 18.8958 8.03541 18.0556 8.04623C17.5789 8.05254 17.169 8.23602 16.9009 8.56332C16.6467 8.87348 16.557 9.27156 16.649 9.68406C16.787 10.3026 17.3335 10.7218 18.0092 10.7277C18.6676 10.7336 19.3377 10.7322 19.986 10.7313C20.2448 10.7313 20.5036 10.7304 20.7625 10.7304C20.8424 10.7304 20.9223 10.7304 21.0023 10.7304C21.0696 10.7304 21.1328 10.7349 21.2058 10.7399C21.2406 10.7421 21.2787 10.7448 21.3215 10.7475L21.584 10.7624V11.4797C21.584 12.3195 21.584 13.1599 21.584 13.9998C21.584 16.1308 21.5831 18.3339 21.5859 20.501C21.5864 20.9681 21.7406 21.3729 22.0204 21.6411C22.2695 21.8796 22.605 22.0041 22.9935 21.9991C23.7788 21.9905 24.3504 21.404 24.3522 20.6043C24.3559 19.1896 24.355 17.7506 24.3546 16.3593C24.3546 15.7737 24.3541 15.1886 24.3541 14.6029V10.7295H25.2523C25.5149 10.7295 25.777 10.7295 26.0395 10.7295C26.6329 10.7295 27.2264 10.7304 27.8193 10.7286C28.7036 10.7264 29.3268 10.1818 29.3342 9.40365C29.3379 9.03578 29.2078 8.71164 28.9583 8.46639L28.9573 8.46774Z" fill="#45AFA8"/>
</g>
<defs>
<clipPath id="clip0_59_2728">
<rect width="29.3333" height="22" fill="white"/>
</clipPath>
</defs>
</svg>
