<svg width="24" height="25" viewBox="0 0 24 25" fill="none" xmlns="http://www.w3.org/2000/svg">
<path d="M21.4203 19.5676L18.0104 5.78547C17.9688 5.69042 17.9272 5.59537 17.844 5.54784C17.7608 5.50032 17.6361 5.50032 17.5529 5.50032L14.5173 6.49834V4.45477C14.5173 4.21715 14.3509 4.02705 14.143 4.02705H10.7747V2.60131C10.7747 2.36368 10.6084 2.17358 10.4004 2.17358H8.07174C7.86382 2.17358 7.69748 2.36368 7.69748 2.60131V4.02705H3.91332C3.7054 4.02705 3.53906 4.21715 3.53906 4.45477V20.8508C3.53906 21.0884 3.7054 21.2785 3.91332 21.2785H8.03015H10.3589H14.0599C14.2678 21.2785 14.4341 21.0884 14.4341 20.8508V9.87259L16.5965 18.5221L17.2203 20.9459C17.2618 21.0409 17.3034 21.136 17.3866 21.1835C17.4282 21.231 17.5113 21.231 17.5529 21.231C17.5945 21.231 17.6361 21.231 17.6361 21.231L21.0876 20.0904C21.3787 20.0429 21.5034 19.8053 21.4203 19.5676ZM15.2658 9.87259L18.0104 8.96962L20.0064 16.9538L17.2618 17.8568L15.2658 9.87259ZM17.3866 6.45081L17.8024 8.1617L15.0579 9.06467L14.642 7.35378L17.3866 6.45081ZM7.65589 8.44685H4.28758V7.87655H7.65589V8.44685ZM4.28758 9.3023H7.65589V17.4766H4.28758V9.3023ZM8.44599 6.21319H10.0262V16.4785H8.44599V6.21319ZM10.8163 7.87655H13.7688V17.4766H10.8163V7.87655ZM13.7688 4.8825V7.06863H10.8163V4.8825H13.7688ZM10.0262 2.9815V5.35774H8.44599V2.9815H10.0262ZM7.65589 4.8825V7.06863H4.28758V4.8825H7.65589ZM4.28758 20.4231V18.3795H7.65589V20.4231H4.28758ZM8.44599 20.4231V17.334H10.0262V20.4231H8.44599ZM10.8163 20.4231V18.3795H13.7688V20.4231H10.8163ZM17.8856 20.2805L17.4698 18.6647L20.2143 17.7617L20.6302 19.3775L17.8856 20.2805Z" fill="#2E6695"/>
<path d="M12.979 10.8231H11.6067C11.3988 10.8231 11.2324 11.0132 11.2324 11.2508V14.0073C11.2324 14.2449 11.3988 14.435 11.6067 14.435H12.979C13.1869 14.435 13.3532 14.2449 13.3532 14.0073V11.2508C13.3532 11.0132 13.1869 10.8231 12.979 10.8231ZM12.6047 13.5796H11.9809V11.6786H12.6047V13.5796Z" fill="#2E6695"/>
</svg>
