<svg width="24" height="25" viewBox="0 0 24 25" fill="none" xmlns="http://www.w3.org/2000/svg">
<path d="M17.8221 17.133C17.3907 17.133 16.977 17.3044 16.6719 17.6094C16.3668 17.9145 16.1955 18.3282 16.1955 18.7596C16.1966 18.9855 16.2435 19.2088 16.3334 19.416C15.0603 20.2937 13.5467 20.7556 12.0005 20.7382C9.93248 20.7357 7.94993 19.9131 6.48764 18.4508C5.02536 16.9885 4.20274 15.006 4.20023 12.938C4.19734 11.8078 4.44251 10.6908 4.91842 9.66571C4.93104 9.56554 4.91146 9.46395 4.86252 9.37565C4.81357 9.28735 4.73779 9.21691 4.64616 9.17454C4.55452 9.13216 4.45178 9.12005 4.3528 9.13994C4.25382 9.15984 4.16373 9.21072 4.09559 9.28521C3.48277 10.6124 3.2137 12.0724 3.31316 13.5309C3.41263 14.9893 3.87743 16.3993 4.66477 17.631C5.4521 18.8627 6.53667 19.8765 7.8186 20.5791C9.10053 21.2817 10.5386 21.6504 12.0005 21.6514C13.7598 21.6692 15.4802 21.1335 16.9184 20.1199C17.185 20.3009 17.5 20.397 17.8221 20.3958C18.2535 20.3958 18.6673 20.2244 18.9723 19.9194C19.2774 19.6143 19.4487 19.2006 19.4487 18.7692C19.4487 18.3377 19.2774 17.924 18.9723 17.619C18.6673 17.3139 18.2535 17.1425 17.8221 17.1425V17.133ZM17.8221 19.6633C17.6434 19.6633 17.4687 19.6103 17.32 19.511C17.1714 19.4117 17.0556 19.2706 16.9872 19.1055C16.9188 18.9403 16.9009 18.7586 16.9358 18.5833C16.9707 18.408 17.0567 18.247 17.1831 18.1206C17.3095 17.9943 17.4705 17.9082 17.6458 17.8733C17.8211 17.8385 18.0028 17.8564 18.1679 17.9247C18.3331 17.9931 18.4742 18.109 18.5735 18.2576C18.6728 18.4062 18.7258 18.5809 18.7258 18.7596C18.7258 18.9993 18.6306 19.2292 18.4611 19.3986C18.2916 19.5681 18.0618 19.6633 17.8221 19.6633Z" fill="#2E6695"/>
<path d="M12 4.23406C10.2207 4.17361 8.473 4.71485 7.03928 5.77032C6.73341 5.57954 6.37283 5.49576 6.01419 5.53215C5.65554 5.56855 5.31914 5.72304 5.05783 5.97138C4.79652 6.21971 4.62511 6.54782 4.57052 6.90415C4.51593 7.26048 4.58125 7.62485 4.75623 7.94003C4.93121 8.2552 5.20592 8.50332 5.53723 8.64542C5.86853 8.78751 6.23765 8.81553 6.5866 8.72506C6.93555 8.6346 7.24457 8.43078 7.46511 8.14562C7.68565 7.86046 7.80522 7.51012 7.80503 7.14964C7.80572 6.90571 7.75039 6.66488 7.64332 6.44571C8.90835 5.53462 10.4424 5.07408 12 5.13774C13.3124 5.13945 14.6031 5.47182 15.753 6.10417C16.903 6.73651 17.875 7.64844 18.5794 8.75572C19.2838 9.863 19.6978 11.1299 19.7831 12.4395C19.8685 13.749 19.6225 15.059 19.0678 16.2483C19.0218 16.3576 19.0182 16.4801 19.0578 16.5918C19.0974 16.7035 19.1773 16.7965 19.2818 16.8524C19.3416 16.8796 19.4064 16.8942 19.4721 16.8952C19.5575 16.8923 19.6405 16.8665 19.7125 16.8205C19.7845 16.7745 19.8427 16.7099 19.8811 16.6336C20.4267 15.4782 20.7078 14.2157 20.704 12.938C20.7014 10.6303 19.7836 8.41792 18.1519 6.78616C16.5201 5.1544 14.3077 4.23658 12 4.23406ZM6.18315 8.07235C6.00402 8.07329 5.82865 8.02097 5.67931 7.92203C5.52997 7.82309 5.41341 7.68201 5.34442 7.51669C5.27543 7.35137 5.25714 7.16927 5.29185 6.99354C5.32657 6.8178 5.41274 6.65634 5.5394 6.52967C5.66607 6.403 5.82753 6.31684 6.00327 6.28212C6.17901 6.2474 6.3611 6.2657 6.52642 6.33469C6.69174 6.40367 6.83283 6.52024 6.93177 6.66957C7.0307 6.81891 7.08302 6.99428 7.08208 7.17342C7.08083 7.41144 6.98572 7.63936 6.81741 7.80767C6.6491 7.97599 6.42118 8.0711 6.18315 8.07235Z" fill="#2E6695"/>
<path d="M12.6086 17.0181C13.8745 17.0181 15.1403 16.7017 16.0896 16.3852C16.2253 16.34 16.3157 16.2044 16.3609 16.0688C16.3609 16.0688 16.3609 16.0236 16.3609 15.9784C16.3609 15.3002 16.1349 12.8138 15.2307 11.7288C14.1457 10.463 12.7443 10.463 11.8853 10.4178C11.7045 10.4178 11.5237 10.4178 11.4332 10.4178C11.1168 10.3274 10.936 10.237 10.8907 10.0561C10.8003 9.78489 10.9812 9.42323 11.162 9.2424C11.2976 9.10677 11.2976 8.92594 11.2072 8.74511C11.1168 8.56428 10.936 8.51907 10.7551 8.56428C10.1674 8.65469 8.63035 9.73968 7.95224 11.322C7.45495 12.4974 7.50016 13.6728 8.08786 14.7125C9.03722 16.4757 10.8455 17.0181 12.6086 17.0181ZM8.67556 11.6384C8.99202 10.9151 9.53451 10.2822 9.98659 9.87531C9.98659 10.0109 9.98659 10.1013 10.0318 10.237C10.1222 10.5534 10.4387 10.9603 11.2072 11.1411C11.388 11.1863 11.5689 11.1863 11.7949 11.1863C12.5634 11.1863 13.6936 11.2315 14.5526 12.1809C15.1403 12.859 15.4115 14.5769 15.4567 15.4811C12.8799 15.3455 11.2072 14.4865 10.5291 12.9494C10.4387 12.7234 10.2126 12.6782 9.98659 12.7686C9.76055 12.859 9.71534 13.0851 9.80576 13.3111C10.4839 14.7578 11.7949 15.7071 13.784 16.114C12.1114 16.34 9.85097 16.2496 8.76598 14.3057C8.3139 13.4467 8.26869 12.5878 8.67556 11.6384Z" fill="#2E6695"/>
</svg>
