<svg width="24" height="25" viewBox="0 0 24 25" fill="none" xmlns="http://www.w3.org/2000/svg">
<path d="M14.8866 20.5623H6.90083C6.62584 20.5623 6.36211 20.453 6.16766 20.2586C5.97321 20.0641 5.86397 19.8004 5.86397 19.5254V6.41243C5.86397 6.13744 5.97321 5.87371 6.16766 5.67926C6.36211 5.48481 6.62584 5.37557 6.90083 5.37557H15.4621V8.06285C15.4621 8.18899 15.5122 8.30997 15.6014 8.39916C15.6906 8.48836 15.8115 8.53847 15.9377 8.53847C16.1042 8.53847 17.2457 8.53847 18.2635 8.53847V17.0569H18.3776C18.6125 17.0573 18.8467 17.0812 19.0768 17.1282L19.0721 7.80601V7.76796L16.0804 4.58603L16.0518 4.5575H6.90083C6.40926 4.55875 5.93818 4.75458 5.59058 5.10218C5.24299 5.44978 5.04715 5.92086 5.0459 6.41243V19.5301C5.04715 20.0217 5.24299 20.4928 5.59058 20.8404C5.93818 21.188 6.40926 21.3838 6.90083 21.3851H14.9864C14.9211 21.1173 14.8876 20.8427 14.8866 20.567V20.5623ZM17.669 7.59673H16.4133V6.22218L17.669 7.59673Z" fill="#2E6695"/>
<path d="M18.4064 17.856C17.8702 17.856 17.346 18.015 16.9002 18.3129C16.4544 18.6107 16.1069 19.0342 15.9017 19.5295C15.6965 20.0249 15.6428 20.57 15.7474 21.0959C15.852 21.6218 16.1102 22.1049 16.4894 22.484C16.8685 22.8632 17.3516 23.1214 17.8775 23.226C18.4034 23.3306 18.9485 23.2769 19.4438 23.0717C19.9392 22.8665 20.3626 22.519 20.6605 22.0732C20.9584 21.6274 21.1174 21.1032 21.1174 20.567C21.1174 19.848 20.8318 19.1584 20.3234 18.65C19.815 18.1416 19.1254 17.856 18.4064 17.856ZM18.2542 22.2412L16.6846 20.2912L17.2363 19.8155L18.2256 20.8143L20.0711 19.1782L20.5467 19.6776L18.2542 22.2412Z" fill="#2E6695"/>
<path d="M15.7863 10.6027H8.40458C8.29546 10.6027 8.19082 10.646 8.11366 10.7232C8.03651 10.8003 7.99316 10.905 7.99316 11.0141C7.99316 11.1232 8.03651 11.2278 8.11366 11.305C8.19082 11.3821 8.29546 11.4255 8.40458 11.4255H15.7863C15.8954 11.4255 16 11.3821 16.0772 11.305C16.1543 11.2278 16.1977 11.1232 16.1977 11.0141C16.1977 10.905 16.1543 10.8003 16.0772 10.7232C16 10.646 15.8954 10.6027 15.7863 10.6027Z" fill="#2E6695"/>
<path d="M15.7863 12.353H8.40458C8.29546 12.353 8.19082 12.3964 8.11366 12.4735C8.03651 12.5507 7.99316 12.6553 7.99316 12.7644C7.99316 12.8736 8.03651 12.9782 8.11366 13.0554C8.19082 13.1325 8.29546 13.1759 8.40458 13.1759H15.7863C15.8954 13.1759 16 13.1325 16.0772 13.0554C16.1543 12.9782 16.1977 12.8736 16.1977 12.7644C16.1977 12.6553 16.1543 12.5507 16.0772 12.4735C16 12.3964 15.8954 12.353 15.7863 12.353Z" fill="#2E6695"/>
<path d="M15.7863 14.0747H8.40458C8.29546 14.0747 8.19082 14.1181 8.11366 14.1952C8.03651 14.2724 7.99316 14.377 7.99316 14.4861C7.99316 14.5952 8.03651 14.6999 8.11366 14.777C8.19082 14.8542 8.29546 14.8975 8.40458 14.8975H15.7863C15.8954 14.8975 16 14.8542 16.0772 14.777C16.1543 14.6999 16.1977 14.5952 16.1977 14.4861C16.1977 14.377 16.1543 14.2724 16.0772 14.1952C16 14.1181 15.8954 14.0747 15.7863 14.0747Z" fill="#2E6695"/>
<path d="M15.7863 15.8156H8.40458C8.29546 15.8156 8.19082 15.8589 8.11366 15.9361C8.03651 16.0132 7.99316 16.1179 7.99316 16.227C7.99316 16.3361 8.03651 16.4407 8.11366 16.5179C8.19082 16.595 8.29546 16.6384 8.40458 16.6384H15.7863C15.8954 16.6384 16 16.595 16.0772 16.5179C16.1543 16.4407 16.1977 16.3361 16.1977 16.227C16.1977 16.1179 16.1543 16.0132 16.0772 15.9361C16 15.8589 15.8954 15.8156 15.7863 15.8156Z" fill="#2E6695"/>
</svg>
