<svg width="24" height="25" viewBox="0 0 24 25" fill="none" xmlns="http://www.w3.org/2000/svg">
<path d="M20.8592 9.91732C20.6271 9.68759 20.3313 9.57963 19.9964 9.56298H16.7023V4.62267C16.7023 3.91922 16.1301 3.34705 15.4266 3.34705H4.0559C3.35245 3.34705 2.78027 3.91922 2.78027 4.62267V19.3409C2.78027 21.0988 4.21048 22.529 5.96838 22.529L18.0744 22.5275C18.1211 22.5294 18.1639 22.529 18.1881 22.5275H18.5063C18.5073 22.5275 18.5082 22.5275 18.5082 22.5275C19.2326 22.5275 19.9151 22.2341 20.4307 21.7009C20.9377 21.1763 21.2174 20.4895 21.2174 19.7661V10.8657C21.2198 10.8343 21.2207 10.8044 21.2197 10.7801C21.2188 10.4533 21.0904 10.147 20.8592 9.91732ZM5.96838 21.2543C4.91345 21.2543 4.05542 20.3963 4.05542 19.3413L4.0559 4.62219L15.4271 4.62267V19.7499C15.4133 20.2883 15.5565 20.8067 15.8362 21.2529L5.96838 21.2543ZM19.9427 10.8386V19.7651C19.9422 20.1504 19.7862 20.5323 19.5142 20.8139C19.2412 21.0964 18.8835 21.2519 18.5077 21.2519H18.5068H18.1895H18.1881H18.0935C17.713 21.2405 17.3591 21.0826 17.0966 20.8063C16.8321 20.5285 16.6923 20.1646 16.7018 19.7651V10.8377L19.9427 10.8386ZM6.44591 12.8686H9.79383C10.1463 12.8686 10.4316 12.5832 10.4316 12.2308V7.8103C10.4316 7.45787 10.1463 7.17249 9.79383 7.17249H6.44591C6.09347 7.17249 5.8081 7.45787 5.8081 7.8103V12.2308C5.80857 12.5832 6.09395 12.8686 6.44591 12.8686ZM7.08372 8.44812H9.15602V11.5934H7.08372V8.44812ZM14.2466 8.39437C14.2466 8.74681 13.9612 9.03218 13.6093 9.03218H11.9189C11.5665 9.03218 11.2811 8.74681 11.2811 8.39437C11.2811 8.04193 11.5665 7.75656 11.9189 7.75656H13.6093C13.9617 7.75703 14.2466 8.04241 14.2466 8.39437ZM14.2466 12.2731C14.2466 12.6255 13.9612 12.9109 13.6093 12.9109H11.9189C11.5665 12.9109 11.2811 12.6255 11.2811 12.2731C11.2811 11.9206 11.5665 11.6353 11.9189 11.6353H13.6093C13.9617 11.6357 14.2466 11.9211 14.2466 12.2731ZM8.05209 16.099C8.05209 16.4514 7.76672 16.7363 7.41428 16.7363H6.44591C6.09347 16.7363 5.8081 16.451 5.8081 16.099C5.8081 15.7466 6.09347 15.4617 6.44591 15.4617H7.41428C7.76672 15.4617 8.05209 15.747 8.05209 16.099ZM14.2466 16.099C14.2466 16.4514 13.9612 16.7363 13.6093 16.7363H10.0692C9.71678 16.7363 9.4314 16.451 9.4314 16.099C9.4314 15.7466 9.71678 15.4617 10.0692 15.4617H13.6093C13.9617 15.4617 14.2466 15.747 14.2466 16.099Z" fill="#2E6695"/>
</svg>
