<svg width="24" height="25" viewBox="0 0 24 25" fill="none" xmlns="http://www.w3.org/2000/svg">
<path d="M16.9664 16.9063C16.7288 16.9063 16.4912 17.0964 16.4912 17.3815V21.2785H6.46348C5.65556 21.2785 5.03774 20.6132 5.03774 19.8528V7.87655C5.46546 8.1617 5.84566 8.3518 6.46348 8.3518H16.4912V9.92012C16.4912 10.1577 16.6813 10.3478 16.9189 10.3478C17.1565 10.3478 17.3466 10.1577 17.3466 9.92012V7.87655C17.3466 7.63893 17.1565 7.44883 16.9189 7.40131H6.55853C5.79813 7.40131 5.08526 6.83101 5.03774 6.02309C4.99021 5.21517 5.65556 4.54982 6.46348 4.54982H16.9664C17.2041 4.45477 17.3466 4.21715 17.2991 3.97952C17.2516 3.83695 17.109 3.69438 16.9664 3.64685H6.46348C5.18031 3.64685 4.13477 4.6924 4.13477 5.97556V19.8053C4.13477 21.0884 5.18031 22.134 6.46348 22.134H16.9189C17.2041 22.134 17.3942 21.8964 17.3942 21.6587V17.334C17.3942 17.1439 17.2041 16.9063 16.9664 16.9063Z" fill="#2E6695"/>
<path d="M21.5291 10.2528L21.0063 9.58742C20.8162 9.34979 20.531 9.20722 20.1984 9.15969C19.8657 9.11217 19.5805 9.20722 19.3429 9.39732L11.5489 15.7656C11.5489 15.7656 11.5489 15.7656 11.5013 15.8132L11.4538 15.8607C11.4538 15.8607 11.4063 15.9082 11.4063 15.9557V16.0033L10.836 17.9042L10.4558 18.2369C10.2657 18.3795 10.2657 18.6646 10.4083 18.8547C10.5033 18.9498 10.5984 18.9973 10.7409 18.9973C10.836 18.9973 10.931 18.9498 11.0261 18.9023L11.4063 18.5221L13.3548 18.332C13.3548 18.332 13.3548 18.332 13.4023 18.332C13.4499 18.332 13.4499 18.332 13.4974 18.2844C13.4974 18.2844 13.5449 18.2844 13.5449 18.2369H13.5924L21.339 11.9161C21.5766 11.726 21.7192 11.4409 21.7667 11.1082C21.8142 10.7755 21.7192 10.4904 21.5291 10.2528ZM12.0241 16.9538L12.4994 17.5241L11.834 17.6191L12.0241 16.9538ZM20.8162 11.2508L13.4023 17.2864L12.4518 16.1458L19.8657 10.0627C19.9132 10.0151 20.0083 9.96762 20.1033 10.0151C20.1984 10.0151 20.2459 10.0627 20.2934 10.1102L20.8162 10.7755C20.9112 10.8706 20.9112 10.9181 20.9112 11.0132C20.9112 11.1082 20.8637 11.2033 20.8162 11.2508Z" fill="#2E6695"/>
<path d="M7.12889 5.64294C6.89127 5.64294 6.70117 5.83304 6.70117 6.07067C6.70117 6.30829 6.89127 6.49839 7.12889 6.49839H15.4457C15.6834 6.49839 15.8735 6.30829 15.8735 6.07067C15.8735 5.83304 15.6834 5.64294 15.4457 5.64294H7.12889Z" fill="#2E6695"/>
</svg>
