<svg width="84" height="80" viewBox="0 0 84 80" fill="none" xmlns="http://www.w3.org/2000/svg">
<g clip-path="url(#clip0_917_2)">
<path d="M0 0H84V80H0V0Z" fill="#F7CE7D"/>
<path d="M42.4374 65.2818C56.4861 65.2818 67.8748 53.802 67.8748 39.6409C67.8748 25.4798 56.4861 14 42.4374 14C28.3887 14 17 25.4798 17 39.6409C17 53.802 28.3887 65.2818 42.4374 65.2818Z" stroke="white" stroke-width="3"/>
<path d="M42.6623 29.4488C41.8334 29.4488 41.023 29.2063 40.3338 28.752C39.6445 28.2977 39.1073 27.6519 38.7901 26.8964C38.4728 26.1409 38.3898 25.3095 38.5515 24.5075C38.7133 23.7054 39.1125 22.9687 39.6986 22.3905C40.2848 21.8122 41.0316 21.4184 41.8447 21.2589C42.6577 21.0994 43.5004 21.1812 44.2663 21.4942C45.0322 21.8071 45.6868 22.3371 46.1473 23.017C46.6079 23.697 46.8537 24.4964 46.8537 25.3141C46.8525 26.4104 46.4105 27.4614 45.6247 28.2365C44.839 29.0117 43.7736 29.4477 42.6623 29.4488Z" fill="white"/>
<path d="M55.6988 29.5081L55.6654 29.517L55.6343 29.5267C55.5603 29.5474 55.4862 29.5697 55.4121 29.5927C54.0337 29.9978 47.3436 31.8869 42.6305 31.8869C38.2507 31.8869 32.1658 30.2545 30.2192 29.7003C30.0254 29.6252 29.8276 29.5613 29.6266 29.5088C28.2193 29.1379 27.2563 30.5699 27.2563 31.8787C27.2563 33.175 28.4193 33.7923 29.5933 34.2353V34.256L36.6463 36.4627C37.367 36.7395 37.5596 37.0222 37.6537 37.267C37.9596 38.0528 37.7151 39.6087 37.6285 40.1518L37.1989 43.4907L34.8145 56.5637C34.8071 56.5993 34.8005 56.6357 34.7945 56.6728L34.7775 56.767C34.6056 57.9653 35.4841 59.128 37.1478 59.128C38.5995 59.128 39.2403 58.1241 39.518 56.7581C39.518 56.7581 41.592 45.0667 42.629 45.0667C43.666 45.0667 45.8022 56.7581 45.8022 56.7581C46.0799 58.1241 46.7207 59.128 48.1724 59.128C49.8405 59.128 50.719 57.9601 50.5427 56.7581C50.5272 56.6557 50.5086 56.5548 50.4864 56.4569L48.0695 43.4922L47.6406 40.1533C47.3303 38.2086 47.5799 37.566 47.6643 37.4154C47.6666 37.4119 47.6686 37.4081 47.6702 37.4043C47.7502 37.2559 48.1147 36.9235 48.965 36.6037L55.578 34.288C55.6187 34.2771 55.6587 34.2642 55.698 34.2494C56.8832 33.8042 58.0683 33.1883 58.0683 31.8802C58.0683 30.5721 57.1061 29.1379 55.6988 29.5081Z" fill="white"/>
</g>
<defs>
<clipPath id="clip0_917_2">
<rect width="84" height="80" fill="white"/>
</clipPath>
</defs>
</svg>
