<svg width="125" height="52" viewBox="0 0 125 52" fill="none" xmlns="http://www.w3.org/2000/svg">
<path d="M22.775 1.73931L5.98371 3.62132C2.83265 3.9745 0.732626 7.04662 1.54761 10.1109L8.13418 34.876C9.42781 39.7399 16.1934 40.0981 17.9934 35.3979L28.1981 8.75084C29.5885 5.11996 26.6388 1.30625 22.775 1.73931Z" fill="#21345F"/>
<circle cx="27.9626" cy="33.4676" r="5.4894" transform="rotate(-66.3952 27.9626 33.4676)" fill="#21345F"/>
<path d="M52.2222 14.1897C56.7521 14.1897 60.0409 16.4236 60.8165 20.2089L55.7902 21.2328C55.4179 19.2781 53.8045 18.3163 52.1601 18.3163C50.4537 18.3163 49.3678 19.2471 49.3678 20.4261C49.3678 21.2638 49.7401 21.8843 51.0432 22.1635L55.3559 23.1254C58.9549 23.9321 61.0647 25.8867 61.0647 29.1755C61.0647 33.6123 57.1244 35.9083 52.5014 35.9083C47.8164 35.9083 43.9692 33.6744 43.4107 29.6099L48.6852 28.586C49.2126 30.7268 50.7019 31.6576 52.7807 31.6576C54.7043 31.6576 55.8523 30.7889 55.8523 29.5168C55.8523 28.586 55.4179 27.9965 53.9286 27.6863L49.5849 26.7555C46.6064 26.0729 44.0002 24.5216 44.0002 20.7363C44.0002 16.7029 47.351 14.1897 52.2222 14.1897ZM83.9773 14.6551V35.4429H79.7577L69.2397 23.4046V35.4429H64.1204V14.6551H68.371L78.889 27.0657V14.6551H83.9773ZM95.452 19.123V30.9751H99.3923V35.4429H86.4233V30.9751H90.3636V19.123H86.4233V14.6551H99.3923V19.123H95.452ZM117.302 26.6624L122.328 27.6552C121.367 32.8677 117.178 35.9083 111.841 35.9083C105.667 35.9083 100.796 31.1612 100.796 25.049C100.796 18.9678 105.667 14.1897 111.841 14.1897C116.961 14.1897 121.305 17.2303 122.297 22.1635L117.271 23.3426C116.62 20.333 114.51 18.8747 111.841 18.8747C108.553 18.8747 105.915 21.512 105.915 25.049C105.915 28.586 108.553 31.2543 111.841 31.2543C114.479 31.2543 116.589 29.765 117.302 26.6624Z" fill="#21345F"/>
</svg>
