<svg width="15" height="18" viewBox="0 0 15 18" fill="none" xmlns="http://www.w3.org/2000/svg">
<path d="M14 10.2353H12.2047C12.0647 10.8118 11.8424 11.3471 11.5376 11.8247L12.8059 13.0929L11.0765 14.8224L9.80824 13.5541C9.33059 13.8506 8.79529 14.0729 8.23529 14.2047V16H5.76471V14.2047C5.20471 14.0729 4.66941 13.8506 4.19176 13.5541L2.92353 14.8224L1.17765 13.0765L2.44588 11.8082C2.14941 11.3306 1.92706 10.7953 1.79529 10.2353H0V7.78941H1.78706C1.91882 7.21294 2.14941 6.67765 2.44588 6.19176L1.17765 4.92353L2.90706 3.19412L4.17529 4.46235C4.65294 4.15765 5.19647 3.93529 5.76471 3.79529V2H8.23529V3.79529C8.79529 3.92706 9.33059 4.14941 9.80824 4.44588L11.0765 3.17765L12.8224 4.92353L11.5541 6.19176C11.8506 6.67765 12.0812 7.21294 12.2129 7.78941H14V10.2353ZM7 11.4706C8.36706 11.4706 9.47059 10.3671 9.47059 9C9.47059 7.63294 8.36706 6.52941 7 6.52941C5.63294 6.52941 4.52941 7.63294 4.52941 9C4.52941 10.3671 5.63294 11.4706 7 11.4706Z" fill="#50555C"/>
</svg>
