<svg width="7" height="10" viewBox="0 0 7 10" fill="none" xmlns="http://www.w3.org/2000/svg">
<g clip-path="url(#clip0_418_20)">
<path d="M4.7547 4.99674C4.41754 4.7291 4.09353 4.47137 3.76898 4.21391C2.62166 3.30299 1.47353 2.39312 0.32704 1.48116C0.0227521 1.23908 -0.0774905 0.868139 0.0613701 0.529806C0.197218 0.198777 0.54615 -0.0169528 0.921101 0.00104644C1.13364 0.0112199 1.3144 0.0941728 1.47682 0.223298C2.57456 1.09613 3.67339 1.96766 4.77168 2.83944C5.39093 3.3309 6.01019 3.8221 6.6289 4.31434C7.12163 4.70615 7.12409 5.28734 6.63356 5.67706C4.91656 7.04109 3.1982 8.40381 1.4812 9.76784C1.17992 10.007 0.847152 10.0746 0.491646 9.9087C0.154766 9.75088 -0.0114838 9.4762 0.00303222 9.11674C0.013166 8.86501 0.136415 8.66363 0.339913 8.50242C1.75399 7.38151 3.1667 6.2593 4.57996 5.13734C4.63227 5.09587 4.68403 5.05361 4.7547 4.99674Z" fill="#45A2B6"/>
</g>
<defs>
<clipPath id="clip0_418_20">
<rect width="7" height="10" fill="white"/>
</clipPath>
</defs>
</svg>
