<svg width="8" height="14" viewBox="0 0 8 14" fill="none" xmlns="http://www.w3.org/2000/svg">
<g clip-path="url(#clip0_413_1155)">
<path d="M5.43296 6.99544C5.04764 6.62074 4.67735 6.25992 4.30643 5.89947C2.99521 4.62419 1.68306 3.35036 0.372784 2.07362C0.0250258 1.73471 -0.0895372 1.21539 0.0691607 0.741728C0.224415 0.278288 0.623195 -0.0237339 1.05171 0.00146501C1.29461 0.0157079 1.5012 0.131842 1.68681 0.312617C2.94137 1.53458 4.19718 2.75472 5.45237 3.97522C6.16009 4.66326 6.86781 5.35094 7.57491 6.04007C8.13802 6.5886 8.14084 7.40227 7.58023 7.94788C5.61795 9.85752 3.6541 11.7653 1.69182 13.675C1.34751 14.0099 0.967197 14.1045 0.560905 13.8722C0.175898 13.6512 -0.0141009 13.2667 0.00248883 12.7634C0.0140703 12.411 0.154926 12.1291 0.387495 11.9034C2.00358 10.3341 3.61811 8.76301 5.23326 7.19228C5.29304 7.13422 5.3522 7.07505 5.43296 6.99544Z" fill="#707070"/>
</g>
<defs>
<clipPath id="clip0_413_1155">
<rect width="8" height="14" fill="white"/>
</clipPath>
</defs>
</svg>
