<svg width="15" height="18" viewBox="0 0 15 18" fill="none" xmlns="http://www.w3.org/2000/svg">
<g clip-path="url(#clip0_419_437)">
<path d="M7.0556 8.49894C7.10006 8.44002 7.08611 8.37076 7.08611 8.30464C7.08611 6.74037 7.08829 5.17564 7.08306 3.61136C7.08219 3.33341 7.06911 3.05546 7.08655 2.7775C7.11706 2.28231 7.4457 2.04484 7.82403 2.05293C8.24028 2.06193 8.56413 2.37452 8.56413 2.81573C8.565 4.71014 8.56238 6.60454 8.56108 8.49849C8.56413 8.51153 8.56761 8.52458 8.57067 8.53762C8.58113 8.52997 8.59115 8.52233 8.60161 8.51468C9.21226 7.88726 9.82029 7.25669 10.4353 6.63377C10.7652 6.2996 11.1902 6.30859 11.5036 6.62478C11.7298 6.85236 11.81 7.38848 11.4596 7.74244C10.5325 8.6775 9.62284 9.631 8.70622 10.5768C8.58854 10.6983 8.47216 10.8215 8.3523 10.9407C8.03935 11.251 7.57428 11.2569 7.26656 10.9412C6.22964 9.87702 5.19621 8.80973 4.16408 7.74064C3.85505 7.41996 3.85026 6.90453 4.14272 6.60184C4.43562 6.29825 4.86844 6.31354 5.19926 6.65041C5.80772 7.26929 6.41052 7.89311 7.01594 8.51513C7.0264 8.52278 7.03642 8.53042 7.04688 8.53807C7.04994 8.52503 7.05255 8.51153 7.0556 8.49849V8.49894Z" fill="#45A2B6"/>
<path d="M12.3257 12.749H3.29935C3.20306 12.749 3.125 12.8296 3.125 12.9289V13.7506C3.125 13.85 3.20306 13.9306 3.29935 13.9306H12.3257C12.4219 13.9306 12.5 13.85 12.5 13.7506V12.9289C12.5 12.8296 12.4219 12.749 12.3257 12.749Z" fill="#45A2B6"/>
</g>
<defs>
<clipPath id="clip0_419_437">
<rect width="9.375" height="11.8782" fill="white" transform="translate(3.125 2.05273)"/>
</clipPath>
</defs>
</svg>
