<svg width="22" height="15" viewBox="0 0 22 15" fill="none" xmlns="http://www.w3.org/2000/svg">
<g clip-path="url(#clip0_418_1600)">
<path d="M3.22865 1.80305C3.22865 0.897862 2.50589 0.164062 1.61432 0.164062C0.722757 0.164062 0 0.897862 0 1.80305C0 2.70824 0.722757 3.44203 1.61432 3.44203C2.50589 3.44203 3.22865 2.70824 3.22865 1.80305Z" fill="#707070"/>
<path d="M21.3544 0H6.593C6.23637 0 5.94727 0.29352 5.94727 0.655594V2.95017C5.94727 3.31225 6.23637 3.60577 6.593 3.60577H21.3544C21.711 3.60577 22.0001 3.31225 22.0001 2.95017V0.655594C22.0001 0.29352 21.711 0 21.3544 0Z" fill="#707070"/>
<path d="M3.22865 7.50031C3.22865 6.59513 2.50589 5.86133 1.61432 5.86133C0.722757 5.86133 0 6.59513 0 7.50031C0 8.4055 0.722757 9.1393 1.61432 9.1393C2.50589 9.1393 3.22865 8.4055 3.22865 7.50031Z" fill="#707070"/>
<path d="M21.3544 5.69727H6.593C6.23637 5.69727 5.94727 5.99079 5.94727 6.35286V8.64744C5.94727 9.00952 6.23637 9.30303 6.593 9.30303H21.3544C21.711 9.30303 22.0001 9.00952 22.0001 8.64744V6.35286C22.0001 5.99079 21.711 5.69727 21.3544 5.69727Z" fill="#707070"/>
<path d="M3.22865 13.1976C3.22865 12.2924 2.50589 11.5586 1.61432 11.5586C0.722757 11.5586 0 12.2924 0 13.1976C0 14.1028 0.722757 14.8366 1.61432 14.8366C2.50589 14.8366 3.22865 14.1028 3.22865 13.1976Z" fill="#707070"/>
<path d="M21.3544 11.3945H6.593C6.23637 11.3945 5.94727 11.6881 5.94727 12.0501V14.3447C5.94727 14.7068 6.23637 15.0003 6.593 15.0003H21.3544C21.711 15.0003 22.0001 14.7068 22.0001 14.3447V12.0501C22.0001 11.6881 21.711 11.3945 21.3544 11.3945Z" fill="#707070"/>
</g>
<defs>
<clipPath id="clip0_418_1600">
<rect width="22" height="15" fill="white"/>
</clipPath>
</defs>
</svg>
