<svg width="95" height="82" viewBox="0 0 95 82" fill="none" xmlns="http://www.w3.org/2000/svg">
<path d="M83.0225 82C81.5487 82 80.0749 82 78.6011 81.9981C74.9148 81.9944 72.7117 79.824 72.7098 76.1906C72.7098 74.8531 72.7098 73.5137 72.7098 72.1406V70.0135H71.3383C69.9687 70.0135 68.5972 70.0135 67.2258 70.0135C65.8126 70.0135 64.4013 70.0153 62.9882 70.0153C60.9499 70.0153 58.9116 70.0135 56.8733 70.006C56.0095 70.0022 55.2783 69.6495 54.8672 69.038C54.5111 68.5072 54.46 67.8412 54.7252 67.211C55.0775 66.3762 55.7272 65.9354 56.6062 65.9316C60.2869 65.9204 63.3424 65.9166 66.2199 65.9166C69.2754 65.9166 72.0676 65.9223 74.7557 65.9335C76.0286 65.9391 76.8243 66.8095 76.8318 68.207C76.8413 69.929 76.8413 71.6811 76.8394 73.3749C76.8394 74.3673 76.8394 75.3596 76.8394 76.3538C76.8413 77.7025 77.0402 77.9051 78.3643 77.9051C80.1924 77.9051 82.0204 77.9069 83.8484 77.9069C85.6764 77.9069 87.5044 77.9069 89.3324 77.9051C90.6319 77.9051 90.8593 77.6856 90.8593 76.4475C90.8593 74.4217 90.8649 72.3958 90.8725 70.368C90.8877 65.4852 90.9009 60.4355 90.8346 55.4701C90.7664 50.4917 89.1544 45.5095 85.9056 40.2403C85.8109 40.0865 85.7105 39.9364 85.6101 39.7845C85.5362 39.6738 85.4623 39.5631 85.3904 39.4506C84.841 38.5896 84.7122 37.7586 85.0285 37.1114C85.3449 36.4642 86.0818 36.0516 87.1009 35.9446C89.0123 35.7458 90.38 34.6316 90.6679 33.0334C90.8914 31.7953 90.8593 30.5029 90.8271 29.2517L90.8195 28.9028C90.7986 28.053 89.9613 28.053 89.5105 28.053H89.4764C88.0632 28.0568 86.6482 28.0568 85.2331 28.0568C83.9374 28.0568 82.6417 28.0568 81.346 28.0549C79.8381 28.0549 79.1997 27.6028 78.7262 26.1978L77.8226 23.5229C76.3507 19.1729 74.8277 14.6727 73.3633 10.2383C73.1019 9.44855 72.6511 8.87455 71.9407 8.42998C69.1561 6.68733 66.0532 5.92762 63.3879 5.41364C58.7051 4.50949 53.6795 4.07055 48.0269 4.07055C46.3011 4.07055 44.5394 4.10994 42.6375 4.1906C38.1328 4.38381 33.3156 4.75898 28.6025 6.18648C26.8844 6.70797 25.2325 7.51645 23.6356 8.29867C23.3894 8.41872 23.145 8.53877 22.8987 8.65883C22.3778 8.91206 21.9989 9.56485 21.8322 10.0469C20.5043 13.9036 19.1802 17.8335 17.8996 21.6358C17.3995 23.1196 16.8994 24.6034 16.3974 26.0872C15.8765 27.631 15.2893 28.053 13.6696 28.0549C13.0218 28.0549 12.3739 28.0568 11.7261 28.0587C10.885 28.0605 10.0458 28.0624 9.20472 28.0624C7.81808 28.0624 6.68528 28.0568 5.63583 28.0436H5.59415C5.08648 28.0436 4.7436 28.1543 4.51629 28.3907C4.29276 28.6233 4.19425 28.9722 4.21698 29.458C4.23972 29.9401 4.23403 30.4353 4.23025 30.9155C4.22646 31.2644 4.22267 31.6246 4.23025 31.981C4.27192 34.0857 5.76843 35.7139 7.87302 35.939C8.98309 36.0591 9.76544 36.4774 10.0742 37.1189C10.3868 37.7661 10.2201 38.6421 9.60632 39.5875C5.83663 45.3857 4.06923 51.2795 4.19804 57.6067C4.28707 61.9099 4.26434 66.2881 4.2454 70.5237C4.23593 72.4276 4.22646 74.3954 4.22646 76.3294C4.22646 77.7119 4.42157 77.9032 5.82526 77.9032C7.66843 77.9032 9.5116 77.9032 11.3548 77.9032C13.1979 77.9032 14.9805 77.9032 16.7934 77.9013C18 77.9013 18.2444 77.6593 18.2463 76.4663C18.2482 75.1532 18.2463 73.842 18.2463 72.5289C18.2463 71.1577 18.2463 69.7846 18.2463 68.4134C18.2501 66.6651 19.0078 65.9185 20.779 65.9166C22.5009 65.9166 24.221 65.9166 25.9429 65.9166H37.9851C40.8625 65.9166 42.4481 64.3541 42.45 61.5178C42.4519 59.3437 42.45 57.1715 42.45 54.9974V52.0111L42.2928 51.983C41.7794 51.8929 41.266 51.8123 40.7697 51.7335C39.6805 51.5609 38.6519 51.3996 37.6271 51.1501C30.2146 49.3418 25.7421 44.429 24.6927 36.9463C24.4975 35.5601 24.3782 34.0275 24.3138 32.1198C24.293 31.5008 24.4956 30.9381 24.884 30.5385C25.2287 30.184 25.7004 29.987 26.2119 29.9851H26.4449C32.3627 29.9851 36.5094 31.1744 39.8908 33.8418C40.944 34.6728 41.8741 35.7045 42.7758 36.7025C43.1793 37.1489 43.596 37.6123 44.0223 38.0531L44.0261 38.0625L44.081 38.1581H44.1928C44.35 38.1581 44.4636 37.9274 44.5186 37.7905C47.3411 30.6886 52.8441 26.2973 60.876 24.7384C63.0507 24.3164 65.3258 24.1738 67.527 24.0369L68.3567 23.9844C68.4419 23.9787 68.5253 23.9768 68.6067 23.9768C69.283 23.9768 69.8134 24.1644 70.1828 24.5358C70.5901 24.9448 70.7909 25.5563 70.7795 26.3573C70.698 32.5513 69.5633 37.2971 67.2068 41.2908C64.1532 46.468 59.4193 49.6701 52.7361 51.0788C51.4272 51.3546 50.1106 51.5328 48.7164 51.7222C48.0742 51.8085 47.4112 51.8986 46.7425 51.9999L46.5815 52.0242V55.7234C46.5853 57.6874 46.5853 59.6495 46.5815 61.6135C46.5682 66.5525 43.0675 70.0059 38.0646 70.0116C36.3067 70.0116 34.5469 70.0135 32.789 70.0135H22.3759C22.3759 70.0135 22.3759 74.7837 22.3759 76.1493C22.3759 79.8109 20.152 81.9981 16.4315 81.9981H10.6141C9.05507 81.9981 7.49794 81.9981 5.93892 81.9981C2.33214 81.9981 0.0930567 79.7903 0.0911624 76.2412C0.0911624 74.2097 0.094951 72.1782 0.100634 70.1466C0.110106 65.821 0.121471 61.349 0.0760079 56.9502C0.017284 51.287 1.40014 45.8903 4.30033 40.4485C4.40831 40.2459 4.51629 40.0415 4.62805 39.8257L4.88 39.3474L4.71708 39.2592C2.40602 38.0062 1.00233 36.3479 0.428351 34.187C-0.100164 32.2005 -0.139944 30.1408 0.310903 28.0662C0.864044 25.5169 2.84171 23.9862 5.59984 23.9693H6.02985C6.94101 23.96 7.85407 23.9543 8.76524 23.9543C9.89994 23.9543 10.8433 23.9637 11.7393 23.9825H11.8113C12.5349 23.9825 12.8911 23.7217 13.1222 23.0164C13.8628 20.7673 14.63 18.4844 15.3707 16.2766C16.2497 13.6598 17.1609 10.953 18.0303 8.28366C18.3903 7.1788 19.0021 6.33468 19.9569 5.62936C22.2566 3.92799 24.9995 2.76872 28.8526 1.86833C34.24 0.61152 40.1673 0 46.9755 0C48.6349 0 50.3417 0.0337649 52.1906 0.105046C58.7733 0.356408 63.761 1.07485 68.3623 2.43295C71.0921 3.23956 73.2061 4.22812 75.0152 5.54495C76.0419 6.29341 76.6954 7.17692 77.0667 8.32681C77.9646 11.0937 78.9099 13.8961 79.823 16.6067C80.5257 18.6908 81.2532 20.8461 81.9522 22.9695C82.1965 23.7105 82.5621 23.9862 83.3009 23.9862C83.3312 23.9862 83.3634 23.9862 83.3938 23.9862C84.1269 23.9656 84.9281 23.9543 85.9151 23.9543C86.4569 23.9543 86.9986 23.9581 87.5423 23.96C88.0803 23.9637 88.6183 23.9656 89.1563 23.9656C90.9275 23.9656 92.4069 24.504 93.4336 25.5244C94.4566 26.5392 94.9946 27.993 94.9908 29.7319C94.9908 29.9945 94.9926 30.259 94.9964 30.5235C95.0059 31.3357 95.0173 32.1761 94.9112 32.9808C94.557 35.7083 93.0415 37.8111 90.4084 39.2311L90.2512 39.3155L90.327 39.475C90.5353 39.9139 90.7475 40.3491 90.9596 40.7824C91.4086 41.7034 91.8746 42.6564 92.2876 43.6074C94.108 47.7924 95.0192 52.1724 95.0002 56.6275C94.9813 61.0226 94.9851 65.4908 94.9889 69.8127C94.9908 71.9718 94.9927 74.1309 94.9927 76.2918C94.9927 79.7565 92.7138 81.9962 89.1885 81.9981H88.8058C86.8774 81.9981 84.949 82 83.0206 82H83.0225ZM66.3127 28.1975C57.6614 28.8352 54.1303 31.3901 51.8155 33.8043C47.8961 37.8936 47.0475 43.069 46.7349 47.5917L46.7198 47.8074L46.9376 47.7924C51.4745 47.4791 56.6687 46.6444 60.7813 42.8271C65.1856 38.7396 66.1517 33.2397 66.5173 28.3982L66.5343 28.1806L66.3146 28.1975H66.3127ZM30.0858 34.2545C29.6539 34.2545 29.2295 34.292 28.8242 34.3671L28.6613 34.3971L28.6707 34.5622C28.8924 38.7171 30.2335 41.9642 32.6602 44.2133C34.9049 46.2936 38.0192 47.4772 41.9177 47.7286L42.0768 47.738L42.1147 47.5842C42.6906 45.2112 41.7964 42.315 39.6653 39.6363C37.0625 36.3667 33.3042 34.2545 30.0877 34.2545H30.0858Z" fill="#45AFA8"/>
</svg>
