<svg width="22" height="15" viewBox="0 0 22 15" fill="none" xmlns="http://www.w3.org/2000/svg">
<g clip-path="url(#clip0_418_1610)">
<path d="M3.52359 0H0.420141C0.188104 0 0 0.186877 0 0.417401V14.5826C0 14.8131 0.188104 15 0.420141 15H3.52359C3.75562 15 3.94373 14.8131 3.94373 14.5826V0.417401C3.94373 0.186877 3.75562 0 3.52359 0Z" fill="white"/>
<path d="M9.54312 5.02734H6.43967C6.20763 5.02734 6.01953 5.21422 6.01953 5.44474V14.583C6.01953 14.8136 6.20763 15.0004 6.43967 15.0004H9.54312C9.77515 15.0004 9.96326 14.8136 9.96326 14.583V5.44474C9.96326 5.21422 9.77515 5.02734 9.54312 5.02734Z" fill="white"/>
<path d="M15.5607 1.16016H12.4573C12.2252 1.16016 12.0371 1.34703 12.0371 1.57756V14.5824C12.0371 14.8129 12.2252 14.9998 12.4573 14.9998H15.5607C15.7927 14.9998 15.9808 14.8129 15.9808 14.5824V1.57756C15.9808 1.34703 15.7927 1.16016 15.5607 1.16016Z" fill="white"/>
<path d="M21.5802 9.63477H18.4768C18.2447 9.63477 18.0566 9.82164 18.0566 10.0522V14.5824C18.0566 14.8129 18.2447 14.9998 18.4768 14.9998H21.5802C21.8123 14.9998 22.0004 14.8129 22.0004 14.5824V10.0522C22.0004 9.82164 21.8123 9.63477 21.5802 9.63477Z" fill="white"/>
</g>
<defs>
<clipPath id="clip0_418_1610">
<rect width="22" height="15" fill="white"/>
</clipPath>
</defs>
</svg>
