<svg width="17" height="17" viewBox="0 0 17 17" fill="none" xmlns="http://www.w3.org/2000/svg">
<path d="M16.4673 12H12.5327C12.2385 12 12 12.1742 12 12.389V16.611C12 16.8258 12.2385 17 12.5327 17H16.4673C16.7615 17 17 16.8258 17 16.611V12.389C17 12.1742 16.7615 12 16.4673 12Z" fill="#707070"/>
<path d="M10.4673 12H6.53267C6.23848 12 6 12.1742 6 12.389V16.611C6 16.8258 6.23848 17 6.53267 17H10.4673C10.7615 17 11 16.8258 11 16.611V12.389C11 12.1742 10.7615 12 10.4673 12Z" fill="#707070"/>
<path d="M16.4673 6H12.5327C12.2385 6 12 6.17416 12 6.389V10.611C12 10.8258 12.2385 11 12.5327 11H16.4673C16.7615 11 17 10.8258 17 10.611V6.389C17 6.17416 16.7615 6 16.4673 6Z" fill="#707070"/>
<path d="M10.4673 6H6.53267C6.23848 6 6 6.17416 6 6.389V10.611C6 10.8258 6.23848 11 6.53267 11H10.4673C10.7615 11 11 10.8258 11 10.611V6.389C11 6.17416 10.7615 6 10.4673 6Z" fill="#707070"/>
<path d="M4.46733 6H0.53267C0.238485 6 0 6.17416 0 6.389V10.611C0 10.8258 0.238485 11 0.53267 11H4.46733C4.76152 11 5 10.8258 5 10.611V6.389C5 6.17416 4.76152 6 4.46733 6Z" fill="#707070"/>
<path d="M4.46733 12H0.53267C0.238485 12 0 12.1742 0 12.389V16.611C0 16.8258 0.238485 17 0.53267 17H4.46733C4.76152 17 5 16.8258 5 16.611V12.389C5 12.1742 4.76152 12 4.46733 12Z" fill="#707070"/>
<path d="M16.4673 0H12.5327C12.2385 0 12 0.174163 12 0.389004V4.611C12 4.82584 12.2385 5 12.5327 5H16.4673C16.7615 5 17 4.82584 17 4.611V0.389004C17 0.174163 16.7615 0 16.4673 0Z" fill="#707070"/>
<path d="M10.4673 0H6.53267C6.23848 0 6 0.174163 6 0.389004V4.611C6 4.82584 6.23848 5 6.53267 5H10.4673C10.7615 5 11 4.82584 11 4.611V0.389004C11 0.174163 10.7615 0 10.4673 0Z" fill="#707070"/>
<path d="M4.46733 0H0.53267C0.238485 0 0 0.174163 0 0.389004V4.611C0 4.82584 0.238485 5 0.53267 5H4.46733C4.76152 5 5 4.82584 5 4.611V0.389004C5 0.174163 4.76152 0 4.46733 0Z" fill="#707070"/>
</svg>
