<svg width="15" height="18" viewBox="0 0 15 18" fill="none" xmlns="http://www.w3.org/2000/svg">
<g clip-path="url(#clip0_418_1876)">
<path d="M6.923 8.49894C6.96662 8.44002 6.95294 8.37076 6.95294 8.30464C6.95294 6.74037 6.95508 5.17564 6.94994 3.61136C6.94909 3.33341 6.93626 3.05546 6.95336 2.7775C6.98331 2.28231 7.30581 2.04484 7.67708 2.05293C8.08556 2.06193 8.40336 2.37452 8.40336 2.81573C8.40422 4.71014 8.40165 6.60454 8.40037 8.49849C8.40336 8.51153 8.40678 8.52458 8.40978 8.53762C8.42004 8.52997 8.42988 8.52233 8.44015 8.51468C9.03939 7.88726 9.63608 7.25669 10.2396 6.63377C10.5634 6.2996 10.9804 6.30859 11.288 6.62478C11.51 6.85236 11.5887 7.38848 11.2448 7.74244C10.335 8.6775 9.44231 9.631 8.5428 10.5768C8.42732 10.6983 8.31311 10.8215 8.19549 10.9407C7.88838 11.251 7.43199 11.2569 7.13002 10.9412C6.11245 9.87702 5.09831 8.80973 4.08545 7.74064C3.78219 7.41996 3.77748 6.90453 4.06449 6.60184C4.35192 6.29825 4.77666 6.31354 5.1013 6.65041C5.69841 7.26929 6.28996 7.89311 6.88407 8.51513C6.89434 8.52278 6.90418 8.53042 6.91444 8.53807C6.91744 8.52503 6.92 8.51153 6.923 8.49849V8.49894Z" fill="#50555C"/>
<path d="M12.0953 12.749H3.2375C3.14301 12.749 3.06641 12.8296 3.06641 12.9289V13.7506C3.06641 13.85 3.14301 13.9306 3.2375 13.9306H12.0953C12.1898 13.9306 12.2664 13.85 12.2664 13.7506V12.9289C12.2664 12.8296 12.1898 12.749 12.0953 12.749Z" fill="#50555C"/>
</g>
<defs>
<clipPath id="clip0_418_1876">
<rect width="9.2" height="11.8782" fill="white" transform="translate(3.06641 2.05273)"/>
</clipPath>
</defs>
</svg>
