<svg width="56" height="83" viewBox="0 0 56 83" fill="none" xmlns="http://www.w3.org/2000/svg">
<g clip-path="url(#clip0_418_1702)">
<path d="M7.67888 27.2554C7.93728 27.2155 8.19827 27.1482 8.45651 27.1399C23.1404 26.6653 37.8249 26.1967 52.5088 25.7205C53.1758 25.6991 53.7871 25.7632 54.2581 26.2589C54.7736 26.8044 54.9117 27.4509 54.6531 28.1912C54.3933 28.9376 53.8487 29.3796 53.0903 29.5355C52.834 29.5882 52.5684 29.5856 52.3068 29.594C37.6222 30.066 22.9376 30.5363 8.25399 31.0023C8.00176 31.0095 7.75146 30.9569 7.50028 30.9317C7.48611 31.0005 7.47189 31.071 7.45772 31.1398C7.59467 31.2908 7.72545 31.4481 7.86946 31.5921C10.484 34.2084 13.102 36.8229 15.7148 39.4409C16.5324 40.2604 16.6337 41.2036 16.0211 42.0877C15.3959 42.9893 14.1107 43.2416 13.2937 42.6151C13.1095 42.4733 12.9458 42.3043 12.7802 42.1387C9.02094 38.3812 5.2617 34.622 1.50417 30.8627C0.41414 29.7726 0.43788 28.9262 1.59047 27.7736C5.64219 23.7219 9.69137 19.6694 13.7447 15.6193C14.7208 14.6433 15.8928 14.5373 16.6846 15.3362C17.3466 16.0035 17.3788 17.0754 16.7498 17.8584C16.5816 18.0679 16.3892 18.2603 16.1995 18.45C13.4998 21.1514 10.7983 23.8529 8.09776 26.5534C7.94067 26.7105 7.78358 26.8676 7.6256 27.0256C7.64371 27.1002 7.66176 27.1765 7.67987 27.2511L7.67888 27.2554Z" fill="#D1E8EE"/>
</g>
<g clip-path="url(#clip1_418_1702)">
<path d="M47.8963 55.6665C47.6379 55.7064 47.3769 55.7737 47.1187 55.782C32.4348 56.2566 17.7503 56.7252 3.06639 57.2014C2.39941 57.2228 1.78814 57.1587 1.31714 56.663C0.801611 56.1175 0.663469 55.471 0.922134 54.7306C1.18185 53.9843 1.7265 53.5422 2.48492 53.3863C2.74117 53.3337 3.00675 53.3363 3.26841 53.3279C17.953 52.8559 32.6376 52.3856 47.3212 51.9196C47.5734 51.9123 47.8237 51.9649 48.0749 51.9902C48.0891 51.9214 48.1033 51.8509 48.1175 51.7821C47.9805 51.631 47.8497 51.4738 47.7057 51.3298C45.0912 48.7135 42.4732 46.099 39.8604 43.4809C39.0428 42.6615 38.9415 41.7183 39.5541 40.8341C40.1793 39.9325 41.4644 39.6803 42.2815 40.3067C42.4657 40.4486 42.6294 40.6176 42.795 40.7831C46.5543 44.5407 50.3135 48.2999 54.071 52.0592C55.1611 53.1492 55.1373 53.9957 53.9847 55.1482C49.933 59.2 45.8838 63.2525 41.8305 67.3025C40.8544 68.2786 39.6824 68.3845 38.8906 67.5856C38.2286 66.9184 38.1964 65.8465 38.8254 65.0635C38.9936 64.854 39.186 64.6616 39.3757 64.4718C42.0754 61.7704 44.7769 59.069 47.4774 56.3684C47.6345 56.2113 47.7916 56.0543 47.9496 55.8963C47.9315 55.8217 47.9134 55.7454 47.8953 55.6708L47.8963 55.6665Z" fill="#D1E8EE"/>
</g>
<defs>
<clipPath id="clip0_418_1702">
<rect width="40.5618" height="38.0339" fill="white" transform="translate(55.5752 27.5762) rotate(135)"/>
</clipPath>
<clipPath id="clip1_418_1702">
<rect width="40.5618" height="38.0339" fill="white" transform="translate(0 55.3457) rotate(-45)"/>
</clipPath>
</defs>
</svg>
