<svg width="93" height="98" viewBox="0 0 93 98" fill="none" xmlns="http://www.w3.org/2000/svg">
<g clip-path="url(#clip0_418_2343)">
<path d="M93.0009 52.0725C92.7662 53.8677 92.6024 55.6764 92.284 57.4564C89.6712 72.1006 82.2842 83.3191 70.2612 91.0891C62.9488 95.8132 54.9159 98.1168 46.3426 97.9959C32.3673 97.8003 20.8101 91.9848 11.569 80.9753C11.4089 80.7854 11.2488 80.5955 11.085 80.4076C11.0705 80.3903 11.0341 80.3922 10.9249 80.3654C10.9049 80.6416 10.8721 80.9082 10.8703 81.1748C10.8667 83.4074 10.8794 85.6419 10.8631 87.8745C10.854 89.1116 10.2772 89.8117 9.31651 89.8213C8.33764 89.8309 7.7736 89.1538 7.77178 87.9052C7.76451 83.7891 7.76269 79.6749 7.77178 75.5588C7.77542 74.1011 8.32672 73.5218 9.6986 73.518C13.6032 73.5084 17.5077 73.5103 21.4123 73.5161C22.5349 73.5161 23.2572 74.1816 23.2463 75.1637C23.2354 76.1476 22.5276 76.7691 21.3814 76.7729C18.7177 76.7806 16.054 76.7767 13.3903 76.7767C13.0992 76.7767 12.8099 76.7767 12.2204 76.7767C13.5086 78.315 14.5602 79.7036 15.741 80.9561C24.5509 90.2969 35.2111 94.977 47.7181 94.7334C67.9887 94.3363 85.7721 78.1366 89.2146 57.0881C90.4245 49.6883 89.9951 42.4228 87.8936 35.2571C87.8481 35.1055 87.7936 34.9559 87.7535 34.8025C87.4442 33.6306 87.8027 32.7905 88.736 32.4989C89.6239 32.2208 90.399 32.6811 90.6938 33.8128C91.2578 35.9917 91.8273 38.1763 92.2458 40.3878C92.6042 42.2828 92.7552 44.22 92.9972 46.1381V52.0725H93.0009Z" fill="#45AFA8"/>
<path d="M49.4078 0C51.0489 0.241672 52.6992 0.427721 54.3294 0.734607C65.1935 2.78307 74.1889 8.29741 81.4322 17.0398C81.5904 17.2316 81.7542 17.4177 81.9179 17.6056C81.9325 17.6229 81.9689 17.621 82.0781 17.6478C82.0981 17.3716 82.1326 17.105 82.1326 16.8384C82.1363 14.6058 82.1254 12.3713 82.1399 10.1387C82.1472 8.90351 82.7276 8.20343 83.6883 8.19768C84.6635 8.19384 85.2257 8.86899 85.2294 10.1176C85.2403 14.2337 85.2421 18.3479 85.2294 22.464C85.2257 23.9198 84.6708 24.499 83.2989 24.5029C79.3944 24.5105 75.4898 24.5105 71.5852 24.5029C70.4608 24.501 69.7439 23.8373 69.7548 22.8534C69.7658 21.8694 70.4735 21.2499 71.6216 21.248C74.2853 21.2422 76.949 21.2461 79.6127 21.2461C79.902 21.2461 80.1913 21.2461 80.7735 21.2461C79.5563 19.7807 78.561 18.4707 77.4566 17.2719C70.1387 9.33699 61.2761 4.53807 50.8142 3.53685C36.1257 2.13094 23.7534 7.37676 13.8864 18.9233C8.106 25.6882 4.72908 33.7171 3.51186 42.7242C2.61486 49.3548 3.14069 55.8915 4.96561 62.3073C5.05294 62.6123 5.16757 62.9096 5.23307 63.2203C5.43685 64.1812 4.99108 65.0386 4.18688 65.2707C3.34811 65.5104 2.52571 65.0865 2.27098 64.1275C1.73242 62.1059 1.14838 60.0824 0.804497 58.0205C-1.36248 45.0393 0.815414 32.9115 7.80215 21.9538C15.5913 9.73018 26.5372 2.58935 40.3687 0.416213C41.4404 0.247426 42.5211 0.138098 43.5964 0C45.5342 0 47.4719 0 49.4096 0H49.4078Z" fill="#45AFA8"/>
<path d="M44.9463 52.27C42.7957 52.27 40.7452 52.2681 38.6965 52.27C36.0983 52.2739 33.5801 51.7848 31.1584 50.8085C25.0596 48.3534 21.7336 43.5084 20.5492 36.9008C20.2817 35.4086 20.2144 33.8627 20.1798 32.3397C20.1216 29.7907 20.1543 27.2378 20.1689 24.6868C20.1744 23.6127 20.6456 22.9126 21.5681 22.9203C25.942 22.9567 30.347 22.4178 34.6736 23.5302C41.9588 25.4041 46.8386 30.9568 47.7265 38.838C48.1322 42.4286 48.0412 46.0901 48.0522 49.721C48.0867 60.5962 48.0613 71.4715 48.0576 82.3467C48.0576 82.7284 48.0649 83.1158 48.0158 83.4918C47.8993 84.3664 47.2516 84.961 46.4765 84.9456C45.6978 84.9303 45.081 84.3242 44.9791 83.4381C44.9391 83.0909 44.95 82.738 44.95 82.387C44.9482 72.7872 44.9482 63.1875 44.9463 53.5877C44.9463 53.1811 44.9463 52.7764 44.9463 52.2662V52.27ZM42.6556 48.7543C42.4227 48.551 42.1735 48.3668 41.9606 48.1424C37.099 43.0251 32.241 37.904 27.3831 32.7828C27.1684 32.5565 26.9427 32.3417 26.7535 32.0942C26.1913 31.3539 26.235 30.4658 26.8463 29.8521C27.4049 29.292 28.2746 29.2651 28.915 29.8099C29.1498 30.0093 29.3554 30.2472 29.5682 30.4716C34.4062 35.5697 39.2423 40.6678 44.0803 45.766C44.3059 46.0038 44.5442 46.2263 44.8699 46.5466C44.9099 46.2225 44.9572 46.0441 44.9518 45.8676C44.8645 43.6082 44.9518 41.32 44.6407 39.0951C43.7036 32.3647 39.7154 28.0088 33.4073 26.5856C30.1141 25.8434 26.7772 26.1963 23.4567 26.1905C23.4112 26.1905 23.3657 26.2577 23.1019 26.461C23.2693 29.7024 23.171 33.1434 23.6823 36.4827C24.5865 42.3902 27.8488 46.3836 33.3709 48.1846C36.373 49.1628 39.4479 49.0401 42.6556 48.7543Z" fill="#45AFA8"/>
<path d="M51.1682 57.8074C51.0481 54.8249 51.2046 51.2497 52.4218 47.7953C54.7107 41.3008 59.2466 37.6086 65.5638 36.4406C68.3658 35.9227 71.2824 36.08 74.148 35.963C75.2652 35.9169 76.3878 35.9323 77.5067 35.9706C78.4183 36.0013 79.0223 36.5844 79.0132 37.5281C78.9805 41.32 79.1442 45.1369 78.7913 48.8982C77.9707 57.6751 71.9519 64.089 63.6097 65.0384C59.9871 65.4508 56.3009 65.2667 52.6438 65.3069C51.7159 65.3165 51.19 64.6663 51.1737 63.6114C51.1464 61.889 51.1664 60.1666 51.1664 57.8074H51.1682ZM75.9493 39.4135C72.9199 39.4135 70.0124 39.0932 67.1886 39.4691C55.9825 40.9614 53.4898 50.6417 54.4159 59.5509C54.6816 59.2882 54.9217 59.0599 55.151 58.8182C59.9871 53.7239 64.8214 48.6258 69.6576 43.5315C69.8705 43.3071 70.0779 43.0693 70.3162 42.8736C70.9803 42.3289 71.81 42.3692 72.3777 42.9542C72.9472 43.5411 73.0036 44.4157 72.4923 45.1216C72.3103 45.3728 72.0866 45.5934 71.8719 45.8178C67.0375 50.9159 62.2032 56.0102 57.3689 61.1084C57.1269 61.3635 56.8959 61.632 56.6612 61.8948C56.6939 61.9849 56.7248 62.077 56.7576 62.1671C58.9792 62.054 61.2298 62.1422 63.4168 61.7912C69.381 60.836 73.4748 57.4488 75.2269 51.1845C76.3204 47.2736 75.7964 43.2879 75.9511 39.4116L75.9493 39.4135Z" fill="#45AFA8"/>
</g>
<defs>
<clipPath id="clip0_418_2343">
<rect width="93" height="98" fill="white"/>
</clipPath>
</defs>
</svg>
