<svg width="47" height="47" viewBox="0 0 47 47" fill="none" xmlns="http://www.w3.org/2000/svg">
<path d="M44.57 38.5763H46.128C46.0487 40.1901 46.1262 41.7788 45.8506 43.3044C45.5552 44.938 44.0872 45.9413 42.4193 46.0097C42.3005 46.0151 42.1798 46.0133 42.0591 46.0133C29.3644 46.0133 16.6679 46.0133 3.97315 46.0133C2.3629 46.0133 1.12549 45.3739 0.396008 43.915C0.187071 43.4989 0.046579 43.0072 0.0285672 42.5443C-0.0200647 41.2438 0.0123566 39.9398 0.0123566 38.5763H1.48212V37.8972C1.48212 30.1071 1.48212 22.3152 1.48212 14.5251C1.48212 13.7236 1.56137 12.9419 1.99185 12.2358C2.66009 11.1407 3.61832 10.449 4.90977 10.4166C7.17205 10.359 9.43613 10.3824 11.6984 10.377C13.5572 10.3734 15.4161 10.377 17.2749 10.377H17.7198C17.8981 9.39354 17.9719 8.42811 18.2547 7.52752C19.5245 3.46045 22.2587 0.900974 26.4699 0.164291C31.6681 -0.745305 36.4574 2.19422 38.1073 7.1943C38.3883 8.04806 38.4676 8.97567 38.5774 9.87626C38.6225 10.2437 38.6837 10.4022 39.0926 10.3878C39.8094 10.3608 40.5317 10.3734 41.2486 10.413C42.9003 10.5049 44.4223 12.0395 44.5213 13.6912C44.5483 14.1397 44.5646 14.5881 44.5646 15.0366C44.5664 22.6772 44.5664 30.3197 44.5664 37.9603V38.5727L44.57 38.5763ZM40.0886 40.0821V14.8529C40.0022 14.8385 39.9733 14.8277 39.9445 14.8277C39.3141 14.8259 38.6837 14.8439 38.0569 14.8151C37.7255 14.8007 37.567 14.916 37.4049 15.2041C35.3929 18.7669 32.3544 20.7302 28.2423 20.7374C24.1302 20.7428 21.0844 18.7921 19.0616 15.233C18.8959 14.9394 18.7356 14.8133 18.3772 14.8151C14.4056 14.8313 10.4322 14.8259 6.46058 14.8259H5.96706V38.5763C6.1742 38.5763 6.35071 38.5763 6.52903 38.5763C10.0071 38.5763 13.4834 38.5709 16.9615 38.5871C17.1884 38.5871 17.4676 38.6861 17.6315 38.8374C18.6023 39.729 19.7461 40.0929 21.0411 40.0803C22.3758 40.0694 23.7087 40.073 25.0434 40.0803C26.306 40.0875 27.4227 39.7326 28.3773 38.8717C28.5647 38.7041 28.8727 38.5907 29.1248 38.5889C32.1076 38.5691 35.0903 38.5763 38.0731 38.5763H38.5882V40.0821H38.0857C35.2831 40.0821 32.4804 40.0766 29.676 40.0929C29.4328 40.0929 29.1519 40.1991 28.9555 40.345C28.0027 41.0475 26.9562 41.5068 25.7674 41.5302C24.0293 41.5644 22.2912 41.5572 20.553 41.5482C19.2183 41.541 18.0386 41.0853 16.9903 40.2604C16.8444 40.1451 16.612 40.0893 16.4193 40.0893C11.5921 40.0803 6.76678 40.0821 1.93962 40.0821C1.80813 40.0821 1.67665 40.0947 1.52175 40.1037C1.52175 40.9322 1.50373 41.7355 1.52715 42.5389C1.54516 43.1405 1.84776 43.6178 2.29625 44.005C2.8204 44.4571 3.44901 44.5202 4.10644 44.5202C16.7129 44.5166 29.3194 44.5184 41.9258 44.5166C42.1204 44.5166 42.3149 44.5112 42.5094 44.4967C43.4604 44.4265 44.28 43.8429 44.4385 42.9045C44.5934 41.9913 44.5483 41.0457 44.5916 40.0839H40.0904L40.0886 40.0821ZM19.7227 7.64459C18.8131 11.1371 19.4615 14.1793 21.9796 16.6847C24.2887 18.983 27.1093 19.6891 30.3208 19.0208C29.4364 16.3713 28.5773 13.7794 27.6965 11.1947C27.6407 11.0308 27.4461 10.8669 27.2768 10.7931C25.8899 10.2005 24.494 9.62949 23.1017 9.05132C22.0012 8.59382 20.9024 8.13451 19.7245 7.64459H19.7227ZM35.0363 4.67445C35.0003 4.68886 34.9823 4.69066 34.9733 4.70146C33.073 6.59451 31.171 8.48575 29.2833 10.3932C29.1825 10.4959 29.1483 10.7516 29.1969 10.8993C30.002 13.3543 30.8233 15.8039 31.6429 18.2535C31.6735 18.3454 31.7257 18.4301 31.7672 18.5147C37.0879 16.2452 38.9485 9.34671 35.0345 4.67445H35.0363ZM20.3549 6.24688C20.4179 6.29191 20.4504 6.32613 20.49 6.34234C22.9162 7.3528 25.346 8.35606 27.7649 9.38273C28.0531 9.50521 28.1702 9.36472 28.3305 9.20442C30.1083 7.42485 31.8878 5.64708 33.6656 3.86932C33.7575 3.77746 33.8367 3.67659 33.9214 3.57933C29.939 0.0958461 23.2116 0.938799 20.3549 6.24688ZM18.2457 13.3489C18.1611 12.9653 18.0494 12.6375 18.0242 12.3006C17.9953 11.9368 17.8512 11.8431 17.4928 11.8449C13.4762 11.8576 9.46135 11.8503 5.44472 11.854C3.88489 11.854 2.96989 12.7816 2.96989 14.3522C2.96989 22.2612 2.96989 30.1702 2.96989 38.0791C2.96989 38.2358 2.96989 38.3925 2.96989 38.5402H4.45587C4.45587 38.3295 4.45587 38.153 4.45587 37.9765C4.45587 35.3702 4.45587 32.7639 4.45587 30.1575C4.45587 25.1845 4.45587 20.2114 4.45947 15.2384C4.45947 14.9412 4.46487 14.6314 4.54773 14.3504C4.74406 13.684 5.30783 13.3507 6.16879 13.3489C10.0053 13.3471 13.8418 13.3489 17.6765 13.3489C17.8531 13.3489 18.0278 13.3489 18.2457 13.3489ZM38.2118 13.3525C38.8674 13.3525 39.478 13.3381 40.0868 13.3561C40.9784 13.3814 41.526 13.9253 41.5854 14.8151C41.598 14.9934 41.5944 15.1735 41.5944 15.3536C41.5944 22.888 41.5944 30.4223 41.5944 37.9567V38.5366H43.0804V38.0539C43.0804 30.1756 43.0804 22.2972 43.0804 14.417C43.0804 14.2964 43.0822 14.1775 43.0768 14.0568C43.0227 12.9275 42.2807 12.0269 41.1585 11.9116C40.2886 11.8215 39.4006 11.8936 38.5162 11.8936C38.4189 12.3637 38.3217 12.8266 38.2118 13.3525Z" fill="white"/>
<path d="M14.1255 30.5935C14.0535 29.2642 15.0657 28.2033 16.3338 28.2033C17.6162 28.2033 18.6285 29.2444 18.5366 30.5124C18.5114 30.8582 18.596 31.051 18.8914 31.2365C19.7398 31.7696 20.5683 32.337 21.3987 32.9008C21.5878 33.0287 21.7265 33.0737 21.9571 32.9404C22.5911 32.5766 23.2557 32.5442 23.9365 32.8576C24.0608 32.9152 24.2914 32.89 24.3995 32.8053C25.6513 31.8273 26.8905 30.8348 28.1207 29.8298C28.2234 29.7451 28.29 29.5308 28.2684 29.3921C28.1279 28.4645 28.3873 27.6936 29.1528 27.1406C29.8985 26.6021 30.7126 26.5462 31.5195 26.9929C32.3445 27.4486 32.7497 28.1799 32.6417 29.1165C32.5948 29.5254 32.7263 29.7307 33.0343 29.9451C33.6485 30.3719 34.2483 30.824 34.8319 31.2923C35.0624 31.4779 35.23 31.4869 35.5019 31.3644C36.6763 30.833 38.0596 31.431 38.4847 32.6234C38.926 33.859 38.2433 35.1739 36.9771 35.5305C35.4299 35.9664 33.9277 34.6263 34.2051 33.0323C34.2501 32.7711 34.1817 32.6576 33.9961 32.5207C33.3081 32.0146 32.6363 31.4869 31.9392 30.9951C31.8167 30.9087 31.5772 30.8817 31.4385 30.9393C30.7972 31.2131 30.1758 31.2545 29.531 30.9519C29.4085 30.8943 29.1762 30.9285 29.0681 31.0132C27.8163 31.9912 26.5753 32.9818 25.3451 33.9869C25.2406 34.0716 25.1812 34.2967 25.2028 34.439C25.4081 35.7683 24.5868 36.912 23.2737 37.0903C22.0777 37.2542 20.9592 36.341 20.8025 35.073C20.7989 35.0424 20.7827 35.01 20.7917 34.9848C21.0294 34.3309 20.5467 34.1094 20.1216 33.8356C19.3922 33.3637 18.6699 32.881 17.9548 32.3893C17.7585 32.2542 17.6108 32.2398 17.3929 32.3604C16.703 32.7441 15.9843 32.7495 15.2927 32.3658C15.0513 32.2326 14.9 32.265 14.6911 32.4091C13.8517 32.9836 13.0052 33.551 12.146 34.0986C11.8993 34.2571 11.8254 34.4102 11.8524 34.711C11.9623 35.9106 11.1067 36.93 9.89635 37.0903C8.82464 37.2326 7.72232 36.4545 7.47736 35.3792C7.21439 34.2301 7.89343 33.0737 9.02638 32.7405C9.59915 32.573 10.1647 32.609 10.6745 32.9152C10.9284 33.0683 11.0905 33.0269 11.3103 32.8738C12.1244 32.3154 12.9493 31.7678 13.7779 31.2311C14.0481 31.0564 14.2984 30.8997 14.1201 30.5917L14.1255 30.5935ZM23.7474 34.8731C23.7474 34.4606 23.4088 34.1328 23.0017 34.1472C22.6109 34.1616 22.3047 34.4822 22.3047 34.8767C22.3047 35.2964 22.6253 35.6026 23.0504 35.5918C23.452 35.5809 23.7492 35.2747 23.7474 34.8713V34.8731ZM30.455 29.6551C30.8639 29.6551 31.2043 29.3092 31.1881 28.9112C31.1719 28.5329 30.8333 28.2087 30.4514 28.2105C30.048 28.2105 29.7093 28.5581 29.7237 28.9598C29.7382 29.3489 30.0606 29.6569 30.455 29.6551ZM36.4079 34.1274C36.7754 34.1202 37.1266 33.7708 37.1338 33.4033C37.141 33.0143 36.7808 32.6558 36.3863 32.663C35.981 32.6684 35.6568 33.0179 35.6748 33.4267C35.6929 33.8122 36.0315 34.1364 36.4079 34.1292V34.1274ZM10.3791 34.8713C10.3755 34.4804 10.0603 34.1562 9.673 34.1472C9.27854 34.1382 8.91651 34.4912 8.92011 34.8803C8.92371 35.2856 9.26593 35.6044 9.68381 35.5918C10.0801 35.5809 10.3827 35.2657 10.3809 34.8695L10.3791 34.8713ZM16.3248 29.6893C15.9213 29.6983 15.6007 30.0495 15.6205 30.4584C15.6403 30.8474 15.9753 31.1663 16.3554 31.1554C16.7246 31.1446 17.0723 30.7934 17.0777 30.426C17.0813 30.0387 16.7156 29.6785 16.3248 29.6875V29.6893Z" fill="white"/>
<path d="M19.3084 16.3486V26.6676H7.46387V16.3486H19.3066H19.3084ZM8.93183 25.1978H17.7774V17.8184H8.93183V25.1978Z" fill="white"/>
<path d="M23.7793 25.2117V23.751H38.5922V25.2117H23.7793Z" fill="white"/>
<path d="M35.6592 43.0094V41.5811H41.5634V43.0094H35.6592Z" fill="white"/>
<path d="M22.2618 25.2195H20.8154V23.7588H22.2618V25.2195Z" fill="white"/>
<path d="M5.89888 43.0311H4.45973C4.45973 42.5934 4.44893 42.1683 4.47054 41.745C4.47414 41.6748 4.61644 41.5595 4.69929 41.5559C5.09555 41.5361 5.49541 41.5469 5.89888 41.5469V43.0311Z" fill="white"/>
<path d="M8.88332 41.5479V43.023H7.43337C7.43337 42.5962 7.42256 42.1729 7.44417 41.7496C7.44778 41.6793 7.58647 41.5605 7.66752 41.5569C8.06378 41.5371 8.46364 41.5479 8.88332 41.5479Z" fill="white"/>
<path d="M11.8536 41.5723V43.0096H10.4307V41.5723H11.8536Z" fill="white"/>
<path d="M10.4326 22.2803H16.3261V23.6978H10.4326V22.2803Z" fill="white"/>
<path d="M16.3277 20.7388H10.4307V19.3213H16.3277V20.7388Z" fill="white"/>
</svg>
