<svg width="51" height="55" viewBox="0 0 51 55" fill="none" xmlns="http://www.w3.org/2000/svg">
<path d="M17.4997 31C7.49969 39 12.333 46.6667 15.9997 49.5C21.4994 50.5 24 40.5 22 39.5C20.4 38.7 18.3331 33.5 17.4997 31Z" stroke="white" stroke-width="1.5" stroke-linecap="round" stroke-linejoin="round"/>
<path d="M16.4999 49.5C16.1666 44.1667 15.8999 33.3 17.4999 32.5" stroke="white" stroke-width="1.5" stroke-linecap="round" stroke-linejoin="round"/>
<path d="M16.5 42L18.5 40.5" stroke="white" stroke-width="1.5" stroke-linecap="round" stroke-linejoin="round"/>
<path d="M16.5 38.5L18 37.5" stroke="white" stroke-width="1.5" stroke-linecap="round" stroke-linejoin="round"/>
<path d="M16 44L14.5 42" stroke="white" stroke-width="1.5" stroke-linecap="round" stroke-linejoin="round"/>
<path d="M16 40L14 39" stroke="white" stroke-width="1.5" stroke-linecap="round" stroke-linejoin="round"/>
<path d="M9 54L24 54" stroke="white" stroke-width="1.5" stroke-linecap="round" stroke-linejoin="round"/>
<path d="M16.5 49.5V54" stroke="white" stroke-width="1.5" stroke-linecap="round" stroke-linejoin="round"/>
<path d="M34.0472 3.62521C29.1405 1.02135 23.444 0.324563 18.0544 1.669C12.6647 3.01343 7.9629 6.30404 4.85402 10.9074C1.74515 15.5107 0.448988 21.1013 1.21506 26.6031C1.98113 32.1048 4.75528 37.1286 9.00347 40.7076" stroke="white" stroke-width="2" stroke-linecap="round"/>
<path d="M42.7599 39.7845V27.2826C42.7599 27.1563 42.7098 27.0353 42.6205 26.946C42.5313 26.8568 42.4102 26.8066 42.284 26.8066H41.2277C41.1014 26.8066 40.9804 26.8568 40.8911 26.946C40.8019 27.0353 40.7517 27.1563 40.7517 27.2826V39.7845C39.7948 40.0278 38.9597 40.6122 38.4033 41.4278C37.8469 42.2434 37.6076 43.2342 37.7302 44.2139C37.8528 45.1936 38.3289 46.0948 39.0691 46.7481C39.8094 47.4015 40.7627 47.762 41.75 47.762C42.7374 47.762 43.6907 47.4015 44.4309 46.7481C45.1712 46.0948 45.6473 45.1936 45.7699 44.2139C45.8925 43.2342 45.6531 42.2434 45.0967 41.4278C44.5403 40.6122 43.7052 40.0278 42.7483 39.7845H42.7599Z" fill="white"/>
<path d="M46.3694 36.1166V11.0895C46.3694 10.5353 46.1492 10.0038 45.7574 9.61199C45.3655 9.22014 44.834 9 44.2799 9H39.242C38.9676 9 38.6959 9.05405 38.4424 9.15905C38.1889 9.26406 37.9585 9.41796 37.7645 9.61199C37.5705 9.80601 37.4166 10.0364 37.3116 10.2899C37.2066 10.5434 37.1525 10.8151 37.1525 11.0895V36.1166C35.6836 37.0224 34.5162 38.3433 33.7978 39.9124C33.312 40.9853 33.0425 42.1435 33.0046 43.3206C32.9668 44.4978 33.1614 45.6709 33.5772 46.7728C33.9831 47.8896 34.6244 48.906 35.4576 49.7532C36.2907 50.6004 37.2963 51.2586 38.4062 51.683C39.4729 52.0945 40.606 52.3069 41.7493 52.3099C43.6736 52.3387 45.5537 51.7325 47.0987 50.5852C48.6437 49.4378 49.7675 47.8132 50.2962 45.9628C50.8249 44.1124 50.729 42.1394 50.0233 40.3489C49.3177 38.5585 48.0416 37.0506 46.3926 36.0585L46.3694 36.1166ZM41.7261 50.2204C40.8525 50.2125 39.9874 50.0473 39.1723 49.7329C38.3426 49.4131 37.591 48.9192 36.9682 48.2844C36.3455 47.6497 35.866 46.8888 35.5622 46.0531C34.9064 44.4114 34.9251 42.5772 35.6141 40.9491C36.3032 39.3211 37.6069 38.0308 39.242 37.3586V11.0895H44.2799V37.3586C45.7141 37.9397 46.9014 39.0018 47.638 40.3627C48.3745 41.7236 48.6144 43.2985 48.3165 44.817C48.0185 46.3355 47.2014 47.703 46.0052 48.6847C44.809 49.6664 43.3084 50.2012 41.7609 50.1972L41.7261 50.2204Z" fill="white"/>
<path d="M40.8443 23.9971H42.6552C42.7937 23.9971 42.9266 23.9421 43.0245 23.8441C43.1225 23.7462 43.1775 23.6133 43.1775 23.4748C43.1775 23.3362 43.1225 23.2034 43.0245 23.1054C42.9266 23.0074 42.7937 22.9524 42.6552 22.9524H40.8443C40.7058 22.9524 40.5729 23.0074 40.4749 23.1054C40.377 23.2034 40.3219 23.3362 40.3219 23.4748C40.3219 23.6133 40.377 23.7462 40.4749 23.8441C40.5729 23.9421 40.7058 23.9971 40.8443 23.9971Z" fill="white"/>
<path d="M40.8443 14.8614H42.6552C42.7937 14.8614 42.9266 14.8064 43.0245 14.7084C43.1225 14.6105 43.1775 14.4776 43.1775 14.3391C43.1775 14.2005 43.1225 14.0677 43.0245 13.9697C42.9266 13.8717 42.7937 13.8167 42.6552 13.8167H40.8443C40.7058 13.8167 40.5729 13.8717 40.4749 13.9697C40.377 14.0677 40.3219 14.2005 40.3219 14.3391C40.3219 14.4776 40.377 14.6105 40.4749 14.7084C40.5729 14.8064 40.7058 14.8614 40.8443 14.8614Z" fill="white"/>
<path d="M40.8443 19.4242H42.6552C42.7937 19.4242 42.9266 19.3692 43.0245 19.2712C43.1225 19.1732 43.1775 19.0404 43.1775 18.9018C43.1775 18.7633 43.1225 18.6304 43.0245 18.5325C42.9266 18.4345 42.7937 18.3795 42.6552 18.3795H40.8443C40.7058 18.3795 40.5729 18.4345 40.4749 18.5325C40.377 18.6304 40.3219 18.7633 40.3219 18.9018C40.3219 19.0404 40.377 19.1732 40.4749 19.2712C40.5729 19.3692 40.7058 19.4242 40.8443 19.4242Z" fill="white"/>
<path d="M13.5815 17.5817C13.5815 16.3817 8.58146 13.0817 6.08146 11.5817C5.08146 10.5817 13.5 2.58194 14 3.58194C14.5 4.58194 16.5 2.5 21.5815 3.58174C24.0267 4.10227 24.0815 7.08174 24.0815 8.08174C24.0815 9.08174 19.5815 10.5817 17.5815 11.5817C15.5815 12.5817 17.5815 13.0817 18.0815 14.5817C18.5815 16.0817 21.5815 15.5817 21.5815 16.0817C21.5815 16.5817 22.5815 17.5817 25.0815 18.5817C27.5815 19.5817 25.0815 22.0817 25.0815 23.0817C25.0815 24.0817 22.5815 24.5817 22.5815 26.5817C22.5815 28.1817 22.9148 28.5817 23.0815 28.5817C22.9148 29.7484 22.3815 32.1817 21.5815 32.5817C20.5815 33.0817 18.0815 26.5817 17.5815 25.0817C17.0815 23.5817 14.5815 22.0817 13.5815 22.0817C12.5815 22.0817 13.5815 19.0817 13.5815 17.5817Z" fill="white" stroke="white" stroke-width="1.5" stroke-linecap="round" stroke-linejoin="round"/>
</svg>
