<svg width="43" height="51" viewBox="0 0 43 51" fill="none" xmlns="http://www.w3.org/2000/svg">
<path d="M35.6529 12.1576C34.4082 12.1576 33.2314 12.1576 32.0565 12.1576C30.5964 12.1576 29.1363 12.1656 27.6742 12.1556C26.1203 12.1456 25.0093 11.0366 25.0033 9.48471C24.9953 7.02925 25.0013 4.57181 25.0013 2.11636C25.0013 1.93484 25.0013 1.75532 25.0013 1.50399H24.4468C17.4435 1.50399 10.4382 1.50399 3.43484 1.50399C2.15426 1.50399 1.49801 2.15226 1.49801 3.42487C1.49801 16.7513 1.49801 30.0778 1.49801 43.4043C1.49801 44.6789 2.14827 45.3191 3.43484 45.3191C9.04388 45.3191 14.6549 45.3191 20.264 45.3191C20.4455 45.3191 20.637 45.2972 20.8085 45.3391C21.2074 45.4368 21.4448 45.6941 21.4129 46.127C21.383 46.5299 21.1416 46.7533 20.7487 46.8092C20.619 46.8271 20.4834 46.8172 20.3517 46.8172C14.7088 46.8172 9.06582 46.8172 3.42287 46.8172C1.31449 46.8172 0 45.5106 0 43.4142C0 30.0698 0 16.7274 0 3.38298C0 1.3484 1.33444 0.00797872 3.35505 0.00797872C10.7234 0.00797872 18.0937 0.0119681 25.4621 0C25.8969 0 26.2101 0.137633 26.5133 0.440824C29.9102 3.85173 33.3132 7.25465 36.7241 10.6496C37.0293 10.9528 37.1609 11.268 37.1589 11.7028C37.1469 17.8105 37.1509 23.9182 37.1509 30.0239C37.1509 30.1576 37.1629 30.2912 37.143 30.4209C37.0871 30.8138 36.8657 31.0552 36.4608 31.0851C36.0279 31.117 35.7686 30.8836 35.6729 30.4827C35.631 30.3092 35.6529 30.1197 35.6529 29.9382C35.6529 24.2294 35.6529 18.5206 35.6529 12.8118C35.6529 12.6144 35.6529 12.4189 35.6529 12.1576ZM26.5013 2.68684C26.5013 4.89894 26.5013 7.08511 26.5013 9.27327C26.5013 10.2626 26.8983 10.6596 27.8856 10.6616C29.9422 10.6636 32.0007 10.6616 34.0572 10.6616C34.1968 10.6616 34.3364 10.6476 34.4601 10.6416C31.8092 7.99269 29.1762 5.35971 26.5013 2.68684Z" fill="white"/>
<path d="M40.2427 35.2959C40.0572 35.6908 39.9116 36.1097 39.6742 36.4707C39.4967 36.74 39.4329 36.9554 39.5805 37.2427C39.6862 37.4481 39.766 37.6675 39.8438 37.8849C39.9495 38.1802 40.129 38.3278 40.4621 38.3577C41.5034 38.4534 42.2035 39.2373 42.2234 40.2865C42.2294 40.6177 42.2314 40.9508 42.2234 41.2819C42.1975 42.2453 41.5632 42.9834 40.6197 43.1529C39.7261 43.3145 39.2573 44.4235 39.776 45.1576C40.3305 45.9455 40.2667 46.9069 39.6024 47.617C39.3651 47.8723 39.1177 48.1177 38.8644 48.357C38.1244 49.0572 37.123 49.1369 36.3331 48.5046C36.004 48.2413 35.7347 48.2194 35.3917 48.4109C35.2341 48.4986 35.0605 48.5645 34.887 48.6163C34.5798 48.7081 34.4442 48.8976 34.3923 49.2187C34.2028 50.4275 33.5127 50.998 32.2839 51C32.0027 51 31.7195 51.006 31.4382 51C30.4568 50.976 29.6689 50.258 29.5812 49.2746C29.5512 48.9255 29.4076 48.724 29.0865 48.6203C28.899 48.5585 28.7055 48.4947 28.5359 48.3969C28.2008 48.2054 27.9575 48.3012 27.6343 48.4907C27.2554 48.7141 26.7826 48.8916 26.3478 48.8916C24.9954 48.8976 23.5532 47.0326 23.9023 45.7899C23.9681 45.5565 24.0718 45.3072 24.2314 45.1336C24.5286 44.8105 24.5426 44.5093 24.3252 44.1502C24.2314 43.9967 24.2195 43.7852 24.1077 43.6536C23.9542 43.4721 23.7587 43.2486 23.5492 43.2048C22.3285 42.9554 21.7441 42.2852 21.7381 41.0365C21.7381 40.6895 21.7261 40.3364 21.776 39.9953C21.9116 39.0618 22.5659 38.4395 23.4994 38.3557C23.8265 38.3258 24.022 38.2001 24.1157 37.8889C24.1636 37.7314 24.2175 37.5698 24.3032 37.4302C24.5366 37.0432 24.5107 36.738 24.2075 36.361C23.6171 35.627 23.6968 34.6556 24.3351 33.9494C24.5905 33.6662 24.8617 33.3969 25.143 33.1396C25.879 32.4614 26.8524 32.3956 27.6343 33.0199C27.9615 33.2812 28.2308 33.3191 28.5738 33.1157C28.7155 33.0319 28.875 32.974 29.0326 32.9282C29.3956 32.8224 29.5572 32.609 29.5871 32.2141C29.651 31.3703 30.2952 30.6802 31.135 30.5784C31.6736 30.5126 32.2301 30.5086 32.7687 30.5665C33.6343 30.6582 34.2387 31.2925 34.3784 32.1502C34.514 32.996 35.6769 33.4847 36.3631 32.988C36.8617 32.627 37.4063 32.5113 38.0107 32.6709C38.9801 32.9282 40.141 34.3264 40.2447 35.2959H40.2427ZM26.4036 34.0352C26.1264 34.2985 25.875 34.5538 25.6038 34.7872C25.2726 35.0724 25.2667 35.3318 25.5539 35.6728C26.0546 36.2693 26.1304 36.9534 25.8292 37.6755C25.7075 37.9647 25.5898 38.258 25.4741 38.5492C25.1689 39.3131 24.6044 39.756 23.7906 39.8258C23.3777 39.8617 23.2381 40.0572 23.2421 40.4302C23.2421 40.5957 23.2421 40.7613 23.2421 40.9288C23.246 41.5731 23.2979 41.6369 23.9262 41.7207C24.5665 41.8045 25.0472 42.1396 25.3365 42.7021C25.5698 43.1569 25.7534 43.6396 25.9189 44.1223C26.1104 44.6748 26.0406 45.2433 25.6756 45.6802C25.1111 46.3524 25.3285 46.4721 25.8072 46.9448C25.889 47.0266 25.9748 47.1064 26.0526 47.1921C26.2959 47.4514 26.5313 47.4933 26.8265 47.242C27.5027 46.6655 28.2487 46.5957 29.0466 46.9807C29.2839 47.0964 29.5333 47.1881 29.7806 47.2839C30.5306 47.5771 30.9694 48.1316 31.0472 48.9195C31.0911 49.3743 31.2906 49.5359 31.7155 49.504C31.881 49.492 32.0486 49.486 32.2121 49.504C32.6988 49.5578 32.9083 49.3344 32.9442 48.8617C32.9881 48.2593 33.2813 47.7666 33.8079 47.4873C34.3305 47.2101 34.891 46.9967 35.4515 46.8072C36.01 46.6197 36.5346 46.7932 37.0014 47.1223C37.5758 47.5252 37.5718 47.5332 38.0665 47.0385C38.1603 46.9448 38.246 46.8411 38.3498 46.7573C38.7048 46.4661 38.6988 46.1988 38.4096 45.8318C37.4801 44.6589 38.3637 42.1236 39.8099 41.7526C39.8418 41.7447 39.8757 41.7407 39.9076 41.7347C40.4581 41.631 40.7334 41.2939 40.7334 40.7234C40.7334 40.6236 40.7294 40.5239 40.7334 40.4242C40.7494 40.0392 40.5858 39.8617 40.1829 39.8238C39.371 39.748 38.8046 39.3111 38.5034 38.5432C38.4016 38.2819 38.2899 38.0226 38.1762 37.7653C37.8331 36.9973 37.901 36.2732 38.4475 35.629C38.7088 35.3218 38.6929 35.0764 38.4076 34.8171C38.2839 34.7054 38.1603 34.5937 38.0565 34.4641C37.7374 34.0651 37.4043 33.9794 37.0213 34.3803C36.0559 35.3936 33.1536 34.123 32.9901 32.974C32.9781 32.8923 32.9641 32.8105 32.9502 32.7287C32.8405 32.0465 32.8165 32.0266 32.1343 32.0226C31.9847 32.0226 31.8351 32.0286 31.6855 32.0226C31.2886 32.0046 31.0891 32.1463 31.0492 32.5851C30.9734 33.3969 30.5226 33.9574 29.7527 34.2546C29.4754 34.3623 29.2002 34.476 28.9249 34.5917C28.1869 34.9049 27.5047 34.8171 26.8724 34.3205C26.7467 34.2207 26.5991 34.1509 26.4056 34.0312L26.4036 34.0352Z" fill="white"/>
<path d="M18.3191 24.3032C22.2526 24.3032 26.1842 24.3032 30.1177 24.3032C30.2673 24.3032 30.4169 24.2933 30.5665 24.3072C30.9854 24.3471 31.2367 24.5765 31.2726 25.0014C31.3065 25.4063 31.0272 25.7354 30.6104 25.7913C30.4628 25.8112 30.3132 25.8012 30.1636 25.8012C22.2487 25.8012 14.3318 25.8012 6.41687 25.8012C6.26727 25.8012 6.11568 25.8152 5.97006 25.7913C5.55517 25.7214 5.32379 25.4581 5.29985 25.0452C5.27791 24.6563 5.60105 24.3351 6.02392 24.3092C6.30517 24.2913 6.58842 24.3032 6.86967 24.3032C10.6855 24.3032 14.5033 24.3032 18.3191 24.3032Z" fill="white"/>
<path d="M18.3251 18.6941C22.2566 18.6941 26.1901 18.6941 30.1216 18.6941C30.3032 18.6941 30.4887 18.6901 30.6682 18.716C31.0212 18.7699 31.2307 18.9933 31.2706 19.3443C31.3125 19.7173 31.1549 20.0006 30.7958 20.1223C30.6123 20.1841 30.4049 20.1961 30.2094 20.1961C22.2626 20.2001 14.3158 20.2001 6.36699 20.1961C6.18747 20.1961 5.99997 20.1841 5.82843 20.1322C5.4654 20.0245 5.2779 19.7433 5.30981 19.3802C5.34173 19.0232 5.54917 18.7619 5.93614 18.714C6.11566 18.6921 6.30117 18.6941 6.48268 18.6941C10.4322 18.6941 14.3796 18.6941 18.3291 18.6941H18.3251Z" fill="white"/>
<path d="M16.7912 31.3983C13.3085 31.3983 9.82378 31.3983 6.34107 31.3963C6.1436 31.3963 5.89227 31.4322 5.76261 31.3285C5.56314 31.1669 5.32179 30.8956 5.32977 30.6802C5.33974 30.4409 5.56713 30.1556 5.77857 29.996C5.93615 29.8764 6.22139 29.9003 6.45078 29.9003C13.3524 29.8963 20.252 29.8963 27.1536 29.8963C27.2533 29.8963 27.353 29.8923 27.4528 29.8963C27.9973 29.9222 28.3085 30.2035 28.3065 30.6623C28.3045 31.135 28.0133 31.3943 27.4428 31.3943C24.0259 31.3983 20.609 31.3943 17.1921 31.3963C17.0585 31.3963 16.9268 31.3963 16.7932 31.3963L16.7912 31.3983Z" fill="white"/>
<path d="M12.8338 35.5333C15.006 35.5333 17.1782 35.5253 19.3504 35.5432C19.6097 35.5452 19.9269 35.625 20.1144 35.7866C20.5093 36.1297 20.3438 36.7759 19.8431 36.9535C19.6456 37.0233 19.4202 37.0333 19.2088 37.0333C14.9462 37.0373 10.6855 37.0372 6.42288 37.0372C6.32315 37.0372 6.22341 37.0412 6.12368 37.0333C5.63099 36.9934 5.29589 36.6882 5.2919 36.2753C5.28791 35.8404 5.63099 35.5353 6.16357 35.5353C8.38565 35.5293 10.6077 35.5333 12.8298 35.5333H12.8338Z" fill="white"/>
<path d="M12.0558 12.1575C10.0991 12.1575 8.14228 12.1635 6.1855 12.1556C5.48736 12.1536 5.05651 11.5532 5.41755 11.0525C5.56914 10.8431 5.93417 10.6815 6.20345 10.6795C8.39162 10.6496 10.5818 10.6635 12.7699 10.6635C14.4455 10.6635 16.119 10.6635 17.7945 10.6635C18.4269 10.6635 18.75 10.9208 18.744 11.4135C18.74 11.8962 18.4049 12.1595 17.7766 12.1595C15.8697 12.1615 13.9628 12.1595 12.0558 12.1595V12.1575Z" fill="white"/>
<path d="M12.0299 6.75396C13.9029 6.75396 15.7779 6.75396 17.6509 6.75396C17.8165 6.75396 17.984 6.74797 18.1476 6.7759C18.5006 6.83374 18.7001 7.05515 18.738 7.4122C18.7739 7.76526 18.6403 8.04451 18.3052 8.16619C18.1097 8.238 17.8843 8.25396 17.6728 8.25396C13.9089 8.25795 10.1449 8.25795 6.38095 8.25795C6.28122 8.25795 6.18149 8.26393 6.08175 8.25396C5.60702 8.20808 5.26992 7.86499 5.29585 7.45808C5.31978 7.05515 5.63694 6.76193 6.11167 6.75994C8.08441 6.75196 10.0572 6.75595 12.0299 6.75595V6.75396Z" fill="white"/>
<path d="M31.9708 45.9175C29.1383 45.9136 26.8125 43.5858 26.8125 40.7593C26.8125 37.9388 29.1423 35.607 31.9728 35.5931C34.8132 35.5791 37.157 37.9308 37.147 40.7872C37.137 43.6177 34.8132 45.9215 31.9708 45.9175ZM31.9947 44.4215C34.0054 44.4175 35.659 42.75 35.649 40.7374C35.639 38.7487 34.0014 37.117 31.9987 37.1011C29.9921 37.0851 28.3165 38.7487 28.3185 40.7573C28.3185 42.7679 29.9821 44.4235 31.9947 44.4195V44.4215Z" fill="white"/>
</svg>
