<svg width="55" height="55" viewBox="0 0 55 55" fill="none" xmlns="http://www.w3.org/2000/svg">
<path d="M38.5916 37.4801C39.818 38.7 41.0142 39.907 42.2385 41.0839C42.3396 41.1807 42.6559 41.1441 42.828 41.0688C45.2377 39.9931 47.9745 41.7078 48.0003 44.3263C48.0154 45.8195 47.1225 47.1685 45.7412 47.7365C44.347 48.3109 42.8086 47.9861 41.7458 46.8909C40.7152 45.8324 40.4097 44.266 41.0487 42.9213C41.2445 42.5104 41.1713 42.3081 40.8765 42.0198C39.7255 40.8967 38.598 39.7499 37.4448 38.5946C36.042 39.8209 34.5424 40.8386 32.8104 41.398C31.5109 41.8176 30.1511 42.0564 28.8085 42.321C28.4341 42.3942 28.2943 42.4824 28.2986 42.8761C28.3201 44.3607 28.3201 45.8474 28.2986 47.3341C28.2921 47.7107 28.432 47.8484 28.7676 47.9753C30.4695 48.61 31.3947 50.314 31.0461 52.1041C30.7169 53.7974 29.1786 55.0238 27.4165 55.0001C25.7081 54.9786 24.2472 53.7242 23.9245 52.003C23.6061 50.3033 24.5162 48.638 26.1664 48.0033C26.5687 47.8484 26.6978 47.659 26.6892 47.233C26.6613 45.7657 26.6699 44.2962 26.6849 42.8288C26.6892 42.491 26.5838 42.3598 26.2353 42.3318C23.0122 42.0758 20.1916 40.8515 17.7388 38.7559C17.685 38.7107 17.6248 38.672 17.5366 38.6096C16.3059 39.8381 15.073 41.0559 13.866 42.3017C13.7843 42.3877 13.8596 42.6868 13.9327 42.8546C15.0063 45.2622 13.2743 47.9925 10.6559 48.014C9.16919 48.0248 7.81586 47.1211 7.25216 45.7398C6.68415 44.3478 7.01764 42.8073 8.11493 41.7466C9.17349 40.7246 10.7441 40.4341 12.091 41.0645C12.4632 41.2388 12.6655 41.213 12.9516 40.9161C14.0446 39.7822 15.1699 38.6806 16.2844 37.5661C16.308 37.5425 16.3209 37.5059 16.3597 37.4392C16.0584 37.0476 15.7357 36.6517 15.4366 36.2386C13.8273 34.0161 12.8806 31.5439 12.6676 28.805C12.6396 28.4479 12.5299 28.3123 12.1555 28.3166C10.6516 28.336 9.14767 28.3338 7.64589 28.3166C7.3081 28.3123 7.15749 28.4156 7.03485 28.7469C6.39799 30.4682 4.71118 31.3998 2.9254 31.0577C1.21707 30.7285 -0.0136179 29.216 -0.000708581 27.4538C0.0122007 25.7348 1.25364 24.2609 2.96412 23.9382C4.67675 23.6155 6.37002 24.5148 6.97891 26.1457C7.15319 26.6126 7.38125 26.7137 7.83523 26.7051C9.26601 26.6771 10.6989 26.69 12.1297 26.6986C12.4352 26.6986 12.6289 26.6599 12.6568 26.2834C12.9064 23.0195 14.1457 20.1687 16.28 17.6966C16.3123 17.6578 16.3274 17.6041 16.3704 17.5201C15.1612 16.3131 13.9542 15.0932 12.7235 13.8991C12.631 13.8087 12.3341 13.8475 12.1749 13.9185C10.1008 14.8501 7.70183 13.7592 7.11016 11.6034C6.6863 10.0543 7.33607 8.38038 8.69154 7.54343C10.0556 6.70002 11.8005 6.83342 12.9839 7.87046C14.2232 8.95699 14.6191 10.6352 13.9241 12.109C13.7434 12.492 13.7972 12.6878 14.0855 12.9653C15.2387 14.0863 16.3661 15.2374 17.5107 16.3841C18.0938 15.9495 18.6338 15.5149 19.2062 15.1298C21.3211 13.7012 23.6512 12.8642 26.2008 12.6706C26.5666 12.6426 26.6871 12.5178 26.6828 12.1499C26.6656 10.646 26.6656 9.14203 26.6828 7.63809C26.6871 7.29169 26.5623 7.15615 26.2396 7.03566C24.5205 6.39235 23.591 4.70769 23.9331 2.9219C24.2623 1.21572 25.7813 -0.0128085 27.5434 0.000100787C29.2625 0.0130101 30.7341 1.2566 31.0547 2.96924C31.3753 4.67756 30.4674 6.37729 28.8429 6.98402C28.4062 7.14754 28.29 7.35839 28.2964 7.79301C28.3201 9.24315 28.3072 10.6933 28.305 12.1434C28.305 12.4102 28.2986 12.6318 28.6708 12.6577C31.9971 12.8965 34.8802 14.1939 37.4233 16.3798C37.5416 16.2766 37.6621 16.1819 37.7719 16.0722C38.824 15.0222 39.8675 13.9636 40.9282 12.9266C41.1756 12.6856 41.2531 12.5113 41.0831 12.1585C40.4118 10.7707 40.698 9.16784 41.7587 8.09422C42.8474 6.99048 44.3943 6.68281 45.8079 7.29385C47.1956 7.89198 48.0627 9.27972 47.9982 10.7987C47.8927 13.3354 45.1947 14.9942 42.8689 13.9228C42.5096 13.7571 42.3202 13.7872 42.0534 14.0605C40.9174 15.2244 39.7577 16.3648 38.6669 17.4556C39.3898 18.5852 40.1472 19.6265 40.7561 20.7496C41.6791 22.445 42.1933 24.2868 42.3181 26.221C42.3417 26.5932 42.4859 26.703 42.8452 26.6986C44.3491 26.6836 45.8509 26.6857 47.3548 26.6986C47.669 26.7008 47.8131 26.6104 47.9293 26.2942C48.5877 24.5041 50.3283 23.5595 52.1722 23.9576C53.8783 24.3255 55.0875 25.9693 54.9778 27.7701C54.8724 29.5064 53.4437 30.9458 51.6386 31.133C50.083 31.2944 48.521 30.3025 47.9487 28.7512C47.8282 28.4242 47.684 28.3123 47.3419 28.3145C45.838 28.3317 44.3362 28.3274 42.8323 28.3145C42.5139 28.3123 42.346 28.3747 42.3181 28.7426C42.0663 31.9872 40.8314 34.8207 38.7164 37.2843C38.682 37.3251 38.6583 37.3725 38.5894 37.4779L38.5916 37.4801ZM27.4767 40.7977C34.7597 40.815 40.7561 34.8337 40.784 27.527C40.812 20.2462 34.8457 14.2476 27.5305 14.2025C20.2432 14.1573 14.1974 20.1859 14.1974 27.499C14.1974 34.7906 20.1787 40.7805 27.4767 40.7977ZM12.6439 44.365C12.6289 43.2484 11.6714 42.3189 10.5677 42.349C9.48116 42.3791 8.57751 43.328 8.59903 44.4123C8.62269 45.5032 9.56077 46.4133 10.6451 46.3982C11.7403 46.3832 12.659 45.4472 12.6439 44.365ZM44.3728 46.3982C45.4615 46.3918 46.3823 45.4687 46.3845 44.3779C46.3866 43.2871 45.4744 42.3641 44.3793 42.3512C43.2755 42.3382 42.3202 43.2957 42.3396 44.3994C42.359 45.4967 43.282 46.4047 44.3728 46.3982ZM10.6451 12.6469C11.7403 12.6275 12.6547 11.6959 12.6439 10.6115C12.6332 9.49703 11.6757 8.56971 10.5677 8.60199C9.47686 8.63426 8.57321 9.57664 8.59903 10.661C8.62269 11.7562 9.56077 12.6663 10.6451 12.6469ZM44.3599 8.60199C43.2669 8.60414 42.3482 9.51855 42.3396 10.6137C42.331 11.7002 43.2454 12.6297 44.3384 12.6469C45.4443 12.6663 46.3953 11.7153 46.3845 10.6072C46.3737 9.51639 45.4464 8.59984 44.3599 8.60199ZM27.4702 1.61376C26.3816 1.62452 25.4629 2.55614 25.4672 3.64052C25.4715 4.7292 26.3966 5.65006 27.4853 5.65437C28.5934 5.65867 29.5422 4.69478 29.5164 3.59749C29.4884 2.50235 28.5589 1.60085 27.4702 1.61376ZM3.60744 25.4744C2.5166 25.4916 1.60865 26.4211 1.6151 27.5098C1.62156 28.62 2.5876 29.5624 3.68489 29.5236C4.78003 29.4871 5.68368 28.5382 5.65356 27.4603C5.62344 26.3587 4.69397 25.4551 3.60959 25.4744H3.60744ZM53.3706 27.5162C53.3792 26.4276 52.4734 25.4981 51.3825 25.4744C50.281 25.4529 49.3235 26.4017 49.3321 27.5098C49.3407 28.6028 50.2616 29.5236 51.3503 29.5258C52.4346 29.5258 53.3641 28.6049 53.3727 27.5162H53.3706ZM27.4939 53.3843C28.5826 53.3843 29.5056 52.4634 29.5164 51.3747C29.525 50.2904 28.6127 49.3609 27.5154 49.3437C26.4117 49.3243 25.4542 50.2775 25.4672 51.3812C25.4801 52.472 26.4052 53.3864 27.4939 53.3843Z" fill="white"/>
<path d="M26.65 37.5961V36.5828C26.3466 36.5161 26.0368 36.4601 25.7334 36.3805C21.2776 35.2079 19.21 29.9194 21.7617 26.0875C23.1882 23.9446 24.7265 21.8769 26.2369 19.7921C26.9232 18.8454 28.0571 18.8669 28.7671 19.8071C29.2405 20.4354 29.6944 21.0787 30.142 21.7263C30.4561 22.1781 30.4045 22.6364 30.0365 22.9183C29.6407 23.2238 29.1888 23.142 28.8338 22.6687C28.3949 22.0835 27.9775 21.481 27.5257 20.8506C27.431 20.9518 27.3406 21.0292 27.274 21.1239C25.9099 23.028 24.5221 24.9171 23.1925 26.8449C21.4519 29.3729 22.2608 32.8197 24.9288 34.3086C25.4344 34.5904 26.0067 34.7518 26.6758 35.0207C26.6758 34.1859 26.6909 33.4824 26.6608 32.781C26.6565 32.6669 26.4779 32.5335 26.3509 32.4561C25.6345 32.0193 24.9051 31.5998 24.1865 31.1652C23.6378 30.8338 23.4872 30.4078 23.7476 29.9711C24.0014 29.5429 24.4705 29.4654 25.0062 29.7731C25.529 30.0743 26.0476 30.3863 26.6758 30.7564C26.6758 30.1195 26.693 29.5795 26.6629 29.0394C26.6565 28.9211 26.4908 28.7834 26.3681 28.7038C25.9916 28.4628 25.5957 28.2541 25.2171 28.0174C24.7696 27.7377 24.634 27.2687 24.8621 26.8728C25.0923 26.4748 25.5527 26.3758 26.0304 26.6254C26.2175 26.7222 26.3983 26.8276 26.6823 26.9869C26.6823 26.1241 26.6823 25.3474 26.6823 24.5707C26.6823 24.2673 26.6737 23.9618 26.693 23.6584C26.7232 23.1851 26.962 22.8882 27.4611 22.8645C27.9345 22.843 28.2723 23.1291 28.2916 23.652C28.3261 24.5448 28.3067 25.442 28.3088 26.3371C28.3088 26.5243 28.3088 26.7136 28.3088 26.9826C28.6122 26.8126 28.8188 26.6813 29.0404 26.5759C29.4578 26.378 29.9053 26.5071 30.1204 26.8685C30.3378 27.2343 30.2452 27.6926 29.8601 27.9529C29.475 28.2132 29.0425 28.4047 28.6768 28.6866C28.5003 28.8221 28.3519 29.0846 28.3239 29.3062C28.2701 29.7451 28.3088 30.197 28.3088 30.7478C28.9414 30.3777 29.4987 30.0399 30.0645 29.7258C30.5873 29.4353 31.1231 29.6053 31.2995 30.1109C31.4652 30.5842 31.2371 30.907 30.8498 31.1415C30.1312 31.574 29.4104 32.0107 28.6789 32.4195C28.4143 32.568 28.2895 32.7336 28.3024 33.0478C28.3261 33.6523 28.3088 34.2569 28.3088 34.9261C30.256 34.5495 31.5857 33.5017 32.3086 31.7418C33.0121 30.0334 32.812 28.3832 31.7965 26.8384C31.5512 26.4662 31.2672 26.1155 31.037 25.7347C30.7982 25.3366 30.9015 24.9622 31.2672 24.6976C31.6373 24.4287 32.031 24.4738 32.3279 24.8138C35.8866 28.8716 34.3095 33.6545 31.0133 35.6124C30.2173 36.0857 29.2878 36.3353 28.3433 36.7205V37.566C30.4841 37.3767 32.371 36.6344 33.9567 35.2445C37.0527 32.5335 38.2576 29.1061 37.2765 25.1086C36.2739 21.0249 33.5737 18.5334 29.4621 17.5997C28.7736 17.4426 28.4143 17.008 28.6058 16.5045C28.7843 16.0333 29.1393 15.8763 29.6364 15.9795C34.0599 16.9069 37.0979 19.4844 38.5825 23.7423C40.9599 30.567 36.4847 37.9468 29.3588 39.085C22.9881 40.1027 17.0455 35.819 15.9138 29.3966C14.8294 23.2432 19.1669 17.0144 25.2407 15.9989C25.9034 15.887 26.3187 16.1043 26.4069 16.6078C26.4929 17.1005 26.1724 17.4663 25.5161 17.5975C22.9687 18.1117 20.8839 19.3854 19.3735 21.494C17.11 24.6567 16.7077 28.1035 18.2998 31.645C19.8855 35.1692 22.7471 37.0776 26.6457 37.5983L26.65 37.5961Z" fill="white"/>
</svg>
