<svg width="23" height="48" viewBox="0 0 23 48" fill="none" xmlns="http://www.w3.org/2000/svg">
<path d="M22.443 6.13009C22.4063 6.07112 22.3663 6.01435 22.323 5.96009C22.1718 5.75835 21.9731 5.59711 21.7445 5.49069C21.516 5.38426 21.2647 5.33597 21.013 5.35009C20.8124 5.35634 20.6165 5.41154 20.4422 5.5109C20.2679 5.61025 20.1205 5.75073 20.013 5.92009C19.8878 6.1375 19.8127 6.38003 19.793 6.63009C19.7824 6.7154 19.7622 6.79926 19.733 6.88009C19.6664 7.00794 19.5661 7.11515 19.443 7.19009C19.143 7.41009 17.343 8.28009 17.073 7.74009C16.993 7.59009 17.583 6.74009 17.663 6.58009C17.7569 6.37273 17.8054 6.14772 17.8054 5.92009C17.8054 5.69246 17.7569 5.46745 17.663 5.26009C17.3901 4.8575 16.9987 4.54991 16.543 4.38009C15.2127 3.79414 13.968 3.03051 12.843 2.11009C12.2021 1.41532 11.4764 0.803858 10.683 0.290088C10.2812 0.0463551 9.80649 -0.0481426 9.34204 0.0231709C8.87759 0.0944844 8.45308 0.327055 8.14296 0.680088C7.75281 0.391301 7.28936 0.217965 6.80545 0.179848C6.32155 0.14173 5.83667 0.240365 5.40611 0.464505C4.97555 0.688644 4.61665 1.02927 4.37033 1.44753C4.124 1.86579 4.00018 2.34485 4.01296 2.83009C4.01296 3.07009 4.01296 3.36009 3.88296 3.53009C3.73105 3.63779 3.55667 3.7096 3.37296 3.74009C3.08703 3.86362 2.84162 4.06511 2.66479 4.32152C2.48795 4.57793 2.38682 4.87892 2.37296 5.19009C2.31296 5.80009 2.37296 6.42009 2.37296 7.03009C2.23373 7.93796 1.95369 8.81855 1.54296 9.64009C0.600037 11.5776 0.346059 13.7787 0.822964 15.8801C1.04158 16.4263 1.19269 16.9972 1.27296 17.5801C1.28957 17.981 1.24574 18.3822 1.14296 18.7701C0.972964 19.5601 0.772964 20.3501 0.542964 21.1201C0.361398 21.618 0.256862 22.1407 0.232964 22.6701C0.270098 23.167 0.336883 23.6612 0.432964 24.1501C0.46684 24.6339 0.391657 25.1192 0.212964 25.5701C-0.0441873 26.7606 -0.00988027 27.9957 0.312964 29.1701C0.0904083 29.4541 -0.0199289 29.81 0.00296363 30.1701C0.0360107 30.5174 0.130834 30.8561 0.282964 31.1701C0.64622 32.1364 0.88807 33.1441 1.00296 34.1701C1.03605 35.2473 0.969092 36.3253 0.802964 37.3901C0.814621 37.9093 0.712213 38.4248 0.502964 38.9001C0.328387 39.2591 0.213546 39.6441 0.162964 40.0401C0.0595138 40.4607 0.0758718 40.9018 0.210188 41.3136C0.344503 41.7254 0.591412 42.0914 0.922964 42.3701C1.12306 42.4753 1.34698 42.527 1.57296 42.5201C1.62513 42.929 1.82847 43.3036 2.14296 43.5701C2.33655 43.716 2.55804 43.8205 2.79371 43.8773C3.02937 43.9341 3.27418 43.9418 3.51296 43.9001C4.01647 43.82 4.52946 43.82 5.03296 43.9001C5.09296 44.3501 5.16296 44.8001 5.22296 45.2501C5.28296 45.7001 5.22296 46.6701 5.61296 47.0901C5.77843 47.2311 5.97155 47.336 6.17992 47.398C6.38829 47.4599 6.60733 47.4777 6.82296 47.4501C7.93696 47.4524 9.04865 47.3486 10.143 47.1401C10.2384 47.1292 10.3287 47.091 10.403 47.0301C10.563 46.8801 10.483 46.6201 10.403 46.4301C10.2253 45.9879 9.88549 45.6302 9.45296 45.4301C9.23965 45.3714 9.02244 45.328 8.80296 45.3001C7.87296 45.0901 7.34296 44.1301 6.93296 43.3001C6.69297 42.8101 6.46296 42.3001 6.22296 41.8201C6.15207 41.7158 6.10617 41.5966 6.08882 41.4718C6.07148 41.3469 6.08316 41.2197 6.12296 41.1001C6.34296 40.6901 6.95296 40.7201 7.12296 40.2101C7.29296 39.7001 7.01296 39.1501 7.45296 38.6801C7.72296 38.3901 8.13296 38.2801 8.39296 37.9901C8.63757 37.6282 8.75698 37.1962 8.73296 36.7601C8.73296 36.1801 8.73297 35.4701 8.18297 35.2201C7.89434 35.139 7.60025 35.0788 7.30296 35.0401C7.01296 34.9501 6.75296 34.6101 6.93296 34.3701C7.11296 34.1301 7.30296 34.2101 7.51296 34.1901C8.84297 34.0701 8.96296 32.5901 9.02296 31.5601C9.0484 31.3509 9.0484 31.1393 9.02296 30.9301H9.17297C9.30669 30.9826 9.44961 31.0076 9.59321 31.0037C9.7368 30.9997 9.87814 30.9669 10.0088 30.9072C10.1394 30.8475 10.2567 30.7621 10.3537 30.656C10.4506 30.55 10.5252 30.4256 10.573 30.2901C10.6777 29.9945 10.7061 29.6773 10.6554 29.3678C10.6047 29.0584 10.4766 28.7668 10.283 28.5201C10.453 28.7601 11.643 27.7801 11.743 27.6201C12.163 26.9601 11.743 26.1101 12.073 25.3801C13.1954 25.5023 14.3302 25.3264 15.363 24.8701C16.3971 24.4146 17.2491 23.626 17.783 22.6301C17.955 22.3429 18.0683 22.0244 18.1164 21.6932C18.1645 21.3619 18.1463 21.0243 18.063 20.7001C17.9892 20.5124 17.8988 20.3317 17.793 20.1601L16.953 18.6401C16.478 17.531 16.4458 16.2822 16.863 15.1501C17.1226 13.9413 17.6755 12.8149 18.473 11.8701C19.1092 11.0401 19.9178 10.3578 20.843 9.87009L21.063 9.77009C21.5652 9.5957 22.0039 9.27536 22.323 8.85009C22.497 8.56668 22.6094 8.24981 22.653 7.92009C22.7917 7.31707 22.7175 6.68462 22.443 6.13009Z" fill="white"/>
</svg>
