<svg width="51" height="57" viewBox="0 0 51 57" fill="none" xmlns="http://www.w3.org/2000/svg">
<path d="M43.2394 41.0776C41.8405 41.7911 40.444 42.5046 38.9515 43.2672C40.575 44.2403 41.4148 45.5433 40.7013 47.3655C40.1118 48.8743 38.8416 49.3562 37.2743 49.1854C36.9889 50.7855 36.0345 51.5762 34.4555 51.5925C33.9783 53.5715 32.9865 54.299 31.1174 54.0277C31.08 54.1212 31.0285 54.2195 31.0005 54.3271C30.5256 56.1236 28.6472 56.8675 27.0916 55.8499C26.0179 55.1482 24.9722 54.4043 23.9126 53.6791C23.8167 53.6136 23.7184 53.5552 23.5921 53.4756C23.274 53.8148 22.9699 54.1353 22.6681 54.4604C21.2482 55.988 19.2411 55.6651 18.3569 53.768C18.3335 53.7166 18.2937 53.6745 18.2633 53.6347C16.2282 53.7938 15.3626 53.2627 14.8995 51.5434C13.2059 51.499 12.2117 50.6405 12.0573 48.9141C10.1929 48.4533 9.65256 47.7047 9.74145 45.7468C9.74613 45.6275 9.71806 45.4637 9.63853 45.3865C9.04202 44.8064 8.4268 44.245 7.79053 43.6485C7.66421 43.852 7.51216 44.1163 7.34607 44.3713C7.0022 44.9 6.7098 44.9865 6.17879 44.6684C4.25828 43.5245 2.34478 42.3736 0.435958 41.2133C-0.0739965 40.9022 -0.127799 40.549 0.218409 39.9735C1.69915 37.508 3.1869 35.0471 4.66998 32.5839C5.77176 30.7522 6.88758 28.9276 7.96597 27.082C8.15077 26.7662 8.26306 26.3615 8.26539 25.9966C8.28177 17.8045 8.27709 9.61019 8.27709 1.41817C8.27709 1.22401 8.27007 1.02752 8.27943 0.83336C8.30984 0.253228 8.53675 0.0310006 9.10752 0.0122866C9.20577 0.00994741 9.30168 0.0122866 9.39993 0.0122866C17.8259 0.0122866 26.2518 0.0169651 34.6754 0.00292969C35.183 0.00292969 35.5526 0.143284 35.9082 0.503527C37.9176 2.53867 39.9387 4.56445 41.9762 6.57152C42.3411 6.93176 42.4815 7.30604 42.4815 7.80663C42.4698 13.4512 42.4674 19.0935 42.4908 24.7381C42.4908 25.1521 42.6335 25.6246 42.8628 25.9662C45.3587 29.6972 47.8874 33.4096 50.4068 37.1267C50.9518 37.9314 50.8887 38.1887 50.0395 38.694C48.3857 39.6764 46.7319 40.6613 45.0757 41.6391C44.168 42.1747 44.0371 42.142 43.4195 41.2905C43.375 41.2297 43.3212 41.1759 43.2347 41.08L43.2394 41.0776ZM15.6153 30.7078C15.8071 30.7312 15.9545 30.7616 16.1042 30.7663C17.1732 30.8107 18.2446 30.8248 19.3113 30.9043C19.7464 30.937 20.0364 30.8435 20.3078 30.4902C21.1172 29.4329 22.2096 28.9019 23.543 28.9463C24.998 28.9955 26.4577 29.0399 27.9057 29.1803C29.8379 29.3674 31.7607 29.6551 33.6906 29.8727C34.3269 29.9452 34.9725 29.9382 35.6789 29.9686C35.052 28.7686 35.0778 28.6843 36.1678 28.0598C37.6346 27.2176 39.0919 26.3638 40.568 25.5428C40.9399 25.3369 41.0732 25.103 41.0709 24.6772C41.0569 19.3461 41.0615 14.015 41.0592 8.68385C41.0592 8.49671 41.0405 8.30723 41.0265 8.07097H40.4182C38.7644 8.07097 37.1106 8.07097 35.4567 8.07097C34.6076 8.07097 34.4041 7.86511 34.4017 6.9996C34.3994 5.77383 34.4017 4.54807 34.4017 3.32231C34.4017 2.70475 34.4017 2.08953 34.4017 1.45326H9.7204C9.71104 1.64274 9.69467 1.79713 9.69467 1.94918C9.69467 9.67335 9.69467 17.3975 9.68765 25.124C9.68765 25.4796 9.79994 25.6784 10.1087 25.8585C11.8982 26.9159 13.6737 27.9966 15.4515 29.075C16.0831 29.4586 16.1416 29.7113 15.7884 30.3663C15.7346 30.4645 15.6878 30.5674 15.6153 30.7101V30.7078ZM24.5488 52.4113C25.6927 53.1926 26.7992 53.9786 27.9454 54.7084C28.1864 54.8604 28.6449 54.9306 28.8647 54.7996C29.1922 54.6055 29.5665 54.2218 29.6063 53.8826C29.646 53.5411 29.3911 53.0358 29.101 52.8136C28.163 52.0908 27.1477 51.4732 26.1699 50.7995C25.7536 50.5141 25.653 50.079 25.9173 49.7492C26.212 49.3819 26.5699 49.3749 26.9489 49.6276C27.0612 49.7024 27.1758 49.7773 27.2881 49.8545C28.5794 50.7223 29.8706 51.5878 31.1595 52.458C31.59 52.7481 32.0344 52.7832 32.4718 52.5002C32.8906 52.2288 33.0917 51.796 32.935 51.3399C32.8251 51.0194 32.5654 50.6943 32.2847 50.4978C30.8999 49.527 29.487 48.596 28.0858 47.6509C27.9571 47.5644 27.8238 47.4825 27.7068 47.3796C27.4004 47.1082 27.3489 46.776 27.5735 46.4439C27.8027 46.1047 28.1326 46.0462 28.4951 46.2427C28.6659 46.3363 28.825 46.4485 28.9864 46.5561C30.6472 47.672 32.3104 48.7901 33.9713 49.9083C34.4625 50.2381 34.9631 50.2615 35.4263 49.8919C35.8357 49.5644 35.9456 49.0895 35.7327 48.6287C35.6041 48.3503 35.3327 48.1047 35.0707 47.9246C33.0964 46.5749 31.1104 45.2438 29.1267 43.9081C28.9817 43.8099 28.8297 43.7163 28.7033 43.5993C28.4039 43.3233 28.308 42.9467 28.6051 42.68C28.8039 42.5022 29.1782 42.4905 29.4776 42.4718C29.6016 42.4625 29.7396 42.6215 29.8683 42.7104C31.756 43.9806 33.6415 45.2532 35.5292 46.5211C36.0766 46.8907 36.6123 47.2836 37.1831 47.6135C37.8965 48.0252 38.8018 47.7889 39.2533 47.1269C39.7212 46.4415 39.5785 45.5199 38.9141 44.9818C38.7644 44.8602 38.5983 44.7549 38.4369 44.6473C34.3386 41.8917 30.2402 39.1384 26.1419 36.3851C25.2927 35.8144 24.4389 35.2506 23.5757 34.6775C22.9441 35.3605 22.3897 36.0436 21.7488 36.6354C20.8669 37.4495 19.9897 38.3056 18.9838 38.9419C17.5779 39.8285 16.0621 39.7677 14.6234 38.8951C13.91 38.4624 13.8655 38.0787 14.4059 37.4401C15.3369 36.343 16.2726 35.2459 17.2013 34.1488C17.6972 33.564 18.1861 32.9745 18.7475 32.3032C17.4001 32.247 16.1837 32.1885 14.965 32.1581C14.8316 32.1558 14.6375 32.2844 14.565 32.4084C12.6328 35.5991 10.7076 38.7969 8.7964 42.0016C8.72389 42.1233 8.73324 42.4017 8.81979 42.4882C9.42332 43.0894 10.0573 43.6602 10.7193 44.2777C11.1263 43.8379 11.5754 43.3303 12.0503 42.8484C12.9111 41.9759 14.1673 41.7841 15.1381 42.4438C15.5849 42.7479 15.917 43.2204 16.3194 43.6344C18.2493 42.68 20.2166 44.0532 20.0645 46.2006C21.4564 46.6123 21.8938 47.0778 22.2938 48.5656C24.4319 48.8229 25.3489 50.3457 24.5465 52.4136L24.5488 52.4113ZM42.4113 39.908C42.3902 39.8262 42.3902 39.784 42.3715 39.756C40.5422 37.0495 38.7153 34.343 36.8673 31.6505C36.7644 31.4985 36.4953 31.4025 36.2942 31.3862C34.3198 31.2154 32.3455 31.0657 30.3712 30.909C28.0881 30.7265 25.805 30.53 23.5196 30.3663C22.6681 30.3054 21.985 30.6727 21.4353 31.33C20.2002 32.8084 18.9464 34.2705 17.7019 35.7395C17.1007 36.4483 16.5042 37.1571 15.8399 37.9407C16.1229 38.0062 16.3171 38.0694 16.5159 38.0951C17.7884 38.2682 18.7288 37.5969 19.5686 36.7922C20.537 35.8635 21.4447 34.874 22.3663 33.8985C23.3839 32.8225 23.3745 32.8225 24.6097 33.6529C28.8039 36.474 32.9982 39.2928 37.1995 42.1022C37.3679 42.2145 37.665 42.3221 37.8123 42.2496C39.3586 41.4894 40.8861 40.6917 42.4113 39.908ZM9.57303 27.1802C6.93203 31.564 4.31208 35.9126 1.6664 40.3034C3.25942 41.2648 4.81735 42.2028 6.42441 43.1713C9.06541 38.7875 11.6854 34.4389 14.331 30.0481C12.731 29.082 11.1754 28.144 9.57303 27.1779V27.1802ZM36.9562 29.2387C39.4872 32.9698 41.9785 36.6448 44.4909 40.3501C46.0301 39.4332 47.5202 38.5466 49.05 37.6343C46.526 33.9126 44.0487 30.2587 41.5598 26.5884C39.9995 27.4843 38.5071 28.3452 36.9562 29.2364V29.2387ZM18.6119 46.0345C18.6352 45.3585 18.406 45.0216 17.9756 44.8298C17.5101 44.6239 17.096 44.7456 16.7568 45.1058C15.7977 46.1281 14.8387 47.148 13.8959 48.1843C13.3977 48.7316 13.4 49.3632 13.8585 49.7913C14.3404 50.2428 14.9673 50.1866 15.503 49.6182C16.4223 48.6404 17.3393 47.6579 18.2376 46.6591C18.4341 46.4392 18.5487 46.1468 18.6142 46.0322L18.6119 46.0345ZM19.8376 47.5035C19.4704 47.6954 19.1663 47.7702 18.9815 47.962C18.1721 48.7948 17.3814 49.651 16.6118 50.5212C16.2001 50.9843 16.2352 51.5855 16.6399 51.9902C17.0469 52.3996 17.6808 52.4604 18.1066 52.0323C18.9768 51.1504 19.8306 50.2451 20.6119 49.286C20.8014 49.0545 20.799 48.5211 20.6704 48.2217C20.5441 47.9269 20.1394 47.7492 19.84 47.5059L19.8376 47.5035ZM35.852 2.64627V6.62532H39.8428C38.5211 5.30599 37.1784 3.97028 35.852 2.64627ZM20.5932 54.1025C20.9488 53.9388 21.2248 53.8897 21.3862 53.7259C22.0295 53.0779 22.6611 52.4136 23.2482 51.7142C23.6108 51.2837 23.5055 50.6662 23.1009 50.2919C22.7008 49.9223 22.1441 49.8685 21.7254 50.2709C21.0564 50.9188 20.4014 51.5949 19.84 52.3364C19.6552 52.5797 19.6528 53.106 19.7838 53.4101C19.9101 53.7049 20.3148 53.8803 20.5908 54.1025H20.5932ZM10.9579 46.4906C11.2362 46.7994 11.4421 47.162 11.7532 47.3445C12.1439 47.5737 12.593 47.4708 12.9252 47.1269C13.4913 46.5374 14.0527 45.9456 14.593 45.3351C15.0492 44.8228 15.0328 44.1842 14.593 43.7701C14.1252 43.3303 13.503 43.3701 12.993 43.8988C12.4667 44.4438 11.9427 44.9935 11.4514 45.569C11.262 45.7912 11.1661 46.093 10.9579 46.4906Z" fill="white"/>
<path d="M25.3954 6.1427C30.6821 6.16141 34.9606 10.4609 34.9489 15.7383C34.9348 21.0086 30.6143 25.2847 25.3299 25.259C20.0432 25.2332 15.7858 20.9361 15.8069 15.6447C15.8256 10.4142 20.1555 6.12633 25.3954 6.14504V6.1427ZM25.3556 23.8484C29.8634 23.8578 33.536 20.2086 33.5407 15.7149C33.5477 11.2189 29.8774 7.55794 25.372 7.56262C20.8854 7.5673 17.2338 11.2001 17.2174 15.6681C17.2011 20.1664 20.8573 23.8391 25.3556 23.8461V23.8484Z" fill="white"/>
<path d="M24.0857 15.2237C25.1805 14.0588 26.2261 12.9336 27.2858 11.8225C28.2659 10.7932 29.5689 10.709 30.4859 11.5979C31.3724 12.4587 31.3444 13.7827 30.411 14.7746C28.9186 16.3629 27.4238 17.9489 25.9314 19.5373C24.8506 20.6835 23.6576 20.728 22.5208 19.6636C21.7956 18.9852 21.0658 18.3139 20.3523 17.6238C19.433 16.7372 19.3698 15.4226 20.1839 14.5453C21.0003 13.6681 22.3056 13.6377 23.2693 14.4822C23.5313 14.7114 23.784 14.9524 24.0857 15.2261V15.2237ZM20.9324 15.977C21.1172 16.2483 21.2318 16.4939 21.412 16.6717C22.0623 17.3103 22.736 17.9279 23.4027 18.5525C24.0576 19.1677 24.343 19.1653 24.9489 18.522C26.4133 16.9665 27.8776 15.4085 29.3396 13.8529C29.7724 13.3921 29.8356 12.9523 29.5174 12.6295C29.1642 12.2693 28.7502 12.3324 28.2706 12.8377C27.0963 14.0798 25.9337 15.3337 24.7571 16.5735C24.2846 17.0717 23.9758 17.0694 23.4682 16.6039C23.0681 16.2366 22.7056 15.8155 22.2658 15.5068C22.0529 15.3571 21.681 15.329 21.4166 15.3945C21.2342 15.4413 21.1172 15.743 20.9324 15.9793V15.977Z" fill="white"/>
</svg>
