<svg width="50" height="50" viewBox="0 0 50 50" fill="none" xmlns="http://www.w3.org/2000/svg">
<path d="M13.9689 33.3584C15.0231 32.3003 15.9561 31.3243 16.9418 30.405C17.1824 30.1801 17.6146 30.0041 17.9256 30.0451C18.7178 30.1508 18.9642 31.0896 18.3853 31.6979C17.7242 32.3941 17.0318 33.0611 16.3531 33.7398C15.6392 34.4537 14.9234 35.1637 14.2153 35.8834C14.1078 35.993 13.9806 36.1455 13.9787 36.2805C13.9591 37.4501 13.9689 38.6197 13.9689 39.8304C15.1307 39.7463 16.2142 39.4861 17.2372 39.0324C20.6854 37.5029 22.8818 34.9114 23.7756 31.2284C23.8421 30.9527 23.7698 30.8197 23.5527 30.671C19.2322 27.7255 16.6328 23.669 15.7468 18.5172C15.6959 18.2199 15.5884 18.1182 15.3067 18.0556C10.196 16.9427 4.89558 19.6868 2.83996 24.5198C2.78324 24.6547 2.73239 24.7917 2.66589 24.9227C2.40771 25.4312 1.89136 25.6346 1.40044 25.4254C0.911466 25.2161 0.678717 24.7036 0.874305 24.1736C1.44542 22.6304 2.29036 21.2437 3.42477 20.0584C6.67543 16.6591 10.6419 15.3389 15.2891 16.0528C15.3517 16.0626 15.4162 16.0704 15.4554 16.0763C15.5453 15.0494 15.5688 14.0206 15.7331 13.0173C16.6543 7.38436 19.592 3.10686 24.47 0.153492C24.8866 -0.0988158 25.2699 -0.0127573 25.6592 0.223904C29.6139 2.63354 32.3111 6.03285 33.6939 10.457C34.2357 12.19 34.4958 13.9698 34.4743 15.7888C34.4723 15.998 34.4743 16.2093 34.4743 16.3931C35.2664 16.2953 36.0312 16.133 36.7998 16.1193C41.979 16.0215 45.9377 20.3596 45.3803 25.5036C45.3509 25.7755 45.4115 25.9045 45.6365 26.0473C48.5957 27.9093 50.047 30.6045 49.9922 34.0879C49.9237 38.3537 46.323 42.1853 42.1022 42.596C40.559 42.7466 39.0921 42.5451 37.6585 41.9858C37.5861 41.9564 37.5098 41.9369 37.4022 41.9017V48.0451H37.9636C41.5448 48.0451 45.124 48.0451 48.7052 48.0451C48.8519 48.0451 49.0006 48.0353 49.1434 48.0529C49.6323 48.1155 50 48.5379 49.9981 49.025C49.9981 49.51 49.6284 49.9305 49.1375 49.9912C48.9771 50.0107 48.8128 49.999 48.6505 49.999C32.8803 49.999 17.11 49.999 1.3398 49.999C1.20876 49.999 1.07967 50.0048 0.948628 49.997C0.399027 49.9599 -0.00388351 49.5433 2.82387e-05 49.0152C0.00198411 48.489 0.40685 48.0764 0.960363 48.047C1.18724 48.0353 1.41608 48.0451 1.64296 48.0451C4.89754 48.0451 8.15212 48.0451 11.4067 48.0451H11.9739V41.9017C10.951 41.665 9.91632 41.5144 8.94229 41.1858C5.13811 39.9027 2.46834 37.3738 0.915378 33.6694C0.743261 33.2586 0.710011 32.8323 1.05229 32.5447C1.28504 32.3511 1.65665 32.2377 1.96568 32.2396C2.4038 32.2396 2.60721 32.6132 2.76368 32.9926C3.52256 34.839 4.69609 36.3724 6.28034 37.585C7.95849 38.8681 9.85177 39.6152 11.9876 39.8343C11.9954 39.6739 12.0091 39.5311 12.0091 39.3884C12.0091 37.0276 12.0189 34.6688 11.9974 32.3081C11.9954 32.0695 11.8605 31.778 11.6923 31.604C10.7691 30.6417 9.81266 29.7087 8.87188 28.7621C8.35944 28.2477 8.30663 27.6883 8.71737 27.258C9.1457 26.8101 9.72268 26.8531 10.2527 27.3793C10.8062 27.9289 11.3539 28.4863 11.9641 29.0985C11.9856 28.9088 12.0091 28.7934 12.0091 28.676C12.013 27.8291 12.0013 26.9842 12.015 26.1373C12.0248 25.5349 12.4746 25.087 13.0183 25.1026C13.5523 25.1202 13.963 25.5505 13.963 26.1393C13.9708 28.3201 13.9669 30.5009 13.9669 32.6817C13.9669 32.8577 13.9669 33.0318 13.9669 33.3545L13.9689 33.3584ZM37.3729 30.9879C37.4159 30.9996 37.457 31.0133 37.5 31.025C38.21 30.3072 38.918 29.5894 39.63 28.8736C39.7434 28.7582 39.8588 28.6389 39.9957 28.5528C40.6138 28.1636 41.4724 28.5685 41.4724 29.2941C41.4724 29.5933 41.2866 29.9552 41.0715 30.1801C39.9566 31.3419 38.7948 32.4606 37.6721 33.6166C37.5118 33.7809 37.3925 34.0586 37.3885 34.2874C37.3651 35.948 37.3827 37.6066 37.369 39.2671C37.367 39.5507 37.4668 39.7032 37.7093 39.8402C42.1491 42.3535 47.9307 39.1028 48.0285 33.9862C48.0852 30.9976 46.7259 28.7856 44.0483 27.4164C43.2972 27.0331 43.1975 26.7632 43.3148 25.9358C43.4166 25.2161 43.5202 24.465 43.4205 23.755C43.043 21.0872 41.5624 19.2174 38.9963 18.3881C36.3891 17.5471 34.0401 18.1828 32.2074 20.2188C30.4022 22.2255 30.0833 24.5746 31.0672 27.0839C31.4818 28.1401 31.3116 28.5528 30.2242 28.8873C26.8855 29.9219 25.1096 33.5872 26.3789 36.8262C27.662 40.1003 31.4505 41.6024 34.621 40.1199C35.2097 39.8441 35.5402 39.5116 35.4131 38.8309C35.372 38.6099 35.3857 38.3733 35.4131 38.1483C35.4581 37.7708 35.2997 37.5127 35.0356 37.2565C33.999 36.2453 32.98 35.2145 31.959 34.1877C31.4349 33.6596 31.384 33.0767 31.8182 32.6504C32.2505 32.2259 32.8235 32.2866 33.3594 32.8205C33.913 33.3701 34.4645 33.9256 35.018 34.4752C35.1139 34.571 35.2214 34.6571 35.4092 34.8214C35.4092 34.5417 35.4092 34.3676 35.4092 34.1935C35.4092 32.533 35.4112 30.8725 35.4092 29.2139C35.4092 28.7816 35.505 28.4061 35.9158 28.1812C36.5945 27.8096 37.3318 28.2653 37.369 29.1044C37.3964 29.7302 37.3749 30.3581 37.3749 30.9859L37.3729 30.9879ZM23.9556 28.5724C23.9947 28.4804 24.0182 28.4531 24.0182 28.4257C24.0201 26.3114 24.028 24.1951 24.0123 22.0808C24.0123 21.9165 23.891 21.719 23.7698 21.5918C22.9972 20.7997 22.209 20.0232 21.4266 19.2409C21.012 18.8262 20.5856 18.4253 20.1925 17.9911C19.8111 17.5686 19.8483 17.0053 20.2433 16.6337C20.6032 16.2934 21.1782 16.2856 21.5733 16.6298C21.7572 16.7902 21.9234 16.9701 22.0956 17.1442C22.7077 17.7603 23.3199 18.3764 24.024 19.0825C24.024 18.7832 24.024 18.6248 24.024 18.4683C24.024 15.7829 24.0201 13.0994 24.026 10.414C24.026 9.794 24.4524 9.36958 25.0176 9.37936C25.5633 9.38914 25.9623 9.80574 25.9741 10.4003C25.9838 10.856 25.976 11.3118 25.976 11.7675C25.976 12.6359 25.976 13.5043 25.976 14.3747L26.1031 14.4392C26.5589 13.96 27.0087 13.473 27.4742 13.0036C27.973 12.499 28.5519 12.4618 28.9744 12.8862C29.4047 13.3204 29.3655 13.8681 28.8511 14.3864C27.9925 15.2528 27.1163 16.1037 26.2733 16.9838C26.1149 17.1481 25.9917 17.4239 25.9897 17.6488C25.9721 21.1479 25.978 24.645 25.978 28.144C25.978 28.2751 25.9975 28.4061 26.0073 28.5372C26.0503 28.5587 26.0914 28.5802 26.1344 28.5997C26.9266 27.833 27.7265 27.0742 28.505 26.2918C28.6184 26.1764 28.6888 25.9456 28.6692 25.7794C28.2761 22.4192 29.436 19.7279 32.1077 17.6684C32.2622 17.549 32.4206 17.3183 32.4245 17.1364C32.4421 16.002 32.5341 14.8499 32.3835 13.7312C31.7419 8.98818 29.4281 5.23486 25.5262 2.45165C25.1252 2.16609 24.8494 2.17782 24.47 2.46143C18.9838 6.5492 16.6445 11.965 17.8005 18.7304C18.4928 22.7908 20.6639 26.0297 23.9575 28.5743L23.9556 28.5724ZM23.9771 48.0216V35.8287C21.5323 39.4118 18.2131 41.3853 13.9924 41.8293V48.0216H23.9771ZM35.3779 41.9623C31.7889 43.3294 28.6966 42.6527 26.0034 39.9712V48.0157H35.3779V41.9642V41.9623Z" fill="white"/>
<path d="M44.184 11.647C40.9587 11.6568 38.3555 9.05742 38.3535 5.82632C38.3516 2.62064 40.949 0.00563338 44.139 -0.000234241C47.3662 -0.00610187 49.9968 2.59717 50.0008 5.80285C50.0066 9.032 47.4131 11.6372 44.184 11.647ZM44.1507 9.6833C46.2983 9.69308 48.041 7.97191 48.0449 5.83805C48.0488 3.71202 46.2983 1.9576 44.1722 1.95564C42.0579 1.95564 40.3329 3.6729 40.3192 5.79111C40.3055 7.95431 41.9973 9.67352 44.1507 9.68135V9.6833Z" fill="white"/>
<path d="M0.966302 29.813C0.428436 29.8091 0.00792276 29.3944 9.92621e-05 28.8624C-0.00772424 28.3226 0.447995 27.8649 0.985861 27.8708C1.50808 27.8767 1.94424 28.3128 1.95206 28.835C1.95989 29.3866 1.52568 29.8188 0.966302 29.813Z" fill="white"/>
</svg>
