<svg width="48" height="49" viewBox="0 0 48 49" fill="none" xmlns="http://www.w3.org/2000/svg">
<path d="M3.24754 35.2102C-0.265291 31.3949 2.31025 25.589 7.23903 25.5529V22.4126C6.74835 22.4126 6.23765 22.4126 5.72495 22.4126C4.64146 22.4126 3.55797 22.4166 2.47648 22.4126C1.04651 22.4066 0.00508133 21.3832 0.00307857 19.9652C-0.000926934 14.1312 -0.000926934 8.29719 0.00107582 2.46517C0.00307857 1.04321 1.04051 0.0178013 2.46847 0.011793C3.50189 0.00778751 4.53531 0.00578475 5.56873 0.011793C6.90056 0.019804 7.90594 0.971112 8.00007 2.30094C8.04614 2.94783 8.32252 3.20819 8.99344 3.21019C11.5089 3.2142 14.0264 3.21019 16.5418 3.21019C18.2361 3.21019 19.1935 4.17151 19.1975 5.87586C19.1975 6.03808 19.1975 6.2003 19.1975 6.41059C19.5079 6.41059 19.7883 6.35251 20.0286 6.42261C20.5433 6.57482 21.0881 6.71701 21.5227 7.01142C21.8371 7.22371 22.0915 7.33787 22.46 7.30182C26.1851 6.93331 29.6238 7.8005 32.8102 9.73116C33.2228 9.9815 33.6133 10.2639 33.9858 10.5122C34.4144 10.2459 34.8029 9.9074 35.2535 9.75319C35.7122 9.59497 36.2309 9.619 36.7877 9.55491C35.6441 8.29318 35.0493 6.81314 35.2115 5.1108C35.3737 3.41647 36.1548 2.03858 37.5487 1.04121C39.7137 -0.50692 42.6878 -0.308647 44.6264 1.52387C45.768 2.60336 46.3608 3.94921 46.3889 5.52337C46.4169 7.0735 45.8381 8.39933 44.7366 9.61299C45.0831 9.61299 45.3274 9.61099 45.5697 9.61299C46.9336 9.62701 47.9871 10.6564 47.9911 12.0123C47.9991 15.1626 47.9951 18.311 47.9911 21.4613C47.9911 22.1282 47.6926 22.4126 46.9997 22.4126C45.0991 22.4146 43.2005 22.4126 41.2999 22.4126H40.8312C40.7551 24.0268 40.683 25.597 40.6069 27.2112C41.0816 27.2112 41.6483 27.1711 42.2071 27.2272C42.5115 27.2573 42.872 27.3774 43.0843 27.5837C44.6144 29.0697 46.1225 30.5798 47.6085 32.1079C47.8168 32.3202 47.975 32.6847 47.977 32.9791C47.9991 37.6616 47.9931 42.344 47.9911 47.0284C47.9911 47.7154 47.7047 48.0098 47.0297 48.0098C42.3313 48.0118 37.6308 48.0118 32.9324 48.0098C32.2855 48.0098 31.9951 47.7114 31.9931 47.0565C31.9891 44.507 31.9931 41.9575 31.9931 39.408V38.8292C25.9508 41.7732 20.1187 41.4588 14.3969 37.8578C14.3969 38.0721 14.3969 38.2464 14.3969 38.4206C14.3969 41.2545 14.3969 44.0864 14.3969 46.9203C14.3969 47.7655 14.1465 48.0138 13.2954 48.0138C9.22977 48.0138 5.16417 48.0138 1.09658 48.0138C0.243409 48.0138 -0.00292969 47.7675 -0.00292969 46.9203C-0.00292969 43.9041 -0.00292969 40.888 -0.00292969 37.8719C-0.00292969 36.1755 0.958392 35.2162 2.66073 35.2142C2.82095 35.2142 2.98117 35.2142 3.24353 35.2142L3.24754 35.2102ZM12.7646 20.8104C15.0798 20.8104 17.395 20.8104 19.7102 20.8104C20.5253 20.8104 20.7957 20.546 20.7957 19.7449C20.7957 16.196 20.7957 12.6472 20.7957 9.10029C20.7957 8.28317 20.5313 8.0148 19.7282 8.0148C15.1139 8.0148 10.4995 8.0148 5.88517 8.0148C5.06604 8.0148 4.79967 8.27716 4.79967 9.08026C4.79967 12.6291 4.79967 16.178 4.79967 19.7249C4.79967 20.558 5.06003 20.8104 5.91521 20.8104C8.19835 20.8104 10.4795 20.8104 12.7626 20.8104H12.7646ZM33.6173 46.3735H46.3548V33.612C45.1171 33.612 43.9195 33.612 42.7198 33.612C41.8326 33.612 41.5943 33.3757 41.5943 32.4945C41.5943 31.2828 41.5943 30.0731 41.5943 28.8414H33.6173V46.3735ZM46.3949 20.7984V20.2696C46.3949 17.62 46.3949 14.9704 46.3949 12.3207C46.3949 11.4716 46.1385 11.2132 45.2994 11.2132C42.2992 11.2132 39.3011 11.2132 36.301 11.2132C35.4538 11.2132 35.1975 11.4675 35.1975 12.3127C35.1975 14.9784 35.1975 17.646 35.1975 20.3117C35.1975 20.4699 35.1975 20.6281 35.1975 20.7984H46.3949ZM12.7987 46.3896C12.7987 46.2053 12.7987 46.0731 12.7987 45.9429C12.7987 43.2593 12.7987 40.5776 12.7987 37.8939C12.7987 37.0788 12.5343 36.8144 11.7272 36.8144C8.71105 36.8144 5.6949 36.8144 2.67876 36.8144C1.86764 36.8144 1.60328 37.0788 1.60328 37.8899C1.60328 40.5736 1.60328 43.2553 1.60328 45.9389C1.60328 46.0831 1.6193 46.2273 1.62731 46.3896H12.7987ZM18.4585 24.8299C18.2982 26.348 18.9451 31.1987 19.4438 32.4824C20.9879 32.3222 22.502 32.0438 24.0181 32.0438C25.5282 32.0438 27.0383 32.3222 28.5664 32.4804C29.1492 30.5538 29.736 25.9094 29.5137 24.8299H18.4605H18.4585ZM17.5772 6.41059C17.6533 4.98663 17.4911 4.81239 16.1693 4.81239C13.754 4.81239 11.3387 4.81239 8.92334 4.81239C7.48136 4.81239 6.51804 3.90915 6.39987 2.46517C6.35381 1.9064 6.06742 1.62201 5.49863 1.616C4.49926 1.60598 3.49989 1.60598 2.50051 1.616C1.91371 1.62201 1.6193 1.92843 1.60528 2.51724C1.59527 2.89976 1.60328 3.28429 1.60328 3.66682C1.60328 9.03019 1.60328 14.3956 1.60328 19.7589C1.60328 20.536 1.87766 20.8064 2.65472 20.8104C2.86501 20.8104 3.07731 20.8104 3.27958 20.8104C3.25155 20.4399 3.20548 20.1275 3.20548 19.815C3.20148 16.2001 3.20148 12.5851 3.20348 8.97011C3.20348 7.41197 4.20486 6.41259 5.765 6.41259C9.51215 6.41259 13.2613 6.41259 17.0085 6.41259H17.5792L17.5772 6.41059ZM8.84724 24.8299C8.86727 25.1063 8.84724 25.3486 8.91333 25.5649C8.9614 25.7231 9.08757 25.9274 9.22976 25.9815C11.9815 27.0129 13.6398 30.2554 12.3881 33.3576C12.336 33.4838 12.336 33.7101 12.4141 33.7982C12.8928 34.345 13.4015 34.8657 13.8301 35.3203C15.234 34.5393 16.5498 33.8083 17.9077 33.0532C17.2047 30.4016 16.8763 27.6378 16.7942 24.8299H8.84724ZM40.8152 1.614C38.6342 1.60398 36.8177 3.38643 36.7997 5.55341C36.7796 7.78248 38.5801 9.60699 40.8032 9.60899C42.9762 9.61099 44.7806 7.81652 44.7927 5.64153C44.8047 3.4345 43.0162 1.62201 40.8152 1.61199V1.614ZM11.1965 31.2167C11.2005 29.0137 9.398 27.2112 7.19497 27.2132C5.01597 27.2132 3.21149 29.0077 3.20348 31.1786C3.19547 33.3857 4.98192 35.1962 7.18295 35.2102C9.37797 35.2242 11.1945 33.4177 11.1985 31.2187L11.1965 31.2167ZM22.3999 16.7268C22.3999 17.5719 22.3458 18.373 22.4099 19.1641C22.5981 21.4613 21.3725 22.6229 19.1774 22.4166C18.9511 22.3946 18.7228 22.4146 18.4605 22.4146V23.1736H29.5817C29.5177 20.7884 29.2733 18.4672 28.7226 16.138C26.6557 16.7007 24.5909 16.9651 22.3999 16.7288V16.7268ZM28.0737 34.1888C25.3299 33.4297 22.6702 33.4277 19.9185 34.1888C20.1207 34.6895 20.293 35.1501 20.4933 35.5987C20.9859 36.7002 21.5687 37.7437 22.494 38.5508C23.4133 39.3539 24.3365 39.438 25.2578 38.733C26.7539 37.5895 27.4108 35.9192 28.0737 34.1868V34.1888ZM28.4402 14.5338C27.8273 13.256 27.3186 12.0303 26.6617 10.8887C26.2992 10.2599 25.7425 9.70512 25.1717 9.24249C24.4146 8.62964 23.5815 8.68772 22.7664 9.23047C22.514 9.3987 22.3859 9.59096 22.3899 9.92142C22.4099 11.5176 22.3979 13.1138 22.3999 14.71C22.3999 14.8382 22.4199 14.9664 22.4299 15.1025C24.4347 15.3649 26.3613 15.1206 28.4402 14.5338ZM33.5973 13.8929C32.5779 14.4196 31.6145 14.9383 30.6312 15.413C30.3228 15.5612 30.2867 15.7094 30.3408 16.0218C30.5851 17.4297 30.8215 18.8417 31.0037 20.2576C31.1279 21.225 31.1579 22.2043 31.23 23.1756H39.1549C39.1289 22.9133 39.1068 22.683 39.0788 22.4106H38.5741C37.2903 22.4106 36.0086 22.4106 34.7248 22.4106C33.8356 22.4106 33.5973 22.1743 33.5973 21.2951C33.5973 18.8297 33.5973 16.3643 33.5973 13.8929ZM38.8805 27.2092C38.9847 26.3901 39.0828 25.625 39.185 24.8379H31.2601C31.228 24.876 31.21 24.888 31.21 24.9C31.1038 27.5997 30.8174 30.2754 30.1345 32.899C30.1105 32.9891 30.1846 33.1694 30.2627 33.2074C30.8215 33.4798 31.3942 33.7282 31.9971 33.9985C31.9971 32.0779 31.9971 30.2133 31.9971 28.3468C31.9971 27.4355 32.2254 27.2092 33.1527 27.2092C35.0332 27.2092 36.9158 27.2092 38.8805 27.2092ZM29.9603 13.967C31.0758 13.4843 32.2134 12.8635 33.2668 12.0023C31.5364 10.6885 29.6939 9.78323 27.7072 9.30657C28.4542 10.8507 29.1932 12.3828 29.9603 13.967ZM18.2602 34.6955C17.2929 35.2222 16.2795 35.773 15.1739 36.3738C16.8522 37.5614 18.5546 38.3325 20.3531 38.7591C19.6761 37.4473 18.9952 36.1234 18.2602 34.6955ZM29.73 34.7035C29.015 36.0994 28.346 37.4052 27.6811 38.705C27.7052 38.705 27.7873 38.721 27.8614 38.703C29.2493 38.3365 30.5611 37.7917 31.7848 37.0407C32.1252 36.8304 32.1052 35.9592 31.7487 35.763C31.0678 35.3864 30.3728 35.04 29.73 34.7055V34.7035ZM16.8022 22.4386H8.91133C8.8893 22.695 8.87127 22.9233 8.84924 23.1776H16.8022V22.4386ZM45.021 31.9838C44.4362 31.3829 43.8213 30.7501 43.2205 30.1332V31.9838H45.021Z" fill="white"/>
<path d="M36.8203 38.377V36.8369H43.159V38.377H36.8203Z" fill="white"/>
<path d="M36.8203 43.1769V41.6348H43.159V43.1769H36.8203Z" fill="white"/>
</svg>
