<svg width="57" height="65" viewBox="0 0 57 65" fill="none" xmlns="http://www.w3.org/2000/svg">
<path d="M28.2959 29.1259C36.3256 29.1259 42.8604 22.5927 42.8604 14.563C42.8604 6.53324 36.3271 0 28.2959 0C20.2646 0 13.7329 6.53324 13.7329 14.563C13.7329 22.5927 20.2661 29.1259 28.2959 29.1259ZM28.2959 2.44423C34.9789 2.44423 40.4146 7.88146 40.4146 14.563C40.4146 21.2445 34.9774 26.6817 28.2959 26.6817C21.6144 26.6817 16.1771 21.2445 16.1771 14.563C16.1771 7.88146 21.6144 2.44423 28.2959 2.44423Z" fill="white"/>
<path d="M53.3374 39.0175V35.8472C53.3374 34.9086 52.94 34.0037 52.246 33.3662C51.5413 32.7181 50.5967 32.3956 49.6184 32.4735C47.2597 32.6891 45.1029 32.9994 43.0973 33.3815C41.6131 31.5931 39.8735 29.9483 37.8604 28.6948C37.4828 28.4594 37.0044 28.4487 36.6207 28.6627C34.1367 30.04 31.321 30.7814 28.5145 30.8058C25.7141 30.7493 22.9351 30.0186 20.4695 28.6933C20.0843 28.4365 19.5646 28.409 19.1427 28.6704C17.1203 29.9299 15.3747 31.5839 13.8858 33.3815C11.8726 32.9978 9.70661 32.6875 7.33728 32.4705C6.38955 32.3803 5.43876 32.7135 4.73713 33.3586C4.04162 33.9976 3.64265 34.904 3.64265 35.8441V39.0404C3.54635 39.0358 3.45617 39.0114 3.35834 39.0114C1.50567 39.0114 0 40.517 0 42.3697V48.3694C0 50.2221 1.50567 51.7278 3.35834 51.7278C3.45617 51.7278 3.54635 51.7033 3.64265 51.6987V53.7257C3.64265 55.5554 5.0719 57.0473 6.90163 57.1207C10.9952 57.2628 21.0825 58.1418 26.3271 63.203C26.9263 63.7823 27.6952 64.0728 28.4656 64.0819C28.4793 64.0819 28.49 64.0896 28.5038 64.0896C28.5191 64.0896 28.5329 64.0804 28.5481 64.0804C29.3124 64.0682 30.0737 63.7808 30.6714 63.206C35.9252 58.1418 45.9833 57.2613 50.0678 57.1207C51.9006 57.0473 53.3374 55.5584 53.3374 53.7257V51.7247C55.1794 51.7125 56.6744 50.2129 56.6744 48.3679V42.3682C56.6728 40.5293 55.1794 39.0312 53.3374 39.0175ZM19.8535 31.1299C22.5224 32.4628 25.4879 33.1935 28.5023 33.2531C31.5014 33.2256 34.4776 32.5026 37.1511 31.1513C38.3419 31.9645 39.4027 32.9443 40.3764 33.9884C34.956 35.3519 31.0046 37.4338 28.5007 40.3076C26.003 37.4338 22.047 35.3519 16.6098 33.9884C17.5881 32.9367 18.655 31.9492 19.8535 31.1299ZM3.35986 49.2881C2.85542 49.2881 2.44576 48.8769 2.44576 48.374V42.3743C2.44576 41.8714 2.85542 41.4602 3.35986 41.4602C5.51672 41.4602 7.27308 43.215 7.27308 45.3734C7.27155 47.5318 5.51672 49.2881 3.35986 49.2881ZM6.99335 54.681C6.48585 54.6612 6.08841 54.2439 6.08841 53.7318V51.0934C8.22693 50.0677 9.71731 47.9002 9.71731 45.3734C9.71731 42.8466 8.22693 40.6806 6.08841 39.6549V35.8472C6.08841 35.5858 6.19695 35.3427 6.39261 35.1623C6.57451 34.9957 6.80533 34.9071 7.04379 34.9071C7.0713 34.9071 7.09729 34.9071 7.12481 34.9101C17.6095 35.867 24.2023 38.4274 27.2825 42.7213V60.8C21.2965 55.7342 11.1863 54.8278 6.99335 54.681ZM50.8917 53.7318C50.8917 54.253 50.4958 54.6612 49.9761 54.681C45.7923 54.8278 35.7157 55.7342 29.7252 60.7939V42.7106C32.8221 38.4213 39.4027 35.8655 49.8308 34.9117C50.1274 34.9025 50.3842 34.982 50.589 35.1685C50.7832 35.3473 50.8902 35.5888 50.8902 35.8487V39.5005C48.5835 40.4559 46.9555 42.7259 46.9555 45.3734C46.9555 48.0209 48.5835 50.2924 50.8902 51.2478L50.8917 53.7318ZM54.2286 48.374C54.2286 48.8769 53.8174 49.2881 53.3145 49.2881C51.1577 49.2881 49.4013 47.5333 49.4013 45.3734C49.4013 43.2165 51.1561 41.4602 53.3145 41.4602C53.8174 41.4602 54.2286 41.8714 54.2286 42.3743V48.374Z" fill="white"/>
</svg>
