<svg width="78" height="78" viewBox="0 0 78 78" fill="none" xmlns="http://www.w3.org/2000/svg">
<path d="M54.5715 51.361C53.8072 51.361 53.0429 51.9724 53.0429 52.8895V65.4241H20.7895C18.1908 65.4241 16.2037 63.284 16.2037 60.8383V22.3176C17.5794 23.2347 18.8023 23.8462 20.7895 23.8462H53.0429V28.8905C53.0429 29.6548 53.6544 30.2663 54.4187 30.2663C55.183 30.2663 55.7944 29.6548 55.7944 28.8905V22.3176C55.7944 21.5533 55.183 20.9418 54.4187 20.789H21.0952C18.6494 20.789 16.3565 18.9546 16.2037 16.356C16.0508 13.7574 18.1908 11.6174 20.7895 11.6174H54.5715C55.3358 11.3116 55.7944 10.5473 55.6415 9.78303C55.4887 9.32445 55.0301 8.86587 54.5715 8.71301H20.7895C16.6622 8.71301 13.2993 12.0759 13.2993 16.2032V60.6854C13.2993 64.8126 16.6622 68.1755 20.7895 68.1755H54.4187C55.3358 68.1755 55.9473 67.4112 55.9473 66.6469V52.7367C55.9473 52.1253 55.3358 51.361 54.5715 51.361Z" fill="white"/>
<path d="M69.246 29.9605L67.5646 27.8205C66.9531 27.0562 66.036 26.5976 64.9659 26.4447C63.8959 26.2919 62.9788 26.5976 62.2145 27.209L37.1454 47.6923C37.1454 47.6923 37.1454 47.6923 36.9926 47.8451L36.8397 47.998C36.8397 47.998 36.6868 48.1508 36.6868 48.3037V48.4566L34.8525 54.571L33.6296 55.641C33.0182 56.0996 33.0182 57.0167 33.4768 57.6282C33.7825 57.9339 34.0882 58.0867 34.5468 58.0867C34.8525 58.0867 35.1582 57.9339 35.464 57.781L36.6868 56.5581L42.9541 55.9467C42.9541 55.9467 42.9541 55.9467 43.107 55.9467C43.2598 55.9467 43.2598 55.9467 43.4127 55.7938C43.4127 55.7938 43.5655 55.7938 43.5655 55.641H43.7184L68.6346 35.3106C69.3989 34.6992 69.8575 33.782 70.0103 32.712C70.1632 31.642 69.8575 30.7248 69.246 29.9605ZM38.674 51.5138L40.2026 53.3481L38.0626 53.6538L38.674 51.5138ZM66.9531 33.1706L43.107 52.5838L40.0498 48.9151L63.8959 29.3491C64.0488 29.1962 64.3545 29.0433 64.6602 29.1962C64.9659 29.1962 65.1188 29.3491 65.2717 29.5019L66.9531 31.642C67.2588 31.9477 67.2588 32.1005 67.2588 32.4063C67.2588 32.712 67.106 33.0177 66.9531 33.1706Z" fill="white"/>
<path d="M22.929 15.1331C22.1647 15.1331 21.5532 15.7445 21.5532 16.5088C21.5532 17.2731 22.1647 17.8845 22.929 17.8845H49.6795C50.4438 17.8845 51.0552 17.2731 51.0552 16.5088C51.0552 15.7445 50.4438 15.1331 49.6795 15.1331H22.929Z" fill="white"/>
</svg>
