<svg width="47" height="37" viewBox="0 0 47 37" fill="none" xmlns="http://www.w3.org/2000/svg">
<path d="M14.2252 18.7361C17.0252 18.7361 19.8252 18.0361 21.9252 17.3361C22.2252 17.2361 22.4252 16.9361 22.5252 16.6361C22.5252 16.6361 22.5252 16.5361 22.5252 16.4361C22.5252 14.9361 22.0252 9.43607 20.0252 7.03607C17.6252 4.23607 14.5252 4.23607 12.6252 4.13607C12.2252 4.13607 11.8252 4.13607 11.6252 4.13607C10.9252 3.93607 10.5252 3.73607 10.4252 3.33607C10.2252 2.73607 10.6252 1.93607 11.0252 1.53607C11.3252 1.23607 11.3252 0.836068 11.1252 0.436068C10.9252 0.0360681 10.5252 -0.063932 10.1252 0.036068C8.8252 0.236068 5.4252 2.63607 3.9252 6.13607C2.8252 8.73607 2.9252 11.3361 4.2252 13.6361C6.3252 17.5361 10.3252 18.7361 14.2252 18.7361ZM5.5252 6.83607C6.2252 5.23607 7.4252 3.83607 8.4252 2.93607C8.4252 3.23607 8.4252 3.43607 8.5252 3.73607C8.72519 4.43607 9.4252 5.33607 11.1252 5.73607C11.5252 5.83607 11.9252 5.83607 12.4252 5.83607C14.1252 5.83607 16.6252 5.93607 18.5252 8.03607C19.8252 9.53607 20.4252 13.3361 20.5252 15.3361C14.8252 15.0361 11.1252 13.1361 9.6252 9.73607C9.4252 9.23607 8.9252 9.13607 8.4252 9.33607C7.9252 9.53607 7.8252 10.0361 8.0252 10.5361C9.5252 13.7361 12.4252 15.8361 16.8252 16.7361C13.1252 17.2361 8.1252 17.0361 5.7252 12.7361C4.7252 10.8361 4.6252 8.93607 5.5252 6.83607Z" fill="white"/>
<path d="M45.3249 15.4361H37.0249C36.5249 15.4361 36.2249 15.8361 36.2249 16.2361V18.2361C34.6249 17.7361 29.4249 16.5361 25.6249 19.7361C24.7249 20.5361 24.0249 21.2361 23.4249 21.8361C21.7249 23.5361 20.8249 24.4361 18.3249 24.3361C15.1249 24.2361 13.3249 24.1361 12.1249 25.2361C11.6249 25.7361 11.2249 26.6361 11.0249 27.5361C9.82489 27.0361 8.82489 26.2361 7.72488 25.3361C7.22488 24.9361 6.72489 24.5361 6.32489 24.1361C4.52489 22.5361 3.62489 21.8361 1.72489 22.6361C0.424886 23.2361 0.124885 24.0361 0.0248854 24.7361C-0.175115 26.2361 0.824885 28.0361 3.22489 30.1361C8.52489 34.7361 12.4249 36.2361 20.4249 36.4361L22.2249 36.5361C23.9249 36.6361 25.4249 36.6361 26.8249 36.6361C30.7249 36.6361 33.3249 36.1361 36.1249 34.1361V35.5361C36.1249 36.0361 36.5249 36.3361 36.9249 36.3361H45.2249C45.7249 36.3361 46.0249 35.9361 46.0249 35.5361V16.2361C46.1249 15.8361 45.7249 15.4361 45.3249 15.4361ZM36.1249 31.9361C36.0249 31.9361 36.0249 32.0361 35.9249 32.0361C32.1249 35.1361 29.2249 35.0361 22.2249 34.7361L20.4249 34.6361C12.8249 34.3361 9.42488 33.1361 4.32489 28.7361C1.82489 26.4361 1.72489 25.3361 1.72489 25.0361C1.72489 24.9361 1.82489 24.6361 2.42489 24.3361C3.22489 24.0361 3.32489 24.0361 5.12489 25.6361C5.52489 25.9361 5.92489 26.3361 6.52489 26.8361C9.62489 29.4361 11.5249 30.4361 18.6249 30.8361C25.9249 31.2361 28.5249 27.6361 28.7249 27.2361C29.0249 26.8361 28.9249 26.2361 28.5249 26.0361C28.1249 25.7361 27.5249 25.8361 27.3249 26.2361C27.2249 26.3361 25.1249 29.3361 18.7249 29.0361C16.0249 28.9361 14.1249 28.6361 12.7249 28.2361C12.8249 27.3361 13.1249 26.7361 13.3249 26.5361C13.9249 25.9361 15.5249 26.0361 18.2249 26.1361C21.4249 26.2361 22.7249 24.9361 24.5249 23.1361C25.1249 22.5361 25.8249 21.8361 26.6249 21.1361C30.2249 18.0361 35.8249 20.0361 35.9249 20.0361C36.0249 20.0361 36.0249 20.0361 36.1249 20.0361V31.9361ZM44.4249 34.7361H37.8249V17.1361H44.4249V34.7361Z" fill="white"/>
<path d="M41.1246 29.436C41.6246 29.436 42.0246 29.036 42.0246 28.536V19.536C42.0246 19.036 41.6246 18.636 41.1246 18.636C40.6246 18.636 40.2246 19.036 40.2246 19.536V28.536C40.2246 29.036 40.6246 29.436 41.1246 29.436Z" fill="white"/>
<path d="M41.0248 32.9361C41.6323 32.9361 42.1248 32.4436 42.1248 31.8361C42.1248 31.2286 41.6323 30.7361 41.0248 30.7361C40.4173 30.7361 39.9248 31.2286 39.9248 31.8361C39.9248 32.4436 40.4173 32.9361 41.0248 32.9361Z" fill="white"/>
</svg>
