<svg width="47" height="47" viewBox="0 0 47 47" fill="none" xmlns="http://www.w3.org/2000/svg">
<mask id="path-1-inside-1_978_462" fill="white">
<path d="M35.0139 28.3743C33.6188 31.398 31.455 33.5751 28.4085 34.9702C28.6989 35.3289 28.9704 35.6668 29.2456 36.0008C31.0943 38.2425 32.945 40.4804 34.7899 42.7239C35.3954 43.4604 35.4543 44.1551 34.9949 44.7966C34.4236 45.5938 33.3967 45.7153 32.59 45.0548C30.4642 43.3142 28.3478 41.5642 26.2276 39.8179C25.8859 39.537 25.5443 39.2561 25.2026 38.9771C23.9765 37.9692 22.5851 37.9559 21.3647 38.9581C18.9484 40.9416 16.5359 42.9289 14.1329 44.9276C13.5863 45.3832 13.0168 45.6356 12.3088 45.385C11.2383 45.0054 10.927 43.7489 11.6825 42.8245C13.0016 41.2111 14.3303 39.6053 15.6552 37.9976C16.4087 37.0828 17.1623 36.1698 17.9139 35.2549C17.9823 35.1733 18.0373 35.0803 18.1189 34.9645C15.118 33.5941 12.9352 31.434 11.5401 28.4028C11.2174 28.6571 10.9118 28.8925 10.6157 29.1354C8.37408 30.9823 6.13243 32.8291 3.89457 34.6836C3.44282 35.0594 2.9664 35.3536 2.35141 35.2511C1.14232 35.048 0.607061 33.6206 1.38908 32.645C2.53743 31.2176 3.71235 29.813 4.87589 28.399C5.77938 27.3019 6.68477 26.2086 7.58637 25.1096C8.52403 23.9669 8.52593 22.5243 7.58637 21.3817C5.61994 18.992 3.64971 16.6061 1.67759 14.2221C1.32075 13.7893 0.973394 13.3565 1.02464 12.7529C1.07779 12.1285 1.35491 11.6312 1.94522 11.3673C2.55071 11.0959 3.12014 11.2003 3.62694 11.616C5.22514 12.9276 6.81954 14.2448 8.41584 15.5602C9.3535 16.3346 10.2893 17.1091 11.2288 17.8816C11.3104 17.9499 11.4034 18.0031 11.5287 18.0866C12.9143 15.0933 15.0971 12.9314 18.1189 11.5173C17.8589 11.1965 17.6159 10.8947 17.3711 10.5967C15.4635 8.28101 13.5502 5.97292 11.6521 3.64965C10.8131 2.62278 11.3332 1.24666 12.6277 1.01129C13.1326 0.920184 13.5521 1.12138 13.9336 1.43457C16.2246 3.32128 18.508 5.21748 20.8123 7.08711C21.3077 7.4895 21.8392 7.90709 22.4257 8.12727C23.3937 8.4898 24.3181 8.23736 25.121 7.57302C27.152 5.8932 29.1867 4.21528 31.2215 2.53736C31.66 2.17483 32.0927 1.8066 32.5388 1.45355C33.3303 0.825279 34.1579 0.838566 34.7994 1.47633C35.441 2.11788 35.4429 2.93597 34.7918 3.72747C32.7457 6.21398 30.6957 8.69859 28.6477 11.1832C28.5699 11.2781 28.4958 11.3787 28.3895 11.5192C31.3942 12.8953 33.5884 15.061 34.9797 18.079C35.1145 17.9822 35.2322 17.9101 35.3385 17.8247C37.7623 15.826 40.1862 13.8273 42.6101 11.8286C42.6822 11.7678 42.7581 11.7109 42.8322 11.652C43.5686 11.0712 44.4114 11.0769 45.0207 11.6653C45.6281 12.2518 45.6812 13.1705 45.0928 13.8956C43.5193 15.8316 41.9249 17.7506 40.34 19.6753C39.8882 20.2238 39.4365 20.7724 38.9828 21.3191C37.9901 22.5168 37.9882 23.9555 38.9828 25.1608C41.0062 27.6056 43.0334 30.0465 45.0567 32.4913C45.6319 33.1841 45.6869 33.9737 45.2067 34.6171C44.6373 35.3802 43.637 35.4637 42.8246 34.8012C41.7351 33.9129 40.6532 33.017 39.5693 32.123C38.0698 30.8893 36.5722 29.6574 35.0177 28.3781L35.0139 28.3743ZM11.5933 23.8644C11.9634 23.8834 12.2614 23.8891 12.5594 23.9138C14.4062 24.058 15.3648 25.176 15.0915 26.8786C15.0288 27.2658 14.913 27.6454 14.8409 28.0326C14.7346 28.6078 14.8371 28.733 15.4179 28.7881C16.4752 28.8887 17.037 29.4695 17.092 30.5305C17.1262 31.1949 17.3957 31.7111 17.9993 32.03C18.7301 32.4172 19.1078 33.0474 19.1819 33.8484C19.2084 34.1426 19.3356 34.2622 19.588 34.3305C19.9069 34.4159 20.2182 34.5393 20.5409 34.6019C21.1806 34.7272 21.8278 34.8202 22.4827 34.9284C22.4827 34.769 22.494 34.7044 22.4827 34.6437C22.2036 33.4042 22.3118 32.2369 23.0862 31.174C23.4526 30.671 23.4336 30.111 23.2153 29.5492C23.0711 29.1829 22.8813 28.8336 22.7731 28.4578C22.5946 27.8466 22.9705 27.3398 23.6063 27.3265C23.9176 27.3189 24.2384 27.3607 24.5421 27.4366C25.3602 27.6397 25.9543 27.3721 26.3946 26.6679C26.816 25.9922 27.4652 25.6429 28.232 25.7226C28.9741 25.8005 29.7011 26.0377 30.4319 26.2142C31.081 26.3718 31.3354 26.2541 31.4531 25.6182C31.66 24.5041 32.3661 23.8397 33.3683 23.4677C33.8769 23.2798 34.4293 23.2058 35.0177 23.0672C34.8545 19.2255 33.2714 16.1088 30.1491 13.738C30.0485 13.9127 29.9707 14.0455 29.8928 14.1803C29.3044 15.1996 28.6192 16.1543 27.6664 16.8547C26.5294 17.6918 26.0036 18.6902 26.4231 20.1195C26.6357 20.8445 26.2997 21.3646 25.5443 21.4367C25.0052 21.488 24.3959 21.4159 23.9024 21.2014C22.3612 20.5313 21.3931 19.3583 21.0705 17.6671C20.8522 16.5169 20.5883 16.3327 19.4419 16.3593C18.4985 16.3802 17.671 16.0575 16.9573 15.471C16.5359 15.1237 16.1696 14.708 15.7349 14.2809C12.8593 16.8225 11.4794 19.9847 11.5971 23.8625L11.5933 23.8644ZM34.8829 24.2972C33.5543 24.2364 32.8007 24.7793 32.4686 26.0131C32.1933 27.038 31.4986 27.5126 30.4623 27.3227C29.9403 27.2259 29.4392 27.0171 28.9191 26.89C28.0346 26.6736 27.4709 26.8122 27.0647 27.5676C26.797 28.0649 26.3206 28.3629 25.7759 28.4445C25.178 28.5356 24.5649 28.5261 23.9651 28.5584C24.5971 29.7808 24.5725 30.9918 23.724 32.2293C23.1622 33.0474 23.3691 33.9965 23.6595 34.8848C29.1734 34.8905 34.5071 30.1585 34.8829 24.2953V24.2972ZM29.1469 13.1857C25.5139 10.7447 19.6735 11.1452 16.6498 13.6583C17.4489 14.7383 18.4473 15.3989 19.8595 15.285C20.6814 15.2186 21.2963 15.6267 21.6968 16.3081C21.8999 16.6516 22.0309 17.0578 22.1049 17.4526C22.3403 18.7073 22.9989 19.6259 24.1663 20.146C24.5117 20.2998 24.8951 20.3681 25.3013 20.4858C25.3013 20.3301 25.3108 20.2865 25.3013 20.2447C24.8762 18.544 25.3602 17.1888 26.7856 16.141C27.8334 15.3723 28.5718 14.3359 29.1488 13.1819L29.1469 13.1857ZM34.1673 2.67023C34.173 2.1995 33.7858 1.96983 33.4252 2.14446C33.3132 2.1995 33.2183 2.28871 33.1215 2.36843C30.7451 4.32537 28.3649 6.27662 25.9941 8.24115C24.2346 9.70079 22.2871 9.71408 20.5371 8.26393C18.1417 6.28042 15.7387 4.30639 13.3395 2.32668C13.0662 2.1008 12.7701 1.91858 12.4683 2.24316C12.1874 2.54496 12.381 2.81638 12.5955 3.07453C14.7118 5.64645 16.8282 8.21838 18.9351 10.7979C19.1078 11.0105 19.2616 11.075 19.5311 10.9934C22.0157 10.238 24.5003 10.2683 26.9906 10.9953C27.1349 11.0371 27.3987 10.9611 27.4936 10.8472C29.6537 8.25064 31.8004 5.64076 33.9434 3.03087C34.0497 2.9018 34.118 2.74426 34.1636 2.66833L34.1673 2.67023ZM2.57539 34.2166C2.769 34.0952 2.93793 34.0154 3.07839 33.9015C5.67688 31.7681 8.26779 29.6251 10.8739 27.5031C11.1282 27.2962 11.0599 27.1196 10.9954 26.8938C10.2893 24.4547 10.2608 22.0138 11.0048 19.5804C11.0998 19.2672 11.0219 19.1021 10.7828 18.9085C9.02133 17.4735 7.26939 16.0234 5.51554 14.5789C4.67469 13.8861 3.84522 13.18 2.97968 12.5195C2.81645 12.3961 2.44632 12.3676 2.27549 12.4682C1.98318 12.6428 2.07809 12.9579 2.25841 13.2142C2.33053 13.3167 2.41405 13.4135 2.49377 13.5103C4.464 15.8962 6.43612 18.2783 8.40255 20.6661C9.67997 22.2169 9.69136 24.2326 8.41964 25.7929C7.06439 27.4575 5.68827 29.1051 4.32354 30.7621C3.64022 31.5897 2.94742 32.4096 2.29067 33.2581C2.1692 33.4156 2.14642 33.6947 2.17679 33.9034C2.19387 34.0173 2.41785 34.1008 2.57729 34.2185L2.57539 34.2166ZM12.8422 44.474C13.0909 44.2974 13.3015 44.1684 13.4895 44.0127C15.8659 42.0577 18.2404 40.0988 20.6149 38.14C22.2568 36.7848 24.246 36.7791 25.8878 38.1324C28.2643 40.0894 30.6369 42.0501 33.0133 44.0032C33.3094 44.2462 33.6283 44.6296 34.025 44.2234C34.4008 43.84 34.0288 43.5325 33.7953 43.2497C31.7207 40.7252 29.6385 38.2083 27.5696 35.6801C27.3797 35.4485 27.2108 35.4048 26.9375 35.4865C24.5003 36.2172 22.0556 36.2115 19.6222 35.477C19.2882 35.3764 19.1154 35.4561 18.9123 35.7066C17.466 37.4814 16.0082 39.2428 14.5543 41.0118C13.8729 41.8413 13.182 42.6632 12.5233 43.5097C12.4094 43.6559 12.3658 43.9216 12.4075 44.1057C12.4379 44.2405 12.6619 44.3316 12.8403 44.474H12.8422ZM43.8344 34.1464C44.3032 34.1445 44.5215 33.7459 44.3222 33.3948C44.2368 33.2448 44.1172 33.1157 44.0071 32.9829C42.0483 30.6083 40.0913 28.2319 38.1306 25.8593C36.8019 24.2497 36.7715 22.2738 38.0888 20.6642C40.097 18.2081 42.1204 15.7633 44.1419 13.3167C44.3582 13.0547 44.531 12.7795 44.2519 12.4815C43.9672 12.1778 43.6825 12.3391 43.4206 12.5555C40.8259 14.6947 38.2331 16.8357 35.6346 18.9692C35.4543 19.1173 35.3973 19.2387 35.4713 19.4817C36.2211 21.9777 36.2496 24.4813 35.4808 26.9811C35.4106 27.2089 35.4448 27.3417 35.6346 27.4974C38.2502 29.6365 40.8562 31.7852 43.468 33.9281C43.5971 34.0325 43.7565 34.1009 43.8363 34.1483L43.8344 34.1464ZM17.876 33.6453C17.9234 33.5998 17.969 33.5561 18.0164 33.5105C17.7962 33.3093 17.6026 33.0569 17.3483 32.9145C16.4144 32.3888 16.012 31.5669 15.9608 30.5438C15.938 30.0959 15.7349 29.9042 15.2945 29.8643C14.0399 29.7485 13.5084 29.0196 13.7324 27.7669C13.8216 27.2715 13.926 26.778 13.9906 26.2807C14.0456 25.8555 13.9089 25.4512 13.4876 25.3089C12.9219 25.1153 12.3221 25.0165 11.6274 24.8495C12.3696 28.8925 14.4385 31.7624 17.8741 33.6472L17.876 33.6453Z"/>
</mask>
<path d="M35.0139 28.3743C33.6188 31.398 31.455 33.5751 28.4085 34.9702C28.6989 35.3289 28.9704 35.6668 29.2456 36.0008C31.0943 38.2425 32.945 40.4804 34.7899 42.7239C35.3954 43.4604 35.4543 44.1551 34.9949 44.7966C34.4236 45.5938 33.3967 45.7153 32.59 45.0548C30.4642 43.3142 28.3478 41.5642 26.2276 39.8179C25.8859 39.537 25.5443 39.2561 25.2026 38.9771C23.9765 37.9692 22.5851 37.9559 21.3647 38.9581C18.9484 40.9416 16.5359 42.9289 14.1329 44.9276C13.5863 45.3832 13.0168 45.6356 12.3088 45.385C11.2383 45.0054 10.927 43.7489 11.6825 42.8245C13.0016 41.2111 14.3303 39.6053 15.6552 37.9976C16.4087 37.0828 17.1623 36.1698 17.9139 35.2549C17.9823 35.1733 18.0373 35.0803 18.1189 34.9645C15.118 33.5941 12.9352 31.434 11.5401 28.4028C11.2174 28.6571 10.9118 28.8925 10.6157 29.1354C8.37408 30.9823 6.13243 32.8291 3.89457 34.6836C3.44282 35.0594 2.9664 35.3536 2.35141 35.2511C1.14232 35.048 0.607061 33.6206 1.38908 32.645C2.53743 31.2176 3.71235 29.813 4.87589 28.399C5.77938 27.3019 6.68477 26.2086 7.58637 25.1096C8.52403 23.9669 8.52593 22.5243 7.58637 21.3817C5.61994 18.992 3.64971 16.6061 1.67759 14.2221C1.32075 13.7893 0.973394 13.3565 1.02464 12.7529C1.07779 12.1285 1.35491 11.6312 1.94522 11.3673C2.55071 11.0959 3.12014 11.2003 3.62694 11.616C5.22514 12.9276 6.81954 14.2448 8.41584 15.5602C9.3535 16.3346 10.2893 17.1091 11.2288 17.8816C11.3104 17.9499 11.4034 18.0031 11.5287 18.0866C12.9143 15.0933 15.0971 12.9314 18.1189 11.5173C17.8589 11.1965 17.6159 10.8947 17.3711 10.5967C15.4635 8.28101 13.5502 5.97292 11.6521 3.64965C10.8131 2.62278 11.3332 1.24666 12.6277 1.01129C13.1326 0.920184 13.5521 1.12138 13.9336 1.43457C16.2246 3.32128 18.508 5.21748 20.8123 7.08711C21.3077 7.4895 21.8392 7.90709 22.4257 8.12727C23.3937 8.4898 24.3181 8.23736 25.121 7.57302C27.152 5.8932 29.1867 4.21528 31.2215 2.53736C31.66 2.17483 32.0927 1.8066 32.5388 1.45355C33.3303 0.825279 34.1579 0.838566 34.7994 1.47633C35.441 2.11788 35.4429 2.93597 34.7918 3.72747C32.7457 6.21398 30.6957 8.69859 28.6477 11.1832C28.5699 11.2781 28.4958 11.3787 28.3895 11.5192C31.3942 12.8953 33.5884 15.061 34.9797 18.079C35.1145 17.9822 35.2322 17.9101 35.3385 17.8247C37.7623 15.826 40.1862 13.8273 42.6101 11.8286C42.6822 11.7678 42.7581 11.7109 42.8322 11.652C43.5686 11.0712 44.4114 11.0769 45.0207 11.6653C45.6281 12.2518 45.6812 13.1705 45.0928 13.8956C43.5193 15.8316 41.9249 17.7506 40.34 19.6753C39.8882 20.2238 39.4365 20.7724 38.9828 21.3191C37.9901 22.5168 37.9882 23.9555 38.9828 25.1608C41.0062 27.6056 43.0334 30.0465 45.0567 32.4913C45.6319 33.1841 45.6869 33.9737 45.2067 34.6171C44.6373 35.3802 43.637 35.4637 42.8246 34.8012C41.7351 33.9129 40.6532 33.017 39.5693 32.123C38.0698 30.8893 36.5722 29.6574 35.0177 28.3781L35.0139 28.3743ZM11.5933 23.8644C11.9634 23.8834 12.2614 23.8891 12.5594 23.9138C14.4062 24.058 15.3648 25.176 15.0915 26.8786C15.0288 27.2658 14.913 27.6454 14.8409 28.0326C14.7346 28.6078 14.8371 28.733 15.4179 28.7881C16.4752 28.8887 17.037 29.4695 17.092 30.5305C17.1262 31.1949 17.3957 31.7111 17.9993 32.03C18.7301 32.4172 19.1078 33.0474 19.1819 33.8484C19.2084 34.1426 19.3356 34.2622 19.588 34.3305C19.9069 34.4159 20.2182 34.5393 20.5409 34.6019C21.1806 34.7272 21.8278 34.8202 22.4827 34.9284C22.4827 34.769 22.494 34.7044 22.4827 34.6437C22.2036 33.4042 22.3118 32.2369 23.0862 31.174C23.4526 30.671 23.4336 30.111 23.2153 29.5492C23.0711 29.1829 22.8813 28.8336 22.7731 28.4578C22.5946 27.8466 22.9705 27.3398 23.6063 27.3265C23.9176 27.3189 24.2384 27.3607 24.5421 27.4366C25.3602 27.6397 25.9543 27.3721 26.3946 26.6679C26.816 25.9922 27.4652 25.6429 28.232 25.7226C28.9741 25.8005 29.7011 26.0377 30.4319 26.2142C31.081 26.3718 31.3354 26.2541 31.4531 25.6182C31.66 24.5041 32.3661 23.8397 33.3683 23.4677C33.8769 23.2798 34.4293 23.2058 35.0177 23.0672C34.8545 19.2255 33.2714 16.1088 30.1491 13.738C30.0485 13.9127 29.9707 14.0455 29.8928 14.1803C29.3044 15.1996 28.6192 16.1543 27.6664 16.8547C26.5294 17.6918 26.0036 18.6902 26.4231 20.1195C26.6357 20.8445 26.2997 21.3646 25.5443 21.4367C25.0052 21.488 24.3959 21.4159 23.9024 21.2014C22.3612 20.5313 21.3931 19.3583 21.0705 17.6671C20.8522 16.5169 20.5883 16.3327 19.4419 16.3593C18.4985 16.3802 17.671 16.0575 16.9573 15.471C16.5359 15.1237 16.1696 14.708 15.7349 14.2809C12.8593 16.8225 11.4794 19.9847 11.5971 23.8625L11.5933 23.8644ZM34.8829 24.2972C33.5543 24.2364 32.8007 24.7793 32.4686 26.0131C32.1933 27.038 31.4986 27.5126 30.4623 27.3227C29.9403 27.2259 29.4392 27.0171 28.9191 26.89C28.0346 26.6736 27.4709 26.8122 27.0647 27.5676C26.797 28.0649 26.3206 28.3629 25.7759 28.4445C25.178 28.5356 24.5649 28.5261 23.9651 28.5584C24.5971 29.7808 24.5725 30.9918 23.724 32.2293C23.1622 33.0474 23.3691 33.9965 23.6595 34.8848C29.1734 34.8905 34.5071 30.1585 34.8829 24.2953V24.2972ZM29.1469 13.1857C25.5139 10.7447 19.6735 11.1452 16.6498 13.6583C17.4489 14.7383 18.4473 15.3989 19.8595 15.285C20.6814 15.2186 21.2963 15.6267 21.6968 16.3081C21.8999 16.6516 22.0309 17.0578 22.1049 17.4526C22.3403 18.7073 22.9989 19.6259 24.1663 20.146C24.5117 20.2998 24.8951 20.3681 25.3013 20.4858C25.3013 20.3301 25.3108 20.2865 25.3013 20.2447C24.8762 18.544 25.3602 17.1888 26.7856 16.141C27.8334 15.3723 28.5718 14.3359 29.1488 13.1819L29.1469 13.1857ZM34.1673 2.67023C34.173 2.1995 33.7858 1.96983 33.4252 2.14446C33.3132 2.1995 33.2183 2.28871 33.1215 2.36843C30.7451 4.32537 28.3649 6.27662 25.9941 8.24115C24.2346 9.70079 22.2871 9.71408 20.5371 8.26393C18.1417 6.28042 15.7387 4.30639 13.3395 2.32668C13.0662 2.1008 12.7701 1.91858 12.4683 2.24316C12.1874 2.54496 12.381 2.81638 12.5955 3.07453C14.7118 5.64645 16.8282 8.21838 18.9351 10.7979C19.1078 11.0105 19.2616 11.075 19.5311 10.9934C22.0157 10.238 24.5003 10.2683 26.9906 10.9953C27.1349 11.0371 27.3987 10.9611 27.4936 10.8472C29.6537 8.25064 31.8004 5.64076 33.9434 3.03087C34.0497 2.9018 34.118 2.74426 34.1636 2.66833L34.1673 2.67023ZM2.57539 34.2166C2.769 34.0952 2.93793 34.0154 3.07839 33.9015C5.67688 31.7681 8.26779 29.6251 10.8739 27.5031C11.1282 27.2962 11.0599 27.1196 10.9954 26.8938C10.2893 24.4547 10.2608 22.0138 11.0048 19.5804C11.0998 19.2672 11.0219 19.1021 10.7828 18.9085C9.02133 17.4735 7.26939 16.0234 5.51554 14.5789C4.67469 13.8861 3.84522 13.18 2.97968 12.5195C2.81645 12.3961 2.44632 12.3676 2.27549 12.4682C1.98318 12.6428 2.07809 12.9579 2.25841 13.2142C2.33053 13.3167 2.41405 13.4135 2.49377 13.5103C4.464 15.8962 6.43612 18.2783 8.40255 20.6661C9.67997 22.2169 9.69136 24.2326 8.41964 25.7929C7.06439 27.4575 5.68827 29.1051 4.32354 30.7621C3.64022 31.5897 2.94742 32.4096 2.29067 33.2581C2.1692 33.4156 2.14642 33.6947 2.17679 33.9034C2.19387 34.0173 2.41785 34.1008 2.57729 34.2185L2.57539 34.2166ZM12.8422 44.474C13.0909 44.2974 13.3015 44.1684 13.4895 44.0127C15.8659 42.0577 18.2404 40.0988 20.6149 38.14C22.2568 36.7848 24.246 36.7791 25.8878 38.1324C28.2643 40.0894 30.6369 42.0501 33.0133 44.0032C33.3094 44.2462 33.6283 44.6296 34.025 44.2234C34.4008 43.84 34.0288 43.5325 33.7953 43.2497C31.7207 40.7252 29.6385 38.2083 27.5696 35.6801C27.3797 35.4485 27.2108 35.4048 26.9375 35.4865C24.5003 36.2172 22.0556 36.2115 19.6222 35.477C19.2882 35.3764 19.1154 35.4561 18.9123 35.7066C17.466 37.4814 16.0082 39.2428 14.5543 41.0118C13.8729 41.8413 13.182 42.6632 12.5233 43.5097C12.4094 43.6559 12.3658 43.9216 12.4075 44.1057C12.4379 44.2405 12.6619 44.3316 12.8403 44.474H12.8422ZM43.8344 34.1464C44.3032 34.1445 44.5215 33.7459 44.3222 33.3948C44.2368 33.2448 44.1172 33.1157 44.0071 32.9829C42.0483 30.6083 40.0913 28.2319 38.1306 25.8593C36.8019 24.2497 36.7715 22.2738 38.0888 20.6642C40.097 18.2081 42.1204 15.7633 44.1419 13.3167C44.3582 13.0547 44.531 12.7795 44.2519 12.4815C43.9672 12.1778 43.6825 12.3391 43.4206 12.5555C40.8259 14.6947 38.2331 16.8357 35.6346 18.9692C35.4543 19.1173 35.3973 19.2387 35.4713 19.4817C36.2211 21.9777 36.2496 24.4813 35.4808 26.9811C35.4106 27.2089 35.4448 27.3417 35.6346 27.4974C38.2502 29.6365 40.8562 31.7852 43.468 33.9281C43.5971 34.0325 43.7565 34.1009 43.8363 34.1483L43.8344 34.1464ZM17.876 33.6453C17.9234 33.5998 17.969 33.5561 18.0164 33.5105C17.7962 33.3093 17.6026 33.0569 17.3483 32.9145C16.4144 32.3888 16.012 31.5669 15.9608 30.5438C15.938 30.0959 15.7349 29.9042 15.2945 29.8643C14.0399 29.7485 13.5084 29.0196 13.7324 27.7669C13.8216 27.2715 13.926 26.778 13.9906 26.2807C14.0456 25.8555 13.9089 25.4512 13.4876 25.3089C12.9219 25.1153 12.3221 25.0165 11.6274 24.8495C12.3696 28.8925 14.4385 31.7624 17.8741 33.6472L17.876 33.6453Z" fill="white" stroke="white" stroke-width="0.4" mask="url(#path-1-inside-1_978_462)"/>
<path d="M3.50267 20C5.47526 20.0053 6.98588 21.523 6.99993 23.5132C7.01223 25.3853 5.38568 27.0053 3.49389 27C1.59859 26.9982 -0.0174235 25.38 0.000141867 23.5044C0.0194637 21.5072 1.53008 19.9965 3.50267 20ZM1.04001 23.4762C1.04001 24.9058 2.07285 25.9582 3.48335 25.9635C4.89385 25.9688 5.95304 24.9164 5.95831 23.5026C5.96533 22.0554 4.9079 20.9783 3.49038 20.9872C2.08163 20.996 1.04177 22.0536 1.04001 23.4762Z" fill="white"/>
<path d="M23.5027 6.158e-06C25.4753 0.00529448 26.9859 1.52304 26.9999 3.51322C27.0122 5.38528 25.3857 7.00528 23.4939 6.99999C21.5986 6.99822 19.9826 5.38 20.0001 3.5044C20.0195 1.50718 21.5301 -0.00351939 23.5027 6.158e-06ZM21.04 3.4762C21.04 4.90581 22.0729 5.95819 23.4833 5.96347C24.8938 5.96876 25.953 4.91639 25.9583 3.50264C25.9653 2.0554 24.9079 0.978346 23.4904 0.98716C22.0816 0.995974 21.0418 2.05364 21.04 3.4762Z" fill="white"/>
<path d="M23.5027 40C25.4753 40.0053 26.9859 41.523 26.9999 43.5132C27.0122 45.3853 25.3857 47.0053 23.4939 47C21.5986 46.9982 19.9826 45.38 20.0001 43.5044C20.0195 41.5072 21.5301 39.9965 23.5027 40ZM21.04 43.4762C21.04 44.9058 22.0729 45.9582 23.4833 45.9635C24.8938 45.9688 25.953 44.9164 25.9583 43.5026C25.9653 42.0554 24.9079 40.9783 23.4904 40.9872C22.0816 40.996 21.0418 42.0536 21.04 43.4762Z" fill="white"/>
<path d="M43.5027 20C45.4753 20.0053 46.9859 21.523 46.9999 23.5132C47.0122 25.3853 45.3857 27.0053 43.4939 27C41.5986 26.9982 39.9826 25.38 40.0001 23.5044C40.0195 21.5072 41.5301 19.9965 43.5027 20ZM41.04 23.4762C41.04 24.9058 42.0729 25.9582 43.4833 25.9635C44.8938 25.9688 45.953 24.9164 45.9583 23.5026C45.9653 22.0554 44.9079 20.9783 43.4904 20.9872C42.0816 20.996 41.0418 22.0536 41.04 23.4762Z" fill="white"/>
</svg>
