<svg width="50" height="50" viewBox="0 0 50 50" fill="none" xmlns="http://www.w3.org/2000/svg">
<path d="M22.0755 23.4863C21.1805 23.6915 20.3422 23.9709 19.4863 24.0628C17.372 24.2895 15.5429 23.5899 14.048 22.0911C11.9376 19.9767 10.7866 17.3856 10.4622 14.4388C10.345 13.3777 10.3508 12.299 10.3665 11.2281C10.386 9.97359 11.3259 8.9809 12.5687 8.82653C14.1985 8.6233 15.8087 8.80894 17.3954 9.11378C17.755 8.25397 18.0969 7.39807 18.4702 6.5578C18.648 6.15916 18.8747 5.78006 19.1033 5.40682C19.3554 4.9945 19.7833 4.87726 20.1409 5.09221C20.5064 5.31107 20.6099 5.72534 20.3579 6.15134C19.4336 7.7205 18.7887 9.38931 18.5014 11.1891C18.1712 13.2663 18.263 15.2751 19.5371 17.0709C20.6138 18.5873 22.0794 19.4999 23.9026 19.8458C23.9652 19.8575 24.0316 19.8575 24.0961 19.8556C24.1254 19.8556 24.1567 19.8399 24.2485 19.8126C24.2485 18.7476 24.2583 17.663 24.2348 16.5805C24.2329 16.4671 24.0668 16.3186 23.9437 16.2541C23.1483 15.8477 22.3432 15.4647 21.544 15.068C21.0223 14.8081 20.8483 14.4309 21.0398 14.0167C21.2392 13.5868 21.6593 13.491 22.2104 13.7568C22.863 14.0714 23.5138 14.3899 24.2465 14.7475C24.2465 14.0186 24.2622 13.3738 24.2329 12.7309C24.227 12.6195 24.0531 12.4807 23.9261 12.4143C23.4102 12.1427 22.8787 11.8984 22.3569 11.6365C21.8371 11.3747 21.6652 10.9936 21.8684 10.5852C22.0736 10.171 22.482 10.0713 22.9979 10.3117C23.3789 10.4895 23.758 10.6732 24.1391 10.8529C24.1508 10.8588 24.1703 10.8471 24.2505 10.8295C24.2505 10.3644 24.2446 9.8837 24.2505 9.40495C24.2602 8.83239 24.5299 8.48846 24.9637 8.47283C25.4151 8.45524 25.716 8.81676 25.7278 9.40495C25.7356 9.87589 25.7278 10.3449 25.7278 10.9135C26.1733 10.7005 26.5544 10.5149 26.9374 10.3332C27.4884 10.0713 27.9027 10.1612 28.1118 10.5891C28.3189 11.0093 28.1372 11.3825 27.5783 11.662C27.0702 11.916 26.5465 12.1427 26.058 12.428C25.9036 12.5179 25.7571 12.7563 25.7454 12.9341C25.7063 13.5105 25.7297 14.089 25.7297 14.7553C26.4996 14.3801 27.1797 14.0479 27.8617 13.7177C28.2388 13.534 28.5925 13.5496 28.8661 13.8994C29.1612 14.2785 29.0165 14.7768 28.5222 15.0269C27.7132 15.4393 26.8885 15.8223 26.0815 16.2404C25.9349 16.3167 25.7493 16.4984 25.7454 16.6352C25.718 17.6884 25.7297 18.7437 25.7297 19.9103C26.1831 19.8067 26.5895 19.7442 26.9784 19.6211C29.7747 18.7398 31.6546 16.1545 31.6312 13.2252C31.5999 9.147 29.8881 5.7996 27.1074 2.92705C26.7576 2.56553 26.3824 2.22552 26.0013 1.89723C25.3584 1.34421 24.5963 1.33249 23.9749 1.90309C23.3516 2.47369 22.7634 3.07947 22.1752 3.68524C21.7687 4.10538 21.3271 4.20308 20.9871 3.90606C20.6432 3.60317 20.649 3.15372 21.0731 2.71209C21.7238 2.03206 22.3804 1.35007 23.0858 0.730618C24.1879 -0.238624 25.7629 -0.242532 26.8787 0.713031C29.4328 2.90164 31.3634 5.52798 32.4089 8.75813C32.448 8.87929 32.4968 8.99458 32.5437 9.1216C34.1715 8.80894 35.7797 8.62134 37.4095 8.82653C38.582 8.97308 39.518 9.86025 39.6059 11.0308C39.856 14.4094 39.2659 17.6005 37.3079 20.4438C36.6044 21.4677 35.7993 22.4096 34.7245 23.0662C32.7509 24.2719 30.6756 24.4438 28.5182 23.6075C28.3521 23.543 28.19 23.4687 28.0258 23.4003C28.0141 23.3945 27.9945 23.4042 27.9066 23.4199V25.9075C27.9066 26.5654 28.2245 26.9757 28.8602 27.1386C32.02 27.9417 34.7011 29.5226 36.8389 32.0043C36.9542 32.1391 37.1965 32.2271 37.3802 32.231C40.2351 32.2681 42.9846 32.8485 45.6656 33.8021C47.7311 34.5388 48.9857 36.2799 48.9994 38.4666C49.0033 39.1271 49.0795 39.7993 48.7453 40.4266C48.7004 40.5106 48.7746 40.708 48.8547 40.8037C49.9295 42.1032 50.1054 43.6391 49.9451 45.2239C49.7908 46.7423 48.247 47.6529 46.7638 47.2152C45.0716 46.7149 43.391 46.1248 41.6636 45.7965C37.0362 44.9191 32.573 45.3568 28.4577 47.8639C28.0004 48.1414 27.5646 48.456 27.125 48.7609C25.7297 49.7243 24.184 49.7379 22.8181 48.7296C20.4673 46.9943 17.8488 45.9274 14.9606 45.5542C12.4065 45.2239 9.86229 45.3646 7.36102 45.9763C6.05567 46.2948 4.76595 46.6915 3.49382 47.1214C1.60028 47.7662 0.0467563 46.6856 0.00181162 44.6904C-0.0314084 43.2288 0.224581 41.8824 1.1821 40.7255C1.24854 40.6454 1.23291 40.4598 1.19773 40.3386C0.429763 37.6693 1.47717 34.8964 4.04097 33.9135C6.66535 32.9071 9.38548 32.3072 12.2072 32.2603C12.7407 32.2505 13.0827 32.0903 13.4422 31.6897C15.6641 29.2158 18.4545 27.715 21.6867 27.0057C21.9055 26.9568 22.0853 26.949 22.0814 26.6422C22.0658 25.5694 22.0755 24.4985 22.0755 23.4844V23.4863ZM47.5377 39.6C47.5377 39.2013 47.5377 38.8769 47.5377 38.5526C47.5318 36.8935 46.6935 35.7269 45.1185 35.1661C43.1546 34.4665 41.1418 33.9838 39.0607 33.7943C34.789 33.4074 30.8261 34.2047 27.2872 36.7509C25.7082 37.8862 24.2407 37.851 22.65 36.7196C21.4248 35.8481 20.1175 35.1348 18.6949 34.6521C13.8428 33.0048 9.08064 33.5735 4.41421 35.3674C2.78643 35.9927 2.16307 37.6947 2.54216 39.5589C4.29305 38.8046 6.1182 38.3103 7.98634 37.9585C10.6928 37.4485 13.4071 37.3684 16.1252 37.8686C19.1228 38.4197 21.8039 39.6586 24.1918 41.5482C24.7878 42.0192 25.1962 42.027 25.7727 41.5678C28.954 39.0333 32.5926 37.7396 36.6396 37.554C37.2551 37.5247 37.8765 37.5227 38.4921 37.5599C38.9474 37.5872 39.2131 37.9331 39.1858 38.3454C39.1584 38.746 38.8829 38.9903 38.4295 39.0098C38.2673 39.0157 38.1051 39.004 37.941 39.002C33.8452 38.961 30.1206 40.0494 26.8592 42.5937C25.5206 43.6391 24.4556 43.6215 23.1132 42.582C20.0784 40.2292 16.6118 39.1075 12.8052 39.002C9.81539 38.918 6.93893 39.5355 4.12305 40.5086C1.79765 41.3118 1.31498 43.1311 1.51234 45.0461C1.53579 45.2806 1.75466 45.5463 1.95593 45.7027C2.33698 45.9978 2.75712 45.8277 3.15967 45.6792C5.96578 44.6435 8.85006 44.0065 11.8516 43.9303C16.1096 43.8228 20.01 44.8898 23.4883 47.393C24.6296 48.2157 25.3721 48.2137 26.5075 47.3949C27.7386 46.5078 29.0498 45.7691 30.4665 45.22C34.8105 43.5336 39.2307 43.602 43.6783 44.708C44.8234 44.9933 45.9412 45.3939 47.0667 45.7574C47.907 46.029 48.4991 45.6284 48.5128 44.7549C48.5167 44.5283 48.5128 44.2996 48.5128 44.0729C48.505 42.4256 47.6061 41.1144 46.0525 40.577C45.1497 40.2644 44.2274 40.0064 43.3051 39.7602C42.6172 39.5765 41.9098 39.4632 41.2161 39.2912C40.7901 39.1857 40.581 38.834 40.6611 38.4529C40.7452 38.0601 41.0617 37.8334 41.4897 37.8725C41.6675 37.8882 41.8434 37.9214 42.0192 37.9546C43.8815 38.3181 45.7086 38.8066 47.5396 39.6H47.5377ZM35.0196 32.2603C31.6507 28.9793 27.5998 27.6935 22.9744 28.2856C19.8635 28.6843 17.1648 30.0033 14.8863 32.2877C15.5937 32.403 16.1897 32.485 16.776 32.6003C19.2635 33.0908 21.5264 34.0991 23.5841 35.5784C24.4889 36.2291 25.4229 36.2858 26.2515 35.68C28.8661 33.7708 31.7816 32.6629 35.0176 32.2584L35.0196 32.2603ZM17.1199 10.4719C15.9572 10.384 14.8492 10.2511 13.7373 10.2276C12.2365 10.1983 11.7969 10.3937 11.789 12.1329C11.7734 15.1696 12.4984 17.9464 14.4388 20.3421C15.5429 21.7042 16.9049 22.5855 18.7125 22.6324C20.2328 22.6714 21.5342 22.1653 22.6168 21.114C17.7999 19.1462 16.2444 15.4979 17.1199 10.4719ZM32.8877 10.5637C33.7416 15.4901 32.1959 19.1579 27.3829 21.1101C27.4337 21.1629 27.4747 21.2137 27.5216 21.2567C29.5715 23.1932 32.9072 23.0955 34.9473 20.9968C37.599 18.2669 38.3807 14.9019 38.154 11.2223C38.1247 10.7396 37.7554 10.3644 37.2844 10.2999C35.8188 10.1045 34.3747 10.2628 32.8877 10.5637ZM23.5509 26.6715H26.4371C26.4371 25.2333 26.441 23.8244 26.4312 22.4155C26.4312 22.3178 26.3492 22.2122 26.2866 22.1223C25.9271 21.6006 25.4913 21.286 24.7937 21.3974C24.3657 21.4658 23.5665 22.0012 23.5607 22.4213C23.5392 23.8302 23.5528 25.2392 23.5528 26.6715H23.5509Z" fill="white"/>
</svg>
