<svg width="46" height="57" viewBox="0 0 46 57" fill="none" xmlns="http://www.w3.org/2000/svg">
<path d="M34.8802 32.52C32.3117 33.3969 30.3554 32.6603 28.951 30.3856C27.5689 31.3115 26.1044 31.4717 24.533 30.8552C23.6873 32.5779 22.4031 33.8354 20.6626 34.6589C21.8845 36.2347 22.7993 37.9106 23.3779 39.7646C23.8431 41.2558 24.1013 42.7826 24.1124 44.345C24.1191 45.1707 23.7118 45.6559 23.024 45.6693C22.3274 45.6804 21.9045 45.2063 21.8867 44.3917C21.8155 41.1512 20.7494 38.2823 18.6929 35.774C18.4258 35.449 18.1565 35.2888 17.7114 35.3177C16.5296 35.3934 15.3922 35.1374 14.315 34.6567C13.2868 34.196 12.2674 33.7152 11.2525 33.2256C10.5959 32.9095 10.3645 32.3041 10.6405 31.7143C10.9164 31.129 11.5307 30.9198 12.1962 31.218C13.2066 31.6721 14.1993 32.1706 15.2142 32.6135C17.4955 33.6084 20.0928 33.0186 21.6775 31.1691C21.7487 31.0867 21.8088 30.9977 21.9045 30.873C21.7198 30.7773 21.5662 30.6905 21.406 30.6149C18.0074 29.0302 14.6088 27.4433 11.2102 25.8608C9.73906 25.1753 8.58394 25.6049 7.89176 27.085C7.22629 28.5072 6.56082 29.9294 5.90202 31.3538C4.78919 33.7642 5.2321 36.1657 7.15062 37.9974C9.25387 40.0049 11.3638 42.0036 13.4871 43.9889C13.9233 44.3984 14.1281 44.8369 14.1236 45.4467C14.1014 48.2978 14.1125 51.1488 14.1125 53.9999V54.6609C15.3922 54.6609 16.6275 54.6676 17.8627 54.6587C18.3969 54.6543 18.7997 54.8501 19.0201 55.3487C19.325 56.0386 18.8509 56.8577 18.0764 56.8732C16.356 56.9066 14.6333 56.8999 12.9106 56.8732C12.2808 56.8643 11.8913 56.3569 11.8913 55.6513C11.8868 53.2254 11.8913 50.7994 11.8913 48.3757C11.8913 48.3022 11.8913 48.2265 11.8913 48.1531C11.8757 47.2873 12.0938 46.3191 11.78 45.5802C11.4729 44.8591 10.6249 44.365 10.0084 43.7797C8.54388 42.3908 7.07272 41.0109 5.61046 39.6199C3.07098 37.2073 2.3788 33.7642 3.81212 30.5704C4.50876 29.0213 5.25213 27.4923 5.96657 25.9499C6.44508 24.9172 7.20403 24.176 8.22339 23.6708C8.38364 23.5907 8.54388 23.3303 8.54611 23.1478C8.57059 21.6299 8.55724 20.112 8.56169 18.5941C8.56837 16.6221 9.44973 15.1554 11.2503 14.372C13.033 13.5952 14.6867 13.9602 16.1223 15.2756C16.1868 15.3357 16.258 15.3913 16.3226 15.447C18.615 13.1746 22.1182 13.6108 23.7229 16.4686C25.9285 15.0308 28.8197 15.4559 30.3977 18.1534C31.7353 17.2809 33.1575 17.0584 34.6643 17.6548C36.3224 18.3092 37.4397 19.925 37.4486 21.7078C37.4597 24.225 37.4842 26.7444 37.4397 29.2617C37.3862 32.2396 36.7119 35.1174 35.9618 37.984C35.3832 40.1963 34.8534 42.4287 34.4261 44.6744C34.1924 45.9007 34.1546 47.176 34.1323 48.4291C34.0878 50.7972 34.1212 53.1697 34.119 55.5378C34.119 56.4815 33.7139 56.8821 32.7658 56.8844C31.2479 56.8844 29.73 56.8866 28.2098 56.8844C27.4019 56.8844 26.9012 56.457 26.8967 55.7782C26.8922 55.0994 27.3952 54.6654 28.1987 54.6632C29.4006 54.6587 30.6047 54.6632 31.8933 54.6632C31.8933 54.4673 31.8933 54.2915 31.8933 54.1156C31.8933 52.7825 31.9356 51.4471 31.8844 50.1161C31.7353 46.1344 32.4252 42.2796 33.4958 38.4648C34.0144 36.6175 34.3994 34.7346 34.8445 32.8672C34.869 32.7649 34.869 32.658 34.8824 32.5178L34.8802 32.52ZM22.0893 28.4671C22.018 27.7371 21.9045 27.0627 21.8979 26.3861C21.8756 23.7398 21.8979 21.0935 21.8823 18.4472C21.8734 17.1897 20.8763 16.2193 19.6544 16.226C18.457 16.2326 17.4621 17.1897 17.4532 18.4138C17.4332 20.931 17.4421 23.4482 17.4554 25.9655C17.4554 26.1146 17.5534 26.3438 17.6713 26.3995C19.1469 27.1072 20.6359 27.7927 22.087 28.4671H22.0893ZM24.1146 23.4037C24.1146 24.4965 24.1079 25.5893 24.1146 26.6799C24.1235 27.993 25.065 28.9812 26.3069 28.9968C27.5733 29.0102 28.5459 28.0153 28.5526 26.6777C28.5615 24.5299 28.5593 22.3821 28.5526 20.2344C28.5481 18.8856 27.5956 17.8907 26.3314 17.8907C25.0672 17.8907 24.1213 18.8856 24.1146 20.2366C24.1079 21.2916 24.1146 22.3465 24.1146 23.4015V23.4037ZM35.2229 25.1108C35.2229 24.038 35.2296 22.963 35.2229 21.8903C35.214 20.546 34.2547 19.5511 32.9906 19.5578C31.7286 19.5644 30.7894 20.5615 30.7849 21.917C30.7783 24.0469 30.7783 26.1747 30.7849 28.3046C30.7894 29.6623 31.7242 30.6572 32.9883 30.6638C34.2725 30.6727 35.2162 29.6667 35.2229 28.2779C35.2274 27.223 35.2229 26.168 35.2229 25.113V25.1108ZM15.2097 25.2599C15.2097 22.8518 15.2543 20.5237 15.1897 18.1979C15.1586 17.0606 14.088 16.2059 12.9596 16.226C11.8312 16.246 10.8319 17.1429 10.7985 18.278C10.7495 19.8694 10.7762 21.4629 10.794 23.0543C10.794 23.1834 10.9454 23.3703 11.0722 23.4282C11.5574 23.6485 12.0716 23.811 12.559 24.0269C13.4292 24.4164 14.2905 24.8304 15.212 25.2599H15.2097Z" fill="white"/>
<path d="M21.8893 3.0562C21.8893 2.42634 21.8804 1.7987 21.8915 1.16884C21.9049 0.467755 22.3834 -0.0152134 23.0288 0.000366225C23.6476 0.0159459 24.1038 0.490012 24.1105 1.16661C24.1216 2.46195 24.1216 3.75729 24.1105 5.0504C24.1038 5.75148 23.6164 6.23445 22.9754 6.21887C22.3545 6.20329 21.9049 5.72922 21.8938 5.0504C21.8826 4.38492 21.8915 3.71945 21.8915 3.05175L21.8893 3.0562Z" fill="white"/>
<path d="M40.7806 14.9968C40.9921 14.7163 41.1501 14.3513 41.4261 14.1733C42.3609 13.5768 43.329 13.036 44.2994 12.4973C44.8892 12.1702 45.5302 12.3549 45.8396 12.8957C46.1423 13.4232 46.0087 14.0442 45.4412 14.3914C44.4641 14.9901 43.4759 15.5732 42.4588 16.1007C41.7021 16.4946 40.863 15.916 40.7784 14.9968H40.7806Z" fill="white"/>
<path d="M12.8775 9.00977C12.5926 8.78053 12.2231 8.60248 12.0362 8.30869C11.4486 7.39171 10.9167 6.4369 10.3914 5.48209C10.062 4.88562 10.2423 4.25575 10.7854 3.94194C11.3128 3.63479 11.9383 3.76833 12.281 4.33365C12.8775 5.31072 13.4628 6.29891 13.9925 7.31382C14.3865 8.07054 13.8123 8.91184 12.8797 9.00977H12.8775Z" fill="white"/>
<path d="M33.0265 9.00534C32.1919 8.86512 31.6377 8.08169 31.9849 7.40064C32.5391 6.31674 33.1601 5.264 33.8055 4.22907C34.1193 3.72607 34.7448 3.65485 35.2344 3.95309C35.7196 4.2491 35.9399 4.83668 35.6662 5.34858C35.1053 6.39019 34.5222 7.42067 33.8857 8.41554C33.7143 8.68485 33.3181 8.81171 33.0243 9.00312L33.0265 9.00534Z" fill="white"/>
<path d="M5.23015 15.0881C5.08771 15.9227 4.30205 16.4747 3.62099 16.1252C2.5371 15.5688 1.48436 14.9501 0.451649 14.3024C-0.0513506 13.9886 -0.120346 13.3632 0.180118 12.8713C0.480583 12.3839 1.06371 12.168 1.57561 12.444C2.61722 13.0048 3.6477 13.588 4.64257 14.2245C4.91188 14.3959 5.03652 14.7943 5.22792 15.0881H5.23015Z" fill="white"/>
<path d="M24.1127 55.7929C24.1038 56.4094 23.5741 56.9124 22.9598 56.8879C22.3655 56.8657 21.8848 56.3582 21.8937 55.7618C21.9026 55.143 22.4278 54.6445 23.0466 54.6667C23.643 54.689 24.1216 55.1964 24.1149 55.7929H24.1127Z" fill="white"/>
</svg>
