<svg width="49" height="50" viewBox="0 0 49 50" fill="none" xmlns="http://www.w3.org/2000/svg">
<path d="M18.5447 44.2792C16.1871 45.6382 13.7049 46.2305 11.031 45.9506C5.84233 45.4063 1.61204 41.774 0.398734 36.6812C-0.511726 32.863 0.258811 29.3496 2.68734 26.2368C2.93077 25.9244 2.95377 25.7288 2.70459 25.3934C0.362315 22.2327 -0.482975 18.7001 0.264561 14.8321C0.458153 13.8258 0.831921 12.8501 1.1731 11.8764C1.42995 11.1404 1.95131 10.8682 2.51675 11.0848C3.08795 11.3014 3.26237 11.8803 2.93652 12.6201C2.40175 13.8411 2.0644 15.1081 1.96473 16.4402C1.7328 19.5646 2.63942 22.3189 4.62135 24.7302C4.68269 24.805 4.74786 24.874 4.81111 24.9468C5.42064 25.6579 5.37272 26.0106 4.79578 26.739C4.1575 27.5459 3.4828 28.3644 3.03811 29.2806C0.138055 35.2436 3.37929 42.1804 9.81193 43.7924C12.6392 44.5016 15.3111 44.0205 17.7837 42.4736C17.8911 42.4066 17.9965 42.3337 18.1038 42.2666C18.79 41.8392 19.2366 41.914 19.6947 42.5695C20.4499 43.6505 21.3431 44.5936 22.3878 45.3986C24.1454 46.7538 26.1312 47.5703 28.324 47.8291C31.6783 48.2258 34.7087 47.3633 37.3653 45.2779C39.6137 43.5125 41.057 41.2124 41.6838 38.4235C41.8314 37.768 42.1668 37.4211 42.7859 37.1987C44.9729 36.4129 46.3415 34.866 46.9012 32.6081C47.4781 30.2869 46.5466 27.6609 44.6318 26.2157C44.5436 26.1486 44.4497 26.0873 44.3615 26.0183C43.614 25.4471 43.5756 25.0024 44.1123 24.2395C44.6528 23.4747 45.2336 22.7157 45.6342 21.8762C47.9056 17.1111 47.5606 12.507 44.5187 8.18859C42.5233 5.35563 39.7479 3.58071 36.3322 3.0076C30.8177 2.0818 26.3842 3.96214 23.0529 8.45119C22.9954 8.52786 22.9456 8.61028 22.89 8.68695C22.3667 9.41915 21.8338 9.46132 21.117 8.89779C20.4174 8.34769 19.7235 7.76691 18.9491 7.34139C15.637 5.52622 12.2213 5.40546 8.74622 6.86795C8.49704 6.97337 8.25936 7.10179 8.01018 7.20721C7.40065 7.46214 6.85246 7.30114 6.6167 6.80469C6.37519 6.29867 6.57453 5.74473 7.18789 5.4783C8.11944 5.07578 9.0529 4.63109 10.0324 4.3915C14.1151 3.38903 17.8949 4.09823 21.324 6.56893C21.4658 6.67052 21.6096 6.77019 21.7802 6.89095C24.686 3.17819 28.4754 1.09084 33.1849 0.855078C36.9916 0.663402 40.4302 1.79429 43.3897 4.20749C46.4987 6.74144 48.3484 10.0287 48.8659 14.0155C49.3815 17.9851 48.3848 21.5963 46.1153 24.8318C46.6156 25.4317 47.1408 25.9704 47.5606 26.5799C50.5066 30.8504 48.7279 36.8422 43.9321 38.8337C43.6561 38.9487 43.5143 39.0963 43.428 39.3915C41.9272 44.4824 38.6304 47.8348 33.5491 49.3222C29.9168 50.386 26.39 49.903 23.051 48.1185C21.4869 47.2828 20.1375 46.1768 19.0066 44.8083C18.8648 44.6377 18.7134 44.4767 18.5428 44.2831L18.5447 44.2792Z" fill="white"/>
<path d="M35.4296 23.3389C35.4296 27.044 32.4548 30.0303 28.7554 30.038C25.0503 30.0457 21.9969 26.9942 22.0276 23.3198C22.0583 19.6319 25.081 16.6265 28.7516 16.6322C32.4375 16.6399 35.4296 19.6454 35.4296 23.3389ZM33.5071 23.3255C33.5013 20.713 31.3277 18.5432 28.7247 18.5528C26.141 18.5624 23.9329 20.7839 23.952 23.3543C23.9712 25.9592 26.1525 28.1213 28.7535 28.1174C31.3641 28.1136 33.5128 25.9477 33.5071 23.3255Z" fill="white"/>
<path d="M14.7475 30.0364C11.6539 30.0575 8.69632 27.307 8.44906 23.7035C8.2248 20.4622 10.6629 17.2996 13.9617 16.7456C16.1353 16.3814 18.0616 16.9507 19.7043 18.4343C20.2237 18.9039 20.3023 19.4578 19.9228 19.9006C19.5643 20.3185 18.9931 20.3491 18.4814 19.9083C17.6246 19.1703 16.672 18.7141 15.5315 18.5876C13.9137 18.4094 11.9299 19.3658 11.1057 20.7976C9.62403 23.3719 10.4617 26.3371 13.1183 27.6366C14.8184 28.4685 16.4879 28.2404 18.0271 27.1345C18.2475 26.9773 18.443 26.7856 18.6654 26.6323C19.0583 26.3639 19.5797 26.4176 19.8902 26.7358C20.216 27.0712 20.2889 27.6501 19.9266 27.9874C19.4072 28.4704 18.8341 28.917 18.2226 29.2716C17.2872 29.816 16.2407 30.0345 14.7475 30.0326V30.0364Z" fill="white"/>
<path d="M38.9656 32.1424C39.2838 32.1424 39.487 32.1232 39.6863 32.1462C40.1617 32.1999 40.5086 32.5698 40.5412 33.0318C40.5719 33.4649 40.2939 33.8847 39.8339 33.9786C39.4812 34.0515 39.1074 34.0419 38.7433 34.0476C38.0743 34.0572 37.4035 34.0534 36.7345 34.0476C36.1326 34.0438 35.7512 33.8349 35.6209 33.4074C35.4637 32.8976 35.6937 32.5391 36.0636 32.1941C36.7153 31.5884 37.3747 30.9789 37.9363 30.2946C38.2545 29.9074 38.4193 29.3784 38.5938 28.8935C38.6992 28.6002 38.5938 28.3069 38.2296 28.2379C37.8711 28.1689 37.6047 28.3012 37.5031 28.6807C37.4744 28.7881 37.4514 28.8973 37.4226 29.0046C37.298 29.4743 36.8993 29.7752 36.4451 29.7407C35.9601 29.7043 35.6036 29.3324 35.571 28.8283C35.4905 27.615 36.516 26.4439 37.7791 26.3097C39.1554 26.164 40.2882 26.9978 40.4971 28.2839C40.6984 29.5222 40.154 30.5131 39.4889 31.4696C39.3528 31.6651 39.1975 31.8453 38.9656 32.1424Z" fill="white"/>
<path d="M43.8328 15.561C43.8328 15.6568 43.8347 15.7527 43.8328 15.8485C43.8117 16.4523 43.4034 16.8951 42.8725 16.8931C42.3588 16.8912 41.9505 16.483 41.9199 15.8907C41.8509 14.501 41.5442 13.1842 40.8407 11.9709C40.1373 10.7614 39.2019 9.78197 37.9963 9.06702C37.7778 8.93668 37.5516 8.81784 37.3407 8.67409C36.8424 8.3329 36.7178 7.8173 37.0072 7.35152C37.2736 6.92217 37.8238 6.75733 38.3029 7.04676C39.0236 7.47995 39.7539 7.91888 40.4037 8.44983C42.4412 10.1117 43.7868 12.9619 43.8309 15.561H43.8328Z" fill="white"/>
<path d="M5.22525 34.2279C5.18116 33.4363 5.4035 33.0146 5.93061 32.8977C6.50756 32.7712 6.97716 33.076 7.0845 33.6625C7.19376 34.2548 7.22251 34.872 7.4046 35.4393C8.0448 37.4289 9.92705 38.8224 12.0259 38.9259C12.1045 38.9297 12.185 38.9259 12.2636 38.9355C12.8137 38.9949 13.2047 39.4013 13.197 39.9015C13.1894 40.4229 12.7677 40.8427 12.1927 40.8408C10.7532 40.8388 9.43061 40.4267 8.25564 39.5987C6.40022 38.2895 5.4035 36.4859 5.22525 34.226V34.2279Z" fill="white"/>
<path d="M5.35373 8.74434C5.35181 9.25228 4.88604 9.71997 4.38002 9.72572C3.86441 9.72955 3.42164 9.26761 3.43505 8.73859C3.44847 8.20765 3.88933 7.79171 4.42602 7.80321C4.94546 7.8128 5.35565 8.23256 5.35373 8.74626V8.74434Z" fill="white"/>
<path d="M34.8472 6.95687C34.8472 7.47823 34.4294 7.90567 33.9157 7.91333C33.4154 7.921 32.9554 7.48206 32.9381 6.98371C32.9209 6.47385 33.3962 5.99657 33.9119 6.00424C34.4313 6.01191 34.8453 6.43551 34.8453 6.95687H34.8472Z" fill="white"/>
</svg>
