<svg width="50" height="50" viewBox="0 0 50 50" fill="none" xmlns="http://www.w3.org/2000/svg">
<path d="M27.8226 35.4857C27.8226 35.7582 27.8226 35.9581 27.8226 36.158C27.8226 40.4081 27.8226 44.6583 27.8226 48.9064C27.8226 49.7362 27.5662 49.9987 26.7525 49.9987C25.5593 49.9987 24.368 50.0007 23.1748 49.9987C22.458 49.9987 22.1774 49.714 22.1774 48.9891C22.1774 44.7067 22.1774 40.4223 22.1774 36.1398C22.1774 35.942 22.1774 35.7441 22.1774 35.4857C21.9431 35.4857 21.7473 35.4857 21.5535 35.4857C15.7911 35.4857 10.0307 35.4857 4.26829 35.4857C1.7162 35.4836 0 33.7735 0 31.2275C0 23.3168 0 15.4041 0 7.49342C0 4.94133 1.71014 3.22916 4.2582 3.22916C10.0024 3.22916 15.7466 3.22916 21.4929 3.22916H22.1753C22.1753 2.51643 22.1753 1.81784 22.1753 1.12126C22.1753 0.255088 22.4196 0.00472441 23.2676 0.00472441C24.4609 0.00472441 25.6522 0.000686288 26.8454 0.00472441C27.5319 0.00674347 27.8166 0.297488 27.8206 0.988007C27.8247 1.70881 27.8206 2.42962 27.8206 3.22916H28.4203C34.1988 3.22916 39.9774 3.22916 45.7559 3.22916C48.2737 3.22916 49.996 4.94738 49.996 7.46111C49.996 15.39 49.996 23.3168 49.996 31.2456C49.996 33.7634 48.2757 35.4836 45.76 35.4857C39.9976 35.4857 34.2372 35.4857 28.4748 35.4857H27.8186H27.8226ZM24.9738 33.8704C31.8769 33.8704 38.7801 33.8704 45.6833 33.8704C47.3974 33.8704 48.3848 32.8952 48.3848 31.1972C48.3848 23.3027 48.3848 15.4102 48.3848 7.51563C48.3848 5.8176 47.3974 4.84239 45.6853 4.84239C31.8971 4.84239 18.1069 4.84239 4.31877 4.84239C2.58642 4.84239 1.61727 5.81962 1.61727 7.56408C1.61727 15.4243 1.61727 23.2845 1.61727 31.1447C1.61727 32.9134 2.58238 33.8704 4.36723 33.8704C11.2361 33.8704 18.1069 33.8704 24.9758 33.8704H24.9738ZM26.1731 48.3612V35.526H23.8148V48.3612H26.1731ZM26.165 3.21705V1.65026H23.8289V3.21705H26.165Z" fill="white"/>
<path d="M20.1606 17.1341C19.3813 17.9155 18.6867 18.5919 18.0245 19.2985C17.9336 19.3954 17.9437 19.666 18.0043 19.8154C19.3187 23.0843 18.2001 26.7872 15.2523 28.669C12.8274 30.2156 10.2692 30.3206 7.76157 28.9315C5.2862 27.5605 4.02429 25.3698 4.02833 22.529C4.03439 18.3193 7.66264 14.9878 11.8461 15.3533C12.6013 15.4199 13.3342 15.7167 14.0832 15.8843C14.2468 15.9206 14.4951 15.9267 14.5961 15.8318C15.2967 15.1817 15.9691 14.4992 16.7666 13.7118C16.0195 13.7118 15.4138 13.7118 14.8081 13.7118C13.9581 13.7118 13.7117 13.4594 13.7117 12.5973C13.7117 11.6746 13.7077 10.7498 13.7117 9.82712C13.7158 9.1689 14.0065 8.87412 14.6647 8.87412C17.7882 8.87008 20.9117 8.87008 24.0352 8.87412C24.7136 8.87412 25.0003 9.17092 25.0003 9.86548C25.0023 12.9728 25.0023 16.0801 25.0003 19.1855C25.0003 19.8719 24.7075 20.1607 24.019 20.1627C23.0459 20.1667 22.0706 20.1687 21.0975 20.1627C20.4716 20.1586 20.1707 19.8598 20.1626 19.242C20.1546 18.5878 20.1626 17.9336 20.1626 17.1361L20.1606 17.1341ZM15.3371 12.0965C16.3809 12.0965 17.3844 12.1066 18.3879 12.0925C18.8139 12.0864 19.2157 12.1228 19.4115 12.5609C19.6114 13.0112 19.3954 13.3504 19.0683 13.6734C17.8246 14.899 16.595 16.1407 15.3593 17.3744C14.796 17.9377 14.6122 17.9639 13.9056 17.6005C10.0148 15.5996 5.5184 18.4223 5.63146 22.7915C5.70011 25.4647 7.58995 27.6352 10.3238 28.1824C12.7527 28.667 15.4057 27.2617 16.4294 24.9236C17.1684 23.2377 17.1118 21.5659 16.2517 19.9345C16.0215 19.4964 15.9145 19.0986 16.3143 18.7009C17.6711 17.3501 19.0077 15.9792 20.3908 14.6567C20.5846 14.473 21.0389 14.3922 21.2893 14.4871C21.5114 14.5719 21.7173 14.9495 21.7537 15.2241C21.8263 15.751 21.7759 16.2962 21.7759 16.8333C21.7759 17.3966 21.7759 17.9619 21.7759 18.5252H23.3548V10.5257H15.3351V12.0986L15.3371 12.0965Z" fill="white"/>
<path d="M41.9361 23.3873C42.994 23.3873 43.9814 23.3853 44.9707 23.3873C45.6875 23.3894 45.9641 23.6741 45.9661 24.3989C45.9681 25.3559 45.9701 26.313 45.9661 27.27C45.9621 27.9242 45.6673 28.221 45.0131 28.223C44.0076 28.2291 43.0041 28.223 41.9361 28.223C41.9361 29.2265 41.9361 30.1936 41.9361 31.1607C41.9361 31.9906 41.6796 32.253 40.868 32.253C39.9271 32.253 38.9862 32.2571 38.0453 32.253C37.3932 32.249 37.1004 31.9542 37.0964 31.294C37.0923 30.2905 37.0964 29.285 37.0964 28.221C36.0889 28.221 35.1217 28.221 34.1526 28.221C33.3248 28.221 33.0643 27.9646 33.0643 27.1489C33.0643 26.208 33.0603 25.2671 33.0643 24.3262C33.0683 23.6741 33.3631 23.3853 34.0254 23.3813C34.9986 23.3752 35.9738 23.3752 36.947 23.3712C36.9772 23.3712 37.0075 23.351 37.0923 23.3187C37.0923 22.4707 37.1065 21.6025 37.0762 20.7363C37.0721 20.6172 36.8682 20.4617 36.7228 20.3971C34.3888 19.3714 32.9391 17.6088 32.398 15.1314C31.5258 11.1458 34.3464 7.12584 38.3946 6.53425C43.0465 5.85585 47.0968 9.52448 46.7475 14.1986C46.5314 17.0778 45.0212 19.1514 42.3782 20.3527C42.0289 20.5102 41.9098 20.6798 41.926 21.0553C41.9583 21.8064 41.9361 22.5616 41.9361 23.3793V23.3873ZM40.3208 30.6237C40.3208 29.7878 40.3208 29.0024 40.3208 28.2149C40.3208 26.6744 40.3814 26.6138 41.9361 26.6138C42.7336 26.6138 43.5331 26.6138 44.3246 26.6138V25.0026C43.3292 25.0026 42.3601 25.0026 41.3889 25.0026C40.5752 25.0026 40.3208 24.7401 40.3188 23.9123C40.3188 22.6867 40.3188 21.4612 40.3188 20.2356C40.3188 19.4906 40.448 19.321 41.1728 19.0867C43.9168 18.2004 45.5017 15.6362 45.0656 12.7832C44.5891 9.6638 41.5383 7.5559 38.3966 8.17979C35.2853 8.7956 33.2561 11.9554 34.0375 15.0123C34.5584 17.0536 35.8365 18.4164 37.8414 19.0787C38.2957 19.2281 38.7056 19.4017 38.7076 19.9711C38.7116 21.3804 38.7177 22.7917 38.7035 24.201C38.6995 24.6755 38.3805 24.9703 37.906 25.0026C37.7223 25.0147 37.5365 25.0046 37.3528 25.0046C36.4705 25.0046 35.5881 25.0046 34.7038 25.0046V26.6158C35.6972 26.6158 36.6663 26.6158 37.6355 26.6158C38.4552 26.6158 38.7096 26.8743 38.7116 27.7001C38.7116 28.6692 38.7116 29.6363 38.7116 30.6257H40.3228L40.3208 30.6237Z" fill="white"/>
<path d="M25.8318 22.1777C27.1079 22.1777 28.3819 22.1756 29.6579 22.1777C30.2899 22.1777 30.6513 22.4846 30.6432 22.9974C30.6352 23.49 30.2798 23.7889 29.6801 23.7909C27.0958 23.7929 24.5114 23.7929 21.927 23.7909C21.3273 23.7909 20.976 23.49 20.9679 22.9954C20.9598 22.4825 21.3212 22.1797 21.9552 22.1777C23.2474 22.1756 24.5396 22.1777 25.8318 22.1777Z" fill="white"/>
<path d="M25.7994 27.8257C24.5233 27.8257 23.2493 27.8257 21.9732 27.8257C21.3332 27.8257 20.9738 27.5329 20.9698 27.0241C20.9657 26.5133 21.3251 26.2125 21.9611 26.2125C24.5294 26.2104 27.0976 26.2104 29.6638 26.2125C30.2918 26.2125 30.6552 26.5254 30.6431 27.0382C30.631 27.5289 30.2756 27.8237 29.6759 27.8257C28.3837 27.8297 27.0915 27.8257 25.7994 27.8257Z" fill="white"/>
<path d="M11.2848 26.614C9.05777 26.612 7.25879 24.8049 7.25879 22.5759C7.25879 20.3489 9.06585 18.5438 11.2949 18.5479C13.5219 18.5519 15.3209 20.3549 15.3229 22.588C15.3249 24.809 13.5118 26.616 11.2828 26.614H11.2848ZM11.2565 24.9988C12.5588 25.023 13.6814 23.9448 13.7056 22.6445C13.7319 21.3099 12.6497 20.1853 11.3252 20.1692C10.0168 20.153 8.90634 21.2211 8.87404 22.5234C8.84375 23.8519 9.92395 24.9745 11.2545 24.9988H11.2565Z" fill="white"/>
<path d="M39.5014 17.7439C37.2804 17.7439 35.4794 15.9308 35.4814 13.6977C35.4855 11.4727 37.2925 9.67572 39.5256 9.67774C41.7506 9.67774 43.5536 11.4929 43.5476 13.7199C43.5395 15.9449 41.7325 17.7439 39.5014 17.7419V17.7439ZM41.9303 13.728C41.9323 12.4095 40.8542 11.3091 39.5438 11.297C38.2112 11.2829 37.0947 12.3893 37.1007 13.7219C37.1048 15.0343 38.1951 16.1206 39.5135 16.1286C40.8198 16.1367 41.9283 15.0363 41.9323 13.73L41.9303 13.728Z" fill="white"/>
</svg>
