<svg width="53" height="54" viewBox="0 0 53 54" fill="none" xmlns="http://www.w3.org/2000/svg">
<mask id="mask0_984_23" style="mask-type:luminance" maskUnits="userSpaceOnUse" x="0" y="0" width="53" height="54">
<path d="M52.6901 0H0V54H52.6901V0Z" fill="white"/>
</mask>
<g mask="url(#mask0_984_23)">
<path d="M13.4789 28.6648C13.4789 28.7155 13.4789 28.7915 13.4789 28.8592C13.5042 29.3831 13.7831 29.7803 14.2563 29.907C14.4507 29.9577 14.662 29.9915 14.8648 29.9746C15.3127 29.9408 15.7521 29.8648 16.1915 29.8056C16.5718 29.7465 16.9521 29.6535 17.3493 29.7127C17.6197 29.7549 17.8901 29.7972 18.169 29.8479C18.6 29.9239 19.0394 30 19.4789 29.9746C19.7831 29.9577 20.0789 29.8901 20.3155 29.6873C20.6113 29.4338 20.6958 29.0873 20.6958 28.7155C20.6958 28.293 20.6028 27.8789 20.4507 27.4817C20.0789 26.5099 19.4789 25.707 18.5662 25.1746C17.5014 24.5408 16.3352 24.6423 15.3465 25.3352C14.8225 25.6986 14.4169 26.1634 14.0873 26.7127C13.7324 27.3127 13.5042 27.9465 13.4789 28.6732V28.6648ZM16.893 22.707C16.8845 22.2254 16.7915 21.7944 16.538 21.4056C16.3183 21.0592 16.0225 20.8141 15.6 20.7634C15.1437 20.7127 14.7887 20.9155 14.5099 21.2704C14.231 21.6169 14.1042 22.0225 14.0704 22.462C14.0197 23.0704 14.138 23.6366 14.5183 24.1268C15.0084 24.7606 15.8197 24.8028 16.3606 24.2028C16.7493 23.7718 16.8761 23.2479 16.893 22.707ZM20.1042 22.707C20.1042 22.2169 20.0028 21.7859 19.7408 21.3887C19.5042 21.0338 19.1915 20.7803 18.7521 20.7549C18.2535 20.7296 17.8817 20.9831 17.6366 21.3972C17.1549 22.2085 17.1465 23.0451 17.569 23.8817C17.7465 24.2282 18.0253 24.4901 18.4141 24.5831C18.9211 24.7099 19.3268 24.507 19.6394 24.1183C19.9775 23.7042 20.0958 23.2056 20.1042 22.707ZM22.4535 24.8282C22.4535 24.7606 22.4366 24.6676 22.4282 24.5831C22.4197 24.5239 22.4028 24.4648 22.3859 24.4056C22.1577 23.6366 21.3887 23.3662 20.738 23.8394C20.1803 24.2366 19.9014 25.0901 20.1127 25.7408C20.3662 26.5437 21.2028 26.7718 21.8366 26.2141C22.2507 25.8507 22.4197 25.3775 22.4451 24.8197L22.4535 24.8282ZM14.1127 25.3437C14.1127 25.3014 14.1127 25.2507 14.1127 25.2085C14.1127 25.1662 14.1127 25.1155 14.0958 25.0732C14.0282 24.5493 13.8084 24.1014 13.3606 23.7972C12.8028 23.4169 12.1183 23.6028 11.8394 24.2282C11.7127 24.507 11.6873 24.8028 11.7296 25.107C11.8141 25.6141 12.0338 26.0451 12.4732 26.3324C12.9211 26.6282 13.462 26.569 13.7915 26.1887C14.0028 25.9521 14.0958 25.6563 14.1042 25.3437H14.1127Z" fill="white"/>
<path d="M13.4789 28.6648C13.5127 27.9465 13.7324 27.3042 14.0873 26.7042C14.4085 26.1634 14.8225 25.6901 15.3465 25.3268C16.3352 24.6338 17.5014 24.5324 18.5662 25.1662C19.4704 25.707 20.0704 26.5014 20.4507 27.4732C20.6028 27.8704 20.6873 28.2845 20.6958 28.707C20.6958 29.0789 20.6113 29.4253 20.3155 29.6789C20.0789 29.8817 19.7831 29.9493 19.4789 29.9662C19.0394 29.9915 18.6 29.907 18.169 29.8394C17.8986 29.7887 17.6282 29.7465 17.3493 29.7042C16.9606 29.6451 16.5803 29.738 16.1916 29.7972C15.7521 29.8648 15.3042 29.9324 14.8648 29.9662C14.662 29.9831 14.4507 29.9493 14.2563 29.8986C13.7831 29.7718 13.4958 29.3746 13.4789 28.8507C13.4789 28.7746 13.4789 28.707 13.4789 28.6563V28.6648Z" fill="white"/>
<path d="M16.893 22.707C16.8761 23.2479 16.7493 23.7718 16.3606 24.2028C15.8197 24.7944 15.0169 24.7606 14.5183 24.1267C14.138 23.6366 14.0197 23.0704 14.0704 22.462C14.1042 22.0225 14.231 21.6169 14.5099 21.2704C14.7887 20.9239 15.1437 20.7127 15.6 20.7634C16.0141 20.8141 16.3099 21.0591 16.538 21.4056C16.7916 21.7944 16.8845 22.2338 16.893 22.707Z" fill="white"/>
<path d="M20.1042 22.707C20.0958 23.2056 19.9775 23.7042 19.6394 24.1183C19.3268 24.507 18.9211 24.7099 18.4141 24.5831C18.0254 24.4901 17.7465 24.2282 17.569 23.8817C17.1465 23.0451 17.1465 22.2084 17.6366 21.3972C17.8817 20.9915 18.2451 20.7296 18.7521 20.7549C19.2 20.7803 19.5127 21.0338 19.7409 21.3887C19.9944 21.7775 20.0958 22.2169 20.1042 22.707Z" fill="white"/>
<path d="M22.4535 24.8282C22.4282 25.3859 22.2592 25.8592 21.8451 26.2225C21.2113 26.7803 20.3747 26.5437 20.1211 25.7493C19.9099 25.0986 20.1887 24.2451 20.7465 23.8479C21.3972 23.3746 22.1747 23.6451 22.3944 24.4141C22.4113 24.4732 22.4282 24.5324 22.4366 24.5916C22.4451 24.6761 22.4535 24.769 22.462 24.8366L22.4535 24.8282Z" fill="white"/>
<path d="M14.1127 25.3437C14.1127 25.6648 14.0113 25.9521 13.8 26.1887C13.462 26.569 12.9211 26.6282 12.4817 26.3324C12.0423 26.0451 11.8226 25.6141 11.738 25.107C11.6873 24.8028 11.7211 24.507 11.8479 24.2282C12.1268 23.6113 12.8113 23.4169 13.369 23.7972C13.8169 24.1014 14.0366 24.5408 14.1042 25.0732C14.1042 25.1155 14.1127 25.1662 14.1211 25.2084C14.1211 25.2507 14.1211 25.3014 14.1211 25.3437H14.1127Z" fill="white"/>
<path d="M34.5042 25.8085C34.2085 26.2986 33.862 26.7549 33.4732 27.1775C32.4676 28.2761 31.3014 29.1803 29.9239 29.7803C29.662 29.8986 29.3915 29.9916 29.1211 30.093C29.0282 30.1268 28.9775 30.1859 28.9859 30.2873C28.9944 30.3718 29.0535 30.431 29.138 30.4479C29.1803 30.4479 29.231 30.4479 29.2732 30.431C29.8901 30.2197 30.4817 29.9578 31.0394 29.6282C31.1408 29.569 31.2254 29.5437 31.3268 29.6197C31.3944 29.662 31.4704 29.6873 31.5465 29.7127C32.7042 30.1521 33.862 30.093 34.9944 29.6113C36.6423 28.9014 37.7493 27.693 38.231 25.9521C38.6197 24.5577 38.569 23.1549 38.231 21.7521C38.1972 21.6169 38.138 21.5831 37.9859 21.5916C37.0394 21.6169 36.1183 21.7775 35.2225 22.0986C33.6 22.6732 32.2901 23.662 31.3521 25.107C30.7268 26.0704 30.3634 27.1352 30.2197 28.2761C30.2113 28.369 30.2113 28.462 30.2958 28.5211C30.3887 28.5803 30.4648 28.538 30.5493 28.4873C31.4451 27.8873 32.3408 27.2789 33.2366 26.6789C33.6592 26.3916 34.0817 26.1127 34.5042 25.8254V25.8085ZM30.1014 27C30.1014 27 30.1268 26.9408 30.1268 26.9239C30.5831 25.3775 31.4366 24.093 32.6789 23.062C32.738 23.0113 32.7465 22.9606 32.738 22.8845C32.6197 22.3268 32.3915 21.8113 32.062 21.3549C31.7324 20.8901 31.3352 20.5183 30.7859 20.3239C30.6676 20.2817 30.5746 20.2986 30.4817 20.3831C29.9324 20.8986 29.5437 21.5155 29.2648 22.2085C28.8 23.3916 28.7493 24.5831 29.2732 25.7662C29.4761 26.2225 29.7549 26.6282 30.093 27.0085L30.1014 27Z" fill="white"/>
<path d="M34.5042 25.8084C34.0817 26.0958 33.6592 26.3746 33.2366 26.662C32.3408 27.262 31.4451 27.8704 30.5493 28.4704C30.4732 28.5211 30.3887 28.5634 30.2958 28.5042C30.2028 28.4451 30.2028 28.3606 30.2197 28.2592C30.3634 27.1183 30.7268 26.0535 31.3521 25.0901C32.2901 23.6366 33.6 22.6563 35.2225 22.0817C36.1183 21.7606 37.0394 21.6084 37.9859 21.5746C38.138 21.5746 38.1972 21.6 38.231 21.7352C38.5606 23.138 38.6197 24.5408 38.231 25.9352C37.7493 27.6761 36.6422 28.8845 34.9944 29.5944C33.8704 30.0761 32.7127 30.1352 31.5465 29.6958C31.4704 29.6704 31.3944 29.6451 31.3268 29.6028C31.2253 29.5352 31.1408 29.5521 31.0394 29.6113C30.4817 29.9408 29.8817 30.2028 29.2732 30.4141C29.231 30.431 29.1803 30.4394 29.138 30.431C29.0535 30.4141 28.9944 30.3634 28.9859 30.2704C28.9775 30.169 29.0366 30.1099 29.1211 30.0761C29.3915 29.9746 29.662 29.8817 29.9239 29.7634C31.3014 29.1634 32.4592 28.2676 33.4732 27.1606C33.862 26.738 34.2084 26.2901 34.5042 25.7915V25.8084Z" fill="white"/>
<path d="M30.1015 27C29.755 26.6197 29.4761 26.2141 29.2818 25.7577C28.7578 24.5746 28.8001 23.3831 29.2733 22.2C29.5438 21.507 29.9409 20.8901 30.4902 20.3746C30.5832 20.2817 30.6761 20.2648 30.7945 20.3155C31.3353 20.5183 31.7409 20.8901 32.0705 21.3465C32.4001 21.8113 32.6198 22.3268 32.7466 22.8761C32.7635 22.9521 32.7466 23.0028 32.6874 23.0535C31.4452 24.0845 30.6001 25.369 30.1353 26.9155C30.1353 26.9408 30.1184 26.9577 30.1099 26.9915L30.1015 27Z" fill="white"/>
<path d="M24.262 43.9014C25.0564 43.9014 25.8592 43.9014 26.6535 43.9014C26.7718 43.9014 26.8986 43.9014 27.0169 43.8845C27.9127 43.7916 28.538 43.124 28.5465 42.2197C28.5465 41.9155 28.538 41.6197 28.5042 41.3155C28.4451 40.7324 28.3183 40.1747 28.0395 39.6507C27.7268 39.0676 27.2535 38.6958 26.5859 38.5944C26.3324 38.5521 26.1042 38.5775 25.893 38.738C25.7831 38.8225 25.6648 38.8901 25.5465 38.9662C24.6845 39.4986 23.8225 39.4986 22.9606 38.9662C22.8085 38.8732 22.6733 38.7718 22.5211 38.6873C22.4282 38.6366 22.3183 38.5859 22.2169 38.5859C21.8873 38.5859 21.5747 38.6535 21.2789 38.8141C20.8056 39.0676 20.5268 39.4732 20.3324 39.9465C20.0113 40.7493 19.9099 41.5859 19.9859 42.4394C20.0282 42.9127 20.2564 43.293 20.6451 43.5718C20.9916 43.8169 21.3887 43.9014 21.8028 43.9014C22.6225 43.9014 23.4423 43.9014 24.2535 43.9014H24.262ZM26.6789 36.0845C26.6789 34.7155 25.5718 33.6085 24.2028 33.6C22.8338 33.6 21.7268 34.6986 21.7183 36.0761C21.7183 37.4535 22.8338 38.569 24.2028 38.5606C25.5803 38.5606 26.6789 37.4535 26.6789 36.0761V36.0845Z" fill="white"/>
<path d="M24.262 43.9014C23.4423 43.9014 22.6226 43.9014 21.8113 43.9014C21.3972 43.9014 21 43.8169 20.6535 43.5718C20.2648 43.293 20.0282 42.9127 19.9944 42.4394C19.9183 41.5859 20.0197 40.7493 20.3409 39.9465C20.5352 39.4732 20.8141 39.0591 21.2873 38.8141C21.5831 38.6535 21.8958 38.5859 22.2254 38.5859C22.3268 38.5859 22.4366 38.6366 22.5296 38.6873C22.6817 38.7718 22.8254 38.8732 22.969 38.9662C23.831 39.4986 24.693 39.4986 25.5549 38.9662C25.6733 38.8901 25.7916 38.8225 25.9014 38.738C26.1127 38.5775 26.3493 38.5606 26.5944 38.5944C27.262 38.6958 27.7352 39.0676 28.0479 39.6507C28.3268 40.1662 28.4535 40.7324 28.5127 41.3155C28.538 41.6113 28.5549 41.9155 28.5549 42.2197C28.5465 43.1239 27.9211 43.7915 27.0254 43.8845C26.9071 43.893 26.7887 43.9014 26.662 43.9014C25.8676 43.9014 25.0648 43.9014 24.2704 43.9014H24.262Z" fill="white"/>
<path d="M26.6789 36.0845C26.6789 37.4535 25.5718 38.5606 24.2028 38.569C22.8338 38.569 21.7183 37.4535 21.7183 36.0845C21.7183 34.7071 22.8338 33.6085 24.2028 33.6085C25.5803 33.6085 26.6789 34.7155 26.6789 36.093V36.0845Z" fill="white"/>
<path d="M18.8789 -0.000156403C18.1268 0.760414 17.3409 1.53787 16.4789 2.3998C17.6958 3.6167 18.9381 4.8505 20.2141 6.1097C13.8085 7.2759 8.57749 10.3689 4.71549 15.5998C0.861992 20.8308 -0.566208 26.721 0.202892 33.2027C1.36059 33.0421 2.43379 32.89 3.54929 32.7379C2.93239 27.4393 4.05639 22.597 7.01409 18.1942C9.77749 14.0787 15.9381 9.8872 19.4536 9.8365C18.431 10.8421 17.4845 11.7717 16.5972 12.6421C17.4 13.4449 18.1775 14.2224 18.8958 14.9407C21.3634 12.4731 23.8733 9.9632 26.3662 7.4787C23.8902 5.0027 21.3803 2.4928 18.8789 -0.00860596V-0.000156403ZM46.6226 38.5435C48.8367 32.3491 48.7437 26.29 46.1662 20.3407C43.5803 14.3745 39.2113 10.1745 33.1944 7.5801C32.755 8.6618 32.3409 9.6759 31.9268 10.6984C43.1831 15.3886 46.6733 27.6336 43.8676 35.9153C43.4958 34.5548 43.1493 33.2703 42.7944 31.9604C41.6874 32.2562 40.631 32.5351 39.5324 32.8308C40.462 36.3125 41.3831 39.7435 42.3127 43.2083C45.8113 42.2703 49.2338 41.3576 52.6902 40.428C52.386 39.3041 52.0986 38.2477 51.8029 37.166C50.0536 37.6308 48.3803 38.0787 46.6226 38.5435ZM36.8029 46.3013C26.6282 53.9407 14.3578 50.29 9.06759 44.0618C10.386 44.4083 11.6705 44.7548 12.9803 45.1013C13.2761 43.9773 13.555 42.9379 13.8507 41.8393C10.3691 40.9097 6.93809 39.9886 3.48169 39.0674C2.54369 42.5745 1.63099 45.997 0.709892 49.4365C1.83379 49.7407 2.88169 50.0196 3.97189 50.3069C4.43669 48.5829 4.89299 46.8928 5.36619 45.1351C9.62539 50.1294 14.9155 53.1041 21.3803 53.8393C27.8367 54.5745 33.6507 52.8843 38.8817 48.9801C38.1634 48.059 37.4958 47.197 36.8029 46.3097V46.3013Z" fill="white"/>
<path d="M18.8789 0C21.3803 2.5014 23.8902 5.0113 26.3663 7.4873C23.8817 9.9718 21.3634 12.4817 18.8958 14.9493C18.1775 14.231 17.4001 13.4535 16.5972 12.6507C17.4846 11.7803 18.431 10.8507 19.4536 9.8451C15.9381 9.8958 9.7775 14.0873 7.0141 18.2028C4.0564 22.6056 2.9325 27.4479 3.5494 32.7465C2.4339 32.8986 1.3606 33.0507 0.202904 33.2113C-0.566096 26.7296 0.862005 20.8394 4.724 15.6169C8.586 10.3859 13.8085 7.293 20.2226 6.1268C18.955 4.8592 17.7127 3.6254 16.4874 2.4169C17.3494 1.55493 18.1268 0.76901 18.8874 0.0169001L18.8789 0Z" fill="white"/>
<path d="M46.6225 38.5437C48.3718 38.0789 50.0451 37.631 51.8028 37.1662C52.0986 38.2479 52.3775 39.3042 52.6901 40.4282C49.2338 41.3577 45.8113 42.2704 42.3127 43.2084C41.3831 39.7437 40.462 36.3127 39.5324 32.831C40.631 32.5352 41.6958 32.2563 42.7944 31.9606C43.1493 33.2789 43.4958 34.5549 43.8676 35.9155C46.6732 27.6338 43.1831 15.3803 31.9268 10.6986C32.3408 9.68452 32.7549 8.66202 33.1944 7.58032C39.2028 10.1746 43.5803 14.3746 46.1662 20.3408C48.7352 26.2817 48.8366 32.3408 46.6225 38.5437Z" fill="white"/>
<path d="M36.8028 46.3014C37.4958 47.1887 38.1634 48.0507 38.8817 48.9718C33.6423 52.876 27.8366 54.5662 21.3803 53.831C14.9155 53.0958 9.6254 50.1211 5.3662 45.1267C4.893 46.8929 4.4366 48.5746 3.9718 50.2986C2.8817 50.0113 1.8338 49.7239 0.7099 49.4282C1.631 45.9803 2.5437 42.5662 3.4817 39.0591C6.938 39.9887 10.3775 40.9014 13.8507 41.831C13.5549 42.9296 13.2761 43.9775 12.9803 45.0929C11.6704 44.7465 10.3859 44.4084 9.0676 44.0535C14.3578 50.2901 26.6282 53.9408 36.8028 46.2929V46.3014Z" fill="white"/>
</g>
</svg>
