<svg width="37" height="42" viewBox="0 0 37 42" fill="none" xmlns="http://www.w3.org/2000/svg">
<path d="M3.9606 41.54C1.77764 41.54 0 39.7624 0 37.5794C0 36.7026 0.292263 35.8631 0.823871 35.1787C0.288655 34.3356 0 33.3614 0 32.3631C0 30.6132 0.874387 28.9883 2.2888 28.0092C2.01939 27.272 1.88468 26.5167 1.88468 25.7529C1.88468 23.7636 2.75065 21.8921 4.23362 20.604C3.963 19.8968 3.8271 19.168 3.8271 18.4295C3.8271 15.4671 5.84288 13.0003 8.60916 12.3292C8.29765 11.3875 8.1413 10.4109 8.1413 9.41259C8.1413 4.2228 12.3641 0 17.5539 0C20.0496 0 22.4274 0.98985 24.187 2.74103C25.0565 2.35255 25.9658 2.1565 26.8991 2.1565C30.6565 2.1565 33.7138 5.21385 33.7138 8.97119C33.7138 9.51362 33.6428 10.0524 33.4985 10.6057C35.115 12.0442 36.0615 14.1249 36.0615 16.2958C36.0615 19.9365 33.5298 23.0059 30.0491 23.7468C29.6389 27.6568 26.3447 30.6901 22.3564 30.6901C22.2037 30.6901 22.0533 30.6841 21.903 30.6745C20.6822 32.2068 18.8384 33.1052 16.8623 33.1052C15.235 33.1052 13.6895 32.4858 12.5012 31.3793C11.9227 31.7702 11.2864 32.0697 10.6141 32.2657C10.6153 32.2958 10.6153 32.3283 10.6153 32.3583C10.6153 34.2959 9.54489 36.0591 7.8791 36.9828C7.90797 37.1789 7.9236 37.3761 7.9236 37.5746C7.9224 39.7624 6.14596 41.54 3.9606 41.54ZM17.5551 1.92437C13.4249 1.92437 10.0657 5.28361 10.0657 9.41259C10.0657 10.5492 10.3231 11.6521 10.8306 12.6912C10.9737 12.9847 10.9581 13.3311 10.7897 13.6113C10.6201 13.8916 10.3207 14.066 9.99471 14.0756C7.61571 14.1453 5.75267 16.0577 5.75267 18.4307C5.75267 19.115 5.92827 19.7958 6.27706 20.4537C6.50438 20.8879 6.37088 21.4243 5.96435 21.6985C4.61609 22.6126 3.81026 24.128 3.81026 25.7529C3.81026 26.501 3.99909 27.2491 4.37314 27.9756C4.49341 28.2089 4.51145 28.4819 4.42606 28.7309C4.33946 28.9799 4.15424 29.1819 3.91489 29.2914C2.70615 29.841 1.92558 31.0474 1.92558 32.3643C1.92558 33.1858 2.23708 33.9856 2.80237 34.6135C2.97797 34.8095 3.06697 35.0705 3.04652 35.3339C3.02487 35.5973 2.89738 35.8402 2.69172 36.0062C2.20461 36.3995 1.92437 36.9744 1.92437 37.5818C1.92437 38.7052 2.83845 39.618 3.9606 39.618C5.08515 39.618 5.99803 38.704 5.99803 37.5818C5.99803 37.322 5.94631 37.0634 5.84408 36.8121C5.74545 36.5679 5.75027 36.2937 5.85851 36.0543C5.96796 35.815 6.17002 35.6286 6.41778 35.542C7.77687 35.0657 8.69095 33.7896 8.69095 32.3643C8.69095 32.1539 8.66689 31.9326 8.62239 31.7052C8.57188 31.4467 8.62841 31.1785 8.77995 30.9644C8.93149 30.7503 9.16362 30.606 9.42461 30.5675C10.3712 30.4255 11.248 30.0118 11.9588 29.3707C12.1548 29.1939 12.4146 29.1098 12.6792 29.1266C12.9426 29.1482 13.1856 29.2757 13.3515 29.4814C14.2271 30.5651 15.5056 31.1869 16.8623 31.1869C18.3898 31.1869 19.803 30.4207 20.6461 29.1374C20.8494 28.8283 21.2126 28.6599 21.5782 28.7116C21.8332 28.7453 22.0918 28.7706 22.3552 28.7706C25.5605 28.7706 28.1692 26.1631 28.1692 22.9578C28.1692 22.4647 28.5409 22.016 29.0304 21.9655C31.9422 21.6672 34.1372 19.2317 34.1372 16.2994C34.1372 14.4773 33.2904 12.8079 31.8147 11.7182C31.4731 11.4657 31.3384 11.0194 31.4815 10.6189C31.6884 10.0428 31.7894 9.504 31.7894 8.97359C31.7894 6.27706 29.5957 4.08328 26.8991 4.08328C26.0572 4.08328 25.2357 4.3118 24.4612 4.76282C24.0583 4.99495 23.5471 4.91076 23.2452 4.55595C21.8188 2.88295 19.7441 1.92437 17.5551 1.92437Z" fill="white"/>
</svg>
