<svg width="50" height="51" viewBox="0 0 50 51" fill="none" xmlns="http://www.w3.org/2000/svg">
<path d="M40.2209 31.3774C41.2049 38.3005 39.0491 43.9424 33.0493 47.6769C27.7674 50.9634 22.1705 50.9478 16.8965 47.6495C10.9181 43.9111 8.78972 38.2751 9.7522 31.4126C8.85624 31.3265 7.90745 31.305 6.98801 31.1328C3.41393 30.4657 0.506928 27.3181 0.0726388 23.7069C-0.426207 19.5694 1.6709 15.9581 5.54429 14.3442C5.97858 14.1623 5.84947 13.8688 5.82795 13.5911C5.61472 10.7349 6.26028 8.08223 7.86833 5.71907C10.5797 1.73221 14.4022 -0.241651 19.2127 0.0224436C23.3599 0.24937 26.6288 2.21541 28.9959 5.64669C29.0781 5.76602 29.1563 5.88926 29.2189 5.98121C30.0699 5.82666 30.8896 5.62712 31.721 5.53518C36.684 4.99134 41.4416 8.45 42.4687 13.3387C42.543 13.6928 42.6839 13.8297 43.0399 13.9119C47.33 14.9017 50.1137 18.5247 49.9983 22.9302C49.8888 27.0716 46.4418 30.8159 42.3278 31.2443C41.6196 31.3187 40.9037 31.3343 40.2209 31.3754V31.3774ZM27.9513 10.0072C27.7185 9.50638 27.5229 9.08188 27.3233 8.65737C25.3416 4.45728 21.0711 2.26823 16.5111 3.11138C11.5109 4.03669 7.96614 9.12883 8.84841 14.129C8.98535 14.9037 9.16728 15.6706 9.33356 16.4589C8.72517 16.5704 8.15003 16.6643 7.57685 16.7798C5.02002 17.2942 3.09897 19.5048 2.92682 22.1184C2.75662 24.7143 4.35293 27.1401 6.77282 28.0282C7.8742 28.4332 9.00687 28.3804 10.1435 28.4097C10.5914 28.4214 10.8203 28.2923 11.0199 27.8717C14.3181 20.9133 22.2801 17.4038 29.5554 19.7181C33.9081 21.1031 37.0557 23.9005 39.0354 28.0106C39.1782 28.308 39.3269 28.4234 39.6536 28.4078C40.2053 28.3804 40.7609 28.4078 41.3125 28.398C44.464 28.3354 47.0561 25.6983 47.0659 22.5488C47.0756 19.4324 44.6362 16.8384 41.516 16.6682C40.9702 16.6389 40.4205 16.6643 39.8101 16.6643C39.9197 13.4972 38.9494 10.9149 36.146 9.3401C33.3271 7.75553 30.604 8.28177 27.9513 10.0091V10.0072ZM21.2217 37.6609H28.7612V31.3578H21.2217V37.6609ZM18.2482 37.6882V31.3382C16.5463 31.3382 14.8267 31.3304 13.1072 31.3539C12.9937 31.3539 12.8177 31.5691 12.7844 31.7119C12.3403 33.5742 12.354 35.4405 12.7629 37.3107C12.8294 37.6178 12.9468 37.698 13.2441 37.6941C14.4785 37.6785 15.7149 37.6882 16.9493 37.6882C17.3992 37.6882 17.8511 37.6882 18.2502 37.6882H18.2482ZM31.7366 37.655C31.7366 37.655 31.7816 37.6824 31.8286 37.6824C33.5031 37.6863 35.1757 37.6941 36.8483 37.6726C36.9696 37.6726 37.1633 37.4789 37.1965 37.3439C37.6445 35.4659 37.6367 33.584 37.22 31.6982C37.1574 31.4165 37.0537 31.3304 36.774 31.3324C35.166 31.3441 33.556 31.3363 31.9479 31.3402C31.8579 31.3402 31.766 31.3715 31.7386 31.3754V37.655H31.7366ZM28.2917 28.3765C28.2291 28.0791 28.1821 27.8091 28.1176 27.5431C27.7204 25.9116 27.2294 24.3133 26.2474 22.9224C25.3671 21.6782 24.6295 21.6665 23.7571 22.9009C22.6029 24.5383 22.0962 26.428 21.6932 28.3784H28.2936L28.2917 28.3765ZM28.2956 40.6481H21.6932C21.9827 42.1329 22.3544 43.5629 23.0391 44.8794C23.3638 45.5055 23.7688 46.1099 24.2324 46.6401C24.7469 47.2289 25.2321 47.2094 25.77 46.6323C26.1417 46.2332 26.4723 45.7754 26.7364 45.2981C27.5287 43.8661 27.9591 42.3031 28.2936 40.6461L28.2956 40.6481ZM20.2651 22.9654C18.3871 23.3058 14.4805 26.7684 14.1577 28.3745H18.6688C18.8977 27.4335 19.0875 26.5121 19.3535 25.6123C19.6176 24.7182 19.96 23.8477 20.2671 22.9674L20.2651 22.9654ZM35.833 28.3745C35.4594 26.7254 31.5371 23.2589 29.8019 22.983C30.3203 24.7398 30.8504 26.5337 31.3943 28.3745H35.833ZM31.3982 40.6383C30.8465 42.5046 30.3164 44.2945 29.7784 46.1138C32.4155 44.991 34.4617 43.1873 35.9367 40.6383H31.3982ZM14.0501 40.6461C15.5369 43.1951 17.5772 45.0027 20.2006 46.1041C19.6607 44.2769 19.1305 42.4811 18.5867 40.6461H14.0481H14.0501Z" fill="white"/>
</svg>
