<svg width="46" height="51" viewBox="0 0 46 51" fill="none" xmlns="http://www.w3.org/2000/svg">
<path d="M13.638 5.0422C14.3351 5.57686 14.952 5.69408 15.6718 5.11006C16.2373 4.65148 16.9097 4.32039 17.5493 3.96258C19.3055 2.97961 21.0061 3.10711 22.6636 4.22991C22.8281 4.34096 23.1037 4.39031 23.2949 4.3389C24.3642 4.04895 25.4171 4.051 26.4803 4.36563C27.7224 4.73579 28.9871 5.03808 30.2127 5.45554C31.0044 5.72493 31.7057 5.63856 32.483 5.24372C32.3802 5.02986 32.2732 4.80776 32.1704 4.58567C31.9195 4.04072 32.0141 3.66028 32.5221 3.36622C34.3852 2.29071 36.2545 1.21932 38.1279 0.160261C38.6975 -0.162597 39.1149 0.00602928 39.4419 0.65997C41.1179 4.00165 42.7897 7.34538 44.4616 10.6871C44.912 11.5878 45.3644 12.4885 45.8086 13.3912C46.1479 14.0781 46.0533 14.4236 45.4096 14.7937C43.6164 15.8219 41.8212 16.846 40.0239 17.866C39.337 18.2547 38.9545 18.1251 38.5844 17.4033C38.2704 16.7891 37.7947 16.6006 37.1572 16.8378C36.7912 16.9735 36.4272 17.1134 36.0509 17.2573C36.3141 18.4768 35.9995 19.468 34.9548 20.126C34.5785 20.3625 34.013 20.3481 33.7086 20.634C33.4166 20.9075 33.4145 21.4647 33.1719 21.8226C32.485 22.8343 31.4938 23.1592 30.2682 22.931C29.6513 24.3067 28.5593 24.8352 27.0849 24.6008C27.0396 24.6501 26.9944 24.681 26.9738 24.7242C26.3651 25.9745 25.5138 26.466 24.1134 26.2541C23.3957 26.1452 22.6862 25.9231 21.9973 25.6845C21.6991 25.5817 21.549 25.631 21.3393 25.8285C20.9547 26.1883 20.5763 26.5852 20.1219 26.832C18.925 27.4798 17.4321 26.9924 16.7576 25.7997C16.6835 25.6681 16.6198 25.5282 16.556 25.4007C14.6107 25.5035 14.2364 25.3164 13.2226 23.7391C11.8468 24.0147 10.7734 23.6096 10.0845 22.3305C10.0434 22.2524 9.89941 22.1989 9.79864 22.1886C8.69229 22.0632 7.90263 21.4976 7.53864 20.4468C7.1726 19.3898 7.47284 18.4644 8.25839 17.685C8.31802 17.6275 8.36943 17.5596 8.4702 17.4465C8.19464 17.2758 7.9417 17.1175 7.6867 16.9612C7.10954 17.8866 6.34181 18.0751 5.38352 17.5267C3.81241 16.6281 2.23925 15.7294 0.670208 14.8266C-0.0536509 14.4112 -0.152359 14.0987 0.211627 13.3686C2.3174 9.14269 4.43345 4.9147 6.54951 0.686703C6.91966 -0.0515504 7.31038 -0.170823 8.03218 0.242517C9.75546 1.22137 11.4746 2.20845 13.1938 3.19142C14.0637 3.68907 14.1315 3.91117 13.7079 4.8345C13.6812 4.89413 13.6647 4.95994 13.6359 5.0422H13.638ZM8.39822 15.4518C8.70257 15.643 8.97402 15.789 9.21668 15.9741C9.52103 16.2024 9.75752 16.2188 10.1153 16.0008C11.3636 15.2461 12.9038 15.6924 13.6647 16.953C13.749 17.0928 13.9485 17.2224 14.111 17.2491C14.8698 17.3807 15.5484 17.6686 15.9391 18.3452C16.2147 18.8243 16.4697 18.9724 17.0619 18.9333C18.2752 18.8531 19.1266 19.505 19.6036 20.6442C20.8663 20.3625 21.8965 20.708 22.6656 21.7917C22.9535 21.4154 23.2106 21.0802 23.4964 20.7059C24.0208 21.1008 24.5061 21.5038 25.0326 21.8472C25.5858 22.2071 26.1574 22.5505 26.76 22.8199C27.089 22.968 27.4921 22.9865 27.8622 22.9906C28.2756 22.9947 28.5614 22.7479 28.6992 22.3511C28.8493 21.9192 28.4339 21.8863 28.2283 21.7444C27.1754 21.0164 26.106 20.3173 25.0079 19.5831C25.3205 19.1122 25.6104 18.6783 25.9066 18.2321C26.0382 18.3061 26.1307 18.3493 26.215 18.4048C27.5085 19.2664 28.802 20.1322 30.0975 20.9918C30.2806 21.1131 30.4739 21.2365 30.6795 21.3085C31.1319 21.4689 31.6563 21.2303 31.901 20.7964C32.1684 20.3255 31.9853 20.0417 31.5823 19.7353C30.4574 18.8819 29.3675 17.9812 28.2344 17.0763C28.5943 16.6301 28.9233 16.225 29.2667 15.7993C29.5012 15.9823 29.7027 16.1386 29.9001 16.297C30.8625 17.064 31.8146 17.8434 32.7914 18.594C33.3631 19.0341 33.9451 18.9929 34.3009 18.5446C34.6422 18.1128 34.5559 17.6624 34.0232 17.1607C32.7051 15.9165 31.3828 14.6745 30.0626 13.4324C28.8287 12.2746 27.5949 11.1169 26.3425 9.94058C25.5611 10.5925 24.8084 11.2361 24.0393 11.8592C22.6081 13.019 21.002 13.4756 19.2026 12.9306C17.1236 12.3013 16.6074 10.1709 18.1374 8.63681C19.2109 7.56131 20.2843 6.4858 21.3866 5.38356C20.3666 4.80365 19.3774 4.81599 18.4027 5.38356C17.3848 5.97581 16.3751 6.58656 15.3715 7.20143C14.9993 7.4297 14.6518 7.45232 14.2631 7.24256C13.8189 6.9999 13.3562 6.78809 12.8627 6.54338C11.3718 9.52313 9.90147 12.4638 8.40645 15.4518H8.39822ZM33.2624 6.7737C32.7894 6.92793 32.3596 7.03898 31.9545 7.21172C31.4507 7.42558 30.9839 7.39062 30.4677 7.23228C28.9521 6.76959 27.4201 6.35625 25.8963 5.92234C24.6316 5.56247 23.4574 5.77634 22.497 6.65031C21.3351 7.70731 20.2494 8.85068 19.1471 9.97348C18.7194 10.4094 18.8304 10.9852 19.3959 11.2258C19.7496 11.376 20.1465 11.4767 20.529 11.4952C21.5984 11.5446 22.46 11.051 23.2517 10.3745C24.3396 9.44293 25.45 8.53605 26.579 7.59421C27.0026 8.09803 27.3646 8.62242 27.817 9.05221C30.1304 11.2587 32.4645 13.4427 34.8006 15.6266C34.9075 15.7253 35.1173 15.8219 35.2345 15.7829C35.9419 15.5443 36.6369 15.2667 37.3711 14.987C35.9974 12.2376 34.6422 9.5293 33.2644 6.7737H33.2624ZM7.74428 1.98019C5.79274 5.88327 3.85971 9.75139 1.91434 13.6401C3.37645 14.475 4.78304 15.279 6.2287 16.1037C8.17819 12.2026 10.1133 8.33658 12.0586 4.44583C10.5965 3.60887 9.192 2.80687 7.74634 1.98019H7.74428ZM44.0894 13.6421C42.1379 9.73905 40.2089 5.88327 38.2595 1.98636C36.8056 2.8151 35.3887 3.62327 33.9451 4.44789C35.8966 8.35097 37.8256 12.2068 39.775 16.1057C41.2289 15.2749 42.6458 14.4668 44.0894 13.6401V13.6421ZM15.6121 23.916C15.9041 23.7844 16.1242 23.7433 16.262 23.6137C16.809 23.1017 17.3478 22.5793 17.8516 22.0261C18.1847 21.6622 18.1312 21.1625 17.7961 20.8252C17.467 20.4962 16.9488 20.4365 16.591 20.7594C16.0358 21.2612 15.4826 21.7773 15.0158 22.3572C14.8451 22.567 14.8142 23.0215 14.9171 23.2847C15.0199 23.5479 15.3736 23.7124 15.6101 23.9139L15.6121 23.916ZM21.4688 23.0358C21.2467 22.7767 21.076 22.4765 20.821 22.3058C20.4735 22.0755 20.091 22.1845 19.7949 22.4683C19.3157 22.9289 18.8448 23.3957 18.3842 23.8769C17.9791 24.3005 17.977 24.8188 18.3554 25.193C18.7338 25.5673 19.2458 25.5632 19.6736 25.154C20.1404 24.7077 20.6051 24.2532 21.0431 23.7782C21.2056 23.6014 21.292 23.3525 21.4709 23.0358H21.4688ZM14.9047 19.7517C14.658 19.4865 14.4564 19.1821 14.1768 18.9909C13.8457 18.7647 13.5825 18.9785 13.3562 19.2603C12.8545 19.8875 12.3342 20.4982 11.8242 21.1172C11.5075 21.5018 11.5651 21.8246 12.0011 22.0632C12.398 22.2791 12.764 22.1968 13.0786 21.8925C13.5557 21.4277 14.0349 20.963 14.4873 20.4756C14.6415 20.3111 14.7217 20.0767 14.9047 19.7517ZM8.92261 19.7332C9.18789 19.9862 9.41204 20.2679 9.69788 20.4571C10.0269 20.6751 10.2593 20.4345 10.467 20.1795C10.9729 19.5564 11.489 18.9436 11.999 18.3246C12.3507 17.8969 12.2581 17.5576 11.742 17.3457C11.3656 17.1895 11.0325 17.2758 10.7528 17.5432C10.2613 18.0161 9.77191 18.4932 9.30922 18.995C9.15704 19.1595 9.09124 19.4001 8.92055 19.7332H8.92261ZM25.3842 24.1299C24.5596 23.5376 23.7638 22.9659 23.0132 22.4271C22.9638 23.0194 22.9145 23.6137 22.861 24.2306C23.883 24.8188 25.0717 24.79 25.3842 24.1299Z" fill="white"/>
<path d="M22.9946 27.9317C30.0091 27.9317 37.0256 27.9317 44.04 27.9317C44.9387 27.9317 45.2163 28.1867 45.1731 29.0957C44.7351 38.2241 40.4187 44.8458 32.2321 48.8928C28.9994 50.4906 25.5199 51.0685 21.9294 50.9102C12.4925 50.4948 4.21543 43.8978 1.65108 34.7673C1.12258 32.8836 0.842903 30.9608 0.824396 29.0031C0.81617 28.2052 1.09379 27.9317 1.89785 27.9297C8.93079 27.9297 15.9617 27.9297 22.9946 27.9297V27.9317ZM10.7569 29.6057C10.7363 29.6632 10.7137 29.6941 10.7158 29.7249C10.87 33.0461 11.6967 36.1862 13.2164 39.1474C13.3603 39.4292 13.5516 39.4312 13.7942 39.4312C16.4449 39.4312 19.0957 39.4312 21.7443 39.4292C21.8759 39.4292 22.0075 39.4148 22.1474 39.4086V29.6057H10.7589H10.7569ZM23.8439 39.4292C26.7209 39.4292 29.5402 39.4333 32.3616 39.4148C32.5097 39.4148 32.7277 39.24 32.7893 39.094C33.2973 37.9218 33.8381 36.7599 34.2473 35.5528C34.8951 33.6404 35.218 31.658 35.2776 29.6118H23.8439V39.4292ZM36.9495 29.6057C36.8014 33.0358 36.0035 36.2911 34.5065 39.3839C34.5969 39.4066 34.6422 39.4271 34.6874 39.4271C36.5341 39.4292 38.3807 39.4395 40.2254 39.4168C40.3919 39.4168 40.6366 39.2482 40.7127 39.0919C41.3029 37.8642 41.9219 36.6468 42.4093 35.378C43.1167 33.5375 43.4231 31.6045 43.5115 29.6057H36.9495ZM2.46336 29.6016C2.53739 30.309 2.58469 30.9567 2.67311 31.5983C3.04533 34.3025 3.9337 36.8258 5.33412 39.168C5.40609 39.2873 5.58295 39.4189 5.7125 39.4189C7.62291 39.4353 9.53127 39.4292 11.3779 39.4292C10.8371 37.8211 10.1975 36.2561 9.79243 34.6316C9.3832 32.9905 9.2043 31.2919 8.92257 29.6016H2.46336ZM6.6091 41.0743C8.28302 43.2891 10.2284 45.0103 12.4905 46.3758C14.7648 47.7474 18.7625 49.1293 19.7702 48.901C19.6365 48.8023 19.5152 48.7118 19.3918 48.6234C16.8994 46.8775 14.7546 44.7738 13.1485 42.193C12.5809 41.282 11.9866 40.9797 10.9564 41.0496C9.54977 41.1463 8.1329 41.0743 6.60704 41.0743H6.6091ZM26.1924 49.0368C31.6419 48.0785 35.9768 45.4545 39.4131 41.0743C39.1519 41.0743 39.0223 41.0743 38.8907 41.0743C37.2662 41.0743 35.6437 41.0825 34.0191 41.0661C33.7065 41.062 33.5317 41.1607 33.3713 41.4301C32.2794 43.2397 30.9776 44.8869 29.4168 46.312C28.4112 47.2312 27.3378 48.0744 26.1924 49.0368ZM22.1412 48.4774V41.1093H14.3885C16.3874 44.2206 19.034 46.5567 22.1412 48.4774ZM31.6069 41.1134H23.8624V48.4795C26.9759 46.5547 29.6184 44.2145 31.6069 41.1134Z" fill="white"/>
</svg>
