<svg width="44" height="36" viewBox="0 0 44 36" fill="none" xmlns="http://www.w3.org/2000/svg">
<path d="M13.588 18.4277C16.2494 18.4277 18.9108 17.7623 20.9068 17.097C21.192 17.0019 21.3821 16.7168 21.4771 16.4316C21.4771 16.4316 21.4771 16.3366 21.4771 16.2415C21.4771 14.8158 21.0019 9.58808 19.1009 7.30689C16.8197 4.6455 13.8732 4.6455 12.0672 4.55045C11.687 4.55045 11.3068 4.55045 11.1167 4.55045C10.4514 4.36035 10.0712 4.17025 9.97613 3.79006C9.78603 3.21976 10.1662 2.45936 10.5464 2.07917C10.8316 1.79402 10.8316 1.41382 10.6415 1.03362C10.4514 0.653423 10.0712 0.558374 9.69098 0.653423C8.45534 0.843522 5.22366 3.12471 3.79791 6.45144C2.75237 8.92273 2.84742 11.394 4.08306 13.5802C6.0791 17.2871 9.88108 18.4277 13.588 18.4277ZM5.31871 7.11679C5.98405 5.596 7.12465 4.2653 8.07514 3.40986C8.07514 3.69501 8.07514 3.88511 8.17019 4.17025C8.36029 4.8356 9.02564 5.69105 10.6415 6.07124C11.0217 6.16629 11.4019 6.16629 11.8771 6.16629C13.493 6.16629 15.8692 6.26134 17.6751 8.25738C18.9108 9.68313 19.4811 13.295 19.5761 15.196C14.1583 14.9108 10.6415 13.1049 9.21573 9.87323C9.02564 9.39798 8.55039 9.30293 8.07514 9.49303C7.59989 9.68313 7.50484 10.1584 7.69494 10.6336C9.12069 13.6752 11.8771 15.6712 16.0593 16.5267C12.5425 17.0019 7.78999 16.8118 5.5088 12.7247C4.55831 10.9188 4.46326 9.11283 5.31871 7.11679Z" fill="white"/>
<path d="M43.1485 15.291H35.2594C34.7841 15.291 34.499 15.6712 34.499 16.0514V17.9524C32.9782 17.4772 28.0356 16.3366 24.4237 19.3781C23.5683 20.1385 22.9029 20.8039 22.3326 21.3742C20.7168 22.99 19.8613 23.8455 17.4851 23.7504C14.4435 23.6554 12.7326 23.5603 11.592 24.6059C11.1168 25.0811 10.7366 25.9366 10.5465 26.792C9.40589 26.3168 8.45539 25.5564 7.40985 24.7009C6.9346 24.3207 6.45935 23.9405 6.07915 23.5603C4.36826 22.0395 3.51282 21.3742 1.70688 22.1346C0.471234 22.7049 0.186086 23.4653 0.0910363 24.1306C-0.0990627 25.5564 0.851432 27.2673 3.13262 29.2633C8.17024 33.6356 11.8772 35.0613 19.4811 35.2514L21.192 35.3465C22.8079 35.4415 24.2336 35.4415 25.5643 35.4415C29.2712 35.4415 31.7425 34.9663 34.4039 33.0653V34.396C34.4039 34.8712 34.7841 35.1564 35.1643 35.1564H43.0534C43.5287 35.1564 43.8138 34.7762 43.8138 34.396V16.0514C43.9089 15.6712 43.5287 15.291 43.1485 15.291ZM34.4039 30.9742C34.3089 30.9742 34.3089 31.0692 34.2138 31.0692C30.6019 34.0158 27.8455 33.9207 21.192 33.6356L19.4811 33.5405C12.2574 33.2554 9.02569 32.1148 4.17816 27.9326C1.80193 25.7465 1.70688 24.7009 1.70688 24.4158C1.70688 24.3207 1.80193 24.0356 2.37222 23.7504C3.13262 23.4653 3.22767 23.4653 4.93856 24.9861C5.31876 25.2712 5.69896 25.6514 6.26925 26.1267C9.21579 28.5979 11.0217 29.5484 17.7702 29.9286C24.7089 30.3088 27.1801 26.8871 27.3702 26.5069C27.6554 26.1267 27.5603 25.5564 27.1801 25.3663C26.7999 25.0811 26.2297 25.1762 26.0396 25.5564C25.9445 25.6514 23.9485 28.5029 17.8653 28.2177C15.299 28.1227 13.493 27.8376 12.1623 27.4574C12.2574 26.6019 12.5425 26.0316 12.7326 25.8415C13.3029 25.2712 14.8237 25.3663 17.39 25.4613C20.4316 25.5564 21.6673 24.3207 23.3782 22.6098C23.9485 22.0395 24.6138 21.3742 25.3742 20.7088C28.796 17.7623 34.1188 19.6633 34.2138 19.6633C34.3089 19.6633 34.3089 19.6633 34.4039 19.6633V30.9742ZM42.293 33.6356H36.0197V16.9069H42.293V33.6356Z" fill="white"/>
<path d="M39.1562 28.5979C39.6315 28.5979 40.0117 28.2177 40.0117 27.7424V19.188C40.0117 18.7127 39.6315 18.3325 39.1562 18.3325C38.681 18.3325 38.3008 18.7127 38.3008 19.188V27.7424C38.3008 28.2177 38.681 28.5979 39.1562 28.5979Z" fill="white"/>
<path d="M39.0612 31.9248C39.6386 31.9248 40.1067 31.4567 40.1067 30.8793C40.1067 30.3018 39.6386 29.8337 39.0612 29.8337C38.4837 29.8337 38.0156 30.3018 38.0156 30.8793C38.0156 31.4567 38.4837 31.9248 39.0612 31.9248Z" fill="white"/>
</svg>
