<svg width="43" height="53" viewBox="0 0 43 53" fill="none" xmlns="http://www.w3.org/2000/svg">
<path fill-rule="evenodd" clip-rule="evenodd" d="M38.1364 44.7359C38.1328 45.2615 38.1292 45.7946 38.1292 46.338H34.7152V41.4244C34.4214 41.4399 34.1582 41.4521 33.892 41.4645C33.6481 41.4758 33.4016 41.4873 33.1268 41.5015V49.9239C32.1478 49.4624 31.4384 48.6498 30.7374 47.847C29.6559 46.6083 28.5946 45.3929 26.5951 45.5259C26.3521 43.7834 26.4292 42.355 27.9287 41.0214C29.9446 39.2276 31.848 37.3093 33.7875 35.3545C34.5908 34.5449 35.4003 33.729 36.2266 32.9131C35.905 32.607 35.6543 32.3718 35.3768 32.1115C35.2299 31.9736 35.0754 31.8287 34.899 31.6625C34.6389 31.9516 34.3922 32.2306 34.1531 32.5011C33.6617 33.0567 33.2021 33.5765 32.7237 34.0748C32.2418 34.5732 31.7398 35.0516 31.2317 35.5359C31.0087 35.7484 30.7845 35.962 30.5603 36.1789C28.8533 33.8674 30.1217 30.3526 32.5993 28.7582C35.2249 27.069 38.224 26.7075 41.4187 26.4467C41.2528 29.7184 40.8557 32.7827 39.0538 35.4025C37.5899 37.5362 35.4857 38.5616 32.8067 37.9926C32.7532 37.9812 32.6948 38.0066 32.6172 38.0405C32.5744 38.0591 32.5258 38.0803 32.4689 38.0993C32.374 38.4668 32.2673 38.8758 32.1606 39.2669C34.8041 40.2864 38.1174 39.2966 39.9548 36.8368C42.5805 33.3221 42.9716 29.2087 43.0131 24.9115C39.5636 24.7811 36.4163 25.3264 33.3757 26.5415C29.695 28.0055 26.4766 32.4804 29.0371 36.9969C28.4922 37.7014 27.9779 38.3598 27.3987 39.1015C27.0959 39.4893 26.7753 39.8998 26.4232 40.3516V26.4881H24.7992V31.6981C24.5664 31.4796 24.3425 31.2696 24.1259 31.0663C23.3611 30.3487 22.6872 29.7163 22.0313 29.102C23.8983 25.3383 23.11 21.5805 19.8797 19.3638C16.4302 16.993 12.4649 16.5721 7.99592 16.5781C8.13403 17.4196 8.25613 18.2435 8.37607 19.0528C8.64216 20.8483 8.89765 22.5722 9.29395 24.2596C9.92222 26.903 11.244 29.185 13.7808 30.5245C16.1812 31.7929 18.558 31.6862 20.7984 30.2993C20.8368 30.3254 20.8681 30.3463 20.8939 30.3636C20.9677 30.4131 20.9973 30.433 21.0237 30.4593C23.5565 32.8341 24.8229 35.7601 24.8229 39.2373V44.8562C24.3533 45.155 23.925 45.4113 23.5313 45.6469C22.7226 46.1308 22.06 46.5272 21.486 47.0255C20.618 47.785 19.8108 48.6129 19.0031 49.4413C18.5753 49.88 18.1475 50.3188 17.7104 50.7477C17.6841 50.7735 17.6571 50.8002 17.6296 50.8274C17.3726 51.0821 17.069 51.3831 16.7799 51.3938C15.5035 51.4417 14.2207 51.4352 12.8774 51.4284C12.393 51.4259 11.9007 51.4234 11.3981 51.4234V43.3711C11.3981 42.2665 10.5026 41.3711 9.39807 41.3711H1.64208V7.62056C1.64208 7.06827 2.0898 6.62056 2.64208 6.62056H32.2038C32.7561 6.62056 33.2038 7.06827 33.2038 7.62056V23.2075C33.2038 23.602 33.5236 23.9217 33.918 23.9217C34.3125 23.9217 34.6322 23.602 34.6322 23.2075V6.78909C34.6322 5.68452 33.7368 4.78909 32.6322 4.78909H7.61491C7.06262 4.78909 6.61491 4.34137 6.61491 3.78909V2.63588C6.61491 2.08359 7.06262 1.63588 7.61491 1.63588H37.1826C37.7348 1.63588 38.1826 2.08359 38.1826 2.63588V22.3096C38.1826 22.7253 38.5196 23.0623 38.9353 23.0623C39.351 23.0623 39.688 22.7253 39.688 22.3096V2C39.688 0.895431 38.7926 0 37.688 0H6.9494C5.84483 0 4.9494 0.895431 4.9494 2V4.87799H1.04633C0.496857 4.87799 0.000279533 5.30056 0.000279533 5.85003C0.000279533 7.84058 -4.97589e-05 9.83112 -0.000379046 11.8216C-0.00202545 21.774 -0.00367175 31.7257 0.035842 41.6733C0.035842 42.2601 0.415175 42.9773 0.841926 43.4159C3.681 46.3439 6.54378 49.2422 9.48362 52.0635C10.0111 52.5673 10.9061 52.9467 11.6351 52.9526C17.1354 53.0023 22.6322 52.9969 28.1308 52.9915C29.8492 52.9898 31.5678 52.9882 33.2868 52.9882C33.5907 52.9882 33.8971 52.9625 34.228 52.9349C34.4005 52.9205 34.5797 52.9055 34.7686 52.8933V48.0153H39.6525V39.8478C38.3782 39.4507 38.0759 39.9782 38.1114 41.0688C38.1532 42.2751 38.1449 43.4844 38.1364 44.7359ZM11.5818 26.0021C10.4912 23.5661 9.93407 21.0056 9.97556 18.0895C10.1212 18.1075 10.2663 18.1254 10.4109 18.1432C13.211 18.4876 15.8356 18.8105 18.2083 20.1462C21.1837 21.8176 22.2743 24.9175 20.7273 28.0233C19.888 27.031 19.0743 26.0644 18.2606 25.0978C17.7182 24.4534 17.1758 23.8091 16.6258 23.1571C15.8849 23.8506 15.5767 24.141 15.1262 24.5678C16.3617 25.7413 17.5588 26.8802 18.804 28.0649C19.106 28.3522 19.4108 28.6422 19.7197 28.936C18.1727 30.074 16.7621 30.0325 15.3455 29.5228C13.6029 28.9005 12.3345 27.6795 11.5818 26.0021ZM31.8228 51.3701C26.7611 44.791 22.9855 46.6047 19.6486 51.3701H31.8228ZM9.86264 47.34C9.86285 47.3314 9.86295 47.3228 9.86295 47.314V44.1729C9.86295 44.1645 9.86285 44.1562 9.86264 44.1479V43.1729H3.33099L3.41503 43.2571C3.9419 43.7854 4.47042 44.3154 4.99918 44.8457C5.00974 44.8572 5.02064 44.8687 5.03189 44.88C5.34326 45.1928 5.65468 45.5057 5.9659 45.8185C6.69854 46.5547 7.43009 47.2898 8.15745 48.0196C8.17793 48.0401 8.19888 48.0595 8.22025 48.0778C8.7712 48.6311 9.31921 49.1818 9.86264 49.7282V47.34Z" fill="white"/>
<path d="M5.02045 11.3798V9.93359H21.4385V11.3798H5.02045Z" fill="white"/>
<path d="M14.7119 14.7528H5.05072V13.1821C8.12095 13.1821 11.1082 13.1406 14.0895 13.1999C15.2275 13.2236 14.8304 14.0415 14.7119 14.7468V14.7528Z" fill="white"/>
<path d="M37.9753 29.9735V31.3071H36.5765C36.5409 30.8922 36.5113 30.4892 36.4698 29.9735H37.9753Z" fill="white"/>
<path d="M14.7881 21.5508V22.9851H13.3242V21.6278C13.7746 21.6041 14.1954 21.5804 14.7881 21.5508Z" fill="white"/>
</svg>
