<svg width="57" height="57" viewBox="0 0 57 57" fill="none" xmlns="http://www.w3.org/2000/svg">
<path d="M-0.000213623 28.5123C-0.000213623 12.7541 12.7428 0 28.4875 0C44.2144 0 57.0065 12.7586 56.9998 28.4364C56.9909 44.2771 44.2679 57.0112 28.4518 57.0022C12.7428 56.9933 -0.000213623 44.2347 -0.000213623 28.5123ZM31.4201 32.5443C31.3733 32.5711 31.3265 32.6001 31.2796 32.6269C31.2796 33.626 31.2373 34.6295 31.2908 35.6264C31.3555 36.8931 30.6151 37.609 29.6606 38.1933C29.2658 38.4341 28.8934 38.2892 28.6347 37.939C28.3872 37.6045 28.405 37.2365 28.6793 36.9176C28.8354 36.737 29.0763 36.6233 29.2101 36.4315C29.3773 36.1951 29.5736 35.9141 29.587 35.642C29.6338 34.7343 29.5959 33.8244 29.6093 32.9145C29.616 32.4708 29.4376 32.2723 28.9804 32.2812C28.0348 32.2968 27.087 32.2968 26.1414 32.2812C25.0085 32.2634 24.1611 31.5051 24.0518 30.3811C24.0094 29.9552 23.8265 29.7901 23.4184 29.7946C22.7315 29.8013 22.0447 29.808 21.36 29.7946C20.0286 29.7656 19.1812 28.907 19.1589 27.5823C19.1544 27.3794 19.1433 27.172 19.1611 26.9712C19.2079 26.4583 18.9738 26.2754 18.4764 26.2844C17.4573 26.3022 16.4359 26.2844 15.4145 26.2911C14.8034 26.2955 14.2949 26.0814 13.8668 25.6532C13.0795 24.866 12.2923 24.0788 11.505 23.2915C11.0925 22.8789 10.8806 22.3839 10.8851 21.7951C10.8918 21.0525 10.8762 20.3098 10.8895 19.5694C10.9118 18.3183 11.7504 17.482 12.9925 17.4686C14.0139 17.4597 15.0331 17.482 16.0545 17.4553C16.3154 17.4486 16.6165 17.3705 16.8217 17.2211C18.5768 15.9477 20.3208 14.6564 22.0514 13.3496C22.2142 13.2269 22.3547 12.9593 22.3591 12.7564C22.3792 11.4272 22.5175 11.4094 21.1593 11.4428C21.1214 11.4428 21.0857 11.4428 21.0478 11.4406C19.7499 11.3625 18.9381 10.5084 18.9292 9.20153C18.9247 8.58825 18.9091 7.97719 18.9359 7.3639C18.9515 6.99593 18.8355 6.74616 18.5367 6.51645C17.8319 5.97453 17.1674 5.38131 16.4649 4.83716C16.3511 4.74796 16.088 4.73458 15.9564 4.80371C11.039 7.43081 7.29233 11.222 4.68084 16.1462C4.52919 16.4316 4.61616 16.5721 4.81911 16.7505C5.26513 17.1408 5.69332 17.5534 6.13489 17.9503C6.66343 18.4231 6.92881 19.0007 6.90874 19.7188C6.8909 20.4057 6.93773 21.0948 6.89536 21.7773C6.86414 22.2724 7.04924 22.6069 7.39045 22.9392C8.69508 24.2059 9.97518 25.4971 11.2642 26.7795C11.9377 27.4507 12.1674 28.2803 11.7459 29.1166C11.4092 29.7857 11.3467 30.4413 11.3601 31.1483C11.3735 31.8352 11.3802 32.522 11.3556 33.2067C11.3422 33.5814 11.4716 33.8222 11.7794 34.0408C13.249 35.0778 14.6919 36.1505 16.166 37.1786C16.951 37.725 17.3212 38.423 17.2922 39.3864C17.2543 40.7022 17.3034 42.0202 17.2744 43.3382C17.261 43.9693 17.3525 44.5469 17.6825 45.0889C18.5835 46.5697 19.0496 48.1531 18.8243 49.9015C18.8199 49.9372 18.8243 49.9751 18.8243 50.013C18.8043 50.4635 19.0273 50.653 19.4689 50.6419C19.9327 50.6307 20.3966 50.6307 20.8605 50.6419C21.2976 50.6508 21.505 50.4724 21.496 50.013C21.476 49.1789 21.5518 48.3382 21.476 47.5085C21.3622 46.2597 21.7637 45.2784 22.7828 44.5737C23.7886 43.8779 24.2458 42.9858 24.0518 41.7459C23.9492 41.0835 24.2436 40.5126 24.7498 40.0688C25.0152 39.8369 25.2895 39.6161 25.566 39.3976C26.0834 38.9827 26.5562 38.9694 26.893 39.3552C27.2431 39.7521 27.1851 40.3164 26.6164 40.6799C25.8448 41.1727 25.575 41.8172 25.711 42.6848C25.7288 42.794 25.711 42.9078 25.7132 43.0193C25.74 43.7508 25.4835 44.3551 24.9394 44.848C24.4443 45.2963 23.9447 45.7423 23.4876 46.2284C23.3181 46.4091 23.1843 46.699 23.1753 46.9443C23.1419 48.0014 23.1664 49.0585 23.1597 50.1156C23.153 51.4336 22.2877 52.2989 20.9608 52.3189C20.4234 52.3279 19.8837 52.3279 19.3462 52.3189C18.0304 52.2966 17.0715 51.4113 17.1674 50.1067C17.2833 48.5076 16.931 47.0714 16.1214 45.7178C16.0657 45.6219 16.001 45.5237 15.9765 45.4189C15.8449 44.8681 15.6353 44.3172 15.6152 43.7619C15.5639 42.3168 15.5817 40.8672 15.6085 39.4221C15.6152 38.9984 15.4658 38.7464 15.129 38.5077C13.6437 37.4618 12.1808 36.3846 10.7 35.332C10.0131 34.8414 9.66742 34.1991 9.6808 33.3494C9.69641 32.3303 9.64735 31.3066 9.70087 30.2897C9.72763 29.7879 9.84583 29.2571 10.0666 28.8111C10.2985 28.3495 10.216 28.0841 9.87482 27.7518C8.57019 26.4851 7.29456 25.1894 5.99439 23.9182C5.47254 23.4097 5.20492 22.821 5.22499 22.085C5.24729 21.3245 5.23837 20.5641 5.22499 19.8036C5.22276 19.6296 5.19377 19.4066 5.08449 19.2951C4.68976 18.887 4.25711 18.5146 3.8267 18.1176C-0.466312 27.4083 1.16838 41.5095 12.5153 50.0442C23.3582 58.1998 38.1618 56.4715 46.8549 48.0103C41.71 42.8543 36.5651 37.7004 31.4201 32.5443ZM48.048 46.8239C55.0729 39.5336 57.5573 27.9681 53.0814 17.7652C48.3223 6.91119 37.9254 1.82202 29.3907 1.73727V6.08604C29.8747 6.1351 30.3162 6.17747 30.7556 6.2243C31.1971 6.27114 31.6454 6.29567 32.0803 6.37818C40.392 7.95935 46.2149 12.6404 49.3928 20.4838C50.0239 22.0426 50.2915 23.7576 50.664 25.4124C50.8045 26.0413 50.3741 26.4494 49.7898 26.3981C49.2322 26.349 49.0873 25.9454 48.9936 25.4793C48.813 24.5738 48.6925 23.6439 48.4093 22.7697C45.7956 14.6341 40.2738 9.73008 31.8996 8.05301C31.0767 7.88798 30.227 7.85899 29.3484 7.7631C29.3484 9.21045 29.3372 10.5463 29.3662 11.8799C29.3684 12.0026 29.6182 12.1988 29.7765 12.2256C30.45 12.3438 31.1414 12.3683 31.8104 12.5044C42.4883 14.6765 48.0993 26.8129 42.8161 36.3423C42.2095 37.4373 41.4245 38.4319 40.7421 39.4422C41.7234 40.4256 42.7403 41.4448 43.7751 42.4796C43.7996 42.4573 43.8554 42.4127 43.9044 42.3614C46.148 39.8614 47.7403 37.0002 48.5275 33.7352C48.8553 32.3726 48.9958 30.9654 49.1943 29.5738C49.2768 28.9895 49.5957 28.6104 50.0819 28.6394C50.5792 28.6684 50.8803 29.0542 50.8736 29.6563C50.8736 29.7857 50.8669 29.9172 50.858 30.0466C50.5101 34.44 49.065 38.423 46.4111 41.9533C45.9472 42.5688 45.4455 43.1576 44.9771 43.7396C46.0141 44.7833 47.0199 45.7936 48.048 46.8284V46.8239ZM29.4019 30.6108C29.2324 30.4302 29.1677 30.3387 29.083 30.2718C27.9612 29.3709 27.6289 28.1889 27.6378 26.7772C27.678 20.5797 27.6557 14.3844 27.6557 8.18682V7.47318C25.7445 7.85453 24.5179 7.33491 23.5433 5.78497C23.4853 5.6913 23.4184 5.59095 23.3292 5.53073C22.2855 4.81932 21.4537 3.91612 20.8627 2.74753C19.8703 3.10881 18.9158 3.45671 17.9412 3.8113C18.0126 3.92058 18.026 3.95849 18.0527 3.98079C18.2958 4.1815 18.5367 4.38444 18.7864 4.57847C20.7869 6.11949 20.6018 6.09719 20.6062 8.40091C20.6085 9.68324 20.4033 9.77022 21.9064 9.77022C23.211 9.77022 24.0384 10.6489 24.0496 11.9535C24.0496 12.2122 24.0406 12.4731 24.0496 12.7318C24.0852 13.5837 23.724 14.2238 23.046 14.7233C21.2976 16.0079 19.5558 17.2992 17.8163 18.5971C17.3034 18.9807 16.7436 19.1569 16.108 19.1502C15.1246 19.139 14.1411 19.1591 13.1576 19.1412C12.7272 19.1346 12.5488 19.3018 12.5621 19.7322C12.58 20.3433 12.5376 20.9588 12.58 21.5676C12.5978 21.8152 12.7182 22.1051 12.8877 22.2857C13.5322 22.9771 14.2013 23.6506 14.8949 24.2906C15.0889 24.469 15.4011 24.5917 15.6665 24.6028C16.6121 24.6408 17.5576 24.6162 18.5054 24.6185C20.013 24.6207 20.8292 25.4414 20.8359 26.9623C20.8359 27.1474 20.8404 27.3325 20.8359 27.5199C20.827 27.9391 21.03 28.1242 21.4492 28.1198C22.1361 28.1108 22.823 28.1019 23.5076 28.1242C24.7944 28.1666 25.5214 28.82 25.7021 30.1023C25.7489 30.4391 25.885 30.6153 26.2239 30.6175C27.2386 30.6197 28.2556 30.6175 29.3996 30.6175L29.4019 30.6108ZM39.4642 38.1665C43.3558 33.9404 44.317 27.4953 41.5427 21.9066C38.706 16.193 33.0615 13.8848 29.3461 13.9763C29.3461 15.3233 29.335 16.6725 29.3662 18.0217C29.3684 18.1399 29.6427 18.3339 29.8078 18.354C35.7644 19.0632 39.8969 25.0466 38.4629 30.8851C38.0749 32.4618 37.3456 33.8557 36.351 35.0755C37.3924 36.1103 38.4138 37.1273 39.462 38.1687L39.4642 38.1665ZM29.3818 20.0757C29.3707 20.1604 29.3484 20.2474 29.3484 20.3366C29.3484 22.7117 29.3484 25.0845 29.3439 27.4596C29.3439 27.977 29.5513 28.3785 29.9126 28.7375C31.5473 30.3566 33.1686 31.9868 34.7966 33.6126C34.8947 33.7107 35.0107 33.7888 35.1155 33.8757C37.2363 31.5029 37.6333 27.6983 36.1324 24.6653C34.7564 21.8821 31.8126 20.0578 29.3773 20.0779L29.3818 20.0757ZM22.6423 2.25021C22.6156 2.32826 22.5866 2.40631 22.5598 2.48214C22.9791 2.91702 23.3604 3.39872 23.8265 3.77562C24.3796 4.22164 24.8368 4.70558 25.236 5.30995C25.4657 5.65785 26.1057 5.77159 26.5852 5.89201C26.6856 5.91655 26.8952 5.49951 27.0513 5.28319C27.1048 5.20959 27.1271 5.09363 27.1963 5.04902C27.736 4.7145 27.6624 4.18596 27.6579 3.67303C27.6534 3.01514 27.6579 2.35948 27.6579 1.61239C25.9028 1.8354 24.2748 2.04057 22.6446 2.24798L22.6423 2.25021Z" fill="white"/>
</svg>
