<svg width="51" height="51" viewBox="0 0 51 51" fill="none" xmlns="http://www.w3.org/2000/svg">
<path d="M24.8743 28.2809C24.9633 28.4149 25.1073 28.4829 25.2503 28.4829C25.3933 28.4829 25.5373 28.4159 25.6263 28.2809L38.2693 9.23786C38.3183 9.16386 38.3563 9.08586 38.3893 9.00586H35.2503L25.6263 23.5019C25.5373 23.6359 25.3933 23.7039 25.2503 23.7039C25.1073 23.7039 24.9633 23.6369 24.8743 23.5019L15.2503 9.00586H12.1123C12.1453 9.08486 12.1823 9.16386 12.2323 9.23786L24.8743 28.2809Z" fill="white"/>
<path d="M25.2503 32.3209L9.77129 9.00586H8.57129L24.8343 33.5019C24.9263 33.6409 25.0823 33.7239 25.2503 33.7239C25.4173 33.7239 25.5743 33.6409 25.6663 33.5019L41.9273 9.00586H40.7293L25.2503 32.3209Z" fill="white"/>
<path d="M47.1452 7.98053C47.1202 7.88853 47.0852 7.79153 47.0432 7.69653C47.0232 7.64853 47.0002 7.60053 46.9762 7.55653C46.9542 7.51553 46.9282 7.47353 46.9002 7.43353C46.8492 7.35453 46.7942 7.28053 46.7352 7.21153C46.7082 7.17953 46.6792 7.14753 46.6522 7.11953C46.5442 7.00953 46.4212 6.91053 46.2872 6.82553C46.2522 6.80353 46.1992 6.77353 46.1622 6.75453C46.0782 6.70853 45.9642 6.65953 45.8472 6.62053C45.8152 6.61053 45.7512 6.59053 45.7192 6.58253C45.5502 6.54053 45.3932 6.52053 45.2342 6.52053H29.7252C29.0582 6.52053 28.4402 6.85253 28.0722 7.40753L25.2502 11.6575L22.4282 7.40653C22.0602 6.85153 21.4422 6.51953 20.7752 6.51953H5.2672C5.1072 6.51953 4.9502 6.53953 4.7872 6.58053C4.7482 6.59053 4.6842 6.60953 4.6462 6.62253C4.5402 6.65853 4.4242 6.70753 4.3162 6.76753C4.2902 6.78153 4.2382 6.81053 4.2142 6.82653C4.0792 6.91053 3.9562 7.00953 3.8492 7.11953C3.8242 7.14553 3.7972 7.17553 3.7712 7.20553C3.7102 7.27453 3.6502 7.35453 3.5952 7.44153C3.5672 7.48453 3.5402 7.52853 3.5172 7.57253C3.4952 7.61253 3.4752 7.65553 3.4562 7.69953C3.4172 7.78853 3.3842 7.87953 3.3582 7.97053C3.3462 8.01053 3.3362 8.05053 3.3272 8.08853C3.2992 8.22553 3.2832 8.36653 3.2832 8.50553V11.8935C3.2832 12.9305 4.0842 13.7855 5.1002 13.8705V14.6305C5.1002 15.6685 5.9012 16.5225 6.9172 16.6075V17.3675C6.9172 18.4045 7.7182 19.2595 8.7342 19.3445V20.1045C8.7342 21.1425 9.5352 21.9965 10.5512 22.0815V22.8415C10.5512 23.8795 11.3522 24.7335 12.3682 24.8185V25.5785C12.3682 26.6155 13.1692 27.4705 14.1852 27.5555V28.3155C14.1852 29.3535 14.9862 30.2075 16.0022 30.2925V31.0525C16.0022 32.0905 16.8032 32.9445 17.8192 33.0295V33.7895C17.8192 34.8265 18.6202 35.6815 19.6362 35.7665V36.5265C19.6362 37.5645 20.4372 38.4185 21.4532 38.5035V39.2635C21.4532 40.3015 22.2542 41.1555 23.2702 41.2405V42.0005C23.2702 43.0945 24.1602 43.9845 25.2542 43.9845C26.3482 43.9845 27.2382 43.0945 27.2382 42.0005V41.2405C28.2542 41.1555 29.0552 40.3015 29.0552 39.2635V38.5035C30.0712 38.4185 30.8722 37.5645 30.8722 36.5265V35.7665C31.8882 35.6815 32.6892 34.8275 32.6892 33.7895V33.0295C33.7002 32.9395 34.5002 32.0855 34.5002 31.0475V30.2875C35.5162 30.2025 36.3172 29.3485 36.3172 28.3105V27.5505C37.3332 27.4655 38.1342 26.6115 38.1342 25.5735V24.8135C39.1502 24.7285 39.9512 23.8745 39.9512 22.8365V22.0765C40.9672 21.9915 41.7682 21.1375 41.7682 20.0995V19.3395C42.7842 19.2545 43.5852 18.4005 43.5852 17.3625V16.6025C44.6012 16.5175 45.4022 15.6635 45.4022 14.6255V13.8655C46.4182 13.7805 47.2192 12.9265 47.2192 11.8885V8.50553C47.2192 8.36653 47.2042 8.22553 47.1742 8.08753C47.1642 8.05353 47.1552 8.01653 47.1452 7.98053ZM45.7332 11.8935C45.7332 12.1695 45.5092 12.3935 45.2332 12.3935C44.9572 12.3935 44.7332 12.1695 44.7332 11.8935V10.1615L43.9152 11.3925V14.6295C43.9152 14.9055 43.6912 15.1295 43.4152 15.1295C43.1392 15.1295 42.9152 14.9055 42.9152 14.6295V12.8975L42.0972 14.1285V17.3655C42.0972 17.6415 41.8732 17.8655 41.5972 17.8655C41.3212 17.8655 41.0972 17.6415 41.0972 17.3655V15.6335L40.2792 16.8655V20.1025C40.2792 20.3785 40.0552 20.6025 39.7792 20.6025C39.5032 20.6025 39.2792 20.3785 39.2792 20.1025V18.3705L38.4612 19.6015V22.8385C38.4612 23.1145 38.2372 23.3385 37.9612 23.3385C37.6852 23.3385 37.4612 23.1145 37.4612 22.8385V21.1065L36.6432 22.3375V25.5745C36.6432 25.8505 36.4192 26.0745 36.1432 26.0745C35.8672 26.0745 35.6432 25.8505 35.6432 25.5745V23.8425L34.8252 25.0745V28.3115C34.8252 28.5875 34.6012 28.8115 34.3252 28.8115C34.0492 28.8115 33.8252 28.5875 33.8252 28.3115V26.5795L33.0072 27.8105V31.0475C33.0072 31.3235 32.7832 31.5475 32.5072 31.5475C32.2312 31.5475 32.0072 31.3235 32.0072 31.0475V29.3155L31.1892 30.5475V33.7845C31.1892 34.0605 30.9652 34.2845 30.6892 34.2845C30.4132 34.2845 30.1892 34.0605 30.1892 33.7845V32.0525L29.3712 33.2835V36.5205C29.3712 36.7965 29.1472 37.0205 28.8712 37.0205C28.5952 37.0205 28.3712 36.7965 28.3712 36.5205V34.7885L27.5532 36.0195V39.2565C27.5532 39.5325 27.3292 39.7565 27.0532 39.7565C26.7772 39.7565 26.5532 39.5325 26.5532 39.2565V37.5245L25.7352 38.7565V41.9935C25.7352 42.2695 25.5112 42.4935 25.2352 42.4935C24.9592 42.4935 24.7352 42.2695 24.7352 41.9935V38.7565L23.9172 37.5245V39.2565C23.9172 39.5325 23.6932 39.7565 23.4172 39.7565C23.1412 39.7565 22.9172 39.5325 22.9172 39.2565V36.0195L22.0992 34.7885V36.5205C22.0992 36.7965 21.8752 37.0205 21.5992 37.0205C21.3232 37.0205 21.0992 36.7965 21.0992 36.5205V33.2835L20.3002 32.0525V33.7845C20.3002 34.0605 20.0762 34.2845 19.8002 34.2845C19.5242 34.2845 19.3002 34.0605 19.3002 33.7845V30.5475L18.4822 29.3165V31.0485C18.4822 31.3245 18.2582 31.5485 17.9822 31.5485C17.7062 31.5485 17.4822 31.3245 17.4822 31.0485V27.8115L16.6642 26.5805V28.3125C16.6642 28.5885 16.4402 28.8125 16.1642 28.8125C15.8882 28.8125 15.6642 28.5885 15.6642 28.3125V25.0755L14.8462 23.8445V25.5765C14.8462 25.8525 14.6222 26.0765 14.3462 26.0765C14.0702 26.0765 13.8462 25.8525 13.8462 25.5765V22.3395L13.0282 21.1085V22.8405C13.0282 23.1165 12.8042 23.3405 12.5282 23.3405C12.2522 23.3405 12.0282 23.1165 12.0282 22.8405V19.6035L11.2102 18.3725V20.1045C11.2102 20.3805 10.9862 20.6045 10.7102 20.6045C10.4342 20.6045 10.2102 20.3805 10.2102 20.1045V16.8675L9.4002 15.6345V17.3665C9.4002 17.6425 9.1762 17.8665 8.9002 17.8665C8.6242 17.8665 8.4002 17.6425 8.4002 17.3665V14.1295L7.5822 12.8975V14.6295C7.5822 14.9055 7.3582 15.1295 7.0822 15.1295C6.8062 15.1295 6.5822 14.9055 6.5822 14.6295V11.3925L5.7642 10.1615V11.8935C5.7642 12.1695 5.5402 12.3935 5.2642 12.3935C4.9882 12.3935 4.7642 12.1695 4.7642 11.8935V8.50553C4.7642 8.46953 4.7682 8.43353 4.7762 8.39953C4.7802 8.39453 4.7832 8.38853 4.7842 8.38353C4.7932 8.34853 4.8052 8.31553 4.8212 8.28453C4.8242 8.27953 4.8242 8.27453 4.8272 8.26953C4.8302 8.26453 4.8342 8.26053 4.8372 8.25553C4.8542 8.22553 4.8742 8.19753 4.8972 8.17253C4.9022 8.16653 4.9052 8.16153 4.9102 8.15653C4.9382 8.12853 4.9692 8.10453 5.0022 8.08353C5.0112 8.07853 5.0202 8.07353 5.0292 8.06953C5.0562 8.05453 5.0842 8.04253 5.1142 8.03253C5.1242 8.02853 5.1352 8.02553 5.1452 8.02253C5.1842 8.01253 5.2242 8.00653 5.2662 8.00653H20.7742C20.9412 8.00653 21.0982 8.09053 21.1902 8.22953L25.2482 14.3435L29.3072 8.22953C29.4002 8.08953 29.5562 8.00653 29.7232 8.00653H45.2312C45.2732 8.00653 45.3132 8.01353 45.3522 8.02253C45.3632 8.02553 45.3732 8.02853 45.3832 8.03253C45.4132 8.04253 45.4412 8.05453 45.4682 8.06953C45.4772 8.07453 45.4862 8.07853 45.4952 8.08353C45.5292 8.10453 45.5602 8.12853 45.5872 8.15653C45.5922 8.16153 45.5952 8.16653 45.6002 8.17153C45.6232 8.19653 45.6432 8.22453 45.6602 8.25453C45.6632 8.25953 45.6672 8.26353 45.6702 8.26853C45.6732 8.27353 45.6732 8.27853 45.6762 8.28353C45.6922 8.31453 45.7042 8.34753 45.7132 8.38253C45.7172 8.38953 45.7202 8.39453 45.7212 8.39953C45.7282 8.43353 45.7332 8.46853 45.7332 8.50553V11.8935Z" fill="white"/>
<path d="M25.2499 20.3949C25.4169 20.3949 25.5739 20.3099 25.6659 20.1709L33.0779 9.00488H31.8799L25.2499 18.9919L18.6199 9.00488H17.4209L24.8339 20.1709C24.9259 20.3109 25.0829 20.3949 25.2499 20.3949Z" fill="white"/>
</svg>
