<svg width="47" height="58" viewBox="0 0 47 58" fill="none" xmlns="http://www.w3.org/2000/svg">
<path d="M42.48 16.08C42.1944 11.9061 40.4059 7.97703 37.4457 5.02054C34.4855 2.06406 30.5543 0.280438 26.38 0H24.08C19.9107 0.289193 15.9866 2.07618 13.0314 5.03139C10.0762 7.98661 8.28919 11.9107 8 16.08V18.37C8.28153 22.5507 10.0708 26.4871 13.0356 29.4482C16.0003 32.4093 19.939 34.1937 24.12 34.47H26.41C30.589 34.1932 34.5252 32.408 37.4866 29.4466C40.448 26.4852 42.2332 22.549 42.51 18.37V16.08H42.48ZM18.77 3.71C17.5603 5.35896 16.6405 7.20201 16.05 9.16H12.59C14.0981 6.80347 16.2353 4.9157 18.76 3.71H18.77ZM11.39 11.47H15.44C15.1199 12.9911 14.9292 14.5367 14.87 16.09H10.28C10.399 14.5014 10.7703 12.9418 11.38 11.47H11.39ZM10.29 18.38H14.87C14.9292 19.9333 15.1199 21.4789 15.44 23H11.39C10.7803 21.5282 10.409 19.9686 10.29 18.38ZM12.6 25.31H16C16.5935 27.2687 17.5168 29.1117 18.73 30.76C16.2053 29.5543 14.0681 27.6665 12.56 25.31H12.6ZM24.09 32.08C21.71 31.45 19.67 28.91 18.44 25.31H24.09V32.08ZM24.09 23H17.77C17.4304 21.4814 17.2296 19.935 17.17 18.38H24.07L24.09 23ZM24.09 16.09H17.19C17.2496 14.535 17.4504 12.9886 17.79 11.47H24.1L24.09 16.09ZM24.09 9.16H18.43C19.67 5.57 21.71 3.02 24.08 2.39L24.09 9.16ZM37.87 9.16H34.42C33.8265 7.20134 32.9032 5.35825 31.69 3.71C34.2147 4.9157 36.3519 6.80347 37.86 9.16H37.87ZM26.38 2.39C28.76 3.02 30.8 5.56 32.03 9.16H26.38V2.39ZM26.38 11.47H32.69C33.024 12.9896 33.2248 14.5355 33.29 16.09H26.39L26.38 11.47ZM26.38 18.38H33.28C33.2205 19.935 33.0197 21.4814 32.68 23H26.38V18.38ZM26.38 32.07V25.31H32C30.76 28.9 28.72 31.45 26.35 32.08L26.38 32.07ZM31.7 30.75C32.906 29.0974 33.8286 27.2555 34.43 25.3H37.88C36.3719 27.6565 34.2347 29.5443 31.71 30.75H31.7ZM39.07 23H35C35.3201 21.4789 35.5108 19.9333 35.57 18.38H40.15C40.0374 19.9675 39.6728 21.527 39.07 23ZM35.59 16.09C35.5248 14.5327 35.3274 12.9838 35 11.46H39.05C39.6597 12.9318 40.031 14.4914 40.15 16.08L35.59 16.09Z" fill="white"/>
<path d="M45.3249 36H37.0249C36.5249 36 36.2249 36.4 36.2249 36.8V38.8C34.6249 38.3 29.4249 37.1 25.6249 40.3C24.7249 41.1 24.0249 41.8 23.4249 42.4C21.7249 44.1 20.8249 45 18.3249 44.9C15.1249 44.8 13.3249 44.7 12.1249 45.8C11.6249 46.3 11.2249 47.2 11.0249 48.1C9.82489 47.6 8.82489 46.8 7.72488 45.9C7.22488 45.5 6.72489 45.1 6.32489 44.7C4.52489 43.1 3.62489 42.4 1.72489 43.2C0.424886 43.8 0.124885 44.6 0.0248854 45.3C-0.175115 46.8 0.824885 48.6 3.22489 50.7C8.52489 55.3 12.4249 56.8 20.4249 57L22.2249 57.1C23.9249 57.2 25.4249 57.2 26.8249 57.2C30.7249 57.2 33.3249 56.7 36.1249 54.7V56.1C36.1249 56.6 36.5249 56.9 36.9249 56.9H45.2249C45.7249 56.9 46.0249 56.5 46.0249 56.1V36.8C46.1249 36.4 45.7249 36 45.3249 36ZM36.1249 52.5C36.0249 52.5 36.0249 52.6 35.9249 52.6C32.1249 55.7 29.2249 55.6 22.2249 55.3L20.4249 55.2C12.8249 54.9 9.42489 53.7 4.32489 49.3C1.82489 47 1.72489 45.9 1.72489 45.6C1.72489 45.5 1.82489 45.2 2.42489 44.9C3.22489 44.6 3.32489 44.6 5.12489 46.2C5.52489 46.5 5.92489 46.9 6.52489 47.4C9.62489 50 11.5249 51 18.6249 51.4C25.9249 51.8 28.5249 48.2 28.7249 47.8C29.0249 47.4 28.9249 46.8 28.5249 46.6C28.1249 46.3 27.5249 46.4 27.3249 46.8C27.2249 46.9 25.1249 49.9 18.7249 49.6C16.0249 49.5 14.1249 49.2 12.7249 48.8C12.8249 47.9 13.1249 47.3 13.3249 47.1C13.9249 46.5 15.5249 46.6 18.2249 46.7C21.4249 46.8 22.7249 45.5 24.5249 43.7C25.1249 43.1 25.8249 42.4 26.6249 41.7C30.2249 38.6 35.8249 40.6 35.9249 40.6C36.0249 40.6 36.0249 40.6 36.1249 40.6V52.5ZM44.4249 55.3H37.8249V37.7H44.4249V55.3Z" fill="white"/>
<path d="M41.1246 50.0002C41.6246 50.0002 42.0246 49.6002 42.0246 49.1002V40.1002C42.0246 39.6002 41.6246 39.2002 41.1246 39.2002C40.6246 39.2002 40.2246 39.6002 40.2246 40.1002V49.1002C40.2246 49.6002 40.6246 50.0002 41.1246 50.0002Z" fill="white"/>
<path d="M41.0248 53.4998C41.6323 53.4998 42.1248 53.0073 42.1248 52.3998C42.1248 51.7923 41.6323 51.2998 41.0248 51.2998C40.4173 51.2998 39.9248 51.7923 39.9248 52.3998C39.9248 53.0073 40.4173 53.4998 41.0248 53.4998Z" fill="white"/>
</svg>
