<svg width="51" height="51" viewBox="0 0 51 51" fill="none" xmlns="http://www.w3.org/2000/svg">
<path d="M5.73367 9.62165C5.73367 8.21245 5.73367 6.82526 5.73367 5.43587C5.74028 2.29379 8.03244 0.00382887 11.1767 0.00162699C14.0149 -0.000574895 16.8532 -0.00277678 19.6936 0.00162699C22.7718 0.00603075 25.075 2.3048 25.0838 5.37422C25.0882 6.78122 25.0838 8.19043 25.0838 9.67229C26.1143 9.67229 27.1117 9.67009 28.1114 9.67229C28.4219 9.67229 28.7411 9.65248 29.0406 9.72074C29.9632 9.93432 30.5577 10.52 30.7449 11.4514C30.9276 12.363 30.6105 13.127 29.8597 13.6599C27.9507 15.0163 26.0196 16.3396 24.1062 17.6915C23.8486 17.8743 23.6152 18.1231 23.4346 18.3851C21.4419 21.2916 18.7336 22.9254 15.1687 22.8418C11.7955 22.7625 9.22806 21.1419 7.35205 18.3697C7.16269 18.0901 6.91388 17.8303 6.64085 17.6365C4.81769 16.3506 2.97691 15.0867 1.14495 13.8118C0.160707 13.1292 -0.204806 12.2111 0.110063 11.2224C0.429336 10.214 1.23523 9.6745 2.42644 9.67229C3.47014 9.67229 4.51383 9.66789 5.55752 9.66569C5.59275 9.66569 5.62578 9.64807 5.73367 9.61945V9.62165ZM7.6361 14.0937C7.99941 17.3811 10.9037 21.0032 15.237 21.0957C19.196 21.1793 22.7366 18.035 23.1638 14.0937H7.6361ZM7.45334 6.99481H23.3157C23.3157 6.31663 23.3487 5.67588 23.3091 5.03953C23.2012 3.25601 21.7171 1.79176 19.9314 1.77194C16.9126 1.74111 13.8916 1.74332 10.8729 1.77194C9.28531 1.78735 7.88931 2.95435 7.60967 4.51549C7.46655 5.31477 7.50178 6.14488 7.45334 6.99481ZM15.4109 12.3101C19.7156 12.3101 24.0203 12.3101 28.325 12.3101C28.6575 12.3101 29.0054 12.2881 29.0098 11.872C29.012 11.458 28.6685 11.4118 28.3338 11.4294C28.2787 11.4316 28.2237 11.4294 28.1687 11.4294C19.6496 11.4294 11.1327 11.4294 2.6136 11.4294C2.46608 11.4294 2.28552 11.381 2.18203 11.4492C2.0213 11.5549 1.83194 11.7289 1.80992 11.894C1.7945 12.0107 2.01689 12.2045 2.17323 12.2815C2.30534 12.3476 2.4969 12.3035 2.65984 12.3035C6.90948 12.3035 11.1591 12.3035 15.4087 12.3035L15.4109 12.3101ZM23.2981 8.83118H7.5194V9.64367H23.2981V8.83118ZM24.8328 15.0295C25.326 14.686 25.7003 14.4262 26.1804 14.0937H25.0112C24.9605 14.3645 24.9099 14.6221 24.835 15.0295H24.8328ZM4.62392 14.0915C5.13696 14.435 5.50908 14.686 5.96046 14.9876C5.8834 14.6067 5.83276 14.3491 5.77991 14.0915H4.62172H4.62392Z" fill="white"/>
<path d="M26.9396 27.0163C26.1094 28.0622 25.308 29.0751 24.4668 30.1342C23.4936 29.5749 22.4719 29.0134 21.4789 28.4057C21.0627 28.1525 21.0297 27.7231 21.2014 27.2849C21.3666 26.86 21.5339 26.4372 21.7387 25.9132C21.327 25.8207 20.9504 25.737 20.5365 25.6467C20.171 26.8886 19.8209 28.0754 19.473 29.2644C19.1713 30.2927 18.9533 30.427 17.8942 30.2619C17.3878 30.1826 16.8792 30.1276 16.3309 30.0571V42.2071H16.8968C18.8212 42.2071 20.7435 42.2137 22.6679 42.2005C22.9894 42.1983 23.1611 42.2753 23.2536 42.6078C23.3747 43.0438 23.5641 43.46 23.7468 43.94C23.5266 43.951 23.3351 43.9664 23.1457 43.9664C16.0006 43.9664 8.85549 43.9664 1.71259 43.9664C0.710731 43.9664 0.461918 43.7132 0.461918 42.6959C0.461918 40.1681 0.457514 37.6404 0.461918 35.1126C0.475129 29.3679 4.80183 24.5106 10.5091 23.839C11.0177 23.7795 11.5308 23.7421 12.0416 23.7465C14.86 23.7729 17.6894 23.6871 20.4968 23.8874C23.0136 24.068 25.156 25.2746 26.9418 27.0163H26.9396ZM3.97612 42.1807V41.5311C3.97612 39.7366 3.97612 37.942 3.97612 36.1475C3.97612 36.0198 3.97172 35.8899 3.97612 35.7622C3.99814 35.1897 4.32402 34.8396 4.83926 34.8308C5.37652 34.822 5.73102 35.1809 5.73322 35.7842C5.74203 37.7241 5.73543 39.6661 5.73543 41.606C5.73543 41.7975 5.73543 41.9891 5.73543 42.1719H14.5011V30.0505C13.9683 30.1188 13.4618 30.1738 12.9598 30.2487C11.8412 30.4138 11.6607 30.3037 11.3414 29.2402C10.9869 28.0556 10.6302 26.8732 10.2603 25.6445C9.84634 25.737 9.48303 25.8185 9.06687 25.9132C9.26284 26.4218 9.42578 26.8622 9.59973 27.2981C9.8001 27.8002 9.6768 28.2031 9.2144 28.4739C8.22135 29.0574 7.2239 29.6321 6.21544 30.1914C5.71781 30.4689 5.33028 30.3632 4.96697 29.9052C4.7666 29.6542 4.57724 29.3943 4.36145 29.1081C3.00069 30.8322 2.27627 32.739 2.23223 34.8682C2.18379 37.211 2.21902 39.556 2.21902 41.8988C2.21902 41.9847 2.23443 42.0728 2.24544 42.1785H3.97612V42.1807ZM14.347 25.5278C14.7103 26.1289 15.0362 26.675 15.4105 27.2959C15.7892 26.6618 16.1173 26.1179 16.4696 25.5278H14.347ZM12.253 25.4838C12.2002 25.5124 12.1473 25.541 12.0945 25.5697C12.2992 26.2611 12.4996 26.9524 12.7088 27.6416C12.8776 28.2009 13.249 28.4343 13.8229 28.3418C13.8472 28.3374 13.8648 28.2956 13.911 28.2383C13.3627 27.3268 12.8079 26.4064 12.253 25.4838ZM18.7133 25.5476L18.568 25.4838C18.0065 26.4174 17.445 27.3488 16.8571 28.3264C17.2447 28.3837 17.5309 28.4255 17.8568 28.4739C18.1474 27.4787 18.4315 26.5143 18.7133 25.5498V25.5476ZM25.2243 27.7782C24.5791 27.351 24.0022 26.9701 23.3923 26.5671C23.2734 26.8754 23.1897 27.089 23.0995 27.318C23.683 27.6504 24.2312 27.9631 24.8015 28.289C24.9336 28.1305 25.0437 27.9961 25.2243 27.7804V27.7782ZM5.99525 28.2912C6.59196 27.9455 7.14023 27.6306 7.6973 27.3092C7.59822 27.0625 7.51675 26.8534 7.40005 26.5605C6.7549 27.0053 6.18241 27.3994 5.5923 27.8068C5.75745 28.0071 5.86093 28.1305 5.99525 28.2934V28.2912Z" fill="white"/>
<path d="M50.5882 37.8104C50.5882 45.0964 44.6739 51.0018 37.3813 50.9996C30.0996 50.9974 24.1986 45.0788 24.203 37.7817C24.2074 30.5045 30.1305 24.6145 37.4363 24.6211C44.6871 24.6277 50.5882 30.5464 50.5882 37.8104ZM37.3813 49.2381C43.6698 49.2447 48.8156 44.1188 48.8267 37.8368C48.8377 31.546 43.7183 26.398 37.4363 26.3804C31.1169 26.365 25.9623 31.4998 25.9645 37.8082C25.9645 44.0968 31.0949 49.2315 37.3813 49.2381Z" fill="white"/>
<path d="M23.3573 32.6509C22.5735 34.9122 22.2674 37.1736 22.558 39.5604C21.14 39.5604 19.7528 39.5868 18.3679 39.545C17.8967 39.5318 17.6148 39.1707 17.6126 38.6863C17.6016 36.9292 17.5994 35.1721 17.6126 33.415C17.617 32.8931 17.9583 32.5452 18.4758 32.5386C19.94 32.5232 21.4043 32.5298 22.8707 32.5386C23.0226 32.5386 23.1746 32.6069 23.3595 32.6509H23.3573ZM19.3807 37.7725H21.9767V36.4668C21.1048 37.3431 20.2505 37.2771 19.3807 36.4756V37.7725ZM22.0054 34.3441H19.3389C20.4574 35.3218 21.0255 35.3196 22.0054 34.3441Z" fill="white"/>
<path d="M13.2104 36.0661C13.2104 36.8896 13.2148 37.7131 13.2104 38.5366C13.2038 39.2457 12.8824 39.5649 12.1623 39.5671C10.8082 39.5715 9.45402 39.5715 8.09767 39.5671C7.37985 39.5649 7.05618 39.2457 7.05397 38.5322C7.04957 36.8676 7.04737 35.2008 7.05397 33.5362C7.05618 32.8602 7.38646 32.5365 8.07344 32.5343C9.44742 32.5277 10.8192 32.5277 12.1932 32.5343C12.8758 32.5365 13.2038 32.8624 13.2104 33.5406C13.2192 34.3817 13.2104 35.225 13.2104 36.0661ZM11.4137 37.7836V36.4735C10.5418 37.3256 9.70284 37.2926 8.85291 36.4867V37.7836H11.4137ZM8.81768 34.331C9.72486 35.3043 10.6342 35.2999 11.4225 34.331H8.81768Z" fill="white"/>
<path d="M34.587 44.8438C35.034 43.6834 35.1243 42.501 35.1661 41.3164C35.1705 41.1909 34.9701 41.0169 34.8248 40.9377C34.2171 40.6096 33.5367 40.3872 32.9906 39.982C31.3591 38.7754 31.249 36.9523 32.6295 35.4748C32.7572 35.3383 32.8167 35.0696 32.7947 34.8737C32.711 34.1074 32.7947 33.3896 33.1602 32.6938C33.3628 32.3041 33.5235 31.8725 33.5962 31.4409C33.9375 29.413 35.547 28.0699 37.6014 28.1425C39.506 28.2086 41.0253 29.7081 41.2235 31.6876C41.2499 31.9606 41.3512 32.2534 41.4987 32.4846C41.9743 33.2355 42.1042 34.0348 41.9875 34.9023C41.9633 35.0806 42.0228 35.3295 42.1417 35.4572C43.5641 36.9941 43.4364 38.8084 41.7321 40.0327C41.1046 40.4819 40.367 40.7769 39.5192 41.2261C39.6954 42.25 39.8803 43.3972 40.1027 44.5377C40.1269 44.661 40.3625 44.8218 40.5079 44.8328C41.0561 44.868 41.6066 44.8394 42.1549 44.8504C42.745 44.8614 43.1259 45.2313 43.1105 45.7532C43.0951 46.253 42.7252 46.6031 42.1593 46.6053C38.9908 46.6119 35.8223 46.6119 32.6538 46.6053C32.0548 46.6053 31.6761 46.2442 31.6783 45.7223C31.6827 45.2005 32.0592 44.857 32.6626 44.8504C33.2857 44.8416 33.9066 44.8504 34.5848 44.8504L34.587 44.8438ZM37.3812 39.5747C37.3966 39.6253 37.412 39.676 37.4274 39.7266C38.3478 39.4646 39.3189 39.3083 40.1798 38.9163C41.545 38.2954 41.851 37.2407 40.378 36.3335C39.8561 36.012 39.7416 35.5937 40.0235 35.0674C40.4044 34.3562 40.3273 33.7375 39.7658 33.1694C39.462 32.8612 39.3629 32.5199 39.4223 32.0751C39.5258 31.3 39.1911 30.6747 38.5438 30.2519C37.8216 29.7807 37.0575 29.7675 36.3155 30.2123C35.6483 30.6108 35.274 31.2274 35.3621 31.998C35.4215 32.5331 35.2828 32.9096 34.9305 33.2795C34.4659 33.7705 34.4043 34.3364 34.7081 34.9485C35.0582 35.6575 34.9657 35.957 34.2942 36.415C33.1448 37.1989 33.158 38.0488 34.3426 38.793C35.2718 39.3787 36.3133 39.5395 37.3834 39.5769L37.3812 39.5747ZM36.5401 44.802H38.2487C38.0924 43.6328 37.9405 42.5032 37.7885 41.3582H37.0025C36.8461 42.5186 36.6942 43.6504 36.5401 44.802Z" fill="white"/>
</svg>
