<svg width="49" height="49" viewBox="0 0 49 49" fill="none" xmlns="http://www.w3.org/2000/svg">
<path d="M40.7503 7.38546V5.79145C40.2359 5.79145 39.7339 5.79145 39.2318 5.79145C36.6458 5.78329 34.6273 4.02396 34.2681 1.45844C34.1415 0.55632 34.3763 0.0174996 35.4621 0.0766882C36.3417 0.123631 37.2336 0.0317865 38.1072 0.127713C39.5461 0.282828 40.6809 1.02166 41.5605 2.23197C41.6707 2.10951 41.7667 2.00338 41.8585 1.89521C42.8749 0.70123 44.1567 0.0807702 45.7323 0.0868931C46.463 0.0889341 47.1937 0.0848521 47.9223 0.0868931C48.6366 0.0909751 48.9285 0.401205 48.9122 1.12576C48.8571 3.56677 46.7161 5.71593 44.2608 5.78737C43.6668 5.80574 43.0729 5.78941 42.4014 5.78941C42.4014 6.74867 42.3831 7.69161 42.4198 8.6325C42.4259 8.78558 42.6545 8.94477 42.8015 9.07948C45.6241 11.6817 47.4998 14.8412 48.406 18.5721C50.6144 27.6688 45.6609 37.0247 36.8357 40.4352C26.1286 44.5722 14.0378 37.9002 11.8172 26.6299C11.7887 26.483 11.7438 26.3421 11.705 26.1972C11.3764 26.1646 11.0743 26.134 10.711 26.0972C10.711 26.2666 10.6988 26.4279 10.711 26.5891C10.9315 29.2261 11.156 31.865 11.3764 34.502C11.5621 36.7165 11.7458 38.933 11.9275 41.1475C12.005 42.0945 12.0846 43.0415 12.1479 43.9885C12.1683 44.2906 12.2908 44.462 12.5622 44.6151C13.8725 45.3539 14.5807 46.4948 14.6726 47.995C14.7154 48.6746 14.3848 48.991 13.697 48.993C11.9315 48.9971 10.164 48.9869 8.39859 48.9991C7.9557 49.0032 7.59648 48.9012 7.35769 48.4277C7.0597 48.9706 6.59436 49.0053 6.08411 49.0012C4.40234 48.9848 2.72261 48.9971 1.04083 48.995C0.283627 48.995 0.00809409 48.7134 0.00809409 47.946C0.00809409 40.4576 -0.0245617 32.9672 0.028504 25.4788C0.0427909 23.4297 0.312201 21.3846 0.463234 19.3354C0.5163 18.6252 0.591816 17.9149 0.618349 17.2026C0.675497 15.729 0.981645 14.3697 2.25522 13.3941C1.12451 12.5614 0.777546 11.445 0.810202 10.1204C0.855103 8.35493 0.820407 6.58948 0.822448 4.82198C0.822448 1.9197 2.95528 0.133836 5.84736 0.525705C6.99643 0.68082 8.17408 0.715517 9.33336 0.668574C9.93749 0.644082 10.5273 0.313443 11.1274 0.135877C11.6703 -0.0233201 12.1989 0.268541 12.2173 0.799197C12.252 1.79928 12.2765 2.80753 12.1928 3.80149C12.1173 4.69952 11.6091 5.40366 10.9029 5.9731C10.7498 6.09556 10.6233 6.3466 10.6192 6.54049C10.5926 7.71202 10.5641 8.88558 10.6171 10.0551C10.6886 11.6409 10.1763 12.8818 8.68433 13.6676C10.1212 14.9596 10.3967 16.7087 10.7069 18.4456C10.8029 18.9783 10.9008 19.513 11.0417 20.0355C11.1131 20.2967 11.2866 20.5315 11.4662 20.7702C12.5602 13.9125 16.0482 8.76925 22.3793 5.87513C28.6901 2.99122 34.8457 3.6974 40.7482 7.37934L40.7503 7.38546ZM26.9001 33.9591C27.4961 34.3326 28.0696 34.6918 28.6452 35.049C29.3595 35.4939 29.4146 35.645 29.3024 36.4654C29.1452 37.6043 29.0187 38.7452 28.8717 39.9412C29.1513 39.9698 29.4003 40.031 29.6453 40.0147C30.8617 39.931 32.1046 39.9596 33.2864 39.7086C40.1747 38.2452 44.6057 34.0693 46.6814 27.3586C46.8059 26.9544 46.7079 26.7789 46.3466 26.5769C42.0789 24.1726 37.7704 21.8499 33.3639 19.7089C33.07 19.5661 32.7598 19.2946 32.6271 19.0028C31.5577 16.6801 30.5331 14.335 29.4861 12.0022C29.3187 11.6307 29.3412 11.3001 29.531 10.9388C30.0249 9.99384 30.48 9.02641 30.976 8.08348C31.1046 7.83856 31.3066 7.61405 31.5209 7.43648C32.0557 6.99767 32.6169 6.59152 33.1823 6.15883C29.1758 4.46073 20.4037 7.45689 17.4483 11.5246C17.583 11.6205 17.7137 11.7185 17.8524 11.8103C19.3199 12.79 20.7915 13.7635 22.2508 14.7534C22.4671 14.9004 22.6855 15.1004 22.8018 15.3269C23.5999 16.8781 24.3775 18.4394 25.1469 20.0049C25.4633 20.6478 25.2102 21.1356 24.4958 21.2846C23.4692 21.5009 22.4385 21.705 21.4058 21.8989C21.069 21.9622 20.8466 22.0989 20.669 22.4194C19.8914 23.8297 19.0832 25.2237 18.2708 26.6136C18.1116 26.8871 18.0749 27.1055 18.2382 27.3994C18.5688 27.9913 18.8301 28.6199 19.1668 29.2056C19.3077 29.4506 19.5342 29.6873 19.7771 29.8281C21.4936 30.816 23.2243 31.7773 24.951 32.7488C25.1102 32.8386 25.2673 32.9345 25.4816 33.059C25.8347 32.1141 26.1756 31.2058 26.5368 30.2425C25.9858 30.2425 25.5123 30.2547 25.0367 30.2404C22.5814 30.167 20.4404 28.0157 20.3873 25.5768C20.371 24.8502 20.6629 24.542 21.3772 24.5379C22.1079 24.5338 22.8365 24.5379 23.5672 24.5379C25.1428 24.5338 26.4266 25.1522 27.441 26.3462C27.5328 26.4544 27.6308 26.5605 27.7308 26.6728C29.0411 25.0726 30.1759 24.5379 32.2108 24.5379C32.8231 24.5379 33.4333 24.5359 34.0456 24.5379C34.7906 24.542 35.0784 24.8502 35.0559 25.6053C34.9906 27.7831 33.2394 29.8179 31.0801 30.1363C30.28 30.2547 29.4575 30.2016 28.6452 30.2527C28.4962 30.2629 28.2696 30.3608 28.2247 30.4772C27.7675 31.6222 27.343 32.7794 26.9001 33.9571V33.9591ZM40.7645 12.294C40.7645 11.4429 40.7768 10.6449 40.7543 9.84893C40.7503 9.67341 40.6686 9.43869 40.54 9.33868C39.042 8.17532 37.399 7.27729 35.5907 6.69765C35.4559 6.65479 35.2518 6.67316 35.1376 6.75071C33.5231 7.8508 31.9434 8.98968 31.3332 10.9939C31.3127 11.0572 31.2536 11.1143 31.2495 11.1776C31.2352 11.4103 31.1617 11.6777 31.2474 11.8736C32.1067 13.8636 32.9843 15.8433 33.8844 17.8149C33.9926 18.0517 34.215 18.2884 34.4436 18.4109C38.4929 20.5682 42.5504 22.7071 46.6079 24.8502C46.7528 24.9257 46.8977 25.0012 47.0467 25.0788C48.3264 21.7111 45.5547 13.3411 42.3871 11.0552V12.292H40.7625L40.7645 12.294ZM23.2488 19.8641C22.6243 18.619 22.0263 17.4292 21.4262 16.2393C21.3895 16.1678 21.3242 16.1025 21.2588 16.0576C19.6403 14.9738 18.0198 13.8921 16.3666 12.79C14.4971 15.3657 13.448 18.2068 13.15 21.3581C13.8725 21.4723 14.546 21.554 15.2053 21.6907C16.434 21.9438 17.2606 23.0725 17.1197 24.2542C16.9809 25.4074 16.0421 26.1707 14.7542 26.1727C14.3154 26.1727 13.8766 26.1727 13.4317 26.1727C14.6154 33.3284 20.9731 38.8656 27.2491 39.7004C27.3757 38.6452 27.5083 37.5921 27.6186 36.5348C27.6288 36.4389 27.5124 36.294 27.4165 36.2287C27.0716 35.9919 26.7083 35.7797 26.3368 35.549C26.2266 35.7878 26.1286 35.996 26.0184 36.2307C25.5082 36.0389 25.0265 35.8593 24.5285 35.6715C24.6591 35.2898 24.7673 34.9755 24.8796 34.649C24.7449 34.5592 24.6346 34.4857 24.5224 34.4122C22.6426 33.1631 20.6772 32.0691 18.6443 31.0874C18.3525 30.9466 18.081 30.6547 17.9198 30.3649C17.4218 29.4608 16.9952 28.5178 16.5136 27.6055C16.285 27.1728 16.2809 26.7952 16.5319 26.3666C17.5545 24.6093 18.5607 22.8418 19.5628 21.0723C19.7608 20.7233 20.0118 20.5151 20.422 20.4417C21.3507 20.2763 22.2712 20.0681 23.2508 19.8661L23.2488 19.8641ZM9.0415 26.2115H1.66742V44.0742H3.34715C3.39001 43.813 3.43491 43.5803 3.46348 43.3456C3.94107 39.529 4.41662 35.7123 4.89422 31.8957C4.95953 31.3691 5.24118 31.0793 5.68408 31.0609C6.13105 31.0425 6.42904 31.3017 6.53313 31.8324C6.80866 33.2631 7.07603 34.6939 7.34544 36.1246C7.82303 38.6717 8.29654 41.2189 8.78434 43.762C8.80883 43.8885 8.95782 44.0763 9.06191 44.0844C9.5293 44.1191 10.0008 44.0987 10.5294 44.0987C10.0293 38.1003 9.53542 32.159 9.03946 26.2095L9.0415 26.2115ZM8.11897 22.6092C9.18029 24.0807 10.6171 24.6216 12.3459 24.544C13.1418 24.5073 13.9419 24.5297 14.7379 24.542C15.0971 24.5461 15.4073 24.4583 15.4726 24.0726C15.54 23.6787 15.291 23.4419 14.9379 23.3154C14.8114 23.2705 14.6767 23.2419 14.544 23.2235C13.7562 23.1113 12.9622 23.0317 12.1785 22.8908C10.7865 22.6418 9.85177 21.852 9.46603 20.4661C9.39255 20.2049 9.33744 19.9396 9.27825 19.6763C9.01089 18.5068 8.81087 17.3169 8.46186 16.1719C8.12306 15.0596 7.22706 14.4677 6.13514 14.1717C5.10444 13.8921 4.12068 13.8084 3.25734 14.6636C2.76547 15.1514 2.40829 15.6678 2.35115 16.3658C2.18583 18.3945 2.02255 20.4233 1.86335 22.452C1.81029 23.1358 1.77559 23.8215 1.73273 24.493H7.53525C7.2638 24.1501 7.02501 23.8521 6.76172 23.5195C7.23931 23.199 7.65975 22.9174 8.12102 22.6092H8.11897ZM2.4634 6.60784C2.4634 8.06103 2.43279 9.45094 2.47565 10.8368C2.50014 11.643 3.20836 12.2859 4.02884 12.3022C5.1473 12.3267 6.2678 12.3246 7.38626 12.3022C8.19041 12.2879 8.91292 11.6899 8.94557 10.9021C9.00272 9.48563 8.9619 8.06511 8.9619 6.62417C8.82107 6.61601 8.72311 6.60784 8.62514 6.60784C6.59232 6.60784 4.55949 6.60784 2.46544 6.60784H2.4634ZM10.6029 2.02991C9.34561 2.52995 8.11693 2.47076 6.8801 2.31973C6.17391 2.23197 5.46365 2.12584 4.75747 2.12992C3.31857 2.13808 2.20828 3.57902 2.53688 4.97097C4.71665 4.97097 6.90255 4.98934 9.08844 4.96077C9.90076 4.95056 10.5498 4.25867 10.5988 3.44432C10.6253 3.0055 10.6029 2.56465 10.6029 2.02991ZM7.31074 47.3868C7.53729 43.9803 6.37597 40.7862 5.9045 37.492C5.78409 37.9676 5.72286 38.435 5.66367 38.9024C5.44528 40.6331 5.22281 42.3618 5.01872 44.0946C5.00035 44.2498 5.06158 44.5069 5.16771 44.5661C6.29841 45.1947 6.98214 46.1479 7.31074 47.3868ZM33.2598 26.2115C30.6127 25.8727 29.0779 26.883 28.7207 28.5893C31.725 28.9158 32.921 27.6422 33.2598 26.2115ZM36.0254 1.74417C36.4805 3.57698 38.1582 4.43419 40.5972 4.11784C40.2604 2.69731 39.0705 1.41149 36.0254 1.74417ZM42.5627 4.1158C45.1241 4.45052 46.7201 3.51371 47.1039 1.74213C44.1097 1.41558 42.9076 2.6769 42.5627 4.1158ZM26.7389 28.577C26.4225 26.8156 24.4489 25.8013 22.1814 26.2319C22.6079 28.0158 24.2509 28.8607 26.7389 28.577ZM1.66538 45.7744V47.3214H5.51263C5.01463 45.9866 3.89209 45.5417 1.66538 45.7744ZM8.99864 47.3296H12.8377C12.2458 45.7254 10.8927 45.5948 8.99864 45.7948V47.3296Z" fill="white"/>
<path d="M43.4764 39.2041C44.9377 39.249 46.2195 39.8409 47.2012 41.0389C47.6951 41.641 48.1768 42.2574 48.6544 42.8738C49.0707 43.4106 48.9972 43.8453 48.44 44.2555C46.4338 45.7332 43.5356 45.4209 41.9068 43.531C41.3435 42.8758 40.817 42.188 40.2883 41.5043C39.8883 40.9859 39.9597 40.5512 40.4965 40.1572C41.3558 39.5266 42.3253 39.2143 43.4743 39.2041H43.4764ZM42.1681 41.1043C42.9416 43.031 45.4418 44.1719 46.8113 43.2208C45.2153 40.7308 43.6274 40.5328 42.1681 41.1043Z" fill="white"/>
<path d="M30.1962 43.67C30.1697 45.9947 28.5838 47.9336 26.2408 48.4724C25.5489 48.6316 24.8509 48.7765 24.1569 48.9296C23.4222 49.0929 23.0344 48.8194 22.9323 48.0602C22.569 45.3599 24.161 43.074 26.8224 42.476C27.5164 42.3189 28.2103 42.1678 28.9043 42.0127C29.6064 41.8576 29.9513 42.0882 30.0819 42.8148C30.1329 43.0965 30.1595 43.3843 30.1962 43.668V43.67ZM24.5508 47.1336C27.2817 46.8213 28.4165 45.5946 28.4797 43.8374C26.0305 44.0557 24.5855 45.2538 24.5508 47.1336Z" fill="white"/>
<path d="M16.9116 0.000976562C17.7158 0.0948619 18.5403 0.100985 19.3159 0.303043C21.3242 0.825535 22.8019 2.76855 22.8305 4.78709C22.8407 5.47286 22.5406 5.79942 21.8569 5.78717C20.7732 5.7688 19.6771 5.82799 18.6118 5.67084C16.432 5.3504 14.6931 3.24206 14.6808 1.06229C14.6767 0.405092 14.9747 0.092821 15.6278 0.084657C16.0524 0.078534 16.4748 0.084657 16.8994 0.084657C16.9034 0.0560832 16.9055 0.0295504 16.9096 0.000976563L16.9116 0.000976562ZM16.4667 1.7399C16.9606 3.53392 18.3974 4.42175 21.0324 4.12581C20.7385 2.40118 19.1547 1.56641 16.4667 1.7399Z" fill="white"/>
<path d="M22.0176 12.3221C22.0176 11.8119 22.0237 11.3037 22.0155 10.7955C22.0074 10.3015 22.2319 9.98927 22.7095 9.86885C23.7422 9.60761 24.7749 9.34228 25.8118 9.09124C26.3649 8.95653 26.7608 9.17696 26.8996 9.72599C27.4486 11.8731 27.9956 14.0223 28.5018 16.1816C28.5589 16.4245 28.4222 16.8347 28.2344 16.9797C28.0283 17.1368 27.5956 17.2021 27.3609 17.0919C25.722 16.3204 24.1014 15.5101 22.4992 14.6631C22.2686 14.5407 22.0788 14.1774 22.04 13.8998C21.9665 13.3834 22.0196 12.8507 22.0196 12.3242L22.0176 12.3221ZM26.4935 14.855C26.1404 13.4467 25.822 12.1752 25.4934 10.8669C24.8545 11.0281 24.2688 11.1751 23.6483 11.3302C23.6483 11.9649 23.6402 12.5915 23.6565 13.2161C23.6585 13.3222 23.7545 13.4753 23.8483 13.5243C24.6872 13.959 25.5342 14.3774 26.4935 14.855Z" fill="white"/>
<path d="M38.3316 28.5929C39.8092 28.8888 41.2053 29.1521 42.5911 29.4562C43.1136 29.5705 43.3565 30.0869 43.1258 30.5706C42.5972 31.685 42.038 32.7871 41.4767 33.8851C41.2828 34.2648 40.9338 34.3791 40.5277 34.2974C39.2173 34.0362 37.9091 33.7708 36.6008 33.5035C36.1191 33.4055 35.9599 33.0892 35.8579 32.6136C35.464 30.7665 36.6824 29.7889 37.8458 28.7766C37.9846 28.6561 38.2111 28.6337 38.3316 28.5908V28.5929ZM41.1787 30.84C40.5828 30.7216 40.0358 30.6706 39.5337 30.4971C38.8459 30.2603 38.3601 30.4155 37.9132 30.9788C37.6642 31.2931 37.3723 31.538 37.5682 32.0238C38.4622 32.2013 39.3806 32.385 40.3134 32.5707C40.6011 31.9952 40.8726 31.4543 41.1808 30.8379L41.1787 30.84Z" fill="white"/>
</svg>
