<svg width="26" height="43" viewBox="0 0 26 43" fill="none" xmlns="http://www.w3.org/2000/svg">
<path d="M9.72675 25.5373C7.61975 24.2603 6.20675 21.9523 6.20675 19.3093C6.20675 15.2853 9.46875 12.0233 13.4927 12.0233C14.2287 12.0233 14.9387 12.1353 15.6087 12.3383C15.8697 11.7443 16.2047 11.1833 16.6267 10.6833C17.1997 9.93629 17.9267 9.32229 18.7597 8.88329L18.9577 8.79329C19.4097 8.63629 19.8047 8.34829 20.0917 7.96529C20.2487 7.71029 20.3497 7.42529 20.3887 7.12829C20.5137 6.58529 20.4467 6.01629 20.1997 5.51729C20.1667 5.46429 20.1307 5.41329 20.0917 5.36429C19.8157 4.99529 19.3727 4.78929 18.9127 4.81529C18.5467 4.82629 18.2097 5.01829 18.0127 5.32829C17.8997 5.52429 17.8327 5.74229 17.8147 5.96729C17.8047 6.04429 17.7867 6.11929 17.7607 6.19229C17.7007 6.30729 17.6107 6.40429 17.4997 6.47129C17.2297 6.66929 15.6097 7.45229 15.3667 6.96629C15.2947 6.83129 15.8257 6.06629 15.8977 5.92229C16.0687 5.54429 16.0687 5.11229 15.8977 4.73429C15.6527 4.37229 15.2997 4.09529 14.8897 3.94229C13.6917 3.41529 12.5717 2.72829 11.5587 1.89929C10.9817 1.27429 10.3287 0.723294 9.61475 0.261294C8.86875 -0.191706 7.90475 -0.0437062 7.32875 0.612294C6.29375 -0.153706 4.83375 0.0642939 4.06875 1.09929C3.75875 1.51729 3.59875 2.02729 3.61175 2.54729C3.61175 2.76329 3.61175 3.02429 3.49475 3.17729C3.35775 3.27429 3.20075 3.33929 3.03575 3.36629C2.51075 3.59329 2.16075 4.10029 2.13575 4.67129C2.08175 5.22029 2.13575 5.77829 2.13575 6.32729C2.01075 7.14429 1.75875 7.93729 1.38875 8.67629C0.539747 10.4203 0.311747 12.4013 0.740747 14.2923C0.937747 14.7843 1.07375 15.2973 1.14575 15.8223C1.16075 16.1833 1.12075 16.5443 1.02875 16.8933C0.875748 17.6043 0.695747 18.3153 0.488747 19.0083C0.325747 19.4563 0.230747 19.9273 0.209747 20.4033C0.242747 20.8503 0.303747 21.2953 0.389747 21.7353C0.420747 22.1703 0.352747 22.6073 0.191747 23.0133C-0.0392525 24.0843 -0.00925237 25.1963 0.281748 26.2533C0.0817476 26.5093 -0.0182527 26.8293 0.00274734 27.1533C0.0327473 27.4663 0.117747 27.7703 0.254747 28.0533C0.581747 28.9233 0.799748 29.8303 0.902748 30.7533C0.932748 31.7223 0.872748 32.6933 0.722748 33.6513C0.732748 34.1183 0.640747 34.5823 0.452747 35.0103C0.295747 35.3333 0.192747 35.6803 0.146747 36.0363C-0.0432526 36.8083 0.221747 37.6213 0.830747 38.1333C1.01075 38.2283 1.21275 38.2743 1.41575 38.2683C1.46275 38.6363 1.64575 38.9733 1.92875 39.2133C2.28075 39.4783 2.72775 39.5863 3.16175 39.5103C3.61475 39.4383 4.07675 39.4383 4.52975 39.5103C4.58375 39.9153 4.64675 40.3203 4.70075 40.7253C4.75475 41.1303 4.70075 42.0033 5.05175 42.3813C5.35275 42.6383 5.74875 42.7553 6.14075 42.7053C7.14375 42.7073 8.14375 42.6143 9.12875 42.4263C9.21475 42.4163 9.29575 42.3823 9.36275 42.3273C9.50675 42.1923 9.43475 41.9583 9.36275 41.7873C9.20275 41.3893 8.89675 41.0673 8.50775 40.8873C8.31575 40.8343 8.12075 40.7953 7.92275 40.7703C7.08575 40.5813 6.60875 39.7173 6.23975 38.9703C6.02375 38.5293 5.81675 38.0703 5.60075 37.6383C5.47175 37.4483 5.43775 37.2083 5.51075 36.9903C5.70875 36.6213 6.25775 36.6483 6.41075 36.1893C6.56375 35.7303 6.31175 35.2353 6.70775 34.8123C6.95075 34.5513 7.31975 34.4523 7.55375 34.1913C7.77375 33.8653 7.88175 33.4773 7.85975 33.0843C7.85975 32.5623 7.85975 31.9233 7.36475 31.6983C7.10475 31.6253 6.84075 31.5713 6.57275 31.5363C6.31175 31.4553 6.07775 31.1493 6.23975 30.9333C6.40175 30.7173 6.57275 30.7893 6.76175 30.7713C7.95875 30.6633 8.06675 29.3313 8.12075 28.4043C8.14375 28.2163 8.14375 28.0253 8.12075 27.8373H8.25575C8.75075 28.0313 9.30975 27.7883 9.50375 27.2923C9.50775 27.2823 9.51175 27.2713 9.51575 27.2613C9.70775 26.7203 9.60875 26.1193 9.25475 25.6683C9.31375 25.7513 9.50575 25.6733 9.72675 25.5373Z" fill="white"/>
<path d="M11.0994 39.1694C10.8504 39.0314 10.5474 39.0314 10.2984 39.1694C10.0484 39.3324 9.97737 39.6664 10.1404 39.9164C10.2304 40.0544 10.3774 40.1434 10.5414 40.1594C10.5774 40.3314 10.5934 40.5064 10.5864 40.6814C10.5864 40.9744 10.8244 41.2124 11.1174 41.2124C11.1204 41.2124 11.1234 41.2124 11.1264 41.2124C11.4144 41.2124 11.5584 40.6634 11.5584 40.3664C11.5584 39.8714 11.6034 39.4664 11.0994 39.1694Z" fill="white"/>
<path d="M12.8548 39.0794H12.7378C11.8378 39.0164 11.6308 40.2944 11.9998 40.8794C12.1398 41.1464 12.4448 41.2844 12.7378 41.2124C12.9818 41.1084 13.1038 40.8334 13.0168 40.5824C12.9448 40.4284 12.9448 40.2504 13.0168 40.0964C13.0798 39.9974 13.2058 39.9524 13.2868 39.8534C13.3808 39.7114 13.3808 39.5274 13.2868 39.3854C13.1888 39.2304 13.0338 39.1214 12.8548 39.0794Z" fill="white"/>
<path d="M24.9284 28.4144C24.9104 28.3954 24.8914 28.3764 24.8724 28.3584L20.0134 23.5664C19.4244 24.4814 18.6464 25.2594 17.7314 25.8484L22.5904 30.6404C23.2054 31.2864 24.2264 31.3104 24.8724 30.6964C25.5184 30.0824 25.5434 29.0594 24.9284 28.4144Z" fill="white"/>
<path d="M13.0225 15.5203C11.2505 15.5233 9.81446 16.9593 9.81146 18.7313C9.78146 19.0183 9.99046 19.2753 10.2775 19.3053C10.5645 19.3353 10.8215 19.1263 10.8515 18.8393C10.8555 18.8033 10.8555 18.7673 10.8515 18.7313C10.8515 17.5323 11.8235 16.5603 13.0225 16.5603C13.3095 16.5303 13.5185 16.2733 13.4885 15.9863C13.4635 15.7413 13.2685 15.5463 13.0225 15.5203Z" fill="white"/>
<path d="M19.9809 19.3093C19.9809 15.7313 17.0699 12.8203 13.4919 12.8203C9.91393 12.8203 7.00293 15.7313 7.00293 19.3093C7.00293 22.8873 9.91393 25.7983 13.4919 25.7983C17.0699 25.7983 19.9809 22.8873 19.9809 19.3093ZM13.4919 24.4053C10.6819 24.4053 8.39593 22.1193 8.39593 19.3083C8.39593 16.4983 10.6819 14.2123 13.4919 14.2123C16.3029 14.2123 18.5889 16.4983 18.5889 19.3083C18.5889 22.1193 16.3029 24.4053 13.4919 24.4053Z" fill="white"/>
</svg>
