<svg width="75" height="75" viewBox="0 0 75 75" fill="none" xmlns="http://www.w3.org/2000/svg">
<circle cx="37.2117" cy="37.2117" r="37.2117" fill="#2E6695"/>
<path d="M27.4997 39C17.4997 47 22.333 54.6667 25.9997 57.5C31.4994 58.5 34 48.5 32 47.5C30.4 46.7 28.3331 41.5 27.4997 39Z" stroke="white" stroke-width="1.5" stroke-linecap="round" stroke-linejoin="round"/>
<path d="M26.4999 57.5C26.1666 52.1667 25.8999 41.3 27.4999 40.5" stroke="white" stroke-width="1.5" stroke-linecap="round" stroke-linejoin="round"/>
<path d="M26.5 50L28.5 48.5" stroke="white" stroke-width="1.5" stroke-linecap="round" stroke-linejoin="round"/>
<path d="M26.5 46.5L28 45.5" stroke="white" stroke-width="1.5" stroke-linecap="round" stroke-linejoin="round"/>
<path d="M26 52L24.5 50" stroke="white" stroke-width="1.5" stroke-linecap="round" stroke-linejoin="round"/>
<path d="M26 48L24 47" stroke="white" stroke-width="1.5" stroke-linecap="round" stroke-linejoin="round"/>
<path d="M19 62L34 62" stroke="white" stroke-width="1.5" stroke-linecap="round" stroke-linejoin="round"/>
<path d="M26.5 57.5V62" stroke="white" stroke-width="1.5" stroke-linecap="round" stroke-linejoin="round"/>
<path d="M44.0472 11.6252C39.1405 9.02135 33.444 8.32456 28.0544 9.669C22.6647 11.0134 17.9629 14.304 14.854 18.9074C11.7451 23.5107 10.449 29.1013 11.2151 34.6031C11.9811 40.1048 14.7553 45.1286 19.0035 48.7076" stroke="white" stroke-width="2" stroke-linecap="round"/>
<path d="M52.7599 47.7845V35.2826C52.7599 35.1563 52.7098 35.0353 52.6205 34.946C52.5313 34.8568 52.4102 34.8066 52.284 34.8066H51.2277C51.1014 34.8066 50.9804 34.8568 50.8911 34.946C50.8019 35.0353 50.7517 35.1563 50.7517 35.2826V47.7845C49.7948 48.0278 48.9597 48.6122 48.4033 49.4278C47.8469 50.2434 47.6076 51.2342 47.7302 52.2139C47.8528 53.1935 48.3289 54.0948 49.0691 54.7481C49.8094 55.4015 50.7627 55.762 51.75 55.762C52.7374 55.762 53.6907 55.4015 54.4309 54.7481C55.1712 54.0948 55.6473 53.1935 55.7699 52.2139C55.8925 51.2342 55.6531 50.2434 55.0967 49.4278C54.5403 48.6122 53.7052 48.0278 52.7483 47.7845H52.7599Z" fill="white"/>
<path d="M56.3694 44.1166V19.0895C56.3694 18.5353 56.1492 18.0038 55.7574 17.612C55.3655 17.2201 54.834 17 54.2799 17H49.242C48.9676 17 48.6959 17.054 48.4424 17.1591C48.1889 17.2641 47.9585 17.418 47.7645 17.612C47.5705 17.806 47.4166 18.0364 47.3116 18.2899C47.2066 18.5434 47.1525 18.8151 47.1525 19.0895V44.1166C45.6836 45.0224 44.5162 46.3433 43.7978 47.9124C43.312 48.9853 43.0425 50.1435 43.0046 51.3206C42.9668 52.4978 43.1614 53.6709 43.5772 54.7728C43.9831 55.8896 44.6244 56.906 45.4576 57.7532C46.2907 58.6004 47.2963 59.2586 48.4062 59.683C49.4729 60.0945 50.606 60.3069 51.7493 60.3099C53.6736 60.3387 55.5537 59.7325 57.0987 58.5852C58.6437 57.4378 59.7675 55.8132 60.2962 53.9628C60.8249 52.1124 60.729 50.1394 60.0233 48.3489C59.3177 46.5585 58.0416 45.0506 56.3926 44.0585L56.3694 44.1166ZM51.7261 58.2204C50.8525 58.2125 49.9874 58.0473 49.1723 57.7329C48.3426 57.4131 47.591 56.9192 46.9682 56.2844C46.3455 55.6497 45.866 54.8888 45.5622 54.0531C44.9064 52.4114 44.9251 50.5772 45.6141 48.9491C46.3032 47.3211 47.6069 46.0308 49.242 45.3586V19.0895H54.2799V45.3586C55.7141 45.9397 56.9014 47.0018 57.638 48.3627C58.3745 49.7236 58.6144 51.2985 58.3165 52.817C58.0185 54.3355 57.2014 55.703 56.0052 56.6847C54.809 57.6664 53.3084 58.2012 51.7609 58.1972L51.7261 58.2204Z" fill="white"/>
<path d="M50.8443 31.9971H52.6552C52.7937 31.9971 52.9266 31.9421 53.0245 31.8441C53.1225 31.7462 53.1775 31.6133 53.1775 31.4748C53.1775 31.3362 53.1225 31.2034 53.0245 31.1054C52.9266 31.0074 52.7937 30.9524 52.6552 30.9524H50.8443C50.7058 30.9524 50.5729 31.0074 50.4749 31.1054C50.377 31.2034 50.3219 31.3362 50.3219 31.4748C50.3219 31.6133 50.377 31.7462 50.4749 31.8441C50.5729 31.9421 50.7058 31.9971 50.8443 31.9971Z" fill="white"/>
<path d="M50.8443 22.8614H52.6552C52.7937 22.8614 52.9266 22.8064 53.0245 22.7084C53.1225 22.6105 53.1775 22.4776 53.1775 22.3391C53.1775 22.2005 53.1225 22.0677 53.0245 21.9697C52.9266 21.8717 52.7937 21.8167 52.6552 21.8167H50.8443C50.7058 21.8167 50.5729 21.8717 50.4749 21.9697C50.377 22.0677 50.3219 22.2005 50.3219 22.3391C50.3219 22.4776 50.377 22.6105 50.4749 22.7084C50.5729 22.8064 50.7058 22.8614 50.8443 22.8614Z" fill="white"/>
<path d="M50.8443 27.4242H52.6552C52.7937 27.4242 52.9266 27.3692 53.0245 27.2712C53.1225 27.1732 53.1775 27.0404 53.1775 26.9018C53.1775 26.7633 53.1225 26.6304 53.0245 26.5325C52.9266 26.4345 52.7937 26.3795 52.6552 26.3795H50.8443C50.7058 26.3795 50.5729 26.4345 50.4749 26.5325C50.377 26.6304 50.3219 26.7633 50.3219 26.9018C50.3219 27.0404 50.377 27.1732 50.4749 27.2712C50.5729 27.3692 50.7058 27.4242 50.8443 27.4242Z" fill="white"/>
<path d="M23.5815 25.5817C23.5815 24.3817 18.5815 21.0817 16.0815 19.5817C15.0815 18.5817 23.5 10.5819 24 11.5819C24.5 12.5819 26.5 10.5 31.5815 11.5817C34.0267 12.1023 34.0815 15.0817 34.0815 16.0817C34.0815 17.0817 29.5815 18.5817 27.5815 19.5817C25.5815 20.5817 27.5815 21.0817 28.0815 22.5817C28.5815 24.0817 31.5815 23.5817 31.5815 24.0817C31.5815 24.5817 32.5815 25.5817 35.0815 26.5817C37.5815 27.5817 35.0815 30.0817 35.0815 31.0817C35.0815 32.0817 32.5815 32.5817 32.5815 34.5817C32.5815 36.1817 32.9148 36.5817 33.0815 36.5817C32.9148 37.7484 32.3815 40.1817 31.5815 40.5817C30.5815 41.0817 28.0815 34.5817 27.5815 33.0817C27.0815 31.5817 24.5815 30.0817 23.5815 30.0817C22.5815 30.0817 23.5815 27.0817 23.5815 25.5817Z" fill="white" stroke="white" stroke-width="1.5" stroke-linecap="round" stroke-linejoin="round"/>
</svg>
