<svg width="50" height="51" viewBox="0 0 50 51" fill="none" xmlns="http://www.w3.org/2000/svg">
<path d="M11.5322 14.9795V17.8945" stroke="black" stroke-width="1.24929" stroke-linecap="round"/>
<path d="M11.5322 14.9795V17.8945" stroke="white" stroke-width="1.5" stroke-linecap="round"/>
<path d="M5.91016 9.77344L2.99514 9.77344" stroke="white" stroke-width="1.5" stroke-linecap="round"/>
<path d="M19.8604 9.77344L16.9453 9.77344" stroke="white" stroke-width="1.5" stroke-linecap="round"/>
<path d="M11.9277 3.73535V0.820338" stroke="white" stroke-width="1.5" stroke-linecap="round"/>
<path d="M7.34668 14.1465L5.28545 16.2077" stroke="white" stroke-width="1.5" stroke-linecap="round"/>
<path d="M16.1143 4.56836L18.1755 2.50713" stroke="white" stroke-width="1.5" stroke-linecap="round"/>
<path d="M16.1143 14.1465L18.1755 16.2077" stroke="white" stroke-width="1.5" stroke-linecap="round"/>
<path d="M7.34668 4.56836L5.28545 2.50713" stroke="white" stroke-width="1.5" stroke-linecap="round"/>
<circle cx="11.5321" cy="9.56623" r="3.74787" fill="white"/>
<path d="M27.9834 9.12926L33.7496 14.8955L42.399 5.76562M42.399 5.76562V10.0903M42.399 5.76562H38.0743" stroke="white" stroke-width="1.5" stroke-linecap="round" stroke-linejoin="round"/>
<path d="M34.7109 11.0511L40.4772 16.8174L49.1265 7.6875M49.1265 7.6875V12.0122M49.1265 7.6875H44.8018" stroke="white" stroke-width="1.5" stroke-linecap="round" stroke-linejoin="round"/>
<path d="M19.2162 45.207C16.9097 45.207 16.0127 48.4105 15.8525 50.0122H25.9434C27.3026 50.0122 22.0993 45.207 19.2162 45.207Z" fill="white"/>
<path fill-rule="evenodd" clip-rule="evenodd" d="M47.0044 48.5707C46.5531 43.2852 44.2515 38.3032 40.4715 34.5232C36.2361 30.2878 30.4916 27.9084 24.5019 27.9084C18.5121 27.9084 12.7677 30.2878 8.53229 34.5232C4.7523 38.3032 2.45061 43.2852 1.99934 48.5707L47.0044 48.5707ZM49.0037 50.0122C49.0089 50.2775 48.7932 50.4928 48.5278 50.4928L0.475904 50.4928C0.21052 50.4928 -0.00510671 50.2775 9.20752e-05 50.0122C0.124031 43.6867 2.69072 37.6466 7.17317 33.1641C11.769 28.5683 18.0024 25.9863 24.5019 25.9863C31.0014 25.9863 37.2347 28.5683 41.8306 33.1641C46.313 37.6466 48.8797 43.6867 49.0037 50.0122Z" fill="white"/>
<path d="M29.3078 34.155C30.0766 31.8485 30.2688 28.7091 30.2688 27.4277L35.5541 29.3498L40.3593 32.7134C41.961 34.3152 45.2606 37.9031 45.645 39.4407C46.1255 41.3628 41.3203 43.2849 38.4372 44.2459C35.5541 45.207 36.9961 42.8044 30.2688 44.2459C23.5416 45.6875 25.9442 40.4018 26.4247 39.4407C26.9052 38.4797 28.3468 37.0381 29.3078 34.155Z" fill="white"/>
<path d="M13.4503 43.7654C10.7594 46.0719 5.6018 42.1637 3.35938 39.9212C7.20353 30.6953 15.5325 27.7481 19.2165 27.4277C19.3767 28.0684 19.8892 30.3109 20.6581 34.155C21.6191 38.9602 16.8139 40.8823 13.4503 43.7654Z" fill="white"/>
<path d="M41.6525 28.3594C37.0567 23.7636 30.8234 21.1816 24.3238 21.1816C17.8243 21.1816 11.591 23.7636 6.99512 28.3594" stroke="white" stroke-width="1.5" stroke-linecap="round" stroke-linejoin="round"/>
</svg>
