<svg width="78" height="78" viewBox="0 0 78 78" fill="none" xmlns="http://www.w3.org/2000/svg">
<path d="M20.0858 48.8726C20.8255 46.5742 19.562 44.1113 17.2636 43.3716C14.9652 42.632 12.5024 43.8955 11.7627 46.1939C11.023 48.4923 12.2865 50.9551 14.5849 51.6948C16.8833 52.4345 19.3461 51.171 20.0858 48.8726Z" fill="white"/>
<path d="M65.6415 48.8623C66.3812 46.5639 65.1177 44.1011 62.8193 43.3614C60.5209 42.6217 58.058 43.8853 57.3183 46.1836C56.5786 48.482 57.8422 50.9449 60.1406 51.6846C62.439 52.4243 64.9018 51.1607 65.6415 48.8623Z" fill="white"/>
<path d="M66.4176 54.1127H56.2677C55.0264 54.109 53.8029 54.4077 52.7029 54.983C51.6029 55.5583 50.6596 56.3928 49.9546 57.4144C49.2495 56.3928 48.3062 55.5583 47.2063 54.983C46.1063 54.4077 44.8828 54.109 43.6415 54.1127H33.4916C32.2502 54.109 31.0267 54.4077 29.9268 54.983C28.8268 55.5583 27.8835 56.3928 27.1784 57.4144C26.4734 56.3928 25.5301 55.5583 24.4301 54.983C23.3302 54.4077 22.1066 54.109 20.8653 54.1127H10.7001C8.67925 54.1326 6.74677 54.9442 5.31772 56.3733C3.88868 57.8023 3.07704 59.7348 3.05713 61.7557V67.4879C3.14513 67.8117 3.33725 68.0976 3.60383 68.3014C3.87042 68.5052 4.19666 68.6156 4.53223 68.6156C4.86779 68.6156 5.19404 68.5052 5.46062 68.3014C5.72721 68.0976 5.91932 67.8117 6.00733 67.4879V61.8321C6.01117 60.583 6.50491 59.3853 7.38242 58.4963C8.25994 57.6074 9.45118 57.0982 10.7001 57.0781H20.8653C22.1249 57.0822 23.3317 57.5843 24.2224 58.475C25.1131 59.3657 25.6152 60.5725 25.6193 61.8321V67.5643C25.6193 67.9698 25.7803 68.3586 26.067 68.6452C26.3536 68.9319 26.7425 69.0929 27.1479 69.0929H27.3007C27.7061 69.0929 28.0949 68.9319 28.3816 68.6452C28.6683 68.3586 28.8293 67.9698 28.8293 67.5643V61.8321C28.8334 60.5725 29.3355 59.3657 30.2262 58.475C31.1168 57.5843 32.3237 57.0822 33.5833 57.0781H43.7485C45.008 57.0822 46.2149 57.5843 47.1056 58.475C47.9962 59.3657 48.4984 60.5725 48.5024 61.8321V67.5643C48.5024 67.9698 48.6635 68.3586 48.9501 68.6452C49.2368 68.9319 49.6256 69.0929 50.031 69.0929H50.1839C50.5893 69.0929 50.9781 68.9319 51.2647 68.6452C51.5514 68.3586 51.7125 67.9698 51.7125 67.5643V61.8321C51.7165 60.5725 52.2187 59.3657 53.1093 58.475C54 57.5843 55.2068 57.0822 56.4664 57.0781H66.6316C67.8912 57.0822 69.098 57.5843 69.9887 58.475C70.8794 59.3657 71.3815 60.5725 71.3856 61.8321V67.5643C71.4735 67.8882 71.6657 68.174 71.9323 68.3778C72.1988 68.5816 72.5251 68.6921 72.8606 68.6921C73.1962 68.6921 73.5225 68.5816 73.789 68.3778C74.0556 68.174 74.2477 67.8882 74.3357 67.5643V61.8321C74.3361 60.8014 74.13 59.7811 73.7297 58.8314C73.3294 57.8816 72.743 57.0216 72.005 56.3022C71.267 55.5827 70.3924 55.0183 69.4328 54.6422C68.4731 54.2662 67.4479 54.0861 66.4176 54.1127Z" fill="white"/>
<path d="M42.7729 13.8049C43.5126 11.5066 42.249 9.04372 39.9506 8.30402C37.6522 7.56432 35.1894 8.82788 34.4497 11.1263C33.71 13.4246 34.9736 15.8875 37.2719 16.6272C39.5703 17.3669 42.0332 16.1033 42.7729 13.8049Z" fill="white"/>
<path d="M43.6414 27.5149C45.0136 27.5147 46.3695 27.812 47.6158 28.3862V25.1303C47.6158 18.6643 40.8899 18.6185 38.7804 18.4351H38.2149C36.1054 18.6032 29.563 18.6491 29.563 25.1303V28.1875C30.8101 27.6879 32.1491 27.4586 33.4915 27.5149H43.6414Z" fill="white"/>
<path d="M42.8739 48.8523C43.6136 46.5539 42.3501 44.0911 40.0517 43.3514C37.7533 42.6117 35.2905 43.8752 34.5508 46.1736C33.8111 48.472 35.0746 50.9348 37.373 51.6745C39.6714 52.4142 42.1342 51.1507 42.8739 48.8523Z" fill="white"/>
<path d="M27.2549 45.0326C27.6604 45.0326 28.0492 44.8716 28.3358 44.5849C28.6225 44.2983 28.7835 43.9095 28.7835 43.504V37.8329C28.7876 36.5734 29.2897 35.3665 30.1804 34.4758C31.0711 33.5852 32.2779 33.083 33.5375 33.079H43.7027C44.9623 33.083 46.1691 33.5852 47.0598 34.4758C47.9504 35.3665 48.4526 36.5734 48.4566 37.8329V43.5652C48.5446 43.889 48.7367 44.1749 49.0033 44.3787C49.2699 44.5825 49.5962 44.6929 49.9317 44.6929C50.2673 44.6929 50.5935 44.5825 50.8601 44.3787C51.1267 44.1749 51.3188 43.889 51.4068 43.5652V37.8329C51.3869 35.8121 50.5753 33.8796 49.1462 32.4505C47.7172 31.0215 45.7847 30.2099 43.7638 30.1899H33.4916C31.4708 30.2099 29.5383 31.0215 28.1092 32.4505C26.6802 33.8796 25.8685 35.8121 25.8486 37.8329V43.5652C25.8624 43.9396 26.0133 44.296 26.2726 44.5665C26.5318 44.837 26.8814 45.0029 27.2549 45.0326Z" fill="white"/>
</svg>
