<svg width="34" height="36" viewBox="0 0 34 36" fill="none" xmlns="http://www.w3.org/2000/svg">
<path d="M6.42428 20.1299C6.67266 20.068 6.88783 19.9133 7.0255 19.6975C7.16317 19.4817 7.21284 19.2213 7.16428 18.9699C7.11345 18.7546 6.99261 18.5622 6.8207 18.4228C6.64878 18.2835 6.43551 18.2051 6.21428 18.2H5.99428L0.544282 19.5C0.34569 19.6016 0.186803 19.7668 0.0928963 19.9692C-0.00101002 20.1715 -0.0245415 20.3995 0.0260457 20.6168C0.0766328 20.8341 0.198433 21.0282 0.372069 21.1683C0.545705 21.3084 0.761203 21.3864 0.984281 21.3899L6.35428 20.15L6.42428 20.1299Z" fill="white"/>
<path d="M2.39402 8.96998L7.06402 11.89L7.15402 11.95C7.37488 12.0756 7.63527 12.1124 7.88229 12.053C8.12932 11.9935 8.34446 11.8423 8.48402 11.63V11.55C8.58959 11.3363 8.61537 11.0919 8.5567 10.8609C8.49802 10.6299 8.35877 10.4274 8.16402 10.29L3.41402 7.28998C3.20497 7.23319 2.98313 7.24582 2.78188 7.32597C2.58062 7.40611 2.41084 7.54944 2.29806 7.7344C2.18528 7.91935 2.13562 8.13593 2.15653 8.35154C2.17744 8.56715 2.2678 8.77015 2.41402 8.92998L2.39402 8.96998Z" fill="white"/>
<path d="M13.4043 6.56C13.401 6.60661 13.401 6.65339 13.4043 6.7C13.5109 6.89794 13.6812 7.05415 13.8876 7.14343C14.0939 7.23271 14.3243 7.24983 14.5416 7.19204C14.7589 7.13425 14.9504 7.00492 15.0851 6.82492C15.2199 6.64493 15.29 6.42477 15.2843 6.2L14.0543 0.75C14.0001 0.539952 13.8792 0.353203 13.7096 0.217918C13.5401 0.0826337 13.3311 0.00614939 13.1143 0H12.8943C12.6415 0.0639929 12.4236 0.224226 12.2873 0.446531C12.1509 0.668837 12.1068 0.935622 12.1643 1.19L13.4043 6.56Z" fill="white"/>
<path d="M21.9241 8.69001C22.1438 8.81657 22.4033 8.85495 22.6502 8.7974C22.8971 8.73985 23.113 8.59066 23.2541 8.38001L26.2541 3.63001C26.3378 3.48163 26.3822 3.31432 26.3831 3.14395C26.384 2.97359 26.3413 2.80583 26.2592 2.65657C26.177 2.50731 26.0581 2.38152 25.9137 2.29111C25.7693 2.20071 25.6042 2.1487 25.4341 2.14001C25.2702 2.14359 25.1096 2.18742 24.9666 2.26763C24.8236 2.34785 24.7026 2.46199 24.6141 2.60001L21.6641 7.27001L21.5941 7.38001C21.4753 7.60009 21.4433 7.85667 21.5044 8.09916C21.5655 8.34166 21.7152 8.55246 21.9241 8.69001Z" fill="white"/>
<path d="M9.97403 20.0401L22.294 12.1101C21.2299 10.8417 19.7701 9.96793 18.1494 9.62936C16.5288 9.29078 14.8413 9.50701 13.3584 10.2433C11.8754 10.9796 10.6831 12.1931 9.97317 13.6889C9.26322 15.1846 9.07685 16.8756 9.44403 18.4901C9.5631 19.0247 9.74085 19.5445 9.97403 20.0401Z" fill="white"/>
<path d="M32.9639 21.89C32.8956 21.6451 32.7367 21.4354 32.5193 21.3035C32.302 21.1716 32.0426 21.1275 31.7939 21.18L26.4239 22.49H26.3739L19.8139 18.27L19.6139 18.14L26.4039 13.75H26.4639L31.7839 15.06C31.9183 15.1326 32.0676 15.1733 32.2203 15.1792C32.373 15.185 32.525 15.1558 32.6646 15.0938C32.8043 15.0318 32.9278 14.9386 33.0258 14.8213C33.1238 14.7041 33.1937 14.566 33.23 14.4176C33.2663 14.2692 33.2681 14.1144 33.2353 13.9652C33.2025 13.816 33.1359 13.6762 33.0407 13.5567C32.9455 13.4372 32.8242 13.3412 32.686 13.2759C32.5479 13.2106 32.3966 13.1778 32.2439 13.18L28.6439 12.29L32.5139 9.80002C32.7238 9.65566 32.8707 9.43658 32.9246 9.18755C32.9785 8.93851 32.9353 8.67829 32.8039 8.46003C32.6595 8.25007 32.4404 8.10314 32.1914 8.04924C31.9423 7.99534 31.6821 8.03855 31.4639 8.17003L25.6139 11.93C3.86386 25.93 3.00385 26.48 2.87385 26.64C2.76798 26.8275 2.72546 27.0442 2.75262 27.2578C2.77978 27.4715 2.87517 27.6706 3.0246 27.8256C3.17403 27.9807 3.36952 28.0834 3.58199 28.1184C3.79446 28.1534 4.01256 28.1189 4.20385 28.02L7.75385 25.75L8.04385 25.56L7.35385 29.22C7.28793 29.3582 7.2546 29.5096 7.25643 29.6627C7.25826 29.8157 7.2952 29.9663 7.3644 30.1028C7.43361 30.2394 7.53323 30.3582 7.6556 30.4501C7.77796 30.5421 7.9198 30.6047 8.07019 30.6332C8.22058 30.6617 8.37551 30.6553 8.52303 30.6145C8.67056 30.5737 8.80674 30.4995 8.92109 30.3978C9.03545 30.296 9.12492 30.1694 9.18261 30.0276C9.2403 29.8858 9.26467 29.7327 9.25385 29.58L10.2539 24.12H10.3039L16.5939 20.12L16.8239 19.97V27.75L12.8239 31.52C12.6931 31.5958 12.5813 31.7002 12.4967 31.8254C12.4121 31.9506 12.357 32.0933 12.3355 32.2429C12.314 32.3925 12.3266 32.545 12.3725 32.6889C12.4184 32.8329 12.4963 32.9646 12.6004 33.0741C12.7045 33.1836 12.8321 33.2681 12.9735 33.3213C13.1149 33.3745 13.2666 33.3949 13.4171 33.381C13.5675 33.3671 13.7129 33.3194 13.8422 33.2412C13.9716 33.1631 14.0815 33.0567 14.1639 32.93L16.8639 30.38V30.75C16.8639 33.32 16.8639 34.69 16.8639 34.93C16.8511 35.1456 16.9085 35.3596 17.0275 35.5398C17.1465 35.7201 17.3206 35.857 17.5239 35.93C17.6394 35.9787 17.7635 36.0038 17.8889 36.0038C18.0142 36.0038 18.1383 35.9787 18.2539 35.93C18.4851 35.811 18.6609 35.6065 18.7439 35.36C18.8521 33.8257 18.8688 32.2863 18.7939 30.75V30.4L21.4839 32.95C21.6693 33.1244 21.9143 33.2215 22.1689 33.2215C22.4234 33.2215 22.6684 33.1244 22.8539 32.95C23.0282 32.7646 23.1253 32.5196 23.1253 32.265C23.1253 32.0105 23.0282 31.7655 22.8539 31.58L18.8539 27.77V19.89L25.4139 24.11L26.4139 29.57C26.4692 29.8179 26.6168 30.0353 26.8267 30.1783C27.0365 30.3213 27.2929 30.3791 27.5439 30.34C27.7917 30.2846 28.0092 30.1371 28.1522 29.9272C28.2952 29.7173 28.353 29.4609 28.3139 29.21L27.6239 25.55L27.9139 25.74L31.4339 28.02C31.6254 28.123 31.8453 28.1607 32.0602 28.1275C32.2751 28.0943 32.4733 27.9919 32.6248 27.8359C32.7763 27.6799 32.8728 27.4787 32.8997 27.2629C32.9266 27.0471 32.8824 26.8285 32.7739 26.64C31.5571 25.7271 30.2883 24.8857 28.9739 24.12L28.6839 23.93L32.2739 23.05C32.513 22.9778 32.7164 22.8187 32.8441 22.604C32.9718 22.3893 33.0145 22.1346 32.9639 21.89Z" fill="white"/>
</svg>
