<svg width="51" height="51" viewBox="0 0 51 51" fill="none" xmlns="http://www.w3.org/2000/svg">
<path d="M13.1395 31.9723C13.6234 30.4687 12.7968 28.8575 11.2932 28.3736C9.78963 27.8897 8.17845 28.7163 7.69455 30.2199C7.21064 31.7235 8.03726 33.3347 9.54084 33.8186C11.0444 34.3025 12.6556 33.4759 13.1395 31.9723Z" fill="white"/>
<path d="M42.9422 31.9654C43.4261 30.4619 42.5995 28.8507 41.096 28.3668C39.5924 27.8829 37.9812 28.7095 37.4973 30.2131C37.0134 31.7167 37.84 33.3278 39.3436 33.8117C40.8472 34.2956 42.4583 33.469 42.9422 31.9654Z" fill="white"/>
<path d="M43.45 35.4001H36.81C35.9979 35.3977 35.1975 35.5931 34.4779 35.9695C33.7583 36.3458 33.1412 36.8918 32.68 37.5601C32.2188 36.8918 31.6017 36.3458 30.8821 35.9695C30.1625 35.5931 29.3621 35.3977 28.55 35.4001H21.91C21.0979 35.3977 20.2975 35.5931 19.5779 35.9695C18.8583 36.3458 18.2412 36.8918 17.78 37.5601C17.3188 36.8918 16.7017 36.3458 15.9821 35.9695C15.2625 35.5931 14.4621 35.3977 13.65 35.4001H7C5.67795 35.4131 4.41374 35.9441 3.47887 36.879C2.54399 37.8138 2.01303 39.0781 2 40.4001V44.1501C2.05757 44.362 2.18325 44.549 2.35765 44.6823C2.53205 44.8156 2.74547 44.8879 2.965 44.8879C3.18453 44.8879 3.39795 44.8156 3.57235 44.6823C3.74675 44.549 3.87243 44.362 3.93 44.1501V40.4501C3.93251 39.633 4.25551 38.8494 4.82958 38.2679C5.40364 37.6863 6.18295 37.3532 7 37.3401H13.65C14.474 37.3427 15.2635 37.6713 15.8462 38.2539C16.4289 38.8366 16.7574 39.6261 16.76 40.4501V44.2001C16.76 44.4653 16.8654 44.7197 17.0529 44.9072C17.2404 45.0948 17.4948 45.2001 17.76 45.2001H17.86C18.1252 45.2001 18.3796 45.0948 18.5671 44.9072C18.7546 44.7197 18.86 44.4653 18.86 44.2001V40.4501C18.8626 39.6261 19.1911 38.8366 19.7738 38.2539C20.3565 37.6713 21.146 37.3427 21.97 37.3401H28.62C29.444 37.3427 30.2335 37.6713 30.8162 38.2539C31.3989 38.8366 31.7274 39.6261 31.73 40.4501V44.2001C31.73 44.4653 31.8354 44.7197 32.0229 44.9072C32.2104 45.0948 32.4648 45.2001 32.73 45.2001H32.83C33.0952 45.2001 33.3496 45.0948 33.5371 44.9072C33.7246 44.7197 33.83 44.4653 33.83 44.2001V40.4501C33.8326 39.6261 34.1611 38.8366 34.7438 38.2539C35.3265 37.6713 36.116 37.3427 36.94 37.3401H43.59C44.414 37.3427 45.2035 37.6713 45.7862 38.2539C46.3689 38.8366 46.6974 39.6261 46.7 40.4501V44.2001C46.7576 44.412 46.8832 44.599 47.0576 44.7323C47.232 44.8656 47.4455 44.9379 47.665 44.9379C47.8845 44.9379 48.0979 44.8656 48.2724 44.7323C48.4468 44.599 48.5724 44.412 48.63 44.2001V40.4501C48.6302 39.7759 48.4954 39.1084 48.2335 38.4871C47.9717 37.8657 47.588 37.3031 47.1052 36.8325C46.6224 36.3618 46.0503 35.9926 45.4225 35.7466C44.7947 35.5006 44.124 35.3828 43.45 35.4001Z" fill="white"/>
<path d="M27.9823 9.03088C28.4662 7.52729 27.6396 5.91611 26.136 5.43221C24.6324 4.9483 23.0212 5.77491 22.5373 7.2785C22.0534 8.78208 22.88 10.3933 24.3836 10.8772C25.8872 11.3611 27.4984 10.5345 27.9823 9.03088Z" fill="white"/>
<path d="M28.5498 17.9996C29.4475 17.9994 30.3346 18.1939 31.1498 18.5696V16.4396C31.1498 12.2096 26.7498 12.1796 25.3698 12.0596H24.9998C23.6198 12.1696 19.3398 12.1996 19.3398 16.4396V18.4396C20.1557 18.1127 21.0317 17.9627 21.9098 17.9996H28.5498Z" fill="white"/>
<path d="M28.0477 31.9586C28.5316 30.455 27.705 28.8438 26.2014 28.3599C24.6978 27.876 23.0867 28.7026 22.6028 30.2062C22.1188 31.7098 22.9455 33.321 24.449 33.8049C25.9526 34.2888 27.5638 33.4622 28.0477 31.9586Z" fill="white"/>
<path d="M17.8302 29.46C18.0954 29.46 18.3497 29.3546 18.5373 29.1671C18.7248 28.9796 18.8302 28.7252 18.8302 28.46V24.75C18.8328 23.926 19.1613 23.1365 19.744 22.5538C20.3266 21.9711 21.1161 21.6426 21.9402 21.64H28.5902C29.4142 21.6426 30.2037 21.9711 30.7863 22.5538C31.369 23.1365 31.6975 23.926 31.7002 24.75V28.5C31.7577 28.7118 31.8834 28.8989 32.0578 29.0322C32.2322 29.1655 32.4456 29.2378 32.6652 29.2378C32.8847 29.2378 33.0981 29.1655 33.2725 29.0322C33.4469 28.8989 33.5726 28.7118 33.6302 28.5V24.75C33.6171 23.428 33.0862 22.1637 32.1513 21.2289C31.2164 20.294 29.9522 19.763 28.6302 19.75H21.9102C20.5881 19.763 19.3239 20.294 18.389 21.2289C17.4541 22.1637 16.9232 23.428 16.9102 24.75V28.5C16.9192 28.745 17.0179 28.9781 17.1875 29.1551C17.3571 29.332 17.5858 29.4406 17.8302 29.46Z" fill="white"/>
</svg>
