<svg width="70" height="69" viewBox="0 0 70 69" fill="none" xmlns="http://www.w3.org/2000/svg">
<circle cx="33.521" cy="6.54348" r="6.54348" fill="white"/>
<circle cx="6.54348" cy="33.8697" r="6.54348" fill="white"/>
<circle cx="62.6304" cy="33.8697" r="6.54348" fill="white"/>
<circle cx="33.521" cy="61.6958" r="6.54348" fill="white"/>
<path d="M39.472 55.7464C39.7314 56.9139 38.843 58.0215 37.6469 58.0215L30.1737 58.0215C28.972 58.0215 28.0823 56.904 28.3517 55.7329L29.4266 51.059C29.6218 50.2101 30.3775 49.6084 31.2486 49.6084L36.6083 49.6084C37.4845 49.6084 38.2432 50.217 38.4333 51.0724L39.472 55.7464Z" fill="white"/>
<path d="M12.4919 39.8206C11.3244 40.08 10.2168 39.1916 10.2168 37.9955L10.2168 30.5223C10.2168 29.3206 11.3342 28.431 12.5054 28.7003L17.1793 29.7752C18.0282 29.9704 18.6298 30.7261 18.6298 31.5972L18.6298 36.9569C18.6298 37.8332 18.0212 38.5919 17.1658 38.7819L12.4919 39.8206Z" fill="white"/>
<path d="M55.7464 28.8318C56.9139 28.5723 58.0215 29.4608 58.0215 30.6568L58.0215 38.13C58.0215 39.3317 56.904 40.2214 55.7329 39.952L51.059 38.8772C50.2101 38.6819 49.6084 37.9263 49.6084 37.0551L49.6084 31.6954C49.6084 30.8192 50.217 30.0605 51.0724 29.8704L55.7464 28.8318Z" fill="white"/>
<path d="M28.5056 12.1667C28.2461 10.9992 29.1346 9.8916 30.3306 9.8916H37.8039C39.0056 9.8916 39.8952 11.009 39.6259 12.1802L38.551 16.8541C38.3557 17.703 37.6001 18.3046 36.729 18.3046H31.3693C30.493 18.3046 29.7343 17.696 29.5442 16.8406L28.5056 12.1667Z" fill="white"/>
<path fill-rule="evenodd" clip-rule="evenodd" d="M58.4201 41.0534C58.5471 40.6053 58.6622 40.1521 58.7651 39.6943C59.1745 37.8727 59.3906 35.9779 59.3906 34.0327C59.3906 32.0875 59.1745 30.1927 58.7651 28.3711C58.6622 27.9133 58.5471 27.4601 58.4201 27.012C58.2922 26.5604 58.1523 26.1139 58.0007 25.6728C56.577 26.0748 55.7007 27.5254 56.029 28.986C56.3934 30.6072 56.5862 32.2957 56.5862 34.0327C56.5862 35.7697 56.3934 37.4582 56.029 39.0794C55.7007 40.54 56.577 41.9906 58.0007 42.3926C58.1523 41.9515 58.2922 41.505 58.4201 41.0534ZM56.7883 45.3161C55.4974 44.593 53.8514 44.9988 53.0504 46.264C52.6499 46.8967 52.2192 47.5084 51.7604 48.0972C52.7256 48.3493 53.5014 49.0702 53.83 50.002C54.3983 49.286 54.9292 48.5391 55.4199 47.764C55.6696 47.3696 55.9089 46.9679 56.1373 46.5593C56.3652 46.1516 56.5824 45.7371 56.7883 45.3161ZM45.9154 53.3991C46.6797 52.9152 47.4135 52.3873 48.1131 51.8189C48.3842 52.7765 49.1189 53.5393 50.0594 53.8496C49.2211 54.5431 48.3382 55.1844 47.4154 55.7685C47.021 56.0182 46.6192 56.2575 46.2107 56.4859C45.803 56.7139 45.3885 56.931 44.9675 57.137C44.2443 55.846 44.6502 54.2 45.9154 53.3991ZM42.0439 58.3493C41.642 56.9257 40.1914 56.0493 38.7307 56.3776C37.1096 56.742 35.421 56.9349 33.6841 56.9349C31.9471 56.9349 30.2585 56.742 28.6374 56.3776C27.1767 56.0493 25.7262 56.9257 25.3242 58.3493C25.7653 58.5009 26.2118 58.6409 26.6633 58.7688C27.1115 58.8957 27.5647 59.0108 28.0224 59.1137C29.844 59.5232 31.7388 59.7392 33.6841 59.7392C35.6293 59.7392 37.5241 59.5232 39.3457 59.1137C39.8035 59.0108 40.2566 58.8957 40.7048 58.7688C41.1564 58.6409 41.6029 58.5009 42.0439 58.3493ZM22.4006 57.137C23.1238 55.846 22.7179 54.2 21.4527 53.3991C20.8656 53.0274 20.2965 52.6297 19.747 52.2076C19.3404 53.1313 18.4815 53.811 17.4509 53.9663C18.2466 54.6152 19.082 55.2173 19.9527 55.7685C20.3472 56.0182 20.7489 56.2575 21.1575 56.4859C21.5651 56.7139 21.9796 56.931 22.4006 57.137ZM14.3177 46.264C14.7584 46.9601 15.2356 47.6309 15.7466 48.2736C14.8316 48.6949 14.165 49.5633 14.0266 50.5989C13.2718 49.7041 12.5769 48.7571 11.9482 47.764C11.6985 47.3696 11.4593 46.9679 11.2308 46.5593C11.0029 46.1516 10.7858 45.7371 10.5798 45.3162C11.8708 44.593 13.5167 44.9988 14.3177 46.264ZM9.36745 42.3926C10.7911 41.9906 11.6674 40.54 11.3391 39.0794C10.9748 37.4582 10.7819 35.7697 10.7819 34.0327C10.7819 32.2957 10.9748 30.6072 11.3391 28.986C11.6674 27.5254 10.7911 26.0748 9.36745 25.6728C9.21584 26.1139 9.0759 26.5604 8.94798 27.012C8.82103 27.4601 8.70593 27.9133 8.60304 28.3711C8.1936 30.1927 7.97754 32.0875 7.97754 34.0327C7.97754 35.9779 8.1936 37.8727 8.60304 39.6943C8.70593 40.1521 8.82103 40.6053 8.94798 41.0534C9.0759 41.505 9.21584 41.9515 9.36745 42.3926ZM10.5798 22.7492C11.8708 23.4724 13.5167 23.0666 14.3177 21.8014C14.7694 21.0879 15.2594 20.401 15.7849 19.7437C14.8669 19.3366 14.1913 18.4822 14.0346 17.457C13.2767 18.3546 12.5791 19.3048 11.9482 20.3014C11.6985 20.6958 11.4593 21.0975 11.2308 21.5061C11.0029 21.9138 10.7858 22.3283 10.5798 22.7492ZM17.5179 14.0445C18.5368 14.2219 19.3792 14.9132 19.7682 15.8416C20.3111 15.4255 20.8731 15.0333 21.4527 14.6663C22.7179 13.8654 23.1238 12.2194 22.4006 10.9284C21.9796 11.1344 21.5651 11.3515 21.1575 11.5795C20.7489 11.8079 20.3472 12.0472 19.9527 12.2969C19.1064 12.8326 18.2935 13.4165 17.5179 14.0445ZM25.3242 9.71608C25.7262 11.1397 27.1767 12.0161 28.6374 11.6878C30.2585 11.3234 31.9471 11.1305 33.6841 11.1305C35.421 11.1305 37.1096 11.3234 38.7307 11.6878C40.1914 12.0161 41.642 11.1397 42.0439 9.71608C41.6029 9.56447 41.1564 9.42453 40.7048 9.29661C40.2566 9.16966 39.8035 9.05456 39.3457 8.95167C37.5241 8.54223 35.6293 8.32617 33.6841 8.32617C31.7388 8.32617 29.844 8.54223 28.0224 8.95167C27.5647 9.05456 27.1115 9.16966 26.6633 9.29662C26.2118 9.42453 25.7653 9.56447 25.3242 9.71608ZM44.9675 10.9284C44.2443 12.2194 44.6502 13.8654 45.9154 14.6663C46.6744 15.1468 47.4033 15.6708 48.0985 16.2346C48.352 15.2712 49.0725 14.4973 50.0033 14.1695C49.1818 13.4938 48.3176 12.868 47.4154 12.2969C47.021 12.0472 46.6192 11.8079 46.2106 11.5795C45.803 11.3515 45.3885 11.1344 44.9675 10.9284ZM53.8137 18.0429C54.3882 18.7651 54.9246 19.519 55.4199 20.3014C55.6696 20.6958 55.9089 21.0975 56.1373 21.5061C56.3652 21.9138 56.5824 22.3283 56.7883 22.7492C55.4974 23.4724 53.8514 23.0666 53.0504 21.8014C52.6375 21.1491 52.1925 20.5191 51.7177 19.9136C52.687 19.6756 53.4713 18.9665 53.8137 18.0429Z" fill="white"/>
</svg>
