<svg width="43" height="41" viewBox="0 0 43 41" fill="none" xmlns="http://www.w3.org/2000/svg">
<path d="M25.7378 20.6C26.1378 20.6 26.4378 20.5 26.7378 20.2L33.3378 13.9C33.7378 13.5 33.9378 12.8 33.6378 12.3C32.8378 10.7 31.6378 9.1 30.3378 7.7C28.9378 6.3 27.3378 5.1 25.7378 4.3C25.3378 4.1 25.1378 4 24.9378 4C24.5378 4 24.2378 4.1 23.9378 4.4L17.5378 10.8C17.1378 11.2 17.0378 11.9 17.2378 12.4C17.7378 13.3 18.2378 14.2 18.9378 15.1L2.03775 28.6L1.93775 28.7C0.0377533 30.5 0.0377535 33.6 1.83775 35.4C2.73775 36.3 3.93775 36.8 5.23775 36.8C6.43775 36.8 7.63775 36.3 8.53775 35.5L8.63775 35.4L22.4378 18.7C23.2378 19.3 24.1378 19.9 25.0378 20.4C25.2378 20.5 25.5378 20.6 25.7378 20.6Z" fill="white"/>
<path d="M28.2377 20.5C27.4377 21.3 27.4377 22.7 28.2377 23.5L28.7377 24C29.1377 24.4 29.6377 24.6 30.2377 24.6C30.8377 24.6 31.3377 24.4 31.7377 24L37.0377 18.7C37.8377 17.9 37.8377 16.5 37.0377 15.7L36.5377 15.2C36.1377 14.8 35.6377 14.6 35.0377 14.6C34.4377 14.6 33.9377 14.8 33.5377 15.2L28.2377 20.5Z" fill="white"/>
<path d="M14.1376 9.4C14.5376 9.8 15.0376 10 15.6376 10C16.2376 10 16.7376 9.8 17.1376 9.4L22.4376 4.1C23.2376 3.3 23.2376 1.9 22.4376 1.1L21.9376 0.6C21.5376 0.2 21.0376 0 20.4376 0C19.8376 0 19.3376 0.2 18.9376 0.6L13.6376 5.9C12.8376 6.7 12.8376 8.1 13.6376 8.9L14.1376 9.4Z" fill="white"/>
<path d="M29.6377 30.8C28.2377 30.8 27.1377 31.9 27.1377 33.3V34C27.1377 34.3 27.3377 34.5 27.6377 34.5H37.3377C37.6377 34.5 37.8377 34.3 37.8377 34V33.3C37.8377 31.9 36.7377 30.8 35.3377 30.8H29.6377Z" fill="white"/>
<path d="M38.2377 35.8H34.8377H34.0377H26.6377C23.6377 35.8 22.3377 38.2 22.1377 40.6H42.8377C42.6377 38.2 41.3377 35.8 38.2377 35.8Z" fill="white"/>
</svg>
