<svg width="42" height="42" viewBox="0 0 42 42" fill="none" xmlns="http://www.w3.org/2000/svg">
<path d="M41.5115 19.6326C41.1719 14.6695 39.0452 9.99765 35.5254 6.48221C32.0056 2.96677 27.3311 0.845939 22.3676 0.512482H19.6328C14.6753 0.85635 10.0093 2.98119 6.49533 6.49512C2.9814 10.009 0.856564 14.675 0.512695 19.6326V22.3555C0.847446 27.3266 2.97503 32.0073 6.50028 35.5282C10.0255 39.0491 14.7088 41.1708 19.6804 41.4994H22.4033C27.3723 41.1702 32.0527 39.0476 35.574 35.5263C39.0954 32.0049 41.218 27.3246 41.5472 22.3555V19.6326H41.5115ZM13.3189 4.9239C11.8805 6.88461 10.7867 9.0761 10.0846 11.4043H5.97048C7.76377 8.60222 10.305 6.35755 13.307 4.9239H13.3189ZM4.54361 14.151H9.35931C8.97864 15.9597 8.75191 17.7975 8.68154 19.6445H3.22375C3.36526 17.7555 3.80678 15.9011 4.53172 14.151H4.54361ZM3.23564 22.3674H8.68154C8.75191 24.2144 8.97864 26.0522 9.35931 27.8609H4.54361C3.81867 26.1108 3.37715 24.2564 3.23564 22.3674ZM5.98238 30.6076H10.0252C10.7309 32.9366 11.8287 35.1281 13.2713 37.088C10.2693 35.6543 7.72809 33.4097 5.93481 30.6076H5.98238ZM19.6447 38.6576C16.8147 37.9084 14.389 34.8882 12.9265 30.6076H19.6447V38.6576ZM19.6447 27.8609H12.1298C11.726 26.0551 11.4872 24.2164 11.4164 22.3674H19.6209L19.6447 27.8609ZM19.6447 19.6445H11.4402C11.511 17.7955 11.7498 15.9568 12.1536 14.151H19.6566L19.6447 19.6445ZM19.6447 11.4043H12.9146C14.389 7.13555 16.8147 4.10345 19.6328 3.35434L19.6447 11.4043ZM36.0299 11.4043H31.9277C31.2219 9.07531 30.1241 6.88377 28.6815 4.9239C31.6836 6.35755 34.2248 8.60222 36.018 11.4043H36.0299ZM22.3676 3.35434C25.1976 4.10345 27.6233 7.12366 29.0858 11.4043H22.3676V3.35434ZM22.3676 14.151H29.8706C30.2678 15.9579 30.5065 17.796 30.584 19.6445H22.3795L22.3676 14.151ZM22.3676 22.3674H30.5721C30.5014 24.2164 30.2626 26.0551 29.8587 27.8609H22.3676V22.3674ZM22.3676 38.6457V30.6076H29.0502C27.5757 34.8763 25.15 37.9084 22.332 38.6576L22.3676 38.6457ZM28.6934 37.0761C30.1275 35.111 31.2245 32.921 31.9396 30.5957H36.0418C34.2486 33.3978 31.7073 35.6424 28.7053 37.0761H28.6934ZM37.4568 27.8609H32.6173C32.9979 26.0521 33.2247 24.2144 33.2951 22.3674H38.741C38.6071 24.2551 38.1736 26.1094 37.4568 27.8609ZM33.3189 19.6445C33.2413 17.7928 33.0066 15.9511 32.6173 14.1391H37.433C38.158 15.8892 38.5995 17.7436 38.741 19.6326L33.3189 19.6445Z" fill="white"/>
</svg>
