<svg width="53" height="52" viewBox="0 0 53 52" fill="none" xmlns="http://www.w3.org/2000/svg">
<path d="M21.5422 1C19.6993 3.17797 15.8637 5.52337 19.5317 10.5495C23.1997 15.5756 21.0397 19.0939 19.5317 20.0991" stroke="white" stroke-width="1.80845" stroke-linecap="round" stroke-linejoin="round"/>
<path d="M28.954 1.00006C27.1111 3.17803 23.2755 5.52343 26.9436 10.5496C30.6115 15.5757 28.4516 19.0939 26.9436 20.0992" stroke="white" stroke-width="1.80845" stroke-linecap="round" stroke-linejoin="round"/>
<path d="M35.9912 1.00006C34.1483 3.17803 30.3127 5.52343 33.9807 10.5496C37.6487 15.5757 35.4887 19.0939 33.9807 20.0992" stroke="white" stroke-width="1.80845" stroke-linecap="round" stroke-linejoin="round"/>
<path d="M20.7847 45.9861C18.2899 45.9861 17.3198 49.451 17.1465 51.1835H28.0611C29.5312 51.1835 23.9032 45.9861 20.7847 45.9861Z" fill="white"/>
<path fill-rule="evenodd" clip-rule="evenodd" d="M50.8412 49.6244C50.3531 43.9074 47.8635 38.5187 43.775 34.4302C39.1939 29.8491 32.9806 27.2754 26.5019 27.2754C20.0232 27.2754 13.8099 29.8491 9.22875 34.4302C5.14021 38.5187 2.65065 43.9074 2.16254 49.6244L50.8412 49.6244ZM53.0037 51.1835C53.0093 51.4705 52.776 51.7033 52.489 51.7033L0.51475 51.7033C0.227704 51.7033 -0.00552355 51.4705 9.9591e-05 51.1835C0.134155 44.3416 2.91035 37.8085 7.75869 32.9602C12.7297 27.9892 19.4718 25.1965 26.5019 25.1965C33.5319 25.1965 40.2741 27.9892 45.2451 32.9602C50.0934 37.8085 52.8696 44.3416 53.0037 51.1835Z" fill="white"/>
<path d="M31.7001 34.0319C32.5317 31.5372 32.7396 28.1415 32.7396 26.7556L38.4563 28.8345L43.6537 32.4727C45.3862 34.2052 48.9551 38.0859 49.3709 39.7491C49.8906 41.8281 44.6932 43.9071 41.5747 44.9465C38.4563 45.986 40.016 43.3873 32.7396 44.9465C25.4632 46.5058 28.0619 40.7886 28.5816 39.7491C29.1014 38.7096 30.6606 37.1504 31.7001 34.0319Z" fill="white"/>
<path d="M14.5482 44.4268C11.6376 46.9216 6.05904 42.6943 3.63358 40.2689C7.79152 30.2898 16.8004 27.102 20.7851 26.7556C20.9583 27.4485 21.5127 29.874 22.3443 34.0319C23.3838 39.2294 18.1864 41.3083 14.5482 44.4268Z" fill="white"/>
<path fill-rule="evenodd" clip-rule="evenodd" d="M40.1565 20.9955C40.4008 20.5001 41.0003 20.2966 41.4957 20.5408C42.8371 21.2023 44.1366 21.9521 45.3853 22.7864C45.8445 23.0932 45.9681 23.7142 45.6612 24.1734C45.3544 24.6326 44.7334 24.7562 44.2742 24.4493C43.0983 23.6636 41.8744 22.9575 40.6111 22.3346C40.1158 22.0903 39.9123 21.4908 40.1565 20.9955ZM12.4627 20.9955C12.7069 21.4908 12.5034 22.0903 12.008 22.3346C10.7448 22.9576 9.52092 23.6636 8.34499 24.4493C7.88578 24.7562 7.26478 24.6326 6.95795 24.1734C6.65113 23.7142 6.77466 23.0932 7.23387 22.7864C8.48257 21.9521 9.78212 21.2023 11.1235 20.5408C11.6188 20.2966 12.2184 20.5001 12.4627 20.9955ZM5.08203 25.6129C5.44619 26.0281 5.4048 26.66 4.98958 27.0241C4.46072 27.4879 3.94555 27.9703 3.44508 28.4708C3.05456 28.8613 2.42139 28.8613 2.03087 28.4708C1.64034 28.0802 1.64035 27.4471 2.03087 27.0566C2.56225 26.5252 3.10927 26.013 3.67084 25.5205C4.08606 25.1563 4.71787 25.1977 5.08203 25.6129ZM47.5371 25.6129C47.9013 25.1977 48.5331 25.1563 48.9483 25.5205C49.5099 26.013 50.0569 26.5252 50.5883 27.0566C50.9788 27.4471 50.9788 28.0802 50.5883 28.4708C50.1978 28.8613 49.5646 28.8613 49.1741 28.4708C48.6736 27.9703 48.1585 27.4879 47.6296 27.0241C47.2144 26.66 47.173 26.0281 47.5371 25.6129Z" fill="white"/>
</svg>
