<svg width="44" height="43" viewBox="0 0 44 43" fill="none" xmlns="http://www.w3.org/2000/svg">
<path d="M8.2742 18.6025C8.06223 18.3937 8.06008 18.0527 8.26882 17.8418C9.53954 16.5538 10.5004 14.8538 11.43 13.2097C13.3087 9.88818 15.2497 6.4526 19.7785 6.4526C23.1872 6.4526 25.1304 7.78035 27.59 9.46102C29.6516 10.8695 32.2135 12.6018 36.4754 14.1716L36.1074 13.0731C36.0138 12.7912 36.1655 12.4867 36.4474 12.392C36.725 12.2994 37.0339 12.4501 37.1285 12.7309L37.8796 14.9754C37.9732 15.2573 37.8215 15.5618 37.5406 15.6565L35.2962 16.4086C35.2391 16.4279 35.1821 16.4365 35.1251 16.4365C34.9002 16.4365 34.6904 16.2945 34.6151 16.0696C34.5204 15.7877 34.6721 15.4832 34.9529 15.3885L35.8524 15.0873C31.6174 13.4981 29.0534 11.7636 26.9832 10.3487C24.5849 8.71107 22.8536 7.5275 19.7785 7.5275C15.8781 7.5275 14.1727 10.5445 12.3661 13.7369C11.402 15.4423 10.4057 17.2059 9.03491 18.5949C8.92946 18.7015 8.79066 18.7553 8.65186 18.7553C8.51521 18.7574 8.37857 18.7058 8.2742 18.6025ZM42.9076 37.2297C42.8538 37.2243 42.7989 37.2265 42.744 37.2297H42.701H6.16099V0.980212C6.16099 0.438998 5.72307 0.00107795 5.18293 1.97367e-06C4.64279 -0.001074 4.20272 0.437922 4.20272 0.979136V37.2297H1.16848C0.625113 37.1727 0.137698 37.5676 0.0806712 38.1109C0.0236447 38.6543 0.418526 39.1417 0.961892 39.1987C1.03075 39.2063 1.09962 39.2063 1.16848 39.1987H4.15968V41.4798C4.15968 42.021 4.5976 42.4589 5.13774 42.46C5.67895 42.46 6.11687 42.0221 6.11795 41.4819V39.1998H42.701C43.2444 39.2568 43.7318 38.8619 43.7888 38.3186C43.8458 37.7731 43.4509 37.2867 42.9076 37.2297ZM8.65724 23.0516C8.64971 23.1581 8.64971 23.2647 8.65724 23.3712V35.1208H13.4023V23.3712C13.4905 22.0606 12.4995 20.9266 11.1901 20.8383C9.87955 20.7501 8.74547 21.7411 8.65724 23.0516ZM16.7916 13.8865C16.7916 13.8897 16.7916 13.894 16.7916 13.8973V35.1208H21.5366V13.8983C21.5366 12.5846 20.4714 11.5204 19.1587 11.5204C17.8514 11.5194 16.7916 12.5792 16.7916 13.8865ZM24.9152 17.8375V35.1208H29.671V17.8375C29.671 16.5237 28.6058 15.4596 27.2931 15.4596C25.9804 15.4596 24.9152 16.5237 24.9152 17.8375ZM35.4683 20.0421C34.1567 20.0432 33.0936 21.1063 33.0926 22.4179V35.1208H37.8484V22.4179C37.8473 21.1041 36.7821 20.041 35.4683 20.0421Z" fill="white"/>
</svg>
