<svg width="48" height="56" viewBox="0 0 48 56" fill="none" xmlns="http://www.w3.org/2000/svg">
<path d="M37.6301 16.0776C35.0619 3.53148 26.0353 4.34305 21.843 6.3171C18.4481 10.758 26.2122 17.5383 28.0133 16.2132C29.4541 15.153 35.0249 15.681 37.6301 16.0776Z" stroke="white" stroke-width="1.5" stroke-linecap="round" stroke-linejoin="round"/>
<path d="M21.6152 6.76248C26.5152 8.89456 36.311 13.6059 36.2946 15.3947" stroke="white" stroke-width="1.5" stroke-linecap="round" stroke-linejoin="round"/>
<path d="M28.2923 10.1781L28.7169 12.6418" stroke="white" stroke-width="1.5" stroke-linecap="round" stroke-linejoin="round"/>
<path d="M31.4083 11.772L31.6154 13.5628" stroke="white" stroke-width="1.5" stroke-linecap="round" stroke-linejoin="round"/>
<path d="M26.7394 8.82207L29.2031 8.39746" stroke="white" stroke-width="1.5" stroke-linecap="round" stroke-linejoin="round"/>
<path d="M30.3006 10.6438L32.1017 9.3186" stroke="white" stroke-width="1.5" stroke-linecap="round" stroke-linejoin="round"/>
<path d="M21.6152 6.76257L17.6089 4.71324" stroke="white" stroke-width="1.5" stroke-linecap="round" stroke-linejoin="round"/>
<rect x="0.5" y="49.5" width="47" height="6" rx="2.5" fill="white" stroke="white"/>
<rect x="1.38477" y="11" width="13.5384" height="32.9999" rx="2.53845" fill="white"/>
<rect x="17.4619" y="20.3076" width="13.5384" height="23.6922" rx="2.53845" fill="white"/>
<rect x="33.5381" y="28.7695" width="13.5384" height="15.2307" rx="2.53845" fill="white"/>
</svg>
