<svg width="51" height="51" viewBox="0 0 51 51" fill="none" xmlns="http://www.w3.org/2000/svg">
<path d="M33.9997 15.05C33.9397 14.76 33.4497 12.18 31.9197 11.05C30.3897 9.91995 28.1797 10.05 26.5197 12.12C26.292 10.9178 25.7698 9.79081 24.9997 8.83995C22.5997 6.33995 19.7197 6.60995 16.4397 9.62995C16.3473 9.7168 16.2745 9.82241 16.2262 9.93968C16.1779 10.057 16.1553 10.1832 16.1597 10.31C16.1677 10.9723 16.3108 11.6261 16.5801 12.2313C16.8494 12.8365 17.2394 13.3804 17.7262 13.8297C18.2129 14.279 18.7862 14.6243 19.411 14.8444C20.0357 15.0645 20.6988 15.1549 21.3597 15.11C21.9097 15.11 24.4997 15.11 25.3597 17.37C25.4002 17.5558 25.4503 17.7393 25.5097 17.92V32C24.3912 32.0377 23.2965 32.3335 22.3111 32.8643C21.3258 33.3952 20.4766 34.1466 19.8297 35.06C19.7725 35.1569 19.7351 35.2643 19.7197 35.3759C19.7043 35.4874 19.7112 35.6009 19.74 35.7098C19.7689 35.8186 19.8191 35.9207 19.8877 36.01C19.9563 36.0993 20.042 36.174 20.1397 36.23C20.2733 36.3079 20.4251 36.3493 20.5797 36.35C20.7301 36.3501 20.8778 36.3104 21.0078 36.2349C21.1378 36.1593 21.2454 36.0507 21.3197 35.92C22.1097 34.58 24.1797 33.67 26.4897 33.67C28.7997 33.67 30.7697 34.54 31.5997 35.83C31.7401 35.9613 31.9204 36.0418 32.1118 36.0586C32.3033 36.0755 32.4948 36.0278 32.656 35.923C32.8171 35.8183 32.9385 35.6626 33.0008 35.4808C33.0631 35.299 33.0628 35.1015 32.9997 34.92C32.3105 34.0282 31.4296 33.3028 30.4222 32.7974C29.4148 32.2919 28.3066 32.0194 27.1797 32V17.93C27.3126 17.4478 27.5499 17.0008 27.8748 16.6206C28.1997 16.2404 28.6042 15.9364 29.0597 15.73C29.6623 15.5173 30.3017 15.4289 30.9393 15.4702C31.5769 15.5114 32.1996 15.6814 32.7697 15.97C32.9118 16.0438 33.072 16.0754 33.2314 16.0613C33.3909 16.0471 33.5429 15.9877 33.6697 15.89C33.7972 15.7943 33.8955 15.665 33.9538 15.5167C34.012 15.3684 34.028 15.2068 33.9997 15.05ZM21.5897 13.39H21.2497C20.4371 13.4569 19.6306 13.2021 19.004 12.6802C18.3774 12.1584 17.9809 11.4113 17.8997 10.6C20.9997 7.93995 22.6297 8.87995 23.7397 9.99995C24.5397 10.84 24.9897 12.7 25.2197 14.46C24.1491 13.7373 22.8811 13.3636 21.5897 13.39ZM28.3897 14.14C27.8809 14.3456 27.4108 14.6364 26.9997 15V14.9C27.1569 14.2744 27.443 13.6885 27.8397 13.18C28.0598 12.8451 28.3555 12.5666 28.7028 12.3669C29.0502 12.1671 29.4396 12.0517 29.8397 12.03C30.2218 12.0278 30.5941 12.1507 30.8997 12.38C31.3516 12.7738 31.6958 13.2763 31.8997 13.84C30.7261 13.5865 29.5034 13.691 28.3897 14.14Z" fill="white"/>
<path d="M19.14 29.34C19.09 29.05 18.59 26.47 17.07 25.34C15.55 24.21 13.33 24.34 11.66 26.42C11.4243 25.2147 10.8915 24.0874 10.11 23.14C7.70997 20.65 4.82997 20.92 1.53997 23.93C1.44804 24.0189 1.37634 24.1265 1.32975 24.2456C1.28316 24.3647 1.26277 24.4924 1.26997 24.62C1.27939 25.282 1.42339 25.935 1.69321 26.5396C1.96303 27.1441 2.35303 27.6874 2.83947 28.1364C3.3259 28.5854 3.89862 28.9308 4.52275 29.1514C5.14689 29.3721 5.8094 29.4635 6.46997 29.42C7.01997 29.42 9.60997 29.42 10.47 31.68C10.52 31.91 10.57 32.09 10.61 32.22V38.56C9.49396 38.5981 8.40179 38.8931 7.41838 39.4221C6.43498 39.9511 5.58685 40.6998 4.93997 41.61C4.88248 41.7078 4.8449 41.8159 4.82937 41.9282C4.81384 42.0406 4.82068 42.1548 4.84949 42.2645C4.87831 42.3742 4.92852 42.4771 4.99725 42.5673C5.06598 42.6574 5.15187 42.7332 5.24997 42.79C5.38005 42.8676 5.5285 42.909 5.67997 42.91C5.83142 42.9089 5.98002 42.8688 6.11141 42.7935C6.2428 42.7181 6.35252 42.6102 6.42997 42.48C7.20997 41.13 9.28997 40.23 11.6 40.23C13.91 40.23 15.88 41.09 16.71 42.38C16.767 42.4822 16.8442 42.5718 16.937 42.6431C17.0298 42.7144 17.1362 42.766 17.2497 42.7948C17.3631 42.8236 17.4813 42.8289 17.5968 42.8104C17.7124 42.7919 17.823 42.75 17.9218 42.6873C18.0206 42.6246 18.1056 42.5424 18.1716 42.4457C18.2375 42.349 18.283 42.2399 18.3053 42.125C18.3276 42.0101 18.3262 41.8919 18.3012 41.7775C18.2762 41.6632 18.2282 41.5551 18.16 41.46C17.4687 40.568 16.5859 39.8426 15.5769 39.3372C14.5679 38.8319 13.4583 38.5594 12.33 38.54V32.24C12.4586 31.7539 12.6917 31.3017 13.0129 30.9149C13.3341 30.528 13.7358 30.2158 14.19 30C14.7949 29.7892 15.4362 29.7027 16.0755 29.7456C16.7147 29.7886 17.3386 29.9602 17.91 30.25C18.0532 30.3193 18.2125 30.3484 18.371 30.3343C18.5295 30.3203 18.6812 30.2635 18.81 30.17C18.9357 30.0752 19.033 29.9476 19.0912 29.8012C19.1494 29.6549 19.1662 29.4953 19.14 29.34ZM6.71997 27.67H6.38997C5.98436 27.7128 5.5743 27.6746 5.18358 27.5576C4.79286 27.4406 4.42926 27.2472 4.11389 26.9886C3.79852 26.73 3.53765 26.4113 3.34643 26.051C3.15521 25.6908 3.03744 25.2961 2.99997 24.89C6.06997 22.22 7.72997 23.17 8.82997 24.31C9.63997 25.15 10.08 27.02 10.32 28.78C9.26385 28.0462 8.00595 27.6583 6.71997 27.67ZM13.52 28.43C13.0175 28.6395 12.5569 28.9375 12.16 29.31V29.21C12.3128 28.5829 12.5993 27.9961 13 27.49C13.22 27.1559 13.5159 26.8785 13.8634 26.6804C14.2109 26.4823 14.6004 26.3691 15 26.35C15.3613 26.3612 15.7105 26.4834 16 26.7C16.4509 27.0948 16.7948 27.5969 17 28.16C15.8388 27.9032 14.6276 27.9971 13.52 28.43Z" fill="white"/>
<path d="M49.1799 29.34C49.1799 29.05 48.6299 26.47 47.1099 25.34C45.5899 24.21 43.3699 24.34 41.6999 26.42C41.4598 25.2162 40.9275 24.0898 40.1499 23.14C37.7499 20.65 34.8599 20.92 31.5799 23.93C31.4863 24.0176 31.4135 24.1251 31.3667 24.2444C31.32 24.3638 31.3006 24.4922 31.3099 24.62C31.3193 25.282 31.4633 25.935 31.7331 26.5396C32.0029 27.1441 32.3929 27.6874 32.8794 28.1364C33.3658 28.5854 33.9385 28.9308 34.5627 29.1514C35.1868 29.3721 35.8493 29.4635 36.5099 29.42C37.0499 29.42 39.6399 29.42 40.5099 31.68C40.5699 31.9134 40.6199 32.0934 40.6599 32.22V39C38.0999 39.2 35.9299 40.34 34.9999 42C34.9426 42.097 34.9052 42.2044 34.8898 42.3159C34.8744 42.4275 34.8813 42.541 34.9102 42.6499C34.939 42.7587 34.9892 42.8608 35.0578 42.95C35.1264 43.0393 35.2121 43.1141 35.3099 43.17C35.4393 43.249 35.5882 43.2906 35.7399 43.29C35.8892 43.2912 36.0363 43.253 36.1662 43.1793C36.2961 43.1055 36.4043 42.9989 36.4799 42.87C37.2699 41.52 39.3499 40.61 41.6499 40.61C43.9499 40.61 45.9399 41.48 46.7599 42.77C46.8832 42.9623 47.0779 43.0977 47.301 43.1465C47.5242 43.1952 47.7576 43.1533 47.9499 43.03C48.1422 42.9067 48.2776 42.712 48.3263 42.4889C48.3751 42.2657 48.3332 42.0323 48.2099 41.84C47.5094 40.9566 46.6187 40.2425 45.6042 39.7508C44.5896 39.2592 43.4773 39.0025 42.3499 39V32.22C42.4833 31.7357 42.7206 31.2862 43.0452 30.9028C43.3699 30.5195 43.7741 30.2114 44.2299 30C44.8348 29.7892 45.4762 29.7027 46.1154 29.7456C46.7546 29.7886 47.3785 29.9602 47.9499 30.25C48.0931 30.3193 48.2524 30.3484 48.4109 30.3343C48.5694 30.3203 48.7211 30.2635 48.8499 30.17C48.9756 30.0752 49.0729 29.9476 49.1311 29.8012C49.1893 29.6549 49.2061 29.4953 49.1799 29.34ZM36.7599 27.67H36.4199C35.6066 27.7396 34.7988 27.4857 34.1716 26.9634C33.5444 26.441 33.1485 25.6924 33.0699 24.88C36.1499 22.21 37.8099 23.16 38.9099 24.3C39.7199 25.14 40.1599 27.01 40.3999 28.77C39.3308 28.033 38.0582 27.6484 36.7599 27.67ZM43.5599 28.43C43.0574 28.6395 42.5968 28.9375 42.1999 29.31V29.21C42.3439 28.5872 42.6163 28.0014 42.9999 27.49C43.2217 27.1576 43.5179 26.8815 43.8651 26.6836C44.2123 26.4857 44.6008 26.3715 44.9999 26.35C45.3822 26.3464 45.7549 26.4694 46.0599 26.7C46.5169 27.0892 46.8621 27.5932 47.0599 28.16C45.8928 27.8935 44.6723 27.9876 43.5599 28.43Z" fill="white"/>
</svg>
