<svg width="51" height="51" viewBox="0 0 51 51" fill="none" xmlns="http://www.w3.org/2000/svg">
<path d="M17.9758 27.6711C17.9758 27.6711 17.9758 27.6711 17.9668 27.6711C15.5388 27.6711 13.5568 25.6661 13.5668 23.2471C13.5758 20.8141 15.5528 18.8471 17.9758 18.8471C17.9758 18.8471 17.9758 18.8471 17.9858 18.8471C20.4138 18.8471 22.3908 20.8521 22.3808 23.2711C22.3758 25.7041 20.3938 27.6711 17.9758 27.6711ZM24.5488 22.7661C24.4358 21.1271 23.7778 19.7201 22.6008 18.5621C21.3008 17.2821 19.7368 16.6601 17.9748 16.6681C16.1938 16.6341 14.3848 17.4241 13.1528 18.7621C11.8528 20.1751 11.2698 21.8471 11.4028 23.7511C11.5158 25.3901 12.1728 26.7921 13.3508 27.9551C14.6508 29.2351 16.2148 29.8521 17.9758 29.8441C19.7568 29.8831 21.5618 29.0931 22.7978 27.7551C24.0968 26.3421 24.6808 24.6651 24.5488 22.7661Z" fill="white"/>
<path d="M20.2581 22.8691C20.5081 24.4491 19.1731 25.7871 17.5901 25.5321C16.6381 25.3701 15.8681 24.6101 15.7071 23.6491C15.4521 22.0691 16.7911 20.7311 18.3751 20.9861C19.3211 21.1431 20.0961 21.9071 20.2581 22.8691Z" fill="white"/>
<path d="M38.5911 12.5541L20.5461 5.0051C19.4621 4.5491 18.2661 5.3441 18.2661 6.5211V13.9671C18.6931 13.9771 19.1241 14.0161 19.5561 14.0901C23.4111 14.7231 26.5061 17.8321 27.1391 21.6731C28.0811 27.3961 23.7791 32.3611 18.2671 32.5221V44.7951C18.2671 46.4681 20.4831 47.0701 21.3271 45.6191L39.3821 14.8991C39.8921 14.0461 39.5151 12.9431 38.6021 12.5551L38.5911 12.5541Z" fill="white"/>
<path d="M38.018 40.0161C38.018 40.6831 37.847 41.1101 37.557 41.4881C36.792 42.4401 35.9 43.2631 35.012 44.1021C34.806 44.3031 34.58 44.4901 34.374 44.6861C34.261 44.7941 34.173 44.7841 34.06 44.6861C32.976 43.7001 31.897 42.7201 30.965 41.5911C30.268 40.7421 30.239 39.7331 30.867 38.9331C31.784 37.7751 33.25 37.8781 34.089 39.0851C34.202 39.2471 34.241 39.2271 34.354 39.0651C34.86 38.3291 35.777 38.0201 36.605 38.2851C37.449 38.5501 38.018 39.3201 38.018 40.0271V40.0161Z" fill="white"/>
</svg>
