<svg width="26" height="22" viewBox="0 0 26 22" fill="none" xmlns="http://www.w3.org/2000/svg">
<g clip-path="url(#clip0_59_2731)">
<path d="M20.6192 8.00392C20.7788 6.50938 20.4609 5.09949 19.6748 3.81207C18.4768 1.85044 16.6754 0.623606 14.3208 0.165533C12.2137 -0.244843 10.0695 0.115256 8.28358 1.17965C6.48452 2.25136 5.25087 3.89931 4.81038 5.81883C4.63944 6.56395 4.59483 7.29876 4.67842 8.00736C2.21768 9.08895 0.690057 10.8783 0.136862 13.3263C0.0908407 13.5296 0.0697084 13.7333 0.0490458 13.9305C0.0401233 14.0147 0.0312008 14.1015 0.0203998 14.1853C0.0171126 14.1935 0.014295 14.2021 0.0114773 14.2103L-0.000732422 14.2468V15.0585L0.001146 15.0895C0.0110077 15.1634 0.0199302 15.2373 0.0283831 15.3112C0.0476369 15.474 0.06783 15.6425 0.0983543 15.8101C0.451498 17.7653 1.50858 19.3625 3.24095 20.5575C4.34735 21.3207 5.60589 21.7852 6.98183 21.9386C9.0373 22.1677 10.9439 21.7328 12.649 20.6456C13.7127 21.3293 14.898 21.7603 16.172 21.9275C16.5435 21.976 16.9173 22.0001 17.2906 22.0001C18.7224 22.0001 20.1449 21.6456 21.387 20.9684C22.9531 20.1141 24.1647 18.7837 24.7991 17.2221C26.2577 13.6314 24.4216 9.59128 20.6182 8.00392H20.6192ZM11.066 10.0584C10.5241 10.6617 10.1089 11.3204 9.8051 12.0583C8.57473 11.4227 7.71113 10.5238 7.17625 9.32314C8.58272 9.15383 9.86098 9.39576 11.066 10.0584ZM11.073 19.2645C9.17771 20.2567 7.28942 20.3401 5.45702 19.5112C4.33795 19.005 3.48703 18.323 2.9282 17.4842C2.36655 16.6416 2.09747 15.6369 2.12799 14.4986C2.18105 12.5417 3.20433 11.0089 5.17056 9.93849C5.95856 11.7785 7.35282 13.1373 9.31718 13.9791C9.13122 15.9429 9.72198 17.7197 11.073 19.2654V19.2645ZM15.4911 12.0394C15.1882 11.3157 14.7731 10.6583 14.2307 10.0429C15.4258 9.38201 16.705 9.13922 18.1228 9.30423C17.5968 10.4902 16.7318 11.3892 15.4911 12.0398V12.0394ZM11.816 12.6805C12.0263 12.1953 12.3015 11.7545 12.6495 11.3449C13.0073 11.7596 13.2835 12.1983 13.4854 12.6736C12.9003 12.7454 12.349 12.7475 11.8155 12.6805H11.816ZM13.8108 15.6734C13.63 16.5453 13.2492 17.3089 12.6495 17.9982C11.7911 16.9944 11.3764 15.8668 11.3867 14.5665C12.2334 14.6903 13.0656 14.6907 13.9137 14.5678C13.9259 14.9189 13.8921 15.2833 13.8108 15.6739V15.6734ZM15.9677 15.5299C16.0396 14.9979 16.0448 14.4814 15.9837 13.9941C17.9504 13.1338 19.3442 11.7704 20.1289 9.93763C22.0745 11.0012 23.0973 12.5211 23.1696 14.4591C23.2109 15.5647 22.963 16.5492 22.4328 17.385C21.905 18.2169 21.0954 18.9053 20.0265 19.4308C18.1467 20.3556 16.1969 20.3049 14.2255 19.2813C15.1938 18.1817 15.7799 16.92 15.9673 15.5295L15.9677 15.5299ZM6.93675 5.95978C7.26453 4.82706 7.92997 3.87954 8.91473 3.14387C10.9528 1.62054 13.7705 1.49377 15.9264 2.82846C16.8976 3.43006 17.648 4.2637 18.096 5.23958C18.421 5.94775 18.5797 6.72596 18.544 7.41607C18.3402 7.39158 18.1293 7.36623 17.918 7.34947C16.9276 7.27126 15.933 7.36838 14.9623 7.63824C14.1349 7.86813 13.3586 8.21749 12.6495 8.67814C11.5666 7.97642 10.3564 7.54112 9.05091 7.38385C8.70294 7.34173 8.35872 7.32111 8.01449 7.32111C7.59373 7.32111 7.17343 7.35248 6.74797 7.41565C6.73388 6.9305 6.79728 6.44192 6.93675 5.96021V5.95978Z" fill="#45AFA8"/>
</g>
<defs>
<clipPath id="clip0_59_2731">
<rect width="25.3" height="22" fill="white"/>
</clipPath>
</defs>
</svg>
