<svg width="18" height="19" viewBox="0 0 18 19" fill="none" xmlns="http://www.w3.org/2000/svg">
<g clip-path="url(#clip0_931_8)">
<path d="M15.3436 0.429613C15.0671 0.157768 14.6614 0.00764555 14.2018 0.00629309C12.7399 0.00268654 11.2533 0.00313722 9.81558 0.00403886C8.86574 0.00448968 7.91591 0.00539162 6.96561 0.00223588C6.13799 -0.000469036 5.28202 -0.0027236 4.44186 0.00809607C3.96508 0.0144075 3.55522 0.197891 3.28709 0.525186C3.03291 0.83535 2.94322 1.23342 3.03523 1.64592C3.17324 2.26445 3.71972 2.68371 4.39539 2.68957C5.05386 2.69543 5.72395 2.69408 6.3722 2.69318C6.63103 2.69318 6.88986 2.69228 7.1487 2.69228C7.22863 2.69228 7.30855 2.69228 7.38848 2.69228C7.45586 2.69228 7.51906 2.69678 7.59202 2.70174C7.62687 2.704 7.66497 2.7067 7.70773 2.70941L7.97028 2.72428V3.44154C7.97028 4.28142 7.97028 5.12174 7.97028 5.96162C7.97028 8.09265 7.96935 10.2958 7.97214 12.4629C7.9726 12.9299 8.12688 13.3348 8.40663 13.603C8.6557 13.8415 8.99121 13.9659 9.37969 13.961C10.165 13.9524 10.7366 13.3659 10.7385 12.5661C10.7422 11.1515 10.7412 9.71244 10.7408 8.32121C10.7408 7.7356 10.7403 7.15043 10.7403 6.56482V2.69138H11.6386C11.9011 2.69138 12.1632 2.69138 12.4258 2.69138C13.0192 2.69138 13.6126 2.69228 14.2055 2.69047C15.0899 2.68822 15.713 2.14363 15.7204 1.36551C15.7242 0.997645 15.594 0.673506 15.3445 0.42826L15.3436 0.429613Z" fill="#45AFA8"/>
<path d="M17.772 17.4199C17.5351 17.1534 17.1568 17.0006 16.7327 17.0006C14.8814 16.9996 13.03 17.0001 11.1787 17.0001H8.98667H4.01095C3.74475 17.0001 3.47663 17.0001 3.20915 17.0001C2.55765 17.0001 1.88387 16.9996 1.2209 17.0017C0.61653 17.0038 0.0974964 17.3643 0.013432 17.8407C-0.0738167 18.3353 0.271357 18.7982 0.834334 18.9421C1.03048 18.992 1.22918 18.9982 1.36165 18.9982C4.28225 18.9998 7.20285 19.0003 10.1235 18.9998H13.1001C13.5574 18.9998 14.0146 18.9998 14.4719 18.9998C15.2113 18.9998 15.9506 18.9998 16.69 18.9998C17.2982 18.9998 17.7644 18.7426 17.937 18.3119C18.0605 18.0028 18.0007 17.6781 17.7727 17.421L17.772 17.4199Z" fill="#45AFA8"/>
</g>
<defs>
<clipPath id="clip0_931_8">
<rect width="18" height="19" fill="white"/>
</clipPath>
</defs>
</svg>
