<svg width="25" height="25" viewBox="0 0 25 25" fill="none" xmlns="http://www.w3.org/2000/svg">
<g clip-path="url(#clip0_935_2)">
<path d="M10.5469 12.6953C10.5469 13.4504 9.93477 14.0625 9.17969 14.0625C8.42461 14.0625 7.8125 13.4504 7.8125 12.6953C7.8125 10.5414 9.56484 8.78906 11.7188 8.78906C13.8727 8.78906 15.625 10.5414 15.625 12.6953C15.625 13.4504 15.0129 14.0625 14.2578 14.0625C13.5027 14.0625 12.8906 13.4504 12.8906 12.6953C12.8906 12.0491 12.3649 11.5234 11.7188 11.5234C11.0726 11.5234 10.5469 12.0491 10.5469 12.6953ZM11.7188 4.10156C6.98013 4.10156 3.125 7.95668 3.125 12.6953C3.125 13.4504 3.73711 14.0625 4.49219 14.0625C5.24727 14.0625 5.85938 13.4504 5.85938 12.6953C5.85938 9.46445 8.48789 6.83593 11.7188 6.83593C14.9496 6.83593 17.5781 9.46445 17.5781 12.6953C17.5781 16.3654 14.1109 16.1285 14.0626 19.7081L14.0625 19.7266C14.0625 21.1266 12.9235 22.2656 11.5234 22.2656C10.7684 22.2656 10.1562 22.8777 10.1562 23.6328C10.1562 24.3879 10.7684 25 11.5234 25C14.4275 25 16.7908 22.6402 16.7969 19.7376C16.8259 18.0565 20.3125 17.3821 20.3125 12.6953C20.3125 7.95668 16.4574 4.10156 11.7188 4.10156ZM7.8125 15.625C6.94956 15.625 6.25 16.3246 6.25 17.1875C6.25 18.0504 6.94956 18.75 7.8125 18.75C8.67544 18.75 9.375 18.0504 9.375 17.1875C9.375 16.3246 8.67544 15.625 7.8125 15.625ZM1.5625 21.875C0.699561 21.875 0 22.5746 0 23.4375C0 24.3004 0.699561 25 1.5625 25C2.42544 25 3.125 24.3004 3.125 23.4375C3.125 22.5746 2.42544 21.875 1.5625 21.875ZM25 12.6956C25 12.6215 24.9994 12.5479 24.9978 12.4744C24.9061 6.86157 21.2967 1.87841 16.0153 0.0737739C15.3008 -0.170269 14.5237 0.210932 14.2795 0.925434C14.0354 1.63994 14.4167 2.41708 15.1312 2.66127C19.3258 4.09457 22.1922 8.05742 22.2638 12.5223L22.264 12.5314C22.2652 12.586 22.2656 12.6406 22.2656 12.6956C22.2656 13.4507 22.8777 14.0628 23.6328 14.0628C24.3878 14.0628 25 13.4507 25 12.6956ZM7.46929 21.437L3.56304 17.5307L1.90576 19.188L5.81201 23.0942L7.46929 21.437Z" fill="#365073"/>
</g>
<defs>
<clipPath id="clip0_935_2">
<rect width="25" height="25" fill="white"/>
</clipPath>
</defs>
</svg>
