<svg width="24" height="24" viewBox="0 0 24 24" fill="none" xmlns="http://www.w3.org/2000/svg">
<path d="M10 14.0005L14 10.0005M4.5 19.5005C3.83805 18.8369 3.46631 17.9378 3.46631 17.0005C3.46631 16.0632 3.83805 15.1641 4.5 14.5005L7 12.0005C7.66362 11.3385 8.56268 10.9668 9.5 10.9668C10.4373 10.9668 11.3364 11.3385 12 12.0005C12.6619 12.6641 13.0337 13.5632 13.0337 14.5005C13.0337 15.4378 12.6619 16.3369 12 17.0005L9.5 19.5005C8.83638 20.1624 7.93732 20.5342 7 20.5342C6.06268 20.5342 5.16362 20.1624 4.5 19.5005ZM17.5 11.5005L20 9.00048C20.6619 8.33686 21.0337 7.4378 21.0337 6.50048C21.0337 5.56317 20.6619 4.66411 20 4.00048V4.00048C19.3364 3.33854 18.4373 2.9668 17.5 2.9668C16.5627 2.9668 15.6636 3.33854 15 4.00048L12.5 6.50048C11.838 7.16411 11.4663 8.06317 11.4663 9.00048C11.4663 9.9378 11.838 10.8369 12.5 11.5005V11.5005C13.1636 12.1624 14.0627 12.5342 15 12.5342C15.9373 12.5342 16.8364 12.1624 17.5 11.5005Z" stroke="#242C4F" stroke-width="2" stroke-linecap="round" stroke-linejoin="round"/>
</svg>
