<svg width="18" height="20" viewBox="0 0 18 20" fill="none" xmlns="http://www.w3.org/2000/svg">
<path opacity="0.6" d="M12 0H11C8.1716 0 6.75736 0 5.87868 0.87868C5 1.75736 5 3.17157 5 6V14C5 16.8284 5 18.2426 5.87868 19.1213C6.75736 20 8.1716 20 11 20H12C14.8284 20 16.2426 20 17.1213 19.1213C18 18.2426 18 16.8284 18 14V6C18 3.17157 18 1.75736 17.1213 0.87868C16.2426 0 14.8284 0 12 0Z" fill="#262C51"/>
<path opacity="0.4" d="M5 6C5 4.46249 5 3.34287 5.14114 2.5H5C2.64298 2.5 1.46447 2.5 0.73223 3.23223C-5.96046e-08 3.96447 0 5.14298 0 7.5V12.5C0 14.857 -5.96046e-08 16.0355 0.73223 16.7678C1.46447 17.5 2.64298 17.5 5 17.5H5.14114C5 16.6571 5 15.5375 5 14V10.75V9.25V6Z" fill="#262C51"/>
<path fill-rule="evenodd" clip-rule="evenodd" d="M1.46967 9.4697C1.17678 9.7626 1.17678 10.2374 1.46967 10.5303L3.46967 12.5303C3.76256 12.8232 4.23744 12.8232 4.53033 12.5303C4.82322 12.2374 4.82322 11.7626 4.53033 11.4697L3.81066 10.75H11C11.4142 10.75 11.75 10.4142 11.75 10C11.75 9.5858 11.4142 9.25 11 9.25H3.81066L4.53033 8.5303C4.82322 8.2374 4.82322 7.76256 4.53033 7.46967C4.23744 7.17678 3.76256 7.17678 3.46967 7.46967L1.46967 9.4697Z" fill="#262C51"/>
</svg>
