<svg width="24" height="24" viewBox="0 0 24 24" fill="none" xmlns="http://www.w3.org/2000/svg">
<path d="M7 17H4C3.73478 17 3.48043 16.8947 3.29289 16.7071C3.10536 16.5196 3 16.2652 3 16V4.00002C3 3.7348 3.10536 3.48045 3.29289 3.29291C3.48043 3.10537 3.73478 3.00002 4 3.00002H8C8.13161 2.99926 8.26207 3.02448 8.38391 3.07425C8.50574 3.12401 8.61656 3.19734 8.71 3.29002L11.12 5.71002C11.2134 5.8027 11.3243 5.87602 11.4461 5.92579C11.5679 5.97555 11.6984 6.00078 11.83 6.00002H17C17.2652 6.00002 17.5196 6.10537 17.7071 6.29291C17.8946 6.48045 18 6.7348 18 7.00002V10" stroke="white" stroke-width="2" stroke-linecap="round" stroke-linejoin="round"/>
<path d="M20 10H8C7.44772 10 7 10.4477 7 11V20C7 20.5523 7.44772 21 8 21H20C20.5523 21 21 20.5523 21 20V11C21 10.4477 20.5523 10 20 10Z" stroke="white" stroke-width="2" stroke-linecap="round" stroke-linejoin="round"/>
</svg>
