<svg width="27" height="22" viewBox="0 0 27 22" fill="none" xmlns="http://www.w3.org/2000/svg">
<g clip-path="url(#clip0_59_2741)">
<path d="M3.84769 12.2193C1.20371 9.88374 1.36924 5.9717 3.74396 3.80558C5.96906 1.7763 9.41859 1.86034 11.5634 4.0225C13.7156 6.19214 13.8167 9.88682 11.2469 12.2061C11.6349 12.4283 12.0184 12.6478 12.4307 12.8841C13.1334 11.5267 14.1857 10.5226 15.5911 9.88506C12.937 7.53634 13.1122 3.62782 15.4812 1.46522C17.7037 -0.563178 21.1611 -0.479138 23.301 1.68126C25.4595 3.86014 25.5478 7.55482 22.9775 9.87142C23.0565 9.91674 23.1267 9.95986 23.2 9.99814C25.5063 11.2064 26.7056 13.1089 26.7921 15.7041C26.808 16.1815 26.7952 16.6597 26.7943 17.1376C26.7912 18.6428 25.7821 19.6557 24.2774 19.6566C21.3333 19.6583 18.3896 19.657 15.4455 19.657H15.0897C15.0403 19.8854 15.008 20.1049 14.9449 20.3148C14.6501 21.2907 13.7628 21.9877 12.7445 21.9912C9.2822 22.0027 5.81986 22.0044 2.35753 21.9912C1.1737 21.9868 0.15627 21.0949 0.0649007 19.899C-0.017641 18.8153 -0.0648707 17.7144 0.196879 16.6386C0.672266 14.6846 1.8199 13.2572 3.61463 12.3442C3.691 12.3055 3.76603 12.2637 3.84725 12.2197L3.84769 12.2193ZM7.53294 20.1247C9.20496 20.1247 10.8765 20.1256 12.5486 20.1243C12.9922 20.1243 13.1762 19.943 13.1784 19.507C13.1811 18.9807 13.1864 18.4541 13.1767 17.9278C13.1378 15.8017 11.4442 13.864 9.3387 13.6391C8.33275 13.5318 7.3087 13.5679 6.29305 13.5775C4.25775 13.5973 2.42286 15.0731 2.04149 17.0685C1.89318 17.8438 1.93908 18.6573 1.91392 19.4537C1.89803 19.9545 2.07856 20.1239 2.57558 20.1243C4.22774 20.1252 5.88034 20.1243 7.53249 20.1243L7.53294 20.1247ZM15.0526 17.7479C15.0985 17.7703 15.1069 17.7782 15.1157 17.7782C18.2055 17.7804 21.2949 17.7839 24.3847 17.7813C24.7219 17.7813 24.9121 17.5679 24.9152 17.2146C24.9197 16.6492 24.9276 16.0833 24.9113 15.5184C24.8508 13.4046 23.1788 11.5192 21.0702 11.2992C19.9963 11.187 18.8976 11.176 17.8206 11.2574C15.9725 11.3969 14.6845 12.3904 13.9597 14.0932C13.9134 14.2019 13.8948 14.3801 13.9526 14.4668C14.6192 15.4643 14.978 16.5607 15.0522 17.7479H15.0526ZM7.55898 11.6987C9.6212 11.6935 11.3034 10.0074 11.3007 7.9473C11.2985 5.88898 9.61104 4.20994 7.54574 4.2095C5.46851 4.2095 3.78237 5.8991 3.78943 7.97502C3.79649 10.0289 5.49191 11.704 7.55898 11.6987ZM19.2755 9.35838C21.3417 9.36102 23.0327 7.68462 23.0384 5.62806C23.0441 3.56666 21.3655 1.87706 19.3042 1.86914C17.223 1.86122 15.5267 3.54246 15.5267 5.61354C15.5267 7.6723 17.2115 9.35574 19.275 9.35838H19.2755Z" fill="#45AFA8"/>
</g>
<defs>
<clipPath id="clip0_59_2741">
<rect width="26.8" height="22" fill="white"/>
</clipPath>
</defs>
</svg>
