<svg width="75" height="75" viewBox="0 0 75 75" fill="none" xmlns="http://www.w3.org/2000/svg">
<circle cx="37.2117" cy="37.2117" r="37.2117" fill="#2E6695"/>
<g clip-path="url(#clip0_1246_1830)">
<path d="M7.99982 36.5123C7.99982 52.2347 20.7428 64.9955 36.4519 65.0022C52.2658 65.0112 64.9909 52.2771 64.9998 36.4364C65.0087 20.7586 52.2167 8 36.4876 8C20.7428 8 7.99982 20.7541 7.99982 36.5123Z" fill="#2E6695"/>
<path d="M7.99982 36.5123C7.99982 20.7541 20.7428 8 36.4876 8C52.2145 8 65.0065 20.7586 64.9998 36.4364C64.9909 52.2771 52.268 65.0112 36.4519 65.0022C20.7428 64.9933 7.99982 52.2347 7.99982 36.5123ZM39.4202 40.5443C39.3733 40.5711 39.3265 40.6001 39.2797 40.6269C39.2797 41.626 39.2373 42.6295 39.2908 43.6264C39.3555 44.8931 38.6151 45.609 37.6606 46.1933C37.2659 46.4341 36.8934 46.2892 36.6347 45.939C36.3872 45.6045 36.405 45.2365 36.6793 44.9176C36.8355 44.737 37.0763 44.6233 37.2101 44.4315C37.3774 44.1951 37.5736 43.9141 37.587 43.642C37.6338 42.7343 37.5959 41.8244 37.6093 40.9146C37.616 40.4708 37.4376 40.2723 36.9804 40.2812C36.0348 40.2968 35.087 40.2968 34.1414 40.2812C33.0085 40.2634 32.1611 39.5051 32.0518 38.3811C32.0094 37.9552 31.8266 37.7901 31.4185 37.7946C30.7316 37.8013 30.0447 37.808 29.36 37.7946C28.0287 37.7656 27.1812 36.907 27.1589 35.5823C27.1544 35.3794 27.1433 35.172 27.1611 34.9712C27.208 34.4583 26.9738 34.2754 26.4765 34.2844C25.4573 34.3022 24.4359 34.2844 23.4145 34.2911C22.8034 34.2955 22.295 34.0814 21.8668 33.6532C21.0796 32.866 20.2923 32.0788 19.5051 31.2915C19.0925 30.8789 18.8806 30.3839 18.8851 29.7951C18.8918 29.0525 18.8762 28.3098 18.8896 27.5694C18.9119 26.3183 19.7504 25.482 20.9926 25.4686C22.014 25.4597 23.0332 25.482 24.0546 25.4553C24.3155 25.4486 24.6165 25.3705 24.8217 25.2211C26.5768 23.9477 28.3208 22.6564 30.0514 21.3496C30.2142 21.2269 30.3547 20.9593 30.3591 20.7564C30.3792 19.4272 30.5175 19.4094 29.1593 19.4428C29.1214 19.4428 29.0857 19.4428 29.0478 19.4406C27.7499 19.3625 26.9381 18.5084 26.9292 17.2015C26.9247 16.5882 26.9091 15.9772 26.9359 15.3639C26.9515 14.9959 26.8355 14.7462 26.5367 14.5165C25.832 13.9745 25.1674 13.3813 24.4649 12.8372C24.3512 12.748 24.088 12.7346 23.9564 12.8037C19.039 15.4308 15.2924 19.222 12.6809 24.1462C12.5292 24.4316 12.6162 24.5721 12.8191 24.7505C13.2652 25.1408 13.6933 25.5534 14.1349 25.9503C14.6635 26.4231 14.9288 27.0007 14.9088 27.7188C14.8909 28.4057 14.9378 29.0948 14.8954 29.7773C14.8642 30.2724 15.0493 30.6069 15.3905 30.9392C16.6951 32.2059 17.9752 33.4971 19.2642 34.7795C19.9377 35.4507 20.1674 36.2803 19.7459 37.1166C19.4092 37.7857 19.3467 38.4413 19.3601 39.1483C19.3735 39.8352 19.3802 40.522 19.3557 41.2067C19.3423 41.5814 19.4716 41.8222 19.7794 42.0408C21.249 43.0778 22.6919 44.1505 24.1661 45.1786C24.9511 45.725 25.3213 46.423 25.2923 47.3864C25.2544 48.7022 25.3034 50.0202 25.2744 51.3382C25.2611 51.9693 25.3525 52.5469 25.6826 53.0889C26.5835 54.5697 27.0496 56.1531 26.8244 57.9015C26.8199 57.9372 26.8244 57.9751 26.8244 58.013C26.8043 58.4635 27.0273 58.653 27.4689 58.6419C27.9328 58.6307 28.3966 58.6307 28.8605 58.6419C29.2976 58.6508 29.505 58.4724 29.4961 58.013C29.476 57.1789 29.5518 56.3382 29.476 55.5085C29.3623 54.2597 29.7637 53.2784 30.7829 52.5737C31.7887 51.8779 32.2458 50.9858 32.0518 49.7459C31.9492 49.0835 32.2436 48.5126 32.7498 48.0688C33.0152 47.8369 33.2895 47.6161 33.5661 47.3976C34.0835 46.9827 34.5563 46.9694 34.893 47.3552C35.2431 47.7521 35.1852 48.3164 34.6165 48.6799C33.8448 49.1727 33.575 49.8172 33.711 50.6848C33.7289 50.794 33.711 50.9078 33.7133 51.0193C33.74 51.7508 33.4836 52.3551 32.9394 52.848C32.4443 53.2963 31.9448 53.7423 31.4876 54.2285C31.3181 54.4091 31.1843 54.699 31.1754 54.9443C31.1419 56.0014 31.1665 57.0585 31.1598 58.1156C31.1531 59.4336 30.2878 60.2989 28.9608 60.3189C28.4234 60.3279 27.8837 60.3279 27.3462 60.3189C26.0305 60.2966 25.0715 59.4113 25.1674 58.1067C25.2834 56.5076 24.931 55.0714 24.1215 53.7178C24.0657 53.6219 24.001 53.5237 23.9765 53.4189C23.8449 52.8681 23.6353 52.3172 23.6152 51.7619C23.5639 50.3168 23.5818 48.8672 23.6085 47.4221C23.6152 46.9984 23.4658 46.7463 23.129 46.5077C21.6438 45.4618 20.1808 44.3846 18.7 43.332C18.0131 42.8414 17.6674 42.1991 17.6808 41.3494C17.6964 40.3303 17.6474 39.3066 17.7009 38.2897C17.7277 37.7879 17.8459 37.2571 18.0666 36.8111C18.2986 36.3495 18.2161 36.0841 17.8749 35.7518C16.5702 34.4851 15.2946 33.1894 13.9944 31.9182C13.4726 31.4097 13.2049 30.821 13.225 30.085C13.2473 29.3245 13.2384 28.5641 13.225 27.8036C13.2228 27.6296 13.1938 27.4066 13.0845 27.2951C12.6898 26.887 12.2571 26.5146 11.8267 26.1176C7.53372 35.4083 9.16841 49.5095 20.5153 58.0442C31.3582 66.1998 46.1619 64.4715 54.8549 56.0103C49.71 50.8543 44.5651 45.7004 39.4202 40.5443ZM56.0481 54.8239C63.073 47.5336 65.5574 35.9681 61.0815 25.7652C56.3224 14.9112 45.9255 9.82202 37.3908 9.73727V14.086C37.8747 14.1351 38.3163 14.1775 38.7556 14.2243C39.1972 14.2711 39.6454 14.2957 40.0803 14.3782C48.392 15.9593 54.2149 20.6404 57.3928 28.4838C58.024 30.0426 58.2916 31.7576 58.664 33.4124C58.8045 34.0413 58.3741 34.4494 57.7898 34.3981C57.2323 34.349 57.0873 33.9454 56.9936 33.4793C56.813 32.5738 56.6926 31.6439 56.4093 30.7697C53.7956 22.6341 48.2738 17.7301 39.8997 16.053C39.0767 15.888 38.2271 15.859 37.3484 15.7631C37.3484 17.2105 37.3372 18.5463 37.3662 19.8799C37.3685 20.0026 37.6182 20.1988 37.7766 20.2256C38.4501 20.3438 39.1414 20.3683 39.8104 20.5044C50.4883 22.6765 56.0993 34.8129 50.8162 44.3423C50.2096 45.4373 49.4246 46.4319 48.7421 47.4422C49.7234 48.4256 50.7403 49.4448 51.7751 50.4796C51.7997 50.4573 51.8554 50.4127 51.9045 50.3614C54.148 47.8614 55.7403 45.0002 56.5275 41.7352C56.8554 40.3726 56.9959 38.9654 57.1943 37.5738C57.2769 36.9895 57.5958 36.6104 58.0819 36.6394C58.5793 36.6684 58.8803 37.0542 58.8736 37.6563C58.8736 37.7857 58.8669 37.9172 58.858 38.0466C58.5101 42.44 57.065 46.423 54.4111 49.9533C53.9473 50.5688 53.4455 51.1576 52.9772 51.7396C54.0142 52.7833 55.02 53.7936 56.0481 54.8284V54.8239ZM37.4019 38.6108C37.2324 38.4302 37.1677 38.3387 37.083 38.2718C35.9612 37.3709 35.6289 36.1889 35.6379 34.7772C35.678 28.5797 35.6557 22.3844 35.6557 16.1868V15.4732C33.7445 15.8545 32.5179 15.3349 31.5433 13.785C31.4854 13.6913 31.4185 13.5909 31.3293 13.5307C30.2855 12.8193 29.4537 11.9161 28.8627 10.7475C27.8703 11.1088 26.9158 11.4567 25.9412 11.8113C26.0126 11.9206 26.026 11.9585 26.0528 11.9808C26.2958 12.1815 26.5367 12.3844 26.7865 12.5785C28.7869 14.1195 28.6018 14.0972 28.6063 16.4009C28.6085 17.6832 28.4033 17.7702 29.9064 17.7702C31.2111 17.7702 32.0384 18.6489 32.0496 19.9535C32.0496 20.2122 32.0407 20.4731 32.0496 20.7318C32.0853 21.5837 31.724 22.2238 31.046 22.7233C29.2976 24.0079 27.5559 25.2992 25.8164 26.5971C25.3034 26.9807 24.7437 27.1569 24.1081 27.1502C23.1246 27.139 22.1411 27.1591 21.1576 27.1412C20.7272 27.1346 20.5488 27.3018 20.5622 27.7322C20.58 28.3433 20.5376 28.9588 20.58 29.5676C20.5978 29.8152 20.7183 30.1051 20.8878 30.2857C21.5323 30.9771 22.2013 31.6506 22.8949 32.2906C23.0889 32.469 23.4011 32.5917 23.6665 32.6028C24.6121 32.6408 25.5577 32.6162 26.5055 32.6185C28.013 32.6207 28.8293 33.4414 28.836 34.9623C28.836 35.1474 28.8404 35.3325 28.836 35.5199C28.827 35.9391 29.03 36.1242 29.4492 36.1198C30.1361 36.1108 30.823 36.1019 31.5077 36.1242C32.7944 36.1666 33.5215 36.82 33.7021 38.1024C33.7489 38.4391 33.885 38.6153 34.224 38.6175C35.2387 38.6197 36.2556 38.6175 37.3997 38.6175L37.4019 38.6108ZM47.4643 46.1665C51.3559 41.9404 52.317 35.4953 49.5428 29.9066C46.706 24.193 41.0616 21.8848 37.3462 21.9763C37.3462 23.3233 37.335 24.6725 37.3662 26.0217C37.3685 26.1399 37.6428 26.3339 37.8078 26.354C43.7645 27.0632 47.8969 33.0466 46.4629 38.8851C46.0749 40.4618 45.3456 41.8557 44.351 43.0756C45.3925 44.1103 46.4139 45.1273 47.462 46.1687L47.4643 46.1665ZM37.3818 28.0757C37.3707 28.1604 37.3484 28.2474 37.3484 28.3366C37.3484 30.7117 37.3484 33.0845 37.3439 35.4596C37.3439 35.977 37.5513 36.3785 37.9126 36.7375C39.5473 38.3566 41.1686 39.9868 42.7966 41.6126C42.8947 41.7107 43.0107 41.7888 43.1155 41.8757C45.2364 39.5029 45.6333 35.6983 44.1325 32.6653C42.7565 29.8821 39.8127 28.0578 37.3774 28.0779L37.3818 28.0757ZM30.6424 10.2502C30.6156 10.3283 30.5866 10.4063 30.5599 10.4821C30.9791 10.917 31.3605 11.3987 31.8266 11.7756C32.3796 12.2216 32.8368 12.7056 33.236 13.3099C33.4657 13.6579 34.1058 13.7716 34.5852 13.892C34.6856 13.9165 34.8952 13.4995 35.0513 13.2832C35.1049 13.2096 35.1272 13.0936 35.1963 13.049C35.736 12.7145 35.6624 12.186 35.6579 11.673C35.6535 11.0151 35.6579 10.3595 35.6579 9.61239C33.9028 9.8354 32.2748 10.0406 30.6446 10.248L30.6424 10.2502Z" fill="white"/>
<path d="M39.4203 40.5449C44.5652 45.6987 49.7101 50.8548 54.855 56.0109C46.1597 64.472 31.3583 66.2004 20.5154 58.0448C9.16851 49.51 7.53382 35.4089 11.8268 26.1137C12.2572 26.5107 12.6899 26.8831 13.0846 27.2912C13.1939 27.4027 13.2229 27.628 13.2251 27.7997C13.2407 28.5602 13.2474 29.3206 13.2251 30.0811C13.2051 30.8171 13.4727 31.4036 13.9945 31.9143C15.2947 33.1855 16.5703 34.4812 17.875 35.7479C18.2162 36.0802 18.2987 36.3433 18.0667 36.8072C17.8437 37.2532 17.7278 37.784 17.701 38.2858C17.6475 39.3027 17.6965 40.3264 17.6809 41.3455C17.6676 42.1952 18.0132 42.8375 18.7001 43.3281C20.1787 44.383 21.6439 45.4579 23.1291 46.5038C23.4659 46.7402 23.6175 46.9945 23.6086 47.4182C23.5841 48.8655 23.564 50.3129 23.6153 51.758C23.6354 52.3133 23.8428 52.8642 23.9766 53.415C24.0011 53.5198 24.0658 53.618 24.1216 53.7139C24.9311 55.0675 25.2835 56.5037 25.1675 58.1028C25.0738 59.4074 26.0328 60.2927 27.3463 60.315C27.8838 60.324 28.4235 60.324 28.961 60.315C30.2857 60.295 31.1509 59.4297 31.1599 58.1117C31.1666 57.0546 31.142 55.9953 31.1755 54.9404C31.1844 54.6951 31.316 54.4052 31.4877 54.2246C31.9426 53.7384 32.4444 53.2924 32.9395 52.8441C33.4814 52.3512 33.7401 51.7446 33.7134 51.0154C33.7089 50.9039 33.7267 50.7901 33.7111 50.6809C33.5751 49.8133 33.8449 49.1688 34.6166 48.676C35.183 48.3147 35.241 47.7505 34.8931 47.3513C34.5541 46.9677 34.0813 46.9811 33.5662 47.3937C33.2919 47.6144 33.0153 47.833 32.7499 48.0649C32.2437 48.5087 31.9493 49.0796 32.0519 49.742C32.2459 50.9819 31.7888 51.874 30.783 52.5698C29.7638 53.2745 29.3601 54.258 29.4761 55.5046C29.5519 56.332 29.4761 57.1728 29.4962 58.0091C29.5073 58.4707 29.2999 58.6469 28.8606 58.638C28.3967 58.6291 27.9329 58.6268 27.469 58.638C27.0297 58.6491 26.8044 58.4596 26.8245 58.0091C26.8245 57.9712 26.82 57.9333 26.8245 57.8976C27.0497 56.1492 26.5814 54.5635 25.6827 53.085C25.3526 52.543 25.2612 51.9632 25.2745 51.3343C25.3035 50.0185 25.2545 48.6983 25.2924 47.3825C25.3191 46.4191 24.9489 45.7211 24.1662 45.1747C22.692 44.1466 21.2469 43.0739 19.7795 42.0369C19.474 41.8205 19.3424 41.5797 19.3558 41.2028C19.3803 40.5181 19.3736 39.829 19.3602 39.1444C19.3468 38.4397 19.4093 37.7818 19.746 37.1127C20.1675 36.2764 19.9401 35.4491 19.2643 34.7756C17.9775 33.491 16.6952 32.202 15.3906 30.9353C15.0471 30.603 14.8643 30.2684 14.8955 29.7734C14.9379 29.0887 14.891 28.3996 14.9089 27.7149C14.9267 26.9968 14.6613 26.4192 14.135 25.9464C13.6935 25.5495 13.2653 25.1369 12.8192 24.7466C12.6141 24.5682 12.5293 24.4277 12.681 24.1423C15.2925 19.2181 19.0391 15.4269 23.9565 12.7998C24.0881 12.7307 24.3513 12.7441 24.465 12.8333C25.1675 13.3774 25.8321 13.9706 26.5368 14.5125C26.8356 14.7423 26.9516 14.9898 26.936 15.36C26.9115 15.9711 26.9248 16.5843 26.9293 17.1976C26.9382 18.5045 27.75 19.3586 29.0479 19.4367C29.0858 19.4367 29.1215 19.4411 29.1594 19.4389C30.5176 19.4055 30.3793 19.4255 30.3592 20.7525C30.357 20.9554 30.2165 21.223 30.0515 21.3457C28.3209 22.6525 26.5769 23.9438 24.8218 25.2172C24.6144 25.3666 24.3133 25.4447 24.0547 25.4514C23.0355 25.4781 22.0141 25.4558 20.9927 25.4647C19.7505 25.4759 18.912 26.3144 18.8897 27.5655C18.8763 28.3082 18.8941 29.0508 18.8852 29.7912C18.8807 30.38 19.0926 30.875 19.5052 31.2876C20.2924 32.0749 21.0797 32.8621 21.8669 33.6493C22.2951 34.0775 22.8036 34.2916 23.4146 34.2872C24.436 34.2782 25.4552 34.2983 26.4766 34.2805C26.9717 34.2715 27.2081 34.4566 27.1612 34.9673C27.1434 35.1703 27.1545 35.3755 27.159 35.5784C27.1813 36.9031 28.0288 37.7595 29.3601 37.7907C30.047 37.8063 30.7339 37.7996 31.4186 37.7907C31.8244 37.7862 32.0095 37.9513 32.0519 38.3772C32.1612 39.5012 33.0086 40.2594 34.1416 40.2773C35.0871 40.2907 36.0349 40.2929 36.9805 40.2773C37.4377 40.2706 37.6161 40.4669 37.6094 40.9107C37.596 41.8205 37.6339 42.7304 37.5871 43.6381C37.5737 43.908 37.3775 44.1912 37.2102 44.4276C37.0742 44.6194 36.8356 44.7331 36.6794 44.9137C36.4051 45.2327 36.3873 45.6006 36.6348 45.9351C36.8935 46.2853 37.266 46.4302 37.6607 46.1894C38.6152 45.6051 39.3556 44.8892 39.2909 43.6225C39.2396 42.6256 39.2798 41.6243 39.2798 40.623C39.3266 40.5962 39.3734 40.5672 39.4203 40.5404V40.5449Z" fill="#2E6695"/>
<path d="M56.0481 54.8241C55.02 53.7893 54.0142 52.7791 52.9772 51.7354C53.4455 51.1533 53.9473 50.5646 54.4112 49.949C57.065 46.4187 58.5102 42.4357 58.8581 38.0424C58.8692 37.913 58.8737 37.7837 58.8737 37.6521C58.8804 37.0499 58.5793 36.6641 58.082 36.6351C57.5958 36.6061 57.2769 36.9853 57.1944 37.5696C56.9981 38.9612 56.8576 40.3684 56.5276 41.731C55.7381 44.9959 54.1458 47.8594 51.9045 50.3571C51.8577 50.4107 51.7997 50.453 51.7752 50.4753C50.7404 49.4383 49.7234 48.4192 48.7422 47.4379C49.4246 46.4277 50.2096 45.433 50.8162 44.338C56.0994 34.8064 50.4884 22.67 39.8105 20.5001C39.1414 20.3641 38.4501 20.3395 37.7766 20.2213C37.6183 20.1946 37.3685 19.9983 37.3663 19.8757C37.3373 18.5421 37.3484 17.2062 37.3484 15.7588C38.2293 15.8547 39.0768 15.8837 39.8997 16.0488C48.2738 17.7258 53.7957 22.6277 56.4094 30.7654C56.6904 31.6419 56.8108 32.5696 56.9937 33.475C57.0873 33.9411 57.2323 34.3448 57.7898 34.3938C58.3741 34.4451 58.8045 34.037 58.664 33.4081C58.2938 31.7511 58.0262 30.0384 57.3929 28.4795C54.2149 20.6339 48.392 15.9529 40.0803 14.3739C39.6455 14.2914 39.1972 14.2669 38.7556 14.2201C38.3163 14.1732 37.8747 14.1309 37.3908 14.0818V9.73749C45.9277 9.82223 56.3224 14.9136 61.0837 25.7677C65.5596 35.9683 63.073 47.5338 56.0503 54.8263L56.0481 54.8241Z" fill="#2E6695"/>
<path d="M37.4016 38.6102C36.2575 38.6102 35.2406 38.6102 34.2259 38.6102C33.8891 38.6102 33.7508 38.4318 33.704 38.0951C33.5234 36.8127 32.7963 36.1593 31.5096 36.1169C30.8249 36.0946 30.1358 36.1035 29.4511 36.1125C29.0319 36.1169 28.8289 35.9318 28.8379 35.5126C28.8423 35.3275 28.8379 35.1424 28.8379 34.955C28.8312 33.4341 28.0149 32.6134 26.5074 32.6112C25.5618 32.6112 24.614 32.6335 23.6684 32.5955C23.4052 32.5844 23.0908 32.4617 22.8968 32.2833C22.201 31.6433 21.5342 30.9698 20.8897 30.2784C20.7202 30.0978 20.5997 29.8079 20.5819 29.5603C20.5395 28.9515 20.5819 28.336 20.5641 27.7249C20.5529 27.2945 20.7313 27.1273 21.1595 27.134C22.143 27.1518 23.1265 27.1295 24.11 27.1429C24.7456 27.1496 25.3053 26.9734 25.8182 26.5898C27.5555 25.2919 29.2995 24.0006 31.0479 22.7161C31.7259 22.2187 32.0872 21.5765 32.0515 20.7245C32.0403 20.4658 32.0515 20.2049 32.0515 19.9462C32.0403 18.6394 31.2129 17.7607 29.9083 17.7629C28.4052 17.7629 28.6104 17.6782 28.6081 16.3936C28.6037 14.0899 28.7888 14.1144 26.7884 12.5712C26.5386 12.3794 26.2977 12.1742 26.0546 11.9735C26.0279 11.9512 26.0145 11.9133 25.9431 11.804C26.9177 11.4494 27.8744 11.1015 28.8646 10.7402C29.4578 11.9088 30.2874 12.812 31.3311 13.5234C31.4181 13.5837 31.485 13.684 31.5452 13.7777C32.522 15.3254 33.7464 15.845 35.6576 15.4659V16.1795C35.6576 22.3771 35.6799 28.5746 35.6398 34.7699C35.6308 36.1816 35.9609 37.3636 37.0849 38.2646C37.1696 38.3315 37.2365 38.4229 37.4038 38.6035L37.4016 38.6102Z" fill="#2E6695"/>
<path d="M47.4643 46.1667C46.4162 45.1252 45.3948 44.1082 44.3533 43.0735C45.3479 41.8536 46.0772 40.4597 46.4652 38.883C47.8992 33.0445 43.7668 27.0611 37.8101 26.3519C37.645 26.3318 37.3707 26.1378 37.3685 26.0196C37.3373 24.6704 37.3484 23.3212 37.3484 21.9742C41.0616 21.885 46.7083 24.1931 49.545 29.9045C52.3193 35.4932 51.3559 41.9383 47.4666 46.1644L47.4643 46.1667Z" fill="#2E6695"/>
<path d="M37.3819 28.0755C39.815 28.0554 42.761 29.8796 44.137 32.6629C45.6356 35.6981 45.2409 39.5004 43.1201 41.8733C43.0152 41.7863 42.8993 41.7083 42.8011 41.6102C41.1731 39.9866 39.5518 38.3542 37.9171 36.7351C37.5536 36.376 37.3462 35.9746 37.3485 35.4572C37.3529 33.0821 37.3485 30.7093 37.3529 28.3342C37.3529 28.245 37.3752 28.1558 37.3864 28.0732L37.3819 28.0755Z" fill="#2E6695"/>
<path d="M30.6422 10.2498C32.2724 10.0424 33.9004 9.83727 35.6555 9.61426C35.6555 10.3614 35.6511 11.0192 35.6555 11.6749C35.66 12.1878 35.7358 12.7164 35.1939 13.0509C35.1247 13.0933 35.1024 13.2092 35.0489 13.2851C34.8928 13.5014 34.681 13.9184 34.5828 13.8939C34.1033 13.7735 33.4655 13.6597 33.2336 13.3118C32.8344 12.7075 32.3772 12.2257 31.8242 11.7775C31.3581 11.4006 30.9767 10.9189 30.5574 10.484C30.5842 10.406 30.6132 10.3279 30.6399 10.2521L30.6422 10.2498Z" fill="#2E6695"/>
</g>
<defs>
<clipPath id="clip0_1246_1830">
<rect width="57" height="57.0022" fill="white" transform="translate(8 8)"/>
</clipPath>
</defs>
</svg>
