<svg width="18" height="22" viewBox="0 0 18 22" fill="none" xmlns="http://www.w3.org/2000/svg">
<g clip-path="url(#clip0_59_2733)">
<path d="M0.957419 12.6495C1.18784 12.7415 1.41916 12.8318 1.65048 12.9226L3.11056 13.4965C5.26055 14.3418 7.48358 15.2162 9.67144 16.0735C9.772 16.1129 9.9208 16.157 10.0818 16.157C10.0998 16.157 10.1183 16.1565 10.1363 16.1552C10.5201 16.1304 10.7861 15.9109 10.9259 15.5017C11.688 13.277 12.4518 11.0531 13.2157 8.82876C13.5602 7.82553 13.9047 6.8223 14.2492 5.81864C14.2875 5.70736 14.3294 5.59309 14.3705 5.48224C14.4737 5.20233 14.5806 4.91257 14.6478 4.6104C14.9305 3.3401 14.1928 2.0591 12.8937 1.56434C12.0234 1.23306 11.1428 0.883818 10.291 0.546127C10.0331 0.443835 9.77515 0.341543 9.51723 0.239679C9.14657 0.0937317 8.77862 0.015408 8.39218 0.000855998L8.36558 0L8.33943 0.00299599C8.28577 0.00941598 8.23166 0.014552 8.178 0.0201159C8.04768 0.0329559 7.91286 0.0457959 7.77487 0.0757558C6.90821 0.261507 6.29045 0.686082 5.93828 1.33707C4.53637 3.93117 3.12228 6.57449 1.7551 9.13007C1.33709 9.9116 0.919091 10.6931 0.500638 11.4746C0.378889 11.7023 0.357696 11.9459 0.440665 12.1607C0.524086 12.3764 0.70761 12.5502 0.957419 12.6499V12.6495ZM2.45312 11.4584L3.03571 10.3704C3.41268 9.66678 3.78965 8.96358 4.16707 8.26038C5.22763 6.28302 6.32427 4.23847 7.3934 2.2226C7.70633 1.63239 8.43682 1.5913 8.83138 1.74923C9.82926 2.14855 10.9191 2.57698 12.2615 3.09786C12.9284 3.35679 13.0506 4.02191 12.923 4.38956C12.0559 6.88907 11.1834 9.43267 10.3397 11.8928C10.0714 12.6756 9.80266 13.4584 9.53391 14.2412L2.45312 11.4584Z" fill="#365073"/>
<path d="M4.42084 20.0231C4.54214 20.071 4.66434 20.0941 4.78248 20.0941C5.11255 20.0941 5.41286 19.9148 5.57519 19.5959C5.96208 18.8367 6.5812 18.288 7.41585 17.9644C7.87894 17.7846 8.37586 17.7076 8.89396 17.7341C9.14197 17.7474 9.37645 17.6712 9.55276 17.5206C9.72185 17.3763 9.82105 17.1765 9.83278 16.9577C9.8445 16.7343 9.76514 16.5216 9.60867 16.3585C9.4522 16.1959 9.23576 16.1009 8.99948 16.0915C7.40548 16.0286 6.03919 16.5409 4.9394 17.6156C4.76534 17.7859 4.61158 17.9734 4.46323 18.1544C4.44248 18.1797 4.42174 18.2054 4.40055 18.231L4.3514 18.2118C3.94467 18.0521 3.52576 17.8874 3.11002 17.7213C3.21463 17.1854 3.22635 16.65 3.14519 16.1279C2.95941 14.932 2.38449 13.9168 1.43575 13.1105C1.22697 12.9333 0.962285 12.8665 0.689478 12.923C0.353092 12.9928 0.119516 13.2008 0.0315864 13.5094C-0.0297387 13.7246 -0.0310915 14.0474 0.311157 14.3628C1.39923 15.3652 1.71307 16.5208 1.27071 17.8968C1.11515 18.3804 1.29551 18.7699 1.76357 18.9728C1.72885 18.9659 1.69323 18.9608 1.6567 18.9578C1.25268 18.9287 0.899607 19.1482 0.75892 19.5185C0.599745 19.9375 0.444629 20.3518 0.261105 20.8453C0.150178 21.1436 0.18039 21.4303 0.345877 21.6525C0.512718 21.8763 0.790033 22 1.12687 22C1.4822 22 1.83752 22.0004 2.1933 22.0004C2.71997 22.0004 3.24664 22.0004 3.77332 21.9996C3.85133 21.9996 3.91716 21.9949 3.97939 21.9846C4.43256 21.9123 4.73693 21.5438 4.70312 21.1089C4.6702 20.6878 4.30495 20.3633 3.85358 20.3543C3.73274 20.3518 3.61189 20.3526 3.4951 20.3531C3.4446 20.3531 3.39409 20.3535 3.34314 20.3535H2.28664C2.32226 20.2576 2.35653 20.1626 2.38809 20.065C2.42146 19.9623 2.45663 19.8069 2.43273 19.6481C2.39846 19.417 2.26499 19.221 2.0747 19.0973C2.45393 19.2471 2.83315 19.3969 3.21237 19.5467C3.61505 19.7055 4.01772 19.8647 4.42039 20.0239L4.42084 20.0231Z" fill="#365073"/>
<path d="M17.6486 20.6989C17.4809 20.4793 17.213 20.3535 16.9127 20.3535C15.6019 20.3526 14.291 20.3531 12.9802 20.3531H11.4282H7.90512C7.71663 20.3531 7.5268 20.3531 7.33741 20.3531C6.87612 20.3531 6.39905 20.3526 5.92964 20.3543C5.50172 20.3561 5.13422 20.6531 5.0747 21.0456C5.01292 21.453 5.25732 21.8344 5.65593 21.9529C5.79481 21.994 5.9355 21.9991 6.02929 21.9991C8.09721 22.0004 10.1651 22.0009 12.233 22.0004H14.3406C14.6644 22.0004 14.9882 22.0004 15.3119 22.0004C15.8354 22.0004 16.359 22.0004 16.8825 22.0004C17.3131 22.0004 17.6432 21.7886 17.7654 21.4338C17.8529 21.1791 17.8105 20.9116 17.649 20.6997L17.6486 20.6989Z" fill="#365073"/>
</g>
<defs>
<clipPath id="clip0_59_2733">
<rect width="17.8095" height="22" fill="white"/>
</clipPath>
</defs>
</svg>
