<svg width="103" height="103" viewBox="0 0 103 103" fill="none" xmlns="http://www.w3.org/2000/svg">
<path d="M51.2304 87.1498C44.1262 87.1498 37.1814 85.0432 31.2744 81.0963C25.3674 77.1493 20.7635 71.5394 18.0448 64.9759C15.3261 58.4124 14.6148 51.1901 16.0008 44.2223C17.3867 37.2546 20.8078 30.8543 25.8313 25.8308C30.8547 20.8073 37.2551 17.3862 44.2228 16.0003C51.1906 14.6143 58.4129 15.3256 64.9764 18.0443C71.5399 20.763 77.1498 25.3669 81.0967 31.2739C85.0437 37.1809 87.1503 44.1257 87.1503 51.23C87.1396 60.7532 83.3517 69.8833 76.6178 76.6173C69.8838 83.3512 60.7537 87.1391 51.2304 87.1498ZM51.2304 19.3914C44.9285 19.3914 38.7681 21.2604 33.5285 24.762C28.2889 28.2636 24.2055 33.2405 21.7948 39.0631C19.3841 44.8857 18.7543 51.2925 19.9853 57.4731C21.2162 63.6537 24.2525 69.3303 28.71 73.7851C33.1676 78.2398 38.8462 81.2724 45.0276 82.4994C51.2089 83.7264 57.6153 83.0926 63.4364 80.6782C69.2575 78.2637 74.2317 74.1771 77.73 68.9353C81.2282 63.6935 83.0933 57.5319 83.0893 51.23C83.0785 42.7838 79.7186 34.6866 73.7462 28.7142C67.7738 22.7419 59.6766 19.3819 51.2304 19.3711V19.3914Z" fill="#65B4E1"/>
<path d="M39.4127 72.5509C39.1996 72.5509 38.992 72.4839 38.8191 72.3593C38.6462 72.2347 38.5169 72.0589 38.4496 71.8567C38.3822 71.6546 38.3801 71.4364 38.4436 71.233C38.5072 71.0296 38.6331 70.8513 38.8036 70.7235C42.4742 68.2555 46.8074 66.9598 51.2303 67.0076C55.6107 67.1203 59.8836 68.3882 63.6165 70.6829C63.8427 70.831 64.0008 71.0628 64.056 71.3275C64.1112 71.5921 64.059 71.8679 63.9109 72.0941C63.7628 72.3203 63.531 72.4783 63.2663 72.5336C63.0017 72.5888 62.7259 72.5366 62.4997 72.3885C59.0931 70.323 55.2121 69.1692 51.2303 69.0381C47.2483 69.0033 43.3462 70.1556 40.0219 72.3479C39.8461 72.4797 39.6324 72.5509 39.4127 72.5509Z" fill="#65B4E1"/>
<path d="M76.3479 64.245C76.3479 65.2924 75.9318 66.297 75.1912 67.0376C74.4506 67.7783 73.446 68.1943 72.3986 68.1943C71.3511 68.1943 70.3466 67.7783 69.606 67.0376C68.8653 66.297 68.4492 65.2924 68.4492 64.245C68.4492 62.0723 72.1448 57.3818 72.3884 57.3818C72.6321 57.3818 76.3479 62.052 76.3479 64.245Z" fill="#65B4E1"/>
<path d="M28.3055 46.9257C28.0362 46.958 27.7652 46.882 27.5519 46.7145C27.3387 46.5469 27.2007 46.3015 27.1684 46.0322C27.1361 45.763 27.2121 45.4919 27.3796 45.2787C27.5472 45.0654 27.7926 44.9275 28.0618 44.8952C31.5217 43.87 34.5836 41.8075 36.8337 38.9863C36.9053 38.863 37.0022 38.7561 37.1179 38.6727C37.2337 38.5892 37.3657 38.5311 37.5054 38.5021C37.6451 38.4731 37.7893 38.4739 37.9287 38.5044C38.068 38.5349 38.1994 38.5945 38.3142 38.6791C38.4291 38.7638 38.5247 38.8717 38.5951 38.9959C38.6654 39.12 38.7087 39.2576 38.7223 39.3996C38.7359 39.5416 38.7194 39.6849 38.6738 39.8201C38.6283 39.9554 38.5548 40.0795 38.4581 40.1844C35.9408 43.3988 32.4731 45.7366 28.5492 46.8648L28.3055 46.9257Z" fill="#65B4E1"/>
<path d="M74.1548 46.9248H73.9111C69.9872 45.7967 66.5195 43.4588 64.0022 40.2444C63.9055 40.1395 63.832 40.0154 63.7865 39.8802C63.7409 39.745 63.7244 39.6017 63.738 39.4597C63.7516 39.3177 63.7949 39.1801 63.8652 39.0559C63.9356 38.9318 64.0312 38.8239 64.1461 38.7392C64.2609 38.6545 64.3923 38.595 64.5316 38.5645C64.671 38.534 64.8152 38.5332 64.9549 38.5622C65.0946 38.5912 65.2266 38.6493 65.3424 38.7327C65.4581 38.8161 65.555 38.923 65.6266 39.0464C67.8767 41.8676 70.9385 43.93 74.3984 44.9552C74.6677 44.9875 74.9131 45.1255 75.0807 45.3387C75.2482 45.552 75.3242 45.823 75.2919 46.0923C75.2596 46.3616 75.1216 46.607 74.9084 46.7745C74.6951 46.9421 74.424 47.018 74.1548 46.9857V46.9248Z" fill="#65B4E1"/>
<path d="M34.0116 56.9555C35.1554 56.9555 36.0827 55.3645 36.0827 53.402C36.0827 51.4395 35.1554 49.8486 34.0116 49.8486C32.8677 49.8486 31.9404 51.4395 31.9404 53.402C31.9404 55.3645 32.8677 56.9555 34.0116 56.9555Z" fill="#65B4E1"/>
<path d="M68.4491 56.9555C69.5929 56.9555 70.5202 55.3645 70.5202 53.402C70.5202 51.4395 69.5929 49.8486 68.4491 49.8486C67.3052 49.8486 66.3779 51.4395 66.3779 53.402C66.3779 55.3645 67.3052 56.9555 68.4491 56.9555Z" fill="#65B4E1"/>
</svg>
