<svg width="24" height="25" viewBox="0 0 24 25" fill="none" xmlns="http://www.w3.org/2000/svg">
<path d="M11 14.7969C11 14.7188 11.025 14.6469 11.0344 14.5719C10.9563 14.5687 10.8813 14.5469 10.8 14.5469H10.2781C9.58437 14.8656 8.8125 15.0469 8 15.0469C7.1875 15.0469 6.41875 14.8656 5.72188 14.5469H5.2C2.88125 14.5469 1 16.4281 1 18.7469V20.0469C1 20.875 1.67188 21.5469 2.5 21.5469H13.5C13.7125 21.5469 13.9156 21.5 14.1 21.4219C12.4125 20.0813 11 17.775 11 14.7969Z" fill="#D1A100"/>
<circle cx="17.5" cy="15.0469" r="5.5" fill="#D1A100"/>
<path d="M8 12.5469C10.2094 12.5469 12 10.7562 12 8.54688C12 6.3375 10.2094 4.54688 8 4.54688C5.79063 4.54688 4 6.3375 4 8.54688C4 10.7562 5.79063 12.5469 8 12.5469Z" fill="#D1A100"/>
</svg>
