<svg width="41" height="41" viewBox="0 0 41 41" fill="none" xmlns="http://www.w3.org/2000/svg">
<path d="M15.3431 32.3921H8.5237C8.07154 32.3921 7.63791 32.2125 7.31819 31.8928C6.99847 31.5731 6.81885 31.1394 6.81885 30.6873V15.5726C6.81885 15.426 6.87708 15.2854 6.98074 15.1818L16.886 5.27645C16.9897 5.1728 17.1303 5.11456 17.2769 5.11456H27.277C27.7292 5.11456 28.1628 5.29418 28.4825 5.6139C28.8023 5.93362 28.9819 6.36726 28.9819 6.81941V15.3437" stroke="white" stroke-linecap="round" stroke-linejoin="round"/>
<path d="M17.0479 15.3437V5.11456L6.81885 15.3437H17.0479Z" stroke="white" stroke-linecap="round" stroke-linejoin="round"/>
<path d="M33.6688 21.7158L30.8909 18.9379C30.52 18.5743 30.0213 18.3707 29.5019 18.3707C28.9826 18.3707 28.4839 18.5743 28.113 18.9379L18.6943 28.3566C18.487 28.5639 18.3705 28.8451 18.3705 29.1383V33.1308C18.3705 33.7413 18.8654 34.2362 19.4759 34.2362H23.4684C23.7616 34.2362 24.0428 34.1197 24.2501 33.9124L33.6688 24.4937C34.0324 24.1228 34.236 23.6241 34.236 23.1047C34.236 22.5854 34.0324 22.0867 33.6688 21.7158ZM33.6688 21.7158L-nan -nanL-nan -nanL33.6688 21.7158Z" stroke="white" stroke-linecap="round" stroke-linejoin="round"/>
</svg>
