<svg width="42" height="42" viewBox="0 0 42 42" fill="none" xmlns="http://www.w3.org/2000/svg">
<path d="M15.4058 32.5245H8.55856C8.10456 32.5245 7.66915 32.3442 7.34812 32.0232C7.02709 31.7021 6.84674 31.2667 6.84674 30.8127V15.7537C6.84674 15.5313 6.93508 15.318 7.09231 15.1608L16.8721 5.38103C17.0293 5.22379 17.2426 5.13545 17.4649 5.13545H27.3886C27.8426 5.13545 28.278 5.3158 28.599 5.63683C28.92 5.95786 29.1004 6.39327 29.1004 6.84727V15.4064" stroke="white" stroke-width="1.51692" stroke-linecap="round" stroke-linejoin="round"/>
<path d="M17.1176 15.4064V5.13545L6.84674 15.4064H17.1176Z" stroke="white" stroke-width="1.51692" stroke-linecap="round" stroke-linejoin="round"/>
<path d="M25.5978 32.7274C25.9437 32.5465 26.3563 32.5465 26.7021 32.7274L29.8219 34.3593C30.6962 34.8166 31.7156 34.0736 31.548 33.1013L30.9455 29.6071C30.8798 29.2256 31.0034 28.836 31.2771 28.5623L33.6273 26.2121C34.3207 25.5187 33.9262 24.3313 32.9557 24.1908L29.479 23.6872C29.0751 23.6287 28.7293 23.3676 28.5625 22.9951L27.186 19.9209C26.7738 19.0004 25.4756 18.9766 25.03 19.8815L23.5234 22.9412C23.3499 23.2934 23.014 23.5376 22.6254 23.5939L19.1209 24.1014C18.1504 24.242 17.7559 25.4294 18.4493 26.1228L20.8183 28.4917C21.0814 28.7549 21.2065 29.1259 21.1563 29.4947L20.6534 33.1913C20.523 34.1497 21.5288 34.8558 22.3859 34.4075L25.5978 32.7274Z" stroke="white" stroke-width="1.51692" stroke-linecap="round" stroke-linejoin="round"/>
</svg>
