<svg width="49" height="49" viewBox="0 0 49 49" fill="none" xmlns="http://www.w3.org/2000/svg">
<path d="M18.3743 38.7917H10.2077C9.6662 38.7917 9.14689 38.5766 8.76401 38.1937C8.38112 37.8108 8.16602 37.2915 8.16602 36.75V18.7892C8.16602 18.524 8.27137 18.2696 8.45891 18.0821L20.1231 6.41789C20.3107 6.23036 20.565 6.125 20.8302 6.125H32.666C33.2075 6.125 33.7268 6.3401 34.1097 6.72299C34.4926 7.10588 34.7077 7.62518 34.7077 8.16667V18.375" stroke="#262C51" stroke-width="1.5" stroke-linecap="round" stroke-linejoin="round"/>
<path d="M20.416 18.375V6.125L8.16602 18.375H20.416Z" stroke="#262C51" stroke-width="1.5" stroke-linecap="round" stroke-linejoin="round"/>
<path d="M30.5305 39.0338C30.943 38.8181 31.4351 38.8181 31.8476 39.0338L35.5685 40.9801C36.6113 41.5256 37.8272 40.6395 37.6272 39.4797L36.9087 35.3122C36.8302 34.8573 36.9777 34.3926 37.3042 34.0661L40.1072 31.2631C40.9342 30.4361 40.4636 29.0199 39.3062 28.8523L35.1596 28.2517C34.6779 28.182 34.2654 27.8705 34.0665 27.4262L32.4247 23.7597C31.9331 22.6617 30.3847 22.6334 29.8533 23.7126L28.0563 27.3619C27.8494 27.782 27.4488 28.0732 26.9853 28.1404L22.8056 28.7457C21.6481 28.9133 21.1775 30.3295 22.0045 31.1565L24.83 33.982C25.1438 34.2959 25.293 34.7384 25.2331 35.1782L24.6333 39.5871C24.4778 40.7302 25.6775 41.5724 26.6997 41.0376L30.5305 39.0338Z" stroke="black" stroke-width="1.5" stroke-linecap="round" stroke-linejoin="round"/>
</svg>
