<svg width="37" height="37" viewBox="0 0 37 37" fill="none" xmlns="http://www.w3.org/2000/svg">
<path d="M13.8431 29.2255H7.6904C7.28245 29.2255 6.89121 29.0634 6.60275 28.7749C6.31428 28.4865 6.15222 28.0952 6.15222 27.6873V14.0726C6.15222 13.926 6.21046 13.7854 6.31411 13.6817L15.2194 4.77644C15.3231 4.67278 15.4637 4.61455 15.6103 4.61455H24.6104C25.0184 4.61455 25.4096 4.77661 25.6981 5.06507C25.9865 5.35354 26.1486 5.74478 26.1486 6.15273V13.8436" stroke="white" stroke-linecap="round" stroke-linejoin="round"/>
<path d="M15.3813 13.8436V4.61455L6.15222 13.8436H15.3813Z" stroke="white" stroke-linecap="round" stroke-linejoin="round"/>
<mask id="path-3-inside-1_1423_1033" fill="white">
<path d="M28.913 31.96C28.913 30.9968 28.1321 30.2159 27.1689 30.2159H17.5766C16.6133 30.2159 15.8325 30.9968 15.8325 31.96V31.96C15.8325 32.2008 16.0277 32.396 16.2685 32.396H28.4769C28.7178 32.396 28.913 32.2008 28.913 31.96V31.96Z"/>
</mask>
<path d="M28.913 31.96C28.913 30.9968 28.1321 30.2159 27.1689 30.2159H17.5766C16.6133 30.2159 15.8325 30.9968 15.8325 31.96V31.96C15.8325 32.2008 16.0277 32.396 16.2685 32.396H28.4769C28.7178 32.396 28.913 32.2008 28.913 31.96V31.96Z" stroke="white" stroke-width="2" mask="url(#path-3-inside-1_1423_1033)"/>
<path d="M27.4607 30.1686C27.4607 28.9908 26.5059 28.036 25.3281 28.036H19.4195C18.2418 28.036 17.287 28.9908 17.287 30.1686V30.4096C17.287 30.7041 17.5257 30.9428 17.8201 30.9428H26.9276C27.222 30.9428 27.4607 30.7041 27.4607 30.4096V30.1686Z" stroke="white"/>
<mask id="path-5-inside-2_1423_1033" fill="white">
<path d="M26.815 21.3506C26.6068 21.1424 26.2692 21.1424 26.061 21.3506L25.2665 22.1451C25.0583 22.3533 25.0583 22.6909 25.2665 22.8991L32.3244 29.957C32.5326 30.1652 32.8701 30.1652 33.0783 29.957L33.8729 29.1624C34.0811 28.9542 34.0811 28.6166 33.8729 28.4084L26.815 21.3506Z"/>
</mask>
<path d="M26.815 21.3506C26.6068 21.1424 26.2692 21.1424 26.061 21.3506L25.2665 22.1451C25.0583 22.3533 25.0583 22.6909 25.2665 22.8991L32.3244 29.957C32.5326 30.1652 32.8701 30.1652 33.0783 29.957L33.8729 29.1624C34.0811 28.9542 34.0811 28.6166 33.8729 28.4084L26.815 21.3506Z" stroke="white" stroke-width="2" mask="url(#path-5-inside-2_1423_1033)"/>
<mask id="path-6-inside-3_1423_1033" fill="white">
<rect width="4.17728" height="5.58811" rx="0.533137" transform="matrix(-0.707107 -0.707107 -0.707107 0.707107 27.8698 20.0213)"/>
</mask>
<rect width="4.17728" height="5.58811" rx="0.533137" transform="matrix(-0.707107 -0.707107 -0.707107 0.707107 27.8698 20.0213)" stroke="white" stroke-width="2" mask="url(#path-6-inside-3_1423_1033)"/>
<rect x="0.707107" width="6.17914" height="2.05679" rx="1.02839" transform="matrix(-0.707107 -0.707107 -0.707107 0.707107 25.2421 24.723)" stroke="white"/>
<rect x="0.707107" width="6.17914" height="2.1725" rx="1.03314" transform="matrix(-0.707107 -0.707107 -0.707107 0.707107 30.1201 19.8442)" stroke="white"/>
</svg>
