<svg width="24" height="25" viewBox="0 0 24 25" fill="none" xmlns="http://www.w3.org/2000/svg">
<path d="M15.5954 22.5598H11.1436C11.0174 22.5598 10.8965 22.6099 10.8073 22.6991C10.7181 22.7883 10.668 22.9093 10.668 23.0354C10.668 23.1616 10.7181 23.2826 10.8073 23.3718C10.8965 23.461 11.0174 23.5111 11.1436 23.5111H15.6002C15.7263 23.5111 15.8473 23.461 15.9365 23.3718C16.0257 23.2826 16.0758 23.1616 16.0758 23.0354C16.0758 22.9093 16.0257 22.7883 15.9365 22.6991C15.8473 22.6099 15.7263 22.5598 15.6002 22.5598H15.5954Z" fill="#2E6695"/>
<path d="M14.1262 8.40048C14.1766 8.42301 14.234 8.42465 14.2857 8.40504C14.3374 8.38544 14.3792 8.34618 14.402 8.29584C14.5634 7.93021 14.631 7.53009 14.5987 7.13174C14.5664 6.73338 14.4351 6.34939 14.2169 6.01456C13.9987 5.67973 13.7004 5.40464 13.349 5.21422C12.9976 5.0238 12.6043 4.92407 12.2046 4.92407C11.805 4.92407 11.4116 5.0238 11.0603 5.21422C10.7089 5.40464 10.4106 5.67973 10.1923 6.01456C9.97413 6.34939 9.84292 6.73338 9.8106 7.13174C9.77828 7.53009 9.84587 7.93021 10.0073 8.29584C10.0157 8.32429 10.0301 8.35062 10.0495 8.37309C10.0688 8.39555 10.0928 8.41364 10.1197 8.42615C10.1466 8.43865 10.1759 8.4453 10.2055 8.44563C10.2352 8.44597 10.2646 8.43999 10.2918 8.4281C10.319 8.41621 10.3433 8.39867 10.3632 8.37665C10.3831 8.35463 10.3981 8.32863 10.4071 8.30038C10.4162 8.27213 10.4192 8.24227 10.4158 8.21279C10.4125 8.18331 10.4029 8.15487 10.3878 8.12937C10.2533 7.82668 10.1966 7.49519 10.2228 7.16502C10.2489 6.83484 10.3572 6.51644 10.5377 6.23873C10.7182 5.96102 10.9652 5.73282 11.2563 5.57483C11.5475 5.41685 11.8734 5.3341 12.2046 5.3341C12.5359 5.3341 12.8618 5.41685 13.1529 5.57483C13.444 5.73282 13.6911 5.96102 13.8716 6.23873C14.0521 6.51644 14.1603 6.83484 14.1865 7.16502C14.2127 7.49519 14.156 7.82668 14.0215 8.12937C14.0005 8.17931 13.9996 8.23548 14.0191 8.28605C14.0386 8.33661 14.077 8.37764 14.1262 8.40048Z" fill="#2E6695"/>
<path d="M9.30835 11.3399C9.40442 11.395 9.51754 11.4125 9.62579 11.389C9.73404 11.3655 9.82972 11.3027 9.89427 11.2127C9.95883 11.1226 9.98766 11.0119 9.97519 10.9018C9.96272 10.7917 9.90984 10.6902 9.82678 10.6169C9.12764 10.1138 8.60608 9.40187 8.33712 8.58358C8.06817 7.76529 8.06566 6.88278 8.32998 6.06298C8.5943 5.24317 9.11181 4.52832 9.8081 4.02124C10.5044 3.51416 11.3435 3.24097 12.2049 3.24097C13.0663 3.24097 13.9054 3.51416 14.6017 4.02124C15.298 4.52832 15.8155 5.24317 16.0798 6.06298C16.3441 6.88278 16.3416 7.76529 16.0727 8.58358C15.8037 9.40187 15.2822 10.1138 14.583 10.6169C14.5314 10.6495 14.487 10.6924 14.4525 10.7428C14.4181 10.7933 14.3944 10.8503 14.3828 10.9103C14.3713 10.9702 14.3721 11.0319 14.3853 11.0916C14.3985 11.1512 14.4238 11.2075 14.4596 11.257C14.4954 11.3065 14.541 11.3481 14.5935 11.3793C14.646 11.4105 14.7044 11.4306 14.765 11.4383C14.8256 11.4461 14.8871 11.4414 14.9458 11.4244C15.0045 11.4075 15.0591 11.3787 15.1062 11.3399C15.9572 10.7263 16.5918 9.85867 16.9187 8.86175C17.2456 7.86484 17.248 6.78995 16.9256 5.79157C16.6032 4.79319 15.9726 3.92273 15.1244 3.30529C14.2762 2.68785 13.254 2.35522 12.2049 2.35522C11.1558 2.35522 10.1336 2.68785 9.28541 3.30529C8.43719 3.92273 7.80657 4.79319 7.48417 5.79157C7.16177 6.78995 7.16421 7.86484 7.49112 8.86175C7.81803 9.85867 8.45259 10.7263 9.30359 11.3399H9.30835Z" fill="#2E6695"/>
<path d="M16.9469 15.3256C16.3286 12.9475 13.1942 12.6003 13.1847 12.4386C13.1276 11.5397 13.023 9.03789 12.9992 7.8631C12.9992 7.54919 12.3381 7.57773 12.048 7.72041C11.0539 8.19604 11.287 9.22814 11.1205 11.2924C10.9636 13.2662 11.2204 15.3732 10.0266 15.2876C9.49388 15.2495 9.45107 13.9321 8.4047 13.2757C8.20163 13.1633 7.97332 13.1043 7.7412 13.1043C7.50908 13.1043 7.28077 13.1633 7.0777 13.2757C7.00996 13.3061 6.95096 13.353 6.90613 13.4122C6.8613 13.4714 6.83209 13.5409 6.8212 13.6144C6.8103 13.6878 6.81806 13.7628 6.84377 13.8325C6.86948 13.9021 6.91231 13.9642 6.96831 14.0129C7.81639 14.7708 8.39833 15.7813 8.62824 16.8952C8.95166 18.2032 9.98852 18.6788 10.6544 20.0581C10.7901 20.4257 10.8656 20.8127 10.8779 21.2044C10.8779 21.3175 10.9222 21.4262 11.0013 21.5071C11.0805 21.588 11.1881 21.6347 11.3012 21.6372C11.3012 21.6372 12.5093 21.6372 13.2418 21.6372H13.3179C14.0456 21.6372 15.5058 21.6372 15.5058 21.6372C15.6177 21.6313 15.7234 21.5835 15.8018 21.5033C15.8802 21.4232 15.9256 21.3164 15.9291 21.2044C16.0045 20.6987 16.1238 20.2006 16.2858 19.7157V19.6871C16.8803 17.8369 17.2561 16.5052 16.9469 15.3256Z" fill="#2E6695"/>
</svg>
