<svg width="43" height="43" viewBox="0 0 43 43" fill="none" xmlns="http://www.w3.org/2000/svg">
<path d="M20.5833 23.417H23.4167C26.0467 23.417 28.5691 24.4618 30.4288 26.3215C32.2885 28.1813 33.3333 30.7036 33.3333 33.3337C33.3333 33.7094 33.1841 34.0697 32.9184 34.3354C32.6527 34.6011 32.2924 34.7503 31.9167 34.7503H12.0833C11.7076 34.7503 11.3473 34.6011 11.0816 34.3354C10.8159 34.0697 10.6667 33.7094 10.6667 33.3337C10.6667 30.7036 11.7115 28.1813 13.5712 26.3215C15.4309 24.4618 17.9533 23.417 20.5833 23.417V23.417Z" stroke="black" stroke-width="1.5" stroke-linecap="round" stroke-linejoin="round"/>
<path d="M22 23.4167C25.912 23.4167 29.0833 20.2454 29.0833 16.3333C29.0833 12.4213 25.912 9.25 22 9.25C18.088 9.25 14.9167 12.4213 14.9167 16.3333C14.9167 20.2454 18.088 23.4167 22 23.4167Z" stroke="black" stroke-width="1.5" stroke-linecap="round" stroke-linejoin="round"/>
</svg>
